/* XPM */
static char *_6fbaac553b74362e663469e7ef5e264UqkBvMLFpI2I60I2[] = {
/* columns rows colors chars-per-pixel */
"80 80 229 2 ",
"   c #F2FFFB",
".  c #F1FFFB",
"X  c #F0FFFB",
"o  c #EFFEFB",
"O  c #EFFFFB",
"+  c #EEFEFB",
"@  c #EDFEFC",
"#  c #ECFEFC",
"$  c #EBFEFC",
"%  c #EAFEFC",
"&  c #EAFDFC",
"*  c #E9FDFC",
"=  c #EDFEFB",
"-  c #EEFFFB",
";  c #E8FDFC",
":  c #E7FDFC",
">  c #ECFEFB",
",  c #E6FDFC",
"<  c #EBFEFB",
"1  c #EBFDFB",
"2  c #EBFDFC",
"3  c #E9FEFC",
"4  c #E5FDFC",
"5  c #E7FCFC",
"6  c #E8FDFD",
"7  c #E4FDFC",
"8  c #E7FDFD",
"9  c #E6FDFD",
"0  c #E4FCFC",
"q  c #E5FCFC",
"w  c #E3FCFC",
"e  c #E2FCFD",
"r  c #E3FCFD",
"t  c #E6FCFC",
"y  c #E1FCFD",
"u  c #E0FBFD",
"i  c #E1FBFD",
"p  c #E4FCFD",
"a  c #E0FCFD",
"s  c #DFFBFD",
"d  c #E5FCFD",
"f  c #E2FBFD",
"g  c #E9FDFB",
"h  c #E8FEFC",
"j  c #DEFBFD",
"k  c #E5FDFD",
"l  c #EAFDFB",
"z  c #E4FDFD",
"x  c #ECFDFB",
"c  c #EAFEFB",
"v  c #EDFFFB",
"b  c #ECFFFB",
"n  c #E1F5F4",
"m  c #DFF0F0",
"M  c #DFF1F0",
"N  c #DFF2F1",
"B  c #E0F3F2",
"V  c #E0F4F3",
"C  c #E1F6F5",
"Z  c #D2E4E4",
"A  c #CFE0E1",
"S  c #CFE1E2",
"D  c #D0E2E3",
"F  c #D1E4E4",
"G  c #D5E8E8",
"H  c #D9EDED",
"J  c #DDF1F1",
"K  c #E0F3F3",
"L  c #E2F5F5",
"P  c #E4F6F5",
"I  c #E4F4F3",
"U  c #E4F4F2",
"Y  c #E6F4F1",
"T  c #EDF7F5",
"R  c #ECF7F3",
"E  c #EEF9F5",
"W  c #F1FDF7",
"Q  c #EEFDF8",
"!  c #EFFEFA",
"~  c #EEFEFA",
"^  c #4C474A",
"/  c #532729",
"(  c #5F2C2B",
")  c #6E3931",
"_  c #9D593F",
"`  c #8E5E44",
"'  c #EBFDFA",
"]  c #E6F8F5",
"[  c #E5F8F6",
"{  c #E3F5F4",
"}  c #E9FBFA",
"|  c #8D563F",
" . c #5D6865",
".. c #455B5C",
"X. c #415658",
"o. c #495C64",
"O. c #50626A",
"+. c #52656D",
"@. c #5A6D74",
"#. c #54676F",
"$. c #485B63",
"%. c #3C3F51",
"&. c #3B394F",
"*. c #565869",
"=. c #57596B",
"-. c #777B8B",
";. c #747888",
":. c #676A7B",
">. c #686A7B",
",. c #3D2023",
"<. c #442324",
"1. c #4D2A27",
"2. c #633D2E",
"3. c #5B392E",
"4. c #29212D",
"5. c #1F1E2D",
"6. c #262638",
"7. c #3C3951",
"8. c #6B6B6E",
"9. c #555155",
"0. c #241A21",
"q. c #251A21",
"w. c #331E21",
"e. c #351E21",
"r. c #271B21",
"t. c #311C21",
"y. c #2A1B21",
"u. c #321E23",
"i. c #211E2C",
"p. c #453649",
"a. c #393349",
"s. c #38344B",
"d. c #D9EBEB",
"f. c #27202D",
"g. c #592B2B",
"h. c #32212D",
"j. c #52292C",
"k. c #3A252C",
"l. c #31212D",
"z. c #753F33",
"x. c #7D4435",
"c. c #724034",
"v. c #2C232D",
"b. c #7A4134",
"n. c #63302C",
"m. c #91523C",
"M. c #8D543D",
"N. c #322730",
"B. c #95553D",
"V. c #67322D",
"C. c #4C3233",
"Z. c #8D503B",
"A. c #533634",
"S. c #844A38",
"D. c #302D41",
"F. c #583F43",
"G. c #8C503B",
"H. c #96563D",
"J. c #743D33",
"K. c #673B33",
"L. c #353349",
"P. c #60474B",
"I. c #98563E",
"U. c #814836",
"Y. c #7D4D3B",
"T. c #632E2C",
"R. c #6F3A31",
"E. c #6A352E",
"W. c #5D3230",
"Q. c #743E33",
"!. c #6C3630",
"~. c #612D2C",
"^. c #232132",
"/. c #38354D",
"(. c #845243",
"). c #2E2635",
"_. c #592B2D",
"`. c #35262D",
"'. c #784A40",
"]. c #724438",
"[. c #5B4249",
"{. c #7F4A39",
"}. c #2E252E",
"|. c #784939",
" X c #572D2D",
".X c #2C202D",
"XX c #2B2B3D",
"oX c #41374D",
"OX c #6B4446",
"+X c #714645",
"@X c #A76E57",
"#X c #443438",
"$X c #212032",
"%X c #35334A",
"&X c #654247",
"*X c #5F3D3F",
"=X c #323045",
"-X c #503D4A",
";X c #694242",
":X c #292230",
">X c #29293A",
",X c #3C3A49",
"<X c #B8B5B4",
"1X c #CCCAC7",
"2X c #DCD5CC",
"3X c #504C55",
"4X c #1F1F2D",
"5X c #252535",
"6X c #A4A1A3",
"7X c #CDCAC7",
"8X c #A29FA0",
"9X c #252334",
"0X c #65636D",
"qX c #B7B4B4",
"wX c #333340",
"eX c #9DA5A9",
"rX c #ADB7B9",
"tX c #E9F6F3",
"yX c #B6BFC1",
"uX c #9EA5A9",
"iX c #E1EDEB",
"pX c #D0DBDA",
"aX c #E8F6F3",
"sX c #A4AEB1",
"dX c #9CA4A9",
"fX c #9EA8AD",
"gX c #A7AFB7",
"hX c #A6AFB8",
"jX c #A5AFB8",
/* pixels */
"                    . . . . . . . X X X X o o o o o o o o o o o X X X X X . . . . . . . . . . . X X X O o o o + + + + + + + + o o o O X X X . . . . .           ",
"                  . . . . . X X X o o o o + + + + + + + + + + + o o o O X X X . . . X X . . . X X X o o + + + @ @ @ @ @ @ @ @ + + + o o X X X X . . .           ",
"                . . . . X X X o o o + + + @ @ @ @ @ # @ @ @ @ @ @ + + o o o X X X . X X X X X X o o + + @ @ # # # # # # # # # # @ @ + + o o X X X . . .         ",
"              . . . . X X X o + + + @ @ # # # # $ $ $ $ $ $ # # # @ @ @ + + o o X O X X X O X o + + @ @ # # $ $ $ $ % % $ $ $ $ # # @ @ + + o X X X . . .       ",
"            . . . . X X o o + + @ # # # $ $ $ & & & & & & & % $ $ $ # # @ @ + + + O O O O + + + + @ # $ $ % & & * * * * * * & & % $ # # @ @ + o O X . . . .     ",
"          . . . . X X o o + @ @ # $ $ & & & * * * * * * * * * & & % $ $ # @ @ + = + O - O + = @ @ # $ % & * * ; ; ; ; ; ; ; * * * & % $ # @ + + o X X . . . .   ",
"          . . . X X o o + @ # # $ & & * * ; ; ; ; ; ; ; ; ; ; ; * * & & $ $ # @ = = = - = + = # $ $ & * * ; ; ; : : : : : : ; ; ; * * & $ # @ @ + o X X . . .   ",
"        . . . X X o + + @ # $ & & * ; ; ; : : : : : : : : : : : ; ; ; * & & $ $ # = > = = > # $ % & * ; ; : : : : : , , , : : : : ; ; * & $ # @ + o o X X . . . ",
"      . . . . X o o + @ # $ & * * ; : : : : , , , , , , , , : : : : : ; * * & % $ $ > < 1 $ % % * ; ; ; : : : , , , , , , , , : : : ; ; * & $ # @ + o X X . . . ",
"      . . . X X o + @ # $ & * ; ; : : : , , , , , , , , , , , , , : : : ; ; ; * % % $ 1 2 $ % * ; ; ; : : , , , , , , , , , , , , : : : ; * & $ # @ + o X X . . ",
"    . . . X X o + @ # $ & * ; ; : : , , , , , , , , , , , , , , , , , : : ; : ; 3 3 * & & & 3 ; ; : , : , , , , , , , , , , , , , , : : ; * & $ # @ + o X X . . ",
"    . . . X X o + @ # $ & * ; : : , , , , , , , , , , , , , , , , , , , : : : ; * 3 * * * * * ; : : , , , , , , , , , , , , , , , , , : : ; * & $ # + o O X . . ",
"    . . . X o + @ # $ & * ; : : , , , , , , , , , , , , , , , , , , , , , : , : ; ; ; ; * * : : : , , , , , , , , 4 4 4 4 4 4 4 4 4 4 , : ; ; & $ # @ + o X . . ",
"  . . . X X o + @ # % * ; : : , , , , , , , , , , , , , , , , , , , , , , , , , : ; ; ; ; ; : : , , , , , , 4 4 4 4 4 4 4 4 4 4 4 4 4 , , : ; * % # @ + o X X . ",
"  . . . X O o + @ $ & * ; : : , , , , , , , , , , , , , , , , , , , , , , , 4 , , : 5 : 6 : : : , , 4 , 4 4 4 4 4 4 4 4 4 4 4 4 4 4 4 4 , , : * & $ @ + o X X . ",
"  . . . X o o + # $ & * ; : , , , , , , , , , , , , , , , , , , , , , , , , 4 , , : 5 : 6 : : : , , 4 4 4 4 4 4 4 4 7 7 7 7 7 7 7 4 4 4 , , : ; * $ @ + o X X . ",
"  . . . X o + @ # $ * ; : : , , , , , , , , , , , , , , , , , , , , , , , , 4 , , : 5 : 8 : 5 , , 4 4 7 4 4 4 7 7 7 7 7 7 7 7 7 7 7 4 4 , , : ; * % @ + o X X . ",
"  . . . X o + @ # $ * ; : , , , , , , , , , , , , , , , , , , , , , , , , , 4 , , : 5 : 8 9 : , 4 4 4 4 4 7 7 7 7 0 0 0 0 0 0 0 0 0 0 4 4 , : ; * % # + o X X . ",
"  . . . X o + @ # $ * ; : , , , , , , , , , , , , , , , , , , , , , , , , , 4 , , : 5 : 8 : : q 4 4 4 4 4 7 7 0 0 0 0 w w w w w w 0 0 0 4 , , : * % # = o X X . ",
"  . . . X o + @ # $ * ; : : , , , , , , , , , , , , , , , , , , , , , , , , 4 , , : 5 : 8 : , , 4 4 7 7 4 0 0 w w w w e e e e e w w w w 0 q , : ; % # = + X X . ",
"  . . . X o + @ # $ * ; : : , , , , , , , , , , , , , , , , , , , , , , , , 4 , , : 5 : 6 : , , 4 4 7 7 0 0 w e e e e e e e e e e r r r 0 q t ; ; % # = + O X . ",
"  . . . X o + @ # $ * ; : : , , , , , , , , , , , , , , , , , , , , , , , , , , , : : ; : : : , 4 4 0 w w w e r e e y y y y y y y e e r r 0 t : * % # = + O X . ",
"  . . . X o o @ # $ & * ; : , , , , , , , , , , , , , , , , , , , , , , , , , : : ; ; ; : : : , , 0 0 0 w r e e y y u u u u u i i y y e r p q , ; % $ = + O X . ",
"  . . . X X o + # $ & * ; : : , , , , , , , , , , , , , , , , , , , , , , : , : ; ; ; ; ; ; : , , 0 w 0 r e e y a u u u u u u u u i y e r p q , ; % # = + O X . ",
"    . . . X o + @ # % * ; : : , , , , , , , , , , , , , , , , , , , , , , : : : ; 3 * ; ; ; : , q 0 r r e y y i u u s s s s s s s u u i e r d : ; & # = + O X . ",
"    . . . X o + @ # $ & * ; : : , , , , , , , , , , , , , , , , , , , , : : : ; * 3 ; ; ; : : t q 0 r e y y i u u s s s s s s s s s s u f r p 9 ; & > = + O X X ",
"    . . . X o o @ # $ & * ; : : , , , , , , , , , , , , , , , , , , , : : ; ; * 3 % * g * h : t 0 r r e y i u s s s s s s j j s s s s i e r k 9 ; & 1 = - O X X ",
"    . . . X X o + @ # $ & ; : , 4 4 4 4 4 4 4 4 , , , , , , , , , , : : ; * ; % $ $ l l * h , , 0 p r e i u s s s s s j j j j j j s s u y r z 9 6 & x = - X X X ",
"    . . . X X o + @ $ % * ; : , , 4 4 4 4 4 4 4 4 4 4 4 , , , , : : : ; * * 3 % % % l l 3 h : q p r e y i s s s s s j j j j j j j s s u y r z 9 ; & x = - X X X ",
"      . . . X X + = # $ % ; ; : , , 4 4 4 4 4 4 4 4 4 4 4 4 4 : : : ; * & % % $ $ < 1 < 3 ; : q p r e i u s s s s j j j j j j j j j s a e r k 8 ; l x - - X X X ",
"      . . . O O + = # $ % ; : , , 4 4 7 7 7 7 7 7 4 4 4 4 , , , : ; * * % $ $ # > > 1 < 3 ; : 4 p e i u s s s j j j j j j j j j j s s y e p k 8 * 1 > - - X X X ",
"      . . X X O O + > $ % 3 ; : , , 4 4 4 7 7 7 7 7 7 4 , , , : : ; * $ $ # # = < > > c % ; : k p e i u s s s j j j j j j j j j j s a y e p 9 : * 1 = - O X X . ",
"        X X X X O = = > $ * ; 5 t q q 0 0 0 0 0 0 4 4 4 , , : ; ; * % $ # @ = + = v > < % ; : k p e i u s s s j j j j j j j j j j a a y r p 9 ; * 1 = - O X X . ",
"      . . X X O - - > 1 1 * ; : t t q 0 0 0 0 0 0 q q q , : : ; 3 % $ # # = + + - v = < % * ; 9 p r i u s s j j j j j j j j j j s a y e r k : ; & < = O O X . . ",
"    . . . . O O + = = 1 & ; ; : 9 9 d d p p p p q q q q 5 5 : 3 % % # = = + O O - - = > $ & ; : p r f i s s s j j j j j j j j s a y y r p , ; * 1 = v O O X .   ",
"    . . . X O + + = # & & ; ; 8 9 9 k z p p p p p d d k : : ; * & $ > > + O - O O - + > # & * : k r e i u s s j j j j j j j s a y y r p 9 : * & < = O O X . .   ",
"  . . . X X X + = = $ % % ; : : 9 k p p p z z z z k k 9 8 : ; * 1 1 = = - O O O - - - + > & & ; 9 p r e i u s s s j j s s s a y y e r d , ; & 1 > = O O X . .   ",
". . . . X X o + @ # $ % 3 ; : 5 q q p p p p p p p p 9 9 9 8 ; * 2 1 > = - O O O - X O + > < & ; 9 k r e e i u s s s s s s a y y r p d 9 ; & 1 > = O O X X .     ",
". . . X X o o + # $ % * * : : , q q 0 0 0 0 q q p q q t , : ; * $ # > = + O X O X O O O = > 2 & ; 9 k r e y i u u u u a y y y r p k 9 ; ; & < = = O O X . .     ",
". . . X X o + @ # % % * ; : , , 4 4 q q q q q 0 q q q t t : ; 3 % $ # = + O O X X O O O + = > & * 8 9 k p r e y y y y e e e r p k 9 ; ; & < = = O O X X . .     ",
". . X X o + @ # $ $ * ; : , , , 4 4 4 4 4 0 0 0 0 q , , , : ; * % $ # = + o X X X X O O O = = 2 & ; 8 8 k z p r r r r r r p z 9 : ; * & 1 = = O O X X . .       ",
". . X X o + @ # $ & * ; : , , 4 4 4 4 4 4 4 4 4 4 4 4 4 , : ; ; * % $ @ + o X X X X O O O O = > 1 & * 6 8 9 9 k k k k k k k 8 : * * 1 1 = = O O O X . .         ",
". . X o o + # $ & * ; : : , 4 4 4 4 4 4 4 4 4 4 4 4 4 , , , : ; ; % $ # @ + o X X X X X O O O = > 1 & * * 6 8 k k k 9 9 9 , ; ; * l l > = O O X X X .           ",
". X X o + @ # $ & * ; : : , , , 4 4 4 4 4 4 4 4 4 4 4 4 , , , ; * & $ # @ + o X X X X O X O O + = = 1 2 & ; ; : : : : : ; ; * l l < > > - - O X X . .           ",
". X X o + @ # $ * * ; : , , , , , , , 4 4 4 4 4 4 4 4 4 , , : : ; * & $ @ + o O X . X X X X O O - = > > 1 l l * * * g g l g 1 < > > v - - O O O . .             ",
". X o o + @ $ & * ; : : , , , , , , , , , , , , , , , , , , : : ; * & $ # + o o X . . X . X X X O - v > > > 1 l l l l l l c < b b b v - O O O X X . .           ",
"X X o + @ # $ & * ; : : , , , , , , , , , , , , , , , , , , , : ; * & $ # @ + o X . . . . . X X O - - - v b > > > > > < < < < < b - - - - O X . . . . .         ",
"X X o + @ # $ * n m M M M N N B B B V V V n n C C Z A S D F G H J K L P I U Y T R R E E W Q ! ~ O O O - v v > < < < < c < > > = = = = = O O X X . . . . .       ",
"X X o + @ # $ * ^ / ( ( ( ( ( ( ( ( ( ( ( ( ( ( ( ( ( ( ( ( ( ( ( ( ( ( ( ( ) _ _ _ _ _ _ _ _ ` O - - - v = = > ' ' ] [ { } $ $ > > = = o o o X X X . . . . .   ",
"X X o + @ $ % * ^ / ( ( ( ( ( ( ( ( ( ( ( ( ( ( ( ( ( ( ( ( ( ( ( ( ( ( ( ( ) _ _ _ _ _ _ _ _ |  ...X.o.O.+.@.#.$.%.&.*.=.-.;.:.:.>.>.>.+ + + o o X X . . . .   ",
"X o + + @ $ & * ^ ,.<.<.<.<.<.<.<.<.<.<.<.<.<.<.<.<.<.<.<.<.<.<.<.<.<.<.<.<.1.2.2.2.2.2.2.2.2.3.4.5.6.7.7.7.7.7.7.7.7.7.7.7.7.7.7.7.7.7.# @ + + o o X X X . . . ",
"X o + + # $ & * 8.9.9.9.9.9.9.9.9.9.9.9.0.0.0.q.w.e.e.e.e.r.0.0.0.t.e.e.e.e.t.0.0.0.y.e.e.e.e.u.i.5.6.7.p.p.p.p.p.p.p.p.p.p.p.p.p.a.s.7.# # @ @ + + o X X . . . ",
"X o + + # $ & * d.: , , , , , , , , , , 5.5.5.f.g.( ( ( ( h.5.5.5.j.( ( ( ( j.5.5.5.k.( ( ( ( g.f.5.6.7.( ( ( ( ( ( ( ( ( ( ( ( ( l.6.7.% $ # # @ + + o X X . . ",
"X o + + # $ & * ; : , , , , , , , , , , 5.5.5.f.g.( ( ( ( h.5.5.5.j.( ( ( ( j.5.5.5.k.( ( ( ( g.f.5.6.7.( ( ( ( ( ( ( ( ( ( ( ( ( l.6.7.* & $ $ # @ + + o X X . ",
"X o + + @ $ & * ; : , , , , , , , , , , 5.5.5.f.g.( ( ( ( h.5.5.5.j.( ( ( ( j.5.5.5.k.( ( z.x.c.v.5.6.7.x.x.x.x.x.x.x.x.x.x.x.b.n.l.6.7.; * & % $ # @ + + o X X ",
"X X + + @ $ & * ; : : , , , , , , , , , 5.5.5.f.g.( ( ( ( h.5.5.5.j.( ( ( ( j.5.5.5.k.( ) m._ M.N.5.6.7._ _ _ _ _ _ _ _ _ _ _ B.V.l.6.7.; ; * * & $ # @ + o O X ",
"X X o + @ # % * ; : : , , , , , , , , , 5.5.5.f.g.( ( ( ( h.5.5.5.j.( ( ( ( j.5.5.5.k.( _ _ _ M.N.5.6.7._ _ _ _ _ _ _ _ _ _ _ B.V.l.6.7.: : ; * & % # # @ + o X ",
"X X o + @ # $ & * ; : : , , , , , , , , 5.5.5.f.g.( ( ( ( h.5.5.5.j.( ( ( ( j.5.5.5.C.Z._ _ _ M.N.5.6.7._ _ _ _ _ _ m.) ) ) b.B.V.l.6.7.: : : ; * & $ # @ + o X ",
"X X o + @ # $ & * ; : : , , , , , , , , 5.5.5.f.g.( ( ( ( h.5.5.5.j.( ( ( ( j.5.5.5.A._ _ _ _ M.N.5.6.7._ _ _ _ _ _ B.x.x.x.S.B.V.l.6.7., , : ; ; * % $ # + o o ",
". X o o + @ # $ & * ; : : : , , , , , , 5.5.5.f.g.( ( ( ( h.5.5.5.j.( ( ( ( j.5.5.5.C.Z.Z.Z.m.M.N.5.6.7._ _ _ _ _ _ _ _ _ _ _ B.V.l.6.7., , : : ; * & $ # @ + o ",
". X X o + @ # $ $ & * ; : : : : , , , , 5.5.5.f.g.( ( ( ( h.5.5.5.j.( ( ( ( j.5.5.5.k.( ( ( ) M.N.5.6.7._ _ _ _ _ _ _ _ _ _ _ B.V.l.6.7., , , : ; ; & $ # @ + o ",
". X X X o + @ # $ % & * ; ; : : : : , , 5.5.5.f.g.( ( ( ( h.5.5.5.j.( ( ( ( j.5.5.D.F.G.G.G.m.M.N.5.6.7._ _ _ H.J.) b._ _ _ _ B.V.l.6.7., , , : : ; * $ # @ + o ",
". . X X o o + @ # $ $ & * * ; ; ; : : : 5.5.5.f.g.( ( ( ( h.5.5.5.j.( ( ( z.K.5.5.L.P._ _ _ _ M.N.5.6.7._ _ _ I.U.x.S._ _ _ _ B.V.l.6.7., , , : : ; * % $ @ + o ",
". . . X X o + + @ # $ $ & * * * ; ; ; ; 5.5.5.f.g.( ( ( ( h.5.5.5.j.( ( ) m.Y.5.5.L.P._ _ _ _ M.N.5.6.7._ _ _ _ _ _ _ _ _ _ _ B.V.l.6.7., , , : : ; * % # @ + o ",
". . . . X X o + + @ # # $ $ & & * * * * 5.5.5.f.g.( ( ( ( h.5.5.5.j.T.V._ _ Y.5.5.L.P._ _ _ _ M.N.5.6.7._ _ _ _ _ _ _ _ _ _ _ B.V.l.6.7., , , : : ; * $ # @ + o ",
". . . . . X X o + + @ @ # # $ $ $ % & & 5.5.5.f.g.( ( ( ( h.5.5.5.j.R.Z._ _ Y.5.5.L.P._ _ _ _ M.N.5.6.7._ _ _ _ _ _ _ _ _ _ _ B.V.l.6.7., , , : ; * & $ # @ + o ",
"  . . . . X X X o o + + @ @ # # # $ $ $ 5.5.5.f.g.( ( ( ( h.5.5.5.j.E.x.x.B.Y.5.5.L.P._ x.B._ M.N.5.6.7._ _ _ I.U.B.B.x.x.x.x.b.n.l.6.7., , : : ; * & $ # @ + o ",
"    . . . . . X X X o o + + @ @ @ @ # # 5.5.5.f.g.( ( ( ( h.5.5.5.W.) ) ) m.Y.5.5.L.P._ ) m._ M.N.5.6.7._ _ _ H.Q.m.m.) ) ) ) !.~.l.6.7., : : ; ; * $ # @ + o O ",
"      . . . . . X X X o o o + + + + + @ 5.5.5.f.g.( ( ( ( h.5.5.5.Y._ _ _ _ Y.5.5.L.P._ _ _ _ M.N.5.6.7._ _ _ _ _ _ _ _ _ _ _ B.V.l.6.7.: : ; ; * & $ # @ + o X ",
"        . . . . . . X X X O o o o o o o 5.5.5.f.g.( ( ( ( h.5.^./.(._ _ _ _ Y.5.5.L.P._ _ _ _ M.N.5.6.7._ _ _ _ _ _ _ _ _ _ _ B.V.l.6.7.: ; ; * & $ # @ + o o X ",
"          . . . . . . . X X X X X X o o 5.5.5.f.g.( ( ( ( h.5.^./.(._ _ _ _ Y.5.5.L.P._ _ _ _ M.N.5.6.7._ _ _ _ _ _ _ _ _ _ _ B.V.l.6.7.; ; * & $ # @ @ + o X X ",
"              . . . . . . . X X X X X X 5.5.^.)._.( ( ( ) `.5.^./.'.G.G.G.G.].5.5.L.[.G.G.G.G.{.}.5.6.7.Y.Y.Y.Y.Y.Y.Y.Y.Y.Y.Y.|. X.X6.7.* * & $ # # @ + o O X . ",
"                  . . . . . . . . . . . 5.5.XXoXOX+X+X+X@X#X5.$X%X&X+X+X+X+X*X5.5.=X-X+X+X+X+X;X:X5.6.7.^.^.^.^.^.^.^.^.^.^.^.^.^.^.>X7.& % $ # # @ + o o X X . ",
"                      . . . . . . . . . 5.5.^.,X<X1X1X1X2X3X5.4X5X6X7X7X7X7X8X5.5.9X0X1X1X1X1XqXwX5.6.7.L.L.L.L.L.L.L.L.L.L.L.L.L.L.s.7.$ $ # @ @ + o o X X . . ",
"                            . . . . . . eXeXeXrXtX        yXuXuXuXiX        pXuXuXuXyX. . . X aXsXdXfXgXhXhXjXjXjXjXjXjXjXjXjXjXjXjXjXjX# @ @ + + o o X X . . . ",
"                                                                                        . . . X X X o o + + @ @ @ # # # # # # # # # @ @ @ + + o o O X X . . . . ",
"                                                                                        . . . . . X X X o o + + + @ @ @ @ @ @ @ @ @ + + + o o o X X X . . . .   ",
"                                                                                          . . . . . X X X X o o o + + + + + + + + + + o o o X X X X . . . .     ",
"                                                                                            . . . . . . X X X X o o o o o o o o o o o X X X X X . . . . .       ",
"                                                                                                . . . . . . X X X X X X X X X X X X X X X . . . . . . .         "
};
