/* XPM */
static char *_fe884a117f9458ff94ad1833080163aJ3W7LvT0qDpA3Itx[] = {
/* columns rows colors chars-per-pixel */
"80 80 197 2 ",
"   c #FC5403",
".  c #F75D05",
"X  c #FA5C05",
"o  c #F95C0B",
"O  c #F75B0D",
"+  c #F45E19",
"@  c #F85912",
"#  c #EF6C07",
"$  c #F66205",
"%  c #FA6204",
"&  c #F76F06",
"*  c #F6640B",
"=  c #F86508",
"-  c #F5690A",
";  c #F86E09",
":  c #FB6E05",
">  c #FA7105",
",  c #F47A06",
"<  c #FB7D06",
"1  c #F87008",
"2  c #F57C0A",
"3  c #F5770B",
"4  c #F46315",
"5  c #F0601A",
"6  c #F76519",
"7  c #EF7D1C",
"8  c #F87016",
"9  c #F57914",
"0  c #F5741B",
"q  c #F87D11",
"w  c #F36623",
"e  c #F86822",
"r  c #F66C23",
"t  c #EC732B",
"y  c #F87726",
"u  c #F57324",
"i  c #F17A3E",
"p  c #F27A37",
"a  c #C66F51",
"s  c #ED7E49",
"d  c #F68507",
"f  c #FB8405",
"g  c #FD8F06",
"h  c #F4840B",
"j  c #F9840A",
"k  c #F48B0A",
"l  c #FC8C09",
"z  c #FD9305",
"x  c #F3940C",
"c  c #F99409",
"v  c #F49B0C",
"b  c #F99C08",
"n  c #F99906",
"m  c #F78115",
"M  c #F0801B",
"N  c #F4A30D",
"B  c #FAA309",
"V  c #F6AC0E",
"C  c #F8AB09",
"Z  c #F6B50D",
"A  c #F9B40A",
"S  c #F7BA09",
"D  c #EFA810",
"F  c #F4B511",
"G  c #F5BF1B",
"H  c #F38527",
"J  c #F89F23",
"K  c #F18A37",
"L  c #EF953F",
"P  c #F79433",
"I  c #F6A922",
"U  c #F9C30C",
"Y  c #F6CE0C",
"T  c #F8CD0C",
"R  c #F8C309",
"E  c #F7D10B",
"W  c #FAD20C",
"Q  c #F9DB0D",
"!  c #F7DB0E",
"~  c #F8C210",
"^  c #F7CC12",
"/  c #F9DA16",
"(  c #FAEB09",
")  c #F9E70C",
"_  c #FBF109",
"`  c #FDF609",
"'  c #F9E12F",
"]  c #FCF72F",
"[  c #EB834C",
"{  c #F08B49",
"}  c #ED845A",
"|  c #ED955C",
" . c #F19357",
".. c #F4A057",
"X. c #EE9B6F",
"o. c #F19466",
"O. c #F29D67",
"+. c #EE9C72",
"@. c #F1BD60",
"#. c #EDA574",
"$. c #F7DD7E",
"%. c #83889D",
"&. c #898EA3",
"*. c #8B90A5",
"=. c #9093A8",
"-. c #949BAD",
";. c #9EA2B5",
":. c #A8B2BF",
">. c #ECAE87",
",. c #EFB488",
"<. c #ECBC9C",
"1. c #EFB293",
"2. c #F0BB9C",
"3. c #EBBBA1",
"4. c #E7C6AC",
"5. c #EDC5AA",
"6. c #EEC9AE",
"7. c #F1C1A6",
"8. c #EDCEB9",
"9. c #EFCBB6",
"0. c #F0CCB4",
"q. c #ACACC3",
"w. c #B9B7CF",
"e. c #B3B3CA",
"r. c #C0BED6",
"t. c #BAC5CF",
"y. c #BDCCD1",
"u. c #D1C6DD",
"i. c #C9D8DE",
"p. c #C5D1D8",
"a. c #C6C9DB",
"s. c #ECD6C2",
"d. c #EDD8C7",
"f. c #EBDCCB",
"g. c #E6D5C9",
"h. c #F3DECA",
"j. c #F1D9C3",
"k. c #EBE6DC",
"l. c #EEEADD",
"z. c #E7E3D7",
"x. c #F0E9DC",
"c. c #CDC9E2",
"v. c #D3CEE8",
"b. c #CFDFE3",
"n. c #D4D2E9",
"m. c #D8D9EB",
"M. c #D0DCE0",
"N. c #DDE2EF",
"B. c #DBEAEC",
"V. c #DEFBFD",
"C. c #DEF4F4",
"Z. c #ECECE2",
"A. c #E3EEE9",
"S. c #ECF3EB",
"D. c #E7F1EA",
"F. c #E1E7F0",
"G. c #E2ECF3",
"H. c #E3F4F5",
"J. c #EAFAF7",
"K. c #E6F7F8",
"L. c #E7FCFC",
"P. c #E6FDFC",
"I. c #E7FDFC",
"U. c #E6FDFD",
"Y. c #E7FDFD",
"T. c #E6FCFC",
"R. c #E5FDFC",
"E. c #E5FDFC",
"W. c #EBFDFB",
"Q. c #EAFDFB",
"!. c #EBFEFB",
"~. c #ECFEFB",
"^. c #EDFEFB",
"/. c #EDFFFB",
"(. c #EEFEFB",
"). c #EFFEFB",
"_. c #EEFFFB",
"`. c #EFFFFB",
"'. c #EEFFFA",
"]. c #ECFDFB",
"[. c #E8FDFC",
"{. c #E9FDFC",
"}. c #E8FDFD",
"|. c #EAFDFC",
" X c #EBFDFC",
".X c #E9FEFC",
"XX c #EAFEFC",
"oX c #EBFEFC",
"OX c #ECFEFC",
"+X c #EDFEFC",
"@X c #ECFEFC",
"#X c #E8F7F3",
"$X c #F0FFFB",
"%X c #F1FFFB",
"&X c #F0FEFA",
"*X c #F2FFFB",
"=X c #F1FFFB",
/* pixels */
"*X*X*X*X*X*X*X*X*X*X*X`.*X*X*X`.$X$X$X$X$X$X$X$X].$X$X$X$X].$X$X$X$X$X$X$X$X$X$X*X$X*X$X*X$X$X*X$X$X$X$X$X].$X$X$X].].$X].].$X$X$X].$X$X$X$X$X$X$X$X*X*X*X*X*X*X",
"*X*X*X*X*X*X*X*X*X*X*X`.*X`.*X`.$X$X$X$X$X].].$X$X].$X].$X].].$X].$X$X$X$X$X$X$X$X$X$X$X$X*X$X$X$X$X$X$X$X].].].].].].].].$X].].$X$X$X$X$X$X$X$X$X*X$X*X*X*X*X*X",
"*X*X*X*X*X*X*X*X`.`.*X*X*X`.`.`.$X].$X].].].$X].].].].].].].]. X].$X$X$X$X$X$X$X$X$X$X$X$X$X$X$X].$X].$X].]. X X].].].].].].].].].].].].].$X$X$X$X*X*X$X*X*X*X*X",
"*X*X*X*X*X*X*X*X*X*X*X`.`.`.`.`.$X].].].].].].].]. X X]. X X]. X].].].].].].$X$X$X$X$X$X$X$X$X$X$X$X].].]. X X X].].]. X].].].].].].]. X$X].$X$X$X$X$X*X*X*X*X*X",
"*X*X*X*X*X*X*X`.$X$X$X$X`.*X].`. X X X X XQ.Q.Q. X XQ. X X X.XQ. X X X X].].$X].$X$X].$X$X].].].].]. X X X X X X.XL..X.X X X XU. X X X X$X].$X$X$X$X$X*X$X*X*X*X",
"*X*X*X*X*X*X*X`.$X$X$X$X`.].].]. X X X X XQ..XL. X XU. X XU..X.X X X X X].$X].$X].$X$X].$X$X].].].]. X X XU. XU.L..X.X.XU. XU. X X X X X].].].].$X$X$X$X*X$X$X*X",
"*X*X*X*X*X`.*X*X$X$X$X$X].].].]. X XQ..XU. XL..XU. XU. XU..X.X.X XU. X X X X].].].].].].].].`. X].]. X X X XU.Q..XR..XR.U. X XU. XU.U. X].].].].].$X$X$X$X$X*X*X",
"*X*X*X*X*X*X*X`.$X$X].$X].]. X X XQ.U..X.XU.R..XU.U.U.U..X.XR..X XU.U. X X X].].].$X].$X].]. X X]. X XU.U.U.U.U..XL.R..X.XU.U.U.U.U. X X X].].].$X$X].$X$X*X$X*X",
"*X*X*X*X$X$X$X$X$X$X$X].]. X X XR.J..X.XR..XR..X.XR.R.R..X.XR.R.U.U..X.X.XL..XQ.Q. XQ.Q.Q. X XQ..XL.R..X.X.X.XJ.R.R.R.R..X.XR.L..XR..X.X.X.X X X].$X$X$X$X$X$X*X",
"*X*X*X$X*X$X$X$X$X].].].]. X XU.R..X.XR.R.R.R..XR.R..XR.R.J.R.R.U.U..X.XL..XL..XQ.Q. X`. X X XU.L..X.X.XR.R..XR.R..X.XR.R.R..XR.R..X.XR..XL. XQ.].].].$X$X$X*X$X",
"*X*X$X*X$X$X$X$X].].].]. XU.U.U.R..XR.R..X.XR.R.R..XR..XR..XR.R.R.R.R..X.XL..XL.U. XU. XQ. X.X.X.XR.R..XR..XR.R.R.R.L.R..XR.R.R..XR..XR.L..XL.Q.].].].$X$X$X$X*X",
"*X*X*X$X*X$X$X$X$X].].]. X XU. X.XR..XR.R.R.R.L.R.R.R..XR.R..XR..X.XR.R.R..XL..X XQ.U. XL..XL.L..XL.R..XR.R.R.R..XR.R..XR.R..XR.R.R.R..X.XL.Q.Q.].].$X$X$X$X*X$X",
"*X*X*X$X$X$X$X].]. X X X X.X.X.XR.R..X.X.XR..XJ..X.XR.R.R..XR.R.R.R.R..XR..XR.L.U.Q.L..XL..XR..XL..XR.R..X.XR.R.R.R.R.R.R.R.R.R.R.R.R.R.U.U.U. X].].].].$X$X$X$X",
"*X$X$X*X$X$X].$X]. X XQ.U.U..XR..XR.R.R.R.R..XR.R.R.R..XR..XR..XR..XR..XR.R.R..X.XU..XL..XL..XL.R.R.R..XJ.R.R.R.R.R.R.R.R.R.R..XR..XR..X.XU. XU. X].].$X$X$X$X$X",
"*X$X*X$X$X$X$X].].].Q.U..X.X.XR..XR.R.R.R..XR.R.R.R.R..XR.R..XR.R.R.R.R..XR.R.R..X.XR..XT..XL..X.XR.R.R.R.R.R.R.R.R.R.R.R.R.R.R.R.R.R.R..XR.U. X X].].$X$X$X$X$X",
"*X*X$X*X$X$X$X].].].L..XR..XR.R.R.R..X.XR.R.R.R.R..XR.R..XR.R.R.R..X.XR.R.R.R..XR..X.XR.U.U..XL.R..XR.R.R.R.R.R.R.R.R.R.R.R.R.R.R.R.R.R.R..XU. X X].].].$X$X$X*X",
"*X*X*X$X$X$X$X]. X X X.X.X.X.XR.R..X.XR.R.R..XR.R.R.R..XR.R.R..XR..XR.R.R.R.R.R.R..XL.R.T..XR..XR.R.R.R.R.R.R.R.R.R.V.R.R.R.R.R.R.R.R.R.R.R..X.XL.U.].`.].$X$X$X",
"*X$X$X*X$X$X$X]. X X XU..XR.R.R.R.R.R.R..XR..XR.R.R.J..XR..XR.R.R.R.L..X.X.XR.R.R.L.L..XU.R.L.R.R.R.R.R.R.R.R.R.V.R.R.R.R.R.R.R.R.K.R.R.R.U.U.Q.Q. X X`.$X$X$X$X",
"*X$X*X$X$X$X].]. X X XU.R.R..X.X.XR..X.XR.R.R.R.R.R..XR.R.R..X.X.XR.R.R.R.R.R..X.XR.L.L.U..XL.R.R.R.R.R.R.R.R.R.R.R.R.R.R.V.V.R.V.R.R.R.R.T.U.U. X X].].$X$X$X*X",
"*X*X$X*X$X$X$X]. X X XQ..XR.R.R.R.R.R.R..X.XR.L..XR.R.R..XR.R.R..XR..XR.R..XR.R.R.L.L..XU.L..XR.R.R.R.R.R.R.R.R.R.R.V.R.R.R.R.V.R.R.V.R.R.R.U.U.U. X].].$X$X$X$X",
"*X$X*X$X$X].$X].]. X XU.R..XR.R.R.R.R.R.R.R.R..XR..XR.R.R..X.X.XR.R.H..XR..XR..X.XR.L.L.U..XR.R.R.R.R.R.R.R.R.V.V.R.V.R.V.R.V.R.R.R.R.R.R.T.T.U. X X].].$X$X$X$X",
"*X*X$X*X$X$X$X]. X X XU.L.L..X.X.XR..X.XR..XR.R.R..XR..XR.R.R.J.R..X.XR.R..XR.R.R..XL..X.XR..XR.R.R.R.R.R.H.R.V.R.V.R.R.V.R.V.V.V.R.V.R.R.T.T.U. XU.].].].$X$X$X",
"*X*X$X$X$X$X$X]. X XQ.L..XR.R.R.R.R.R.R.R.R.L.R.R.R..XR..XR.R.R..XR.R.R.L.R.R..X.XL..XL.R..X.X.XR.R.R.R.V.R.V.R.V.R.V.V.V.V.R.V.R.V.R.V.R.R.R.U.U.U.Q.].].$X$X$X",
"*X$X$X$X$X$X$X]. X XQ..XL..X.XR.R..X.X.XJ.R.R.R..XR.R.R..XR.R.R.R.R.R..XR..XR.R.L..XL..X.X.XR.R.R.R.R.R.R.R.R.V.V.V.V.R.V.R.V.V.V.V.V.R.V.R.T.U. X X].].$X$X$X$X",
"*X*X*X$X$X$X$X].].].]. X.XR.L.L.R.R..XR.R.R..X.XR.R.R.R.R..XR.R.R..X.XR.R.R..XR.Q.Q.Q.J.S.S.k.#XR.R.R.V.R.V.R.V.V.R.V.V.V.V.V.V.V.R.V.R.R.V.R.T. X X].$X].$X$X$X",
"*X*X$X*X$X$X$X$X].]. X XL..X.XR..XR..XR..X.XR.R.R..XR..XR..XR.R.R.R.R.R..X.X.X.XJ.J.k.[ #.| [ X.g.3.L.R.V.R.V.V.V.V.R.V.V.V.V.V.V.V.V.V.R.R.R.U.U. X].].].$X$X$X",
"*X*X*X$X$X$X$X$X].]. X X.X.XR..XR..XR.R.R.J.R.J.R.R.R..XR.R..XR..X.XR..XR..XL.#X3.>.[ H J I I H L u o.D.R.V.R.V.V.V.V.V.V.V.V.R.V.V.V.R.V.V.R.U.U. X].].$X$X$X$X",
"*X*X$X*X$X$X$X].].].]. X.X.X.X.XR.R.R.R.R.R.R.R..X.XR.R..XR.R.R.R.R..XR.L..X.X7.4 l m ~ V ~ v v j c 8 i f.V.V.V.V.V.V.V.V.V.V.V.V.V.V.V.R.R.R.U.U. X].].].$X$X$X",
"*X*X$X*X$X$X$X$X$X].]. X XU.U.U..XR.R.R.R.R.R.R.R.R.R.R.R.R.R..XR..X.XU..X X9.e < z % N 3 Z N N X < z 1 s V.V.V.V.V.V.V.V.V.V.V.V.V.V.V.V.R.R.U. X XQ.`.$X$X$X$X",
"*X*X*X*X$X*X$X$X$X].].]. X XQ.U.R.R.R.R.R.R.R.R.R.R.R.R.R.R.R..X.X.X.X XL.S.i > z % d _ N ! _ v - . > l  .C.V.V.V.V.V.V.V.V.V.V.V.V.V.V.R.R.R. XU.Q.Q.`.].$X$X$X",
"*X*X*X$X*X*X$X$X].].].]. XU.U.U.R.R.R.R.R.R.R.R.R.R.R.R.R.R.J.R.R..X XU.Q.J.,.l : X c ) N ! S $ W Q , v * +.C.V.V.V.V.V.V.V.V.V.V.V.V.V.V.R.U.U. XQ.`.`.$X$X$X$X",
"*X*X*X*X$X$X$X$X$X].].].U. X XU.R.R.R.R.R.R.R.R.R.R.R.R.R.R..X.XL..X X].Q.j.+ v h ~ & j 2 2 X k E R x V v | C.V.V.V.V.V.V.V.V.V.V.V.R.V.R.R.U.U.U. XQ.`.$X$X$X*X",
"*X*X*X*X$X$X$X$X].Q.`.`.Q.Q.L.L.T.R.R.R.R.R.V.R.R.R.R.L..XR..X.X.XL. X X X9.9 A h Y ) d       = Z v D Z b t Z.V.V.V.V.V.V.V.V.V.V.V.R.V.R.R.U.U. XQ.`.`.$X$X$X$X",
"*X*X*X$X$X$X$X$X].`.Q. XQ.L..XR.T.T.R.V.R.R.R.K.R.R.R.R.R.L.R..X.X.X X X Xs.9 S N ! Y / .     $ Q ` N x B K H.V.V.V.V.V.V.V.V.V.V.V.V.R.R.R. XU. XQ.Q.`.$X$X$X$X",
"*X*X$X*X$X$X$X].$X].Q.Q. XU.L..XT.T.R.K.R.R.R.R.R.R.R.R.L.L.L.Q.Q.U.Q.`.`.Z.K C h N h F .     X = R E Z N 5 g.V.V.V.V.V.V.V.V.V.R.V.V.R.R.U.U.U. X].`.`.$X$X$X*X",
"*X*X*X$X*X$X$X$X$X]. X X XQ..XR.U.T.R.R.R.R.R.R.R.R.R.R.R..X.XL. X X`.Q.`.d.6 z Z ~ ( Q % C F b z $ 1 - # <.C.V.V.V.V.V.V.V.V.V.V.V.R.R.R.U. X XQ.Q.`.`.$X$X*X*X",
"*X*X$X*X$X$X$X].].].].]..XL..X.XU.R.R.R.R.R.R.R.R.R.R.R.L..XL..XL.`.`.`.`.`.<.0 < % N , c ( N k _ d % l q 5.V.V.V.V.V.V.V.V.V.V.V.R.R.R.U.U. X].`.`.$X$X$X$X*X*X",
"*X$X*X$X$X$X$X].].].]. X.X.XL.L.R.T.R.R.R.R.R.V.K.R.U.T.R.R..XL.].L.Q.`.`.`.x.p z f   o Q Y ^ Z V % l f e A.R.V.V.V.R.V.V.V.V.V.R.R.R.R.Q. X X].Q.`.].$X$X$X*X*X",
"$X*X$X$X$X$X$X]. X X X XL.R..XR.K.R.R.R.R.R.R.R.R.R.R.T.L..X.XL.Q.`.l.1.6.>.o.O % f g $ x # N x b j l 4 z.V.V.V.V.V.V.V.R.V.R.R.R.R.U.U.U.Q.].].].$X$X$X$X$X*X*X",
"*X$X*X$X$X$X].].].U. X X.X.XR..XR.R.R.R.K.R.T.R.R.R.R.T.R..XL..X X Xk.w @ ..@.$.P X j j V S R C c H 4 8.R.R.R.V.V.R.V.R.V.R.V.R.U.U.Q.U. X`.].].].$X$X$X$X*X*X*X",
"$X*X$X$X$X$X].]. X X XU..X.XR.R.R.R.R.R.R.R.R.R.R.R.R..XR..XL..X X X`.l.i y ' ] T ; i O.* q - 7 5 8.Z.U.R.R.R.R.R.R.R.R.R.R.R.R.U.U. X XQ.`.].$X$X$X$X$X$X*X*X*X",
"*X$X$X$X$X].].].Q.Q.U. X.XR..XR.R.R.U.R.U.R.R.R.R.R.R.R..XR..XL.U.Q. X`.S.} = T W 9 h.*X5.6.4.x.f.Q.U.U.U.U.R.U.R.R.U.U.R.R.U.U. XU. X X].Q.$X$X$X$X*X*X*X*X*X*X",
"$X$X$X$X$X].].].L.Q.L..X.X.XR.R.R.U.R.R.R.R.R.R..XR.R.R.R.R..X.XU. X X XF.u.a - c 7 s.*X`.`.`.Q.].]. X X XU.U.U.R.U.U.U.U.U.U.U. X X].].].$X].$X$X$X$X*X*X*X*X*X",
"*X$X$X$X$X].].]..XL..XL.R.R.R.R.R.R.R.U.R.R..XR.R.R.R.R.R..XR.L.Q. X XG.v.=.-.<.O + j.`.*X`.`.`.].]. X X XU.U.U.U.U.U.U. XU. X X X].].].].$X$X$X$X$X*X*X*X*X*X*X",
"$X$X$X$X].].].]..XL..XR..XR..XR..XR.R.R.R.R.R.R.R.R.R.R..XL..XR.U.Q.K.n.;.-.F.`.h.w 2.*X*X*X`.`.$X].].].]. XQ. X XU.Q.Q.Q..XQ.Q.].].].].$X].$X$X$X*X*X*X*X*X*X*X",
"$X$X$X$X$X].]. XL..XL..XR.R.R.R.R.R..XR..XR..XR.R..XR..XR.R.R..X.XL.n.q.&.M.].*X$Xx.S.$X*X*X*X`.$X].].].].].`.Q.Q.Q. X XQ.Q. XQ.].].].$X$X$X$X$X$X$X$X*X*X*X*X*X",
"$X$X$X].]. X X X.X.X.XJ.R.R.R..XR..XR..XR..XR.R.R.L.R..XR..X.XL.K.m.w.%.p.`.].].$X$X$X$X*X`.`.`.$X].$X$X].].].Q.Q.`.].].Q.Q.Q.`.].$X].$X].$X$X*X*X$X*X$X*X*X*X*X",
"$X$X$X].]. X X X.X.X.XR.R.R.R..XR.R.R..XR.R.R..XR..XR.R.R.R.U.L.N.w.&.t.L.`.`.&X$X$X$X$X*X*X*X`.$X$X$X].].].].Q. XQ.Q.Q. X XQ.`.].$X].].].$X$X$X$X*X$X*X*X*X*X*X",
"$X$X$X].].].]. XU.U.R.R..X.XR.R.R.R..X.XR.R..XR.R.R.R..XT.U.T.N.c.&.:.L.].].$X].$X*X*X$X*X$X$X$X$X$X].$X].].].].].]. X X X X X X X`.Q.].$X$X$X$X$X$X$X$X*X$X*X*X",
"$X$X$X$X]. X X X XU..XR.R.R.R..X.XR.R.R.R..XR.R.R..XR.R.T.T.G.c.*.;.H. X].].].$X$X$X$X*X*X*X$X*X$X].$X].].].].].].]. X X XU. X X X].].].$X].$X$X].$X$X*X$X*X$X*X",
"$X$X].].]. X X XU.U.U..XR..XR..X.XR..XR.R.R..X.X.XJ.R.R.U.H.v.;.-.B. X X].$X$X$X$X$X*X$X$X*X$X$X$X$X$X].].]. X X X X X X X X X X X X]. X].].].].].$X$X$X$X$X*X$X",
"$X$X].$X X XU. X XU..X.XR.R.R.R.R.R.R.R..XR.R.R..XR.R.R.H.v.:.&.b.U. X].].].].$X$X$X$X$X*X$X$X$X$X$X$X].]. X X X]. XU. X XU. X X X X X X].].].$X$X$X$X$X$X*X$X*X",
"$X$X$X].].]. XU.L..XR..X.X.XR.R.R.R..X.XR.R.R..XR.R.R.R.m.e.%.i.U. X X X].$X$X].$X$X$X$X$X$X$X$X].$X].].].]. X XL..X.X.XU. XU.Q.L..XL.Q. X X`.Q.].].].$X$X$X$X$X",
"$X$X].$X].]. XU..XL.R.R.R.R.R..X.XR.R.R..X.XR.R.R..XR.H.a.&.t.R.U. X X X].$X$X$X$X*X$X$X$X$X$X$X$X].].].]. X XU.Q.L.R..X XU. XU..XL..XL.U. X XQ.].].$X].$X$X$X$X",
"$X].$X].].]. X XL..XR.R.R.R.R..X.XR.R.R.R.H..XR.R.R..X.XC.y.H..XU. X X X$X].$X$X$X$X$X*X$X$X$X$X].$X]. X XU. X X.X.X.X.X.X.XU..XR..X.X.X.XQ.Q.Q.].].].$X].].$X$X",
"$X$X].$X].]. X X.XR..XR..X.XR.R.R.R..X.XR..XR.R..XR.R.R.R..XU..X X X X X].].$X$X*X$X$X$X$X$X$X].].].]. X X XU.U..XL.R.R.R.R.R..X.X.XR..X.XU.L..X].].].].$X$X$X$X",
"$X$X$X].]. X X XL..X.XR.R..XR.R.R.L.R.R..XR..XR..XR.R.R.U.U.U. X X X].].].].$X$X$X$X$X$X$X$X].$X].].Q.L.L..X.XR.R.R.R.R.L.R.R..X.XR.R..X.XR..XL. X X].].].].$X$X",
"$X$X$X$X]. X X X.XL.R..XL.R.R..XR..X.XR..XR.L.R.R.R..X.XU.U. XU. X X].$X$X$X$X$X$X$X$X$X$X$X$X].].Q.Q..X.X.XR..XR.L..XR.R..XR.R.R.R.L.R..XL.L..XU. X X].].$X].$X",
"$X$X$X].].].]. XL.L..XL.R.R.R..XR.R..XR.R..XR.R.R..X.X.X XU. X X X X].].$X$X$X$X$X$X$X$X$X$X].].].]..XL.L..X.XR..X.XR.R.R.R..XR.R..XR..XR.R.L.L. XU. X X].$X$X$X",
"$X$X$X$X].].].].Q..XL..XL..XR.R..XR.R.R.R.R.R..XR.R.U. XU.Q. X X X].].$X$X$X$X*X$X$X*X$X$X].].$X X XL..XL.R.R.R.R.R.R..X.XR..XR.R..XR.R.R..X.XR.U. X].].].].].$X",
"$X$X$X$X].].].]. X XQ.U..XL..XR..XR.R..XR.L.R.R..XR..XL. X X X X].].].$X$X$X$X$X$X$X$X$X$X$X].]. X X XU.R..XR..XR.R.R..XR.R.R.L.R.R..XL.R..X.XR. X X X X].].$X$X",
"$X$X$X$X$X$X].]. X X X XL..XR..XR..XL.R..XR..X.X.X.XL..X X]. X X$X].$X$X$X$X*X$X$X*X*X$X].].].]. X X XU..X.XR.R..X.XR.R.R..X.XR..XR.R.R.R.R.R..XU.U.U. X].].].$X",
"$X*X$X$X$X].].]. X X X XQ.L.L..X.XL.R..X.XR..XL..XU..XL.].].].].].$X$X$X$X$X$X$X$X$X$X$X$X].].]. X XU.U.R.R.R.R.R.H.R.L.R..XR.R..XR.R.R..XR..XR..X.X X X].].].$X",
"*X$X$X$X$X$X].`. X XQ.Q.Q..XQ.L.L..XL.L..XL.L..X.X XQ.Q.].].].].$X$X$X$X*X*X$X*X$X$X$X$X$X$X X X X X XU..XR..X.XR..XR..XR.R.R..XR.R..X.XR.R.R.R..X.XU. X].].$X$X",
"$X*X*X$X$X$X$X$X$X].].].].]. X X XU. XU. XU. X X X X].].].].$X$X$X$X$X*X$X*X*X*X$X*X$X$X&X+X+X].].].T.T.U.U.U.U..XR.R..XR.R.R.R..XR..XR.R.R..XR.U. XU. X X].].$X",
"*X$X$X*X*X$X$X$X].$X].].].].].]. X X X X X X X X X X].].].$X].$X$X$X$X$X*X$X*X*X*X$X*X$X+X&X+X+X].]. X XU.U..XU.R.R.L.R.R..X.XR..XR.K.R..XR.R..XU. X X X].].].$X",
"*X$X*X$X$X$X$X$X$X].$X].].].].].]. X X X].].].]. X].].].].$X$X$X$X*X*X$X$X*X*X*X$X*X$X$X&X+X+X+X X X XT..XL.L..XR..XR..XR.R..XL.R..XR.R..XR..XR.U. X X X].].].$X",
"*X*X$X*X$X$X$X$X$X$X$X$X$X].].$X].]. X X].$X].]. X].].$X$X$X$X$X$X*X$X*X*X*X*X*X*X$X*X$X*X+X+X+X]. X XT.L..XL.R.R..XR.R..XR.R.R.R.R.R..XR.R..X.XU. X X].].$X$X$X",
"*X*X*X$X$X*X$X*X$X$X$X$X$X$X].$X].$X$X].].$X$X].].$X$X$X$X$X$X$X$X*X$X*X*X*X*X*X$X*X$X$X$X$X+X+X]. XQ.U..XR.L.R.R.R..XL.R..X.X.XR.R.R.R..XL..XL. X X X X].].$X$X",
"*X*X*X*X*X$X*X$X*X$X$X$X$X$X$X$X].$X].$X].$X].$X$X$X$X$X$X$X$X$X*X$X*X*X*X*X*X*X*X$X*X$X$X$X+X+X]. X X XL..X.X.X.XL.R.R.R.R.R..X.X.XL..XR..XL..X X]. X X$X$X$X$X",
"*X*X*X*X*X*X$X*X$X*X$X$X$X$X$X$X$X$X$X$X$X$X$X$X$X$X$X$X*X$X*X$X*X*X*X*X*X*X*X*X*X$X*X$X$X$X$X+X].]. X X XQ.L..X.XR.R.R..XR.U.U.R.L..XL..X.X.XL.].].].].].$X$X$X",
"*X*X*X*X*X*X*X$X*X$X*X$X$X$X$X$X$X$X$X$X$X$X$X$X$X$X$X*X$X*X$X*X*X*X*X*X*X*X*X*X*X*X$X*X$X$X$X+X].]. X X XL..XL.L..X.X.X.X.XU.U.L..XL..X.XQ.Q.Q.].].$X].$X$X$X*X",
"*X*X*X*X*X*X*X*X*X*X$X*X*X$X*X$X*X$X*X$X*X$X*X$X$X$X$X*X$X$X*X*X*X*X*X*X*X*X*X*X*X*X*X$X$X$X$X$X$X$X].].].]. X X XU. XU.U. XU. X.X.X.XL. X X X].].].$X$X$X$X$X$X",
"*X*X*X*X*X*X*X*X*X*X*X$X$X*X$X*X$X*X$X*X$X*X$X*X$X*X*X$X*X*X*X*X*X*X*X*X*X*X*X*X*X*X$X*X*X$X$X$X$X].$X].].]. X X X X X X X X XU.L.Q. XQ.].]. X].].].].$X$X$X$X*X",
"*X*X*X*X*X*X*X*X*X*X*X*X*X*X$X*X*X$X*X$X*X$X*X$X*X*X*X*X*X*X*X*X*X*X*X*X*X*X*X*X*X*X*X$X$X*X$X$X$X].].$X].$X].]. X X X X].].].]. X]. X X].$X].].].$X$X$X$X$X$X*X",
"*X*X*X*X*X*X*X*X*X*X*X*X*X*X*X*X*X*X*X*X*X*X*X*X*X*X*X*X*X*X*X*X*X*X*X*X*X*X*X*X*X*X*X*X*X$X$X$X$X$X$X$X].$X].].]. X X X].].].].].].].].].].$X$X$X$X$X$X*X$X*X$X",
"*X*X*X*X*X*X*X*X*X*X*X*X*X*X*X*X*X*X*X*X*X*X*X*X*X*X*X*X*X*X*X*X*X*X*X*X*X*X*X*X*X*X*X*X$X*X$X*X$X$X$X$X$X$X].$X].].].].$X].].].].].$X].$X$X$X$X$X$X$X*X$X*X*X*X",
"*X*X*X*X*X*X*X*X*X*X*X*X*X*X*X*X*X*X*X*X*X*X*X*X*X*X*X*X*X*X*X*X*X*X*X*X*X*X*X*X*X*X*X*X*X*X*X$X*X$X$X$X$X$X$X$X$X].].$X].$X].$X$X].].$X].$X$X$X$X$X$X*X*X$X*X*X",
"*X*X*X*X*X*X*X*X*X*X*X*X*X*X*X*X*X*X*X*X*X*X*X*X*X*X*X*X*X*X*X*X*X*X*X*X*X*X*X*X*X*X*X*X*X*X$X*X$X*X$X*X$X$X$X$X$X$X$X].$X$X$X].$X$X].$X$X$X$X$X$X$X*X$X$X*X*X*X",
"*X*X*X*X*X*X*X*X*X*X*X*X*X*X*X*X*X*X*X*X*X*X*X*X*X*X*X*X*X*X*X*X*X*X*X*X*X*X*X*X*X*X*X*X*X*X*X*X*X$X*X$X$X$X$X$X$X$X$X$X$X$X$X$X$X$X$X$X$X$X$X*X$X$X$X*X*X*X*X*X"
};
