/* XPM */
static char *result[] = {
/* columns rows colors chars-per-pixel */
"80 80 243 2 ",
"   c #180D0A",
".  c #15120D",
"X  c #1C130D",
"o  c #151414",
"O  c #1A1B16",
"+  c #1C1D1C",
"@  c #181718",
"#  c #1E0E13",
"$  c #290A0A",
"%  c #340B0C",
"&  c #3D0A0B",
"*  c #380606",
"=  c #2A130D",
"-  c #290E13",
";  c #370D11",
":  c #221B1B",
">  c #2A1716",
",  c #371718",
"<  c #35180F",
"1  c #1D221D",
"2  c #22211E",
"3  c #29241A",
"4  c #372619",
"5  c #1D1E21",
"6  c #221E21",
"7  c #1E2223",
"8  c #242424",
"9  c #2B2425",
"0  c #252926",
"q  c #2B2628",
"w  c #26292A",
"e  c #2B2C2C",
"r  c #262628",
"t  c #332D2D",
"y  c #352524",
"u  c #34322E",
"i  c #2C2D31",
"p  c #312E31",
"a  c #2E3233",
"s  c #333232",
"d  c #3A3A3A",
"f  c #3A3536",
"g  c #2F302F",
"h  c #420C0D",
"j  c #4D0A0B",
"k  c #450606",
"l  c #540B0C",
"z  c #5B0B0C",
"x  c #580706",
"c  c #56100C",
"v  c #480E11",
"b  c #580E11",
"n  c #471416",
"m  c #581415",
"M  c #4F110B",
"N  c #630A05",
"B  c #620B0B",
"V  c #6B0C0C",
"C  c #690606",
"Z  c #730B0B",
"A  c #7C0B0C",
"S  c #770607",
"D  c #6A120E",
"F  c #77110E",
"G  c #6A0E11",
"H  c #7A0D12",
"J  c #6B1616",
"K  c #741213",
"L  c #77181B",
"P  c #462B18",
"I  c #681F22",
"U  c #452E2C",
"Y  c #463627",
"T  c #453939",
"R  c #56362E",
"E  c #79363A",
"W  c #683235",
"Q  c #3F403E",
"!  c #544634",
"~  c #6F4B35",
"^  c #7E623B",
"/  c #4A3F43",
"(  c #4A4849",
")  c #595858",
"_  c #564B47",
"`  c #664946",
"'  c #78484A",
"]  c #695657",
"[  c #78585A",
"{  c #71524A",
"}  c #776856",
"|  c #666566",
" . c #796969",
".. c #757878",
"X. c #767371",
"o. c #840C0C",
"O. c #8C0C0C",
"+. c #850406",
"@. c #930B0C",
"#. c #9C0D0D",
"$. c #970905",
"%. c #87110C",
"&. c #91110D",
"*. c #880E11",
"=. c #990D11",
"-. c #831213",
";. c #8C1314",
":. c #88171C",
">. c #941213",
",. c #9D1312",
"<. c #98181A",
"1. c #A70F0D",
"2. c #A31313",
"3. c #AB1314",
"4. c #A31B1B",
"5. c #A7171B",
"6. c #B41314",
"7. c #BB1313",
"8. c #B41419",
"9. c #BB141A",
"0. c #AF0D11",
"q. c #8F1D23",
"w. c #A21C22",
"e. c #852729",
"r. c #972422",
"t. c #853738",
"y. c #B72426",
"u. c #B53135",
"i. c #A72B2B",
"p. c #C61B1B",
"a. c #C91517",
"s. c #CA1417",
"d. c #C22022",
"f. c #C51F22",
"g. c #81563F",
"h. c #8F3C44",
"j. c #894547",
"k. c #885A58",
"l. c #974C4B",
"z. c #AD4A4E",
"x. c #8A755A",
"c. c #967B5A",
"v. c #8B6950",
"b. c #836B69",
"n. c #8B6E73",
"m. c #986E72",
"M. c #9A7479",
"N. c #8F736D",
"B. c #AC7076",
"V. c #C06F76",
"C. c #AB8D5D",
"Z. c #978776",
"A. c #A78A62",
"S. c #B49A78",
"D. c #B0916A",
"F. c #BEA274",
"G. c #C39865",
"H. c #C8A36A",
"J. c #C7A575",
"K. c #D6B47D",
"L. c #D3AB75",
"P. c #A97C82",
"I. c #B97C83",
"U. c #858685",
"Y. c #949393",
"T. c #969C9D",
"R. c #918E8D",
"E. c #A78689",
"W. c #B58688",
"Q. c #AA9698",
"!. c #B59799",
"~. c #AC9589",
"^. c #B4A38A",
"/. c #99A1A0",
"(. c #A5A5A5",
"). c #B6A4A6",
"_. c #A9B4B4",
"`. c #B8B7B7",
"'. c #B6B7AD",
"]. c #B99EA1",
"[. c #C6AD87",
"{. c #C4B499",
"}. c #D4B48D",
"|. c #C4A9A8",
" X c #C7AEB5",
".X c #C5B5B7",
"XX c #D3B5BA",
"oX c #D2BAAC",
"OX c #C08486",
"+X c #D9C392",
"@X c #DAC8A6",
"#X c #C8C3B7",
"$X c #E6D1A7",
"%X c #BFBFC2",
"&X c #D2BCC1",
"*X c #C5B7C1",
"=X c #B8C8C7",
"-X c #BDD0D0",
";X c #C8C9CA",
":X c #D5C8CA",
">X c #CCD0CF",
",X c #DCD3C9",
"<X c #D9CDD2",
"1X c #CADCDB",
"2X c #C8D6D5",
"3X c #DCD4D4",
"4X c #DCD5DB",
"5X c #DBDBDB",
"6X c #D9DBD8",
"7X c #CBCED1",
"8X c #E6DBC5",
"9X c #E2DCDB",
"0X c #E3D6D8",
"qX c #E1C1CA",
"wX c #DEE0DF",
"eX c #E7E5DE",
"rX c #F5EED6",
"tX c #DDDEE4",
"yX c #D5DCE0",
"uX c #E3DCE3",
"iX c #D5E5E4",
"pX c #DBE4E4",
"aX c #DBEDEC",
"sX c #DBE7E8",
"dX c #DCF3F3",
"fX c #DEFBFD",
"gX c #DBEFF0",
"hX c #E2E3E3",
"jX c #E2E4EA",
"kX c #E5EBEC",
"lX c #EAECEB",
"zX c #E8E6E4",
"xX c #E8F1EC",
"cX c #F4F2ED",
"vX c #E8EDF2",
"bX c #E4F4F4",
"nX c #E9F9F6",
"mX c #E5FDFC",
"MX c #ECFEFC",
"NX c #EAF4F4",
"BX c #F1FFFB",
"VX c #F3F4F2",
"CX c #F4EBE9",
/* pixels */
"BXBXBXBXBXBXBXBXBXBXBXBXBXBXBXBXBXBXMXBXBXBXBXBXMXBXMXBXBXMXBXBXBXBXBXBXBXBXBXBXBXBXBXBXBXBXBXBXMXBXMXBXMXBXMXMXBXMXMXBXMXMXBXMXBXBXMXBXBXBXBXBXBXBXBXBXBXBXBXBX",
"BXBXBXBXBXBXBXBXBXBXBXBXBXBXBXBXBXBXBXMXBXMXMXBXBXMXBXMXBXMXMXMXBXMXMXBXBXBXMXBXBXBXMXBXBXBXBXBXBXBXBXMXMXMXBXMXMXMXMXMXMXBXMXBXMXBXBXMXMXBXBXBXBXBXBXBXBXBXBXBX",
"BXBXBXBXBXBXBXBXBXBXBXBXBXBXBXBXBXMXMXMXMXMXMXMXMXMXMXMXMXMXMXMXMXBXMXBXMXBXBXBXBXBXBXBXBXBXBXBXMXBXnXBXMXMXMXMXMXMXMXMXMXMXMXMXMXMXMXMXBXMXBXMXBXBXBXBXBXBXBXBX",
"BXBXBXBXBXBXBXBXBXBXBXBXBXBXBXBXMXBXMXMXMXMXMXMXMXMXMXMXMXMXMXMXMXMXMXMXBXMXBXMXBXBXMXBXMXBXMXBXBXMXBXMXMXMXMXMXMXMXMXMXMXMXMXMXMXMXMXMXMXBXBXBXMXBXBXBXBXBXBXBX",
"BXBXBXBXBXBXBXBXBXBXMXBXBXMXBXMXMXMXMXMXMXMXMXMXMXMXmXMXMXMXMXMXMXMXMXMXMXMXBXMXMXMXBXBXBXMXMXBXMXMXMXMXMXmXMXMXMXMXMXmXMXMXMXMXMXMXMXMXMXMXMXBXBXBXBXBXBXBXBXBX",
"BXBXBXBXBXBXBXBXBXBXBXBXBXBXMXMXMXMXMXMXMXmXMXmXMXmXMXMXMXmXmXmXMXmXbXbXNXbXNXNXnXnXnXnXMXBXMXMXMXMXMXMXmXMXMXmXmXmXmXMXmXmXMXmXmXMXMXMXMXMXBXMXMXBXBXBXBXBXBXBX",
"BXBXBXBXBXBXBXBXBXBXBXMXBXMXMXMXMXmXMXMXmXmXmXMXmXmXMXmXmXMXmXmXnXvX) r r e e r r t s Y.NXnXxXnXMXMXMXMXMXMXmXMXmXmXMXmXmXmXmXmXMXmXmXMXMXMXMXMXMXBXBXBXBXBXBXBX",
"BXBXBXBXBXBXBXBXBXMXBXMXMXMXMXMXMXMXmXmXmXMXmXMXmXMXmXmXmXmXmX;X(.(.( w r w 8 g e w e | (.(.(._.6XMXmXmXmXmXmXmXmXMXmXmXmXmXMXmXmXmXMXMXMXMXMXMXBXMXMXBXBXBXBXBX",
"BXBXBXBXBXBXBXBXMXBXMXMXMXMXMXMXmXMXmXMXmXmXmXmXmXmXmXmXmXdXiX..r 0 + 8 g s s s g e e e e e e ( /.iXiXdXmXmXmXmXmXmXmXmXmXmXmXMXmXmXMXMXmXMXMXMXMXBXBXBXBXBXBXBX",
"BXBXBXBXBXBXBXBXBXMXMXMXMXMXMXmXMXmXmXmXmXmXmXmXmXmXmXmXmX=X..d + + o : g d s g e s s s e w r 8 ( | ..2XmXmXmXmXmXmXmXmXmXmXmXmXmXmXmXmXmXMXmXMXMXMXMXMXBXMXBXBX",
"BXBXBXBXBXMXBXMXMXMXMXMXMXmXmXMXmXmXmXmXmXmXMXmXmXMXmXdX2XR.Q 8 + + 7 w f d s e g s f s s g w : 8 1 d Y.2XbXmXmXmXmXmXmXmXmXmXmXmXmXmXmXmXMXMXMXMXMXMXBXBXMXBXBX",
"BXBXBXBXBXBXBXBXBXMXMXMXMXMXmXmXMXmXmXmXmXmXmXmXmXmXgX_.| 0 e r r w s f s s e s s g i d f d s w w + 2 d T.aXmXmXmXmXmXMXMXmXmXmXmXmXmXmXmXMXMXMXMXMXBXMXBXBXBXBX",
"BXBXBXBXBXBXMXMXMXBXMXMXmXmXmXmXmXmXmXmXmXmXmXMXmXmX=X( s + 8 5 2 w e i s s g s e g u s s e 1 @ O O f T.wXbXmXmXmXmXmXmXmXmXmXmXmXmXmXmXmXMXmXMXMXMXBXMXBXBXBXBX",
"BXBXBXBXBXBXBXMXMXMXmXMXMXmXmXMXmXmXMXmXmXmXmXmXgX_...0 @ @ r 8 2 r e e s e r t i e s s e r 8 7 + O a ..-XdXmXmXmXmXmXfXmXmXmXmXmXmXmXmXmXmXmXMXmXMXMXBXMXBXBXBX",
"BXBXBXBXBXMXBXMXMXMXMXmXmXmXmXmXmXmXmXMXmXmXmXmX1X) 0 8 O 8 f g r w u g e r 2 w e e s e e w t d u 8 5 r U.gXmXmXmXmXmXmXmXmXmXmXmXmXmXmXmXmXmXMXMXMXMXMXMXBXBXBX",
"BXBXBXBXBXBXMXBXMXMXmXmXMXMXmXmXmXmXmXmXmXmXmXmX1X) 8 8 e s d s e e t e u w w 6 r g s s e w e f s w 8 r U.iXmXmXmXmXmXmXmXmXfXmXmXmXmXmXmXmXmXmXMXMXMXBXBXBXMXBX",
"BXBXBXBXBXBXBXBXMXMXMXMXmXmXmXmXmXmXmXmXmXMXmXmX1X| 7 8 e d d s s i s a s s s r e s e e g g g a s s e w | T.aXmXmXmXmXmXmXmXmXmXmXfXmXmXmXmXmXmXMXMXMXMXMXBXBXBX",
"BXBXBXBXBXBXMXMXMXMXmXmXmXmXmXMXmXmXmXmXmXmXmXmX1X) 0 7 w s d d s s s d d s d s d f 8 r g s s g e p t e s d -XfXmXfXmXfXfXmXmXfXmXmXmXmXmXmXMXmXMXmXMXMXBXMXBXBX",
"BXBXBXBXBXBXBXMXMXMXMXmXMXmXmXmXmXMXmXmXmXmXmXmX1X) 7 @ e s e t s i f s s i e d d s g e e u a e e e e 7 7 0 =XmXmXmXmXmXfXmXmXfXfXmXmXmXmXbXmXmXMXMXMXMXBXBXMXBX",
"BXBXBXBXBXMXBXMXMXMXmXMXmXmXmXmXmXmXmXmXMXmXmXmX1X) 7 o r s r p s s d p i w w i w e s g e r 0 g w i e O 1 0 -XmXfXmXfXmXmXmXfXmXmXmXfXmXmXmXmXmXMXMXMXMXMXBXBXBX",
"BXMXBXBXBXMXBXMXMXMXmXmXmXMXmXmXmXmXMXmXmXmXmXmX1X) 8 @ r s i d f s s a a i i w 0 0 e g e r 0 w w i r O 1 0 =XmXfXmXfXmXfXfXmXfXfXmXmXfXmXmXmXmXmXMXMXMXBXMXBXBX",
"VXBXBXBXMXBXMXMXMXMXMXmXmXmXmXmXmXmXmXmXmXmXmXmX2X) . . + 0 r s s i w w a w r i g 0 e u g r 0 1 + 7 0 1 . X =XmXmXfXmXfXfXmXfXmXmXfXfXmXmXmXmXmXmXMXMXMXMXBXBXBX",
"BXBXBXBXBXBXBXMXMXMXMXMXMXmXmXmXmXmXmXmXmXmXmXmX1X( o O 1 r 0 r i w 7 r g e 9 q 0 0 e u i 0 1 @ o O 1 X 3 ! ^.,X,XCXmXfXmXfXfXmXfXmXfXmXmXmXmXmXmXmXMXMXBXMXBXBX",
"BXBXBXBXBXBXMXBXMXMXmXMXmXmXMXmXmXmXmXmXmXmXmXMX2X( o + O 2 0 8 7 i r r e t t 8 + 1 g g w @ o 5 o o . . ! Z.F.S.~.$XfXfXfXfXfXfXfXmXfXfXmXfXmXmXMXMXMXMXMXBXBXBX",
"BXBXBXBXBXBXBXBXMXMXMXMXmXmXMXmXmXmXmXmXmXmXmXmX1X) u T t 2 2 + 7 a t e 9 p t 9 8 5 r w r 5 o 5 O . . X ! A.^.^.~.,XfXfXfXfXfXfXfXfXfXfXmXmXmXmXmXMXMXBXMXBXBXBX",
"BXBXBXBXBXMXMXMXMXMXMXMXMXmXmXmXmXmXmXmXmXmXmXmX1X] T _ u : O 2 0 a u q : y t p i 7 5 5 5 o 5 5 O . X = ! } }.+X^.,XfXfXfXfXfXmXfXfXfXmXmXfXmXmXMXmXMXMXMXMXBXBX",
"BXBXBXBXBXBXBXMXMXMXMXMXMXmXMXmXmXmXmXmXmXmXmXmX1X| ! ) T O o + 1 1 e e 9 q t p r a O 1 5 9 6 o   X Y c.^.+X^.^.U.#XfXfXfXfXfXfXfXfXfXmXfXmXmXmXmXMXMXnXBXBXBXMX",
"BXBXBXBXBXBXBXBXMXMXMXMXMXmXmXmXmXmXmXmXmXmXmXmXaX(.| f u 1 1 1 1 1 e u q q 3 e 0 e + 3 6 : :   . Y } D.[.+X$X#X'.1XfXfXfXfXfXfXfXfXfXfXmXfXmXmXMXMXMXMXBXMXBXBX",
"BXBXBXBXBXBXBXBXMXMXMXMXmXMXmXmXmXmXmXmXmXmXmXmXmXmX=XQ g 1 7 7 1 + 0 i r 8 1 O + 2 ! Y Y 4 4 = 4 x.L.K.+X+XrXnXfXfXfXfXfXfXfXfXfXfXfXfXfXmXmXMXmXMXMXMXBXBXBXBX",
"BXBXBXBXBXBXBXBXMXMXMXMXMXmXMXmXmXmXmXmXmXmXmXmXmXgXiX2XU.s 5 @ 5 7 5 7 8 5 O o O t ^.~.F.K.c.Y c.J.H.K.$XrXnXfXfXfXfXfXfXfXfXfXfXfXfXmXmXmXmXmXMXmXMXMXnXBXBXMX",
"BXBXBXBXBXBXBXBXBXMXMXMXMXmXmXmXmXmXmXmXmXmXmXmXiX(.U.U.Y.X.7 @ @ 7 5 5 5 5 7 o o > } C.H.J.D.v.C.H.H.J.$XxXfXfXfXfXfXfXfXfXfXfXfXfXfXfXfXmXmXmXmXMXMXBXMXBXBXBX",
"BXBXBXBXBXBXBXBXMXBXMXMXMXmXMXmXmXmXmXmXmXmXmXdX_.( r d R.R.a o @ 5 + + + + @ o X   < ~ D.D.J.K.H.H.F.A.^.aXfXfXfXfXfXfXfXfXfXfXfXfXfXmXfXmXmXmXMXMXMXMXBXMXBXBX",
"BXBXBXBXBXBXBXBXBXMXMXnXMXMXMXmXmXmXmXmXmXmXfX1X( T d a Q ! 6 : # - - - . . . @ # = 4 P ~ G.H.G.H.H.C.~ Z.iXfXfXfXfXfXfXfXfXfXfXfXfXfXfXmXmXmXMXMXmXMXMXMXBXBXBX",
"BXBXBXBXBXBXMXBXMXBXMXMXMXMXmXmXmXmXmXmXmXdX_...2 s d f t y , , ; & & & < $ # @ y R ~ j.g.G.L.H.H.H.C.P Z.iXfXfXfXfXfXfXfXfXfXfXfXfXmXmXfXmXmXmXMXMXMXBXBXBXBXBX",
"BXBXBXBXBXBXBXMXMXMXMXMXmXmXMXmXmXmXmXfXdX7X) 5 8 t f U U U n z B V G b n , y T ` E.S.}.L.H.H.H.C.F.H.^ N.%XgXfXfXfXfXfXfXfXfXfXfXmXfXmXmXmXmXmXMXMXMXBXBXBXBXBX",
"BXBXBXBXBXBXBXMXMXBXMXMXMXMXmXmXmXmXmXmX7XX./ q : : > y m b D Z ;.;.:.J m R ` ).!.XXoX+XK.K.H.G.g.x.[.D.x.| 2XfXfXfXfXfXfXfXfXfXfXfXmXmXmXmXMXMXMXMXBXMXBXBXBXBX",
"BXBXBXBXMXBXBXMXMXBXMXmXMXmXmXMXmXmXmXmX_.6 6 6 q , > n b C H =.,.<.r.L E P.).uX0X9XrX8X@X[.J.S.^ ! } D.} u ..(.dXfXfXfXfXfXfXfXfXfXmXmXmXmXMXMXMXMXBXMXBXBXBXBX",
"BXBXBXBXBXBXMXBXMXMXMXMXmXMXmXmXmXmXfXmX%X( q : y , , m G H @.5.<.r.e.j.P. XuXyX9XhXcXzX8X{.^.Z.{ P Y } ] s f | `.aXfXfXfXfXfXfXmXmXmXmXMXmXMXMXMXBXMXBXBXBXBXBX",
"BXBXBXBXMXBXBXBXMXMXmXMXmXmXmXmXmXmXmXmXaX=X( - , , m L H ;.<.w.r.e.j.B.XX<X0X4XhXNXsXsX6X,X~.U u U T ! f t f T ( `.fXmXfXmXfXfXmXmXmXmXmXMXMXnXMXBXBXBXBXBXBXBX",
"BXBXBXBXBXBXMXMXMXMXMXmXmXMXmXMXmXmXmXmXmXaX] $ h b J -.=.5.w.q.L j.W.|.<X4X3XzXkXNXiXiX5X`.X.- 4 y y y 4 > y y 3 (.fXfXmXfXfXmXmXMXMXmXMXMXMXMXBXMXBXMXBXBXBXBX",
"BXBXnXBXBXMXMXMXMXMXmXmXmXmXmXmXmXmXmXmXmXgX] * j V %.@.4.4.w.e.j.k.|.9X5X5XeXcXVXkXvXtX*XY.] > = = > < ; , - < Y ).mXmXmXmXmXmXmXmXMXMXMXnXMXBXBXBXBXBXBXBXBXBX",
"BXBXBXBXBXMXBXMXmXMXMXmXMXmXmXMXmXfXmXmXmXaX' * B -.<.2.>.*.H t.W.#X0X0X3XlXVXeXuXuXuX`.P.` m h & * * h n v % ! #XgXMXmXmXmXmXmXMXmXMXMXMXBXBXMXBXBXBXBXBXBXBXBX",
"BXBXBXBXBXMXMXMXMXmXmXmXmXmXmXmXmXmXmXmXmXgX] k V <.4.<.:.L E m.|.0X,X5XhXNXvXtXjXtX*XE.' I z b j k k c l j % ` pXmXmXmXmXmXmXmXmXMXMXMXMXBXMXBXBXBXBXBXBXBXBXBX",
"BXBXBXMXMXMXMXMXMXmXMXMXmXmXmXmXmXmXmXmXmXsX' x *.<.<.A L E k.].8X3X3X9XVXvXyXsXtX7XP.' b K G C N z B z z j * ` iXmXmXmXmXmXMXMXMXMXMXMXBXMXBXBXBXBXBXBXBXBXBXBX",
"BXBXBXMXBXMXMXMXMXmXMXmXmXmXmXmXmXmXmXmXmXkX' N ;.>.%.K E m.|.#X<X3XlXvXvXjXtXtX*XY.W I G H S S C V K D D l * ` pXMXMXmXMXmXMXmXMXMXMXnXMXBXBXBXBXBXBXBXBXBXBXBX",
"BXBXBXBXMXMXMXMXmXMXmXmXmXmXMXmXMXmXmXmXmXkXk.F r.:.L E n.).3X9X9XzXvXvXjXjXuX`.!.j.G o.;.=.o.S C Z K C N l & ` pXmXMXMXMXMXMXMXMXMXMXBXBXBXBXBXBXBXBXBXBXBXBXBX",
"MXBXBXMXMXMXMXMXMXmXmXmXmXmXmXmXmXmXmXMXmXlXk.D <.:.E M..X0X5X5XeXVXvXjXtXuX0Xm.' J H <.5.4.>.S S Z F Z V l & { aXnXMXMXMXMXMXMXMXBXBXMXMXBXBXBXBXBXBXBXBXBXBXBX",
"BXBXMXMXMXMXMXMXmXMXmXMXmXmXmXmXmXmXmXmXmXzXk.J t.j.m.&X<X5X6XzXlXlXyXtXuX XW.E e.:.w.0.3.4.&.S o.&.%.Z C B v { hXMXMXnXmXMXMXMXMXMXMXMXBXMXBXBXBXBXBXBXBXBXBXBX",
"MXBXMXMXMXMXMXmXmXMXmXmXmXmXmXmXmXmXmXMXmXlXk.I j.m.!.9XtX5X5XlXvXpX5X9X:XP.l.L *.=.9.7.1.,.>.+.>.,.O.o.C B j ' `.iXMXMXMXMXMXMXMXMXMXMXBXBXBXMXBXMXBXBXBXBXBXBX",
"BXBXBXBXMXMXMXMXmXmXMXmXmXmXmXmXmXmXmXmXbX3Xk.W P.XX4X<X5XhXVXkXtXjX4XXXB.h.:.w.8.9.0.0.$.$.>.O.2.5.5.O.+.V b h $ Q.mXMXMXmXmXMXMXMXMXMXMXMXMXBXBXBXBXBXBXBXBXBX",
"BXMXMXMXMXMXMXMXMXMXmXmXmXmXmXMXmXmXmXmX3XM.[ [ |.:X4X3XlXlXvXjXtXuX XOXz.i.2.8.8.8.6.1.$.$.O.O.,.5.3.>.o.C b v $ Q.MXmXMXMXMXMXMXmXMXMXMXMXBXBXBXBXBXBXBXBXBXBX",
"BXBXMXBXMXMXmXmXmXmXmXmXmXmXmXmXmXMXmXmX`./ n.Q.0X5X4XeXlXvXjXuX0XqXB.z.u.y.s.s.9.8.2.#.@.o.o.+.,.8.6.#.O.S z j ; Q.MXMXmXmXMXMXMXMXMXMXMXMXMXMXMXMXMXBXMXBXBXBX",
"BXMXMXBXMXMXmXMXmXmXmXmXmXmXMXmXmXmXmXmX;X .).:X5XtXhXcXlXhXuX4X XI.z.i.f.s.s.9.8.2.=.O.o.o.A +.#.8.6.3.>.A G j * Q.mXMXMXmXMXmXMXMXMXmXmXMXMXMXMXMXMXBXBXBXBXBX",
"BXBXMXBXMXmXMXMXMXMXmXmXmXmXmXmXmXMXmXmX;X...X9X6XlXVXkXwXhXuX&XB.z.i.f.s.s.s.0.0.@.O.*.o.A S +.,.6.7.6.#.S K b & !.bXMXmXMXmXMXmXmXmXMXMXMXMXMXMXMXBXMXBXMXBXBX",
"BXBXMXMXBXMXmXMXmXmXmXmXmXmXmXmXmXmXmXmX;X..`.9XkXNXNXpXeX3X&XP.h.q.8.9.s.s.7.0.#.@.O.o.o.Z S +.#.6.7.6.#.S K b * Q.mXmXmXMXmXmXmXMXmXMXmXMXMXmXMXMXMXBXMXBXBXBX",
"BXMXMXBXMXMXMXMXmXMXmXMXmXmXmXmXmXmXmXmX;X..`.5XVXkXjXuXuX&XW.j.L O.8.s.9.6.0.#.$.O.*.*.F S S O.2.6.7.6.2.O.G z * !.mXmXmXmXmXmXmXmXMXmXmXmXMXmXMXMXMXMXMXBXMXBX",
"BXMXBXMXMXMXMXmXMXmXMXmXmXmXmXmXmXmXmXmX7X..7XVXvXjXjX4X XP.z.i.8.8.p.p.7.1.#.$.$.O.O.A Z S +.@.2.6.7.6.2.O.K B v W Y.mXmXmXmXmXmXmXmXmXMXmXMXMXMXmXMXMXMXMXBXMX",
"BXBXBXBXMXMXMXMXMXmXmXmXmXmXmXmXmXmXmXMX;X...X0X&X<X&X&XOXz.u.y.p.s.p.9.3.=.O.O.O.o.A Z C C S &.2.6.6.0.2.O.H V m h ] mXMXmXmXmXMXmXmXmXmXmXmXmXMXMXMXMXMXBXMXBX",
"BXBXMXMXMXMXMXMXmXmXmXmXmXmXmXmXmXmXMXmX:X .P.P.I.I.V.V.z.u.y.d.p.7.1.#.&.O.o.O.%.A S N C C S &.,.3.3.1.@.O.Z B b h ] mXmXMXmXmXmXmXmXmXmXMXmXMXmXMXMXMXMXBXBXBX",
"BXMXBXBXMXMXMXMXMXMXMXmXmXmXmXMXmXmXmXmX.X~ j.h.h.l.z.z.u.y.8.6.6.1.+.+.S Z Z %.F Z C N x S o.&.>.#.,.,.&.o.A V b k [ mXmXmXmXmXmXmXmXmXmXmXmXmXmXmXMXMXMXMXMXBX",
"BXBXBXMXMXMXMXMXMXmXMXmXMXmXmXmXmXmXmXmX'.I e.e.i.r.i.y.y.5.#.=.&.H V B c c N Z G V N N N F -.O.O.O.O.>.;.F K K b v [ mXmXmXmXmXmXmXmXmXmXmXMXmXMXmXMXMXMXMXBXMX",
"BXBXBXBXBXMXBXMXMXMXMXmXmXMXMXmXmXMXmXmX|.I L F -.H %.&.;.o.S C z x k * * * k z B x z N B H -.H H F Z V N B b m v n [ mXmXmXmXmXmXmXMXmXmXmXmXmXmXmXmXMXMXMXMXBX",
"BXBXBXMXBXMXMXMXMXMXMXMXmXMXmXMXmXmXMXMX!.v M x z N C Z V B x j h & % ; ; ; h * k x x z B V G G z x j k ' W.].].].).;XNXNXmXMXmXmXmXMXmXmXmXmXmXmXMXMXMXMXBXMXBX",
"BXBXBXBXBXBXMXMXMXMXMXMXMXmXMXmXmXMXmXMX).; & k h M x z l l * * % ; - , - % $ & $ & M c z z G z k k % $ N.5XMXmXmXMXmXmXMXmXmXmXmXmXmXmXmXmXMXmXmXmXmXMXMXMXMXMX",
"BXBXBXBXBXBXMXMXMXMXMXMXMXMXMXMXMXMXmXMXMXmXCXCX<X` ; v * * $ - y T T ! T T T > , ; $ * * k v v n E.VXmXmXmXmXmXmXmXmXMXmXmXmXmXmXmXmXmXmXmXmXmXmXMXmXMXMXMXBXBX",
"BXBXBXBXBXBXBXBXBXMXMXMXMXMXMXMXMXmXmXMXMXMXMXMXiXR. .b.b.X.X.T 3 d u e t t g 7 @ > , R b.b.n.n.n.`.MXmXmXmXmXMXmXmXmXmXmXmXmXmXmXmXmXmXmXMXmXmXmXMXMXMXMXMXMXMX",
"BXBXBXBXBXBXBXBXMXBXMXMXMXMXMXMXMXMXMXMXMXMXMXMXMXMXMXMXMXBXBX..0 a 7 + O O O 7 6 6 T Y.BXMXMXMXmXmXmXMXmXmXmXmXmXmXmXmXmXmXmXMXmXMXmXmXmXmXMXmXMXmXMXMXMXMXBXBX",
"BXBXBXBXBXBXBXMXBXBXBXBXBXMXBXMXMXMXMXMXMXMXMXMXMXMXMXBXBXBXBX..7 0 1 5 O 1 1 @ 6 i ;X5XMXBXBXMXmXmXMXmXMXMXmXmXmXMXmXmXmXmXmXmXmXmXmXmXmXmXMXmXmXmXMXMXMXMXMXBX",
"BXBXBXBXBXBXBXBXBXMXBXMXBXBXBXBXMXMXMXMXMXBXMXBXMXBXBXMXBXBXBXT.( 8 @ 6 O @ 8 + f | BXBXBXBXMXMXMXmXMXMXmXmXmXmXmXmXmXmXMXmXmXmXmXmXmXmXmXmXMXmXMXMXMXMXBXMXMXBX",
"BXBXBXBXBXBXBXBXBXBXBXBXBXBXBXBXBXBXBXBXBXMXMXBXBXnXBXBXMXBXBXBX_.| ( ( ( ) ( ( U.BXBXBXMXBXBXBXBXMXMXmXMXmXmXMXmXMXmXmXmXmXmXmXmXmXMXmXmXMXmXMXMXMXMXMXMXMXBXBX",
"BXBXBXBXBXBXBXBXBXBXBXBXBXBXBXBXMXBXMXMXBXBXBXBXBXBXBXBXBXBXBXBXhX>X7X>X>X>X:X>XyXBXBXBXBXBXMXMXMXMXMXMXMXMXmXMXmXmXMXmXmXmXmXmXmXMXmXmXmXmXMXMXMXMXMXMXBXMXBXBX",
"BXBXBXBXBXBXBXBXBXBXBXBXBXBXBXBXBXBXBXBXBXMXBXMXBXBXBXMXBXBXBXBXBXBXBXBXBXBXBXBXBXBXBXBXBXBXBXMXBXMXMXMXmXMXMXmXmXMXmXmXMXmXMXmXmXmXMXmXMXMXmXMXMXMXMXBXMXBXMXBX",
"BXBXBXBXBXBXBXBXBXBXBXBXBXBXBXBXBXBXBXBXBXBXBXBXBXBXBXBXBXBXBXBXBXBXBXBXBXBXBXBXBXBXBXBXBXBXBXBXBXBXMXMXMXMXMXMXMXMXmXMXmXmXMXmXMXmXMXmXMXMXMXMXMXMXBXBXBXBXBXBX",
"BXBXBXBXBXBXBXBXBXBXBXBXBXBXBXBXBXBXBXBXBXBXBXBXBXBXBXBXBXBXBXBXBXBXBXBXBXBXBXBXBXBXBXBXBXBXBXBXMXMXBXMXMXMXMXMXMXmXMXmXMXMXmXMXMXMXMXMXMXMXMXMXMXMXBXMXBXBXBXBX",
"BXBXBXBXBXBXBXBXBXBXBXBXBXBXBXBXBXBXBXBXBXBXBXBXBXBXBXBXBXBXBXBXBXBXBXBXBXBXBXBXBXBXBXBXBXBXBXBXBXMXMXBXMXMXMXMXMXMXMXMXMXMXMXMXMXMXMXMXMXMXMXMXMXBXMXBXBXBXBXBX",
"BXBXBXBXBXBXBXBXBXBXBXBXBXBXBXBXBXBXBXBXBXBXBXBXBXBXBXBXBXBXBXBXBXBXBXBXBXBXBXBXBXBXBXBXBXBXBXBXBXBXBXMXMXBXMXMXMXMXMXMXMXMXMXMXMXMXMXMXMXMXBXBXBXMXBXBXBXBXBXBX",
"BXBXBXBXBXBXBXBXBXBXBXBXBXBXBXBXBXBXBXBXBXBXBXBXBXBXBXBXBXBXBXBXBXBXBXBXBXBXBXBXBXBXBXBXBXBXBXBXBXBXBXBXMXBXMXBXMXMXMXMXMXMXMXMXMXMXBXMXBXMXBXMXBXBXBXBXBXBXBXBX",
"BXBXBXBXBXBXBXBXBXBXBXBXBXBXBXBXBXBXBXBXBXBXBXBXBXBXBXBXBXBXBXBXBXBXBXBXBXBXBXBXBXBXBXBXBXBXBXBXBXBXBXMXMXBXMXBXBXMXBXMXMXBXBXMXMXMXMXMXBXBXBXMXMXBXBXBXBXBXBXBX",
"BXBXBXBXBXBXBXBXBXBXBXBXBXBXBXBXBXBXBXBXBXBXBXBXBXBXBXBXBXBXBXBXBXBXBXBXBXBXBXBXBXBXBXBXBXBXBXBXBXBXBXBXBXBXBXBXMXMXBXMXBXMXBXMXMXBXMXBXBXBXBXBXBXBXBXBXBXBXBXBX",
"BXBXBXBXBXBXBXBXBXBXBXBXBXBXBXBXBXBXBXBXBXBXBXBXBXBXBXBXBXBXBXBXBXBXBXBXBXBXBXBXBXBXBXBXBXBXBXBXBXBXBXBXBXBXBXMXBXBXBXBXBXBXBXBXBXBXBXBXMXBXBXBXBXBXBXBXBXBXBXBX"
};
