/* XPM */
static char *result[] = {
/* columns rows colors chars-per-pixel */
"80 80 240 2 ",
"   c #190C0C",
".  c #180D11",
"X  c #151515",
"o  c #161916",
"O  c #1B1A15",
"+  c #1C1C1B",
"@  c #1A1519",
"#  c #11100F",
"$  c #2A0A0B",
"%  c #3B0506",
"&  c #3C0C0D",
"*  c #370708",
"=  c #39120D",
"-  c #290B11",
";  c #380D13",
":  c #231B1D",
">  c #2C1B1C",
",  c #291616",
"<  c #341413",
"1  c #3B1413",
"2  c #331C1D",
"3  c #361718",
"4  c #29110D",
"5  c #1E201D",
"6  c #22211E",
"7  c #29211E",
"8  c #32221E",
"9  c #1A1E21",
"0  c #241D22",
"q  c #2B1D22",
"w  c #261F29",
"e  c #381D24",
"r  c #1D2222",
"t  c #242424",
"y  c #2B2424",
"u  c #242925",
"i  c #2D2926",
"p  c #262429",
"a  c #2B2529",
"s  c #252A29",
"d  c #2B2B2B",
"f  c #332325",
"g  c #332C2D",
"h  c #3A2D2C",
"j  c #372727",
"k  c #2E312D",
"l  c #33312E",
"z  c #3B342D",
"x  c #2E2E32",
"c  c #342E32",
"v  c #3B2E31",
"b  c #2E3232",
"n  c #333333",
"m  c #3A3434",
"M  c #3A3935",
"N  c #36363A",
"B  c #3B3539",
"V  c #373939",
"C  c #3C3B3B",
"Z  c #333936",
"A  c #4C0D0D",
"S  c #460908",
"D  c #580807",
"F  c #46130D",
"G  c #490E13",
"H  c #540E11",
"J  c #431314",
"K  c #4C1313",
"L  c #45191A",
"P  c #4B1C1C",
"I  c #471618",
"U  c #531214",
"Y  c #5B1213",
"T  c #54151A",
"R  c #541B1C",
"E  c #5B1A1A",
"W  c #57120F",
"Q  c #640A08",
"!  c #631B18",
"~  c #761819",
"^  c #6F0C0B",
"/  c #55231E",
"(  c #65261E",
")  c #482828",
"_  c #5A2B2B",
"`  c #572627",
"'  c #48312E",
"]  c #492D30",
"[  c #443534",
"{  c #433B3B",
"}  c #493737",
"|  c #573938",
" . c #583030",
".. c #662927",
"X. c #663A39",
"o. c #7A3934",
"O. c #601E21",
"+. c #3B413E",
"@. c #47413D",
"#. c #744139",
"$. c #3C3D41",
"%. c #463C42",
"&. c #543F42",
"*. c #723F41",
"=. c #3E4142",
"-. c #434344",
";. c #4A4444",
":. c #4C4C4C",
">. c #484649",
",. c #524C4B",
"<. c #554645",
"1. c #545454",
"2. c #5B5C5B",
"3. c #595755",
"4. c #534F50",
"5. c #6A4A44",
"6. c #6B595B",
"7. c #665755",
"8. c #765658",
"9. c #6E534A",
"0. c #6A635B",
"q. c #746152",
"w. c #675E66",
"e. c #6B6C6C",
"r. c #676666",
"t. c #786966",
"y. c #746E74",
"u. c #747473",
"i. c #7D7D7C",
"p. c #7A7675",
"a. c #71736E",
"s. c #851717",
"d. c #951718",
"f. c #820E0C",
"g. c #A61B1B",
"h. c #91211E",
"j. c #A91D21",
"k. c #A62222",
"l. c #B12125",
"z. c #864036",
"x. c #975B53",
"c. c #8B4B48",
"v. c #866557",
"b. c #936D58",
"n. c #866767",
"m. c #847777",
"M. c #8D756F",
"N. c #A97C6A",
"B. c #BB7B6E",
"V. c #A5494D",
"C. c #BF995C",
"Z. c #888278",
"A. c #9A8672",
"S. c #B89A6A",
"D. c #AB8774",
"F. c #A99478",
"G. c #B79A76",
"H. c #AC8B6D",
"J. c #BDA277",
"K. c #CCA469",
"L. c #C8A776",
"P. c #D5B37C",
"I. c #D3A66A",
"U. c #C99F64",
"Y. c #7C7D83",
"T. c #8B7F83",
"R. c #7D8187",
"E. c #868686",
"W. c #968788",
"Q. c #939494",
"!. c #9D9D9D",
"~. c #96989B",
"^. c #958E8D",
"/. c #A9988A",
"(. c #B69687",
"). c #B59A99",
"_. c #B68F8F",
"`. c #B9A487",
"'. c #ADA597",
"]. c #BAA798",
"[. c #BBB09C",
"{. c #9AA5A4",
"}. c #9AA8A4",
"|. c #A8AAA9",
" X c #B8AAA4",
".X c #ADBAB9",
"XX c #B6B8B8",
"oX c #A299A0",
"OX c #C8968A",
"+X c #D5B986",
"@X c #C8B597",
"#X c #D5B598",
"$X c #C3AC90",
"%X c #E4BD8B",
"&X c #C8B7A9",
"*X c #CCB4AF",
"=X c #E6BBA1",
"-X c #BAC0BF",
";X c #DAC18A",
":X c #D4C49C",
">X c #D6C6AB",
",X c #D0C3BA",
"<X c #E7C9B4",
"1X c #F6DAB9",
"2X c #E9CEA9",
"3X c #EFE3BE",
"4X c #E5CA94",
"5X c #BCBDC0",
"6X c #E0BFC1",
"7X c #B9C4C3",
"8X c #C5C6C6",
"9X c #CBD8D7",
"0X c #D3DCDC",
"qX c #D8D9D8",
"wX c #D7CEC9",
"eX c #EAD8C5",
"rX c #F3DAC6",
"tX c #D6E1DE",
"yX c #CEE0DF",
"uX c #F8E7CA",
"iX c #F4E9D5",
"pX c #EEEBD2",
"aX c #D5E5E4",
"sX c #DBECEB",
"dX c #D8E7E7",
"fX c #DDF0EF",
"gX c #DBF3F4",
"hX c #DEFBFD",
"jX c #CFE1E0",
"kX c #E4ECE6",
"lX c #E5F3EE",
"zX c #ECF4E9",
"xX c #E3F5F4",
"cX c #E4F8F7",
"vX c #E5FDFC",
"bX c #ECFEFC",
"nX c #EAF8F6",
"mX c #F1FFFB",
"MX c #F1FBF1",
"NX c #F2F9EA",
/* pixels */
"mXmXmXmXmXmXmXmXmXmXmXmXmXmXmXmXmXmXmXmXmXbXmXmXbXmXbXmXmXbXmXbXmXmXmXmXbXmXmXmXmXmXmXmXmXmXmXmXmXmXmXbXmXbXmXmXbXmXmXbXbXbXmXmXmXbXmXmXmXmXmXmXmXmXmXmXmXmXmXmX",
"mXmXmXmXmXmXmXmXmXmXmXmXmXmXmXmXmXbXbXmXmXbXbXmXbXmXmXbXbXmXbXmXbXmXmXbXmXmXmXmXmXmXbXmXmXmXmXmXbXmXbXmXbXmXbXbXbXbXbXmXmXbXbXbXmXbXbXmXmXbXmXmXmXmXmXmXmXmXmXmX",
"mXmXmXmXmXmXmXmXmXmXmXmXmXmXmXmXmXmXbXmXmXbXbXbXbXbXbXbXmXbXmXbXbXmXbXmXmXbXbXmXmXmXmXmXmXmXmXmXbXmXmXbXmXbXbXbXbXbXbXbXbXbXbXbXmXbXbXmXmXmXmXmXbXmXmXmXmXmXmXmX",
"mXmXmXmXmXmXmXmXmXmXmXmXmXmXmXmXbXmXbXbXbXbXbXbXbXbXbXbXvXbXbXbXbXbXbXmXbXmXbXmXmXbXmXmXmXbXmXbXmXmXbXbXbXbXbXbXbXbXbXvXbXbXbXbXbXbXbXbXbXbXbXmXmXmXmXmXmXmXmXmX",
"mXmXmXmXmXmXmXmXmXmXmXmXmXbXmXbXbXbXbXbXbXbXbXbXbXbXvXbXbXbXvXbXbXvXbXvXbXbXbXmXbXbXmXmXmXmXmXbXbXbXbXbXbXbXbXvXbXbXvXbXvXvXbXbXbXbXbXbXbXmXbXmXmXmXmXmXmXmXmXmX",
"mXmXmXmXmXmXmXmXmXbXmXmXmXmXbXbXbXvXbXbXbXbXvXbXvXbXbXbXbXvXvXbXvXnX|.a.e.y.u.e.e.e.i.XXbXbXbXbXbXbXbXbXbXvXbXvXbXbXvXbXvXbXbXvXvXbXbXbXbXbXbXmXmXbXmXmXmXmXmXmX",
"mXmXmXmXmXmXmXmXmXmXmXbXmXbXbXbXbXbXbXbXvXvXvXvXvXvXbXvXvXcXgXfXlXfXR.i d a a a u a V E.lXlXcXbXbXbXbXvXvXvXbXbXvXvXvXvXbXvXvXvXvXbXvXbXbXbXbXbXbXmXmXmXmXmXmXmX",
"mXmXmXmXmXmXmXmXmXbXbXmXbXbXbXbXbXbXvXvXbXvXvXMXbXvXcXxXgXQ.C a a a a u s d n d n b t t s a u.nXnXvXbXvXbXvXvXvXvXvXvXvXvXvXvXbXvXbXvXbXvXbXbXmXmXbXbXmXbXmXmXmX",
"mXmXmXmXmXmXmXmXmXbXmXbXbXbXbXbXbXvXvXbXvXvXvXvXvXvX0X|.!.e.d t s i b x d g k n V x t + r t 1.|.0XvXbXvXvXvXvXvXvXbXvXvXvXvXvXvXvXvXbXbXvXbXbXbXbXmXbXmXbXmXmXmX",
"mXmXmXmXmXmXmXmXbXmXbXbXbXbXbXvXbXvXvXvXvXvXvXvXcXdX!.=.s t + t k Z M n n d b M C n t + + + t $.~.sXnXvXvXvXvXvXvXvXvXvXvXvXbXvXvXbXvXvXvXbXvXbXbXbXbXmXmXmXmXmX",
"mXmXmXmXmXmXmXbXmXbXbXbXbXvXvXvXvXvXvXvXvXbXvXvXaXQ.-.t t s t Z V M V n b d n n n n d t t t t n 4.^.9XcXvXvXvXvXvXvXvXvXvXvXvXvXvXvXvXvXvXbXbXbXbXbXbXmXmXmXmXmX",
"mXmXmXmXmXmXmXbXbXbXbXbXvXbXvXbXbXvXvXvXvXvXvXvXsX|.r.t + : t b n n n d d d n n d d n d t t t t 5 +.^.tXvXvXvXvXvXvXvXvXvXvXvXvXvXvXvXvXbXvXvXbXbXbXbXmXbXmXmXmX",
"mXmXmXmXmXmXbXmXbXbXbXbXbXvXbXvXvXvXvXvXvXvXvXvXcX0XE.b X X + t d n n n d b d d a s a s t O + t o + -.{.yXnXvXvXvXvXvXvXvXvXvXvXvXvXvXvXvXbXvXbXbXbXbXmXbXmXmXmX",
"mXmXmXmXmXmXmXbXbXbXbXvXvXvXvXvXvXvXvXbXvXvXvXvXaXQ.=.r t u n a a x n d d d s + + + r p s t t n 9 o a -.!.sXvXvXvXvXvXvXvXvXvXvXvXvXvXvXvXvXbXvXbXbXbXbXmXbXmXmX",
"mXmXmXmXmXbXmXbXbXbXbXbXvXbXvXbXvXvXvXvXvXvXvXvXyXu.p t d d d s s d n d t t t 5 + + + + t t a n t 5 t t R.aXvXvXvXvXvXvXvXvXvXvXvXvXvXvXvXvXvXbXbXvXmXbXmXmXmXmX",
"mXmXmXmXmXbXmXmXbXbXvXbXvXvXvXvXvXvXbXvXvXvXvXfX7Xr.a d Z a + t a d t u + t t a n s + @ X t s d b a t u E.aXvXvXvXvXvXvXvXvXvXvXvXvXvXvXvXvXvXbXvXbXbXmXbXmXmXmX",
"mXmXmXmXmXbXmXbXbXbXvXvXvXbXvXvXvXvXvXvXvXvXvX7Xe.@.k d u + X a i + 6 s d b b V M n b t + O t Z n d t t Z.dXvXvXvXvXvXvXvXvXvXvXvXhXvXvXvXvXvXvXbXbXmXbXmXmXbXmX",
"mXmXmXmXmXmXbXbXbXbXvXbXvXvXvXvXvXvXnXvXvXvXvX}.7 6 u u 6 + + a p + t d M M n n n n Z a + + t d x a r t R.aXvXhXhXvXhXvXvXhXhXvXvXvXvXvXvXvXvXvXvXbXbXmXbXmXmXmX",
"mXmXmXmXmXbXmXbXbXbXbXvXvXvXvXvXkXkXkXkXlXvXvX{.6 5 5 i u t t r t t d l n n n a t x a t i d y 5 d d 5 t E.aXvXvXvXvXvXvXhXvXvXvXhXvXvXvXvXvXvXvXbXvXbXbXmXmXbXmX",
"mXmXmXmXmXmXmXbXbXbXbXvXvXbXvXzX[.@X].&XqXvXvX}.6 5 6 i i 6 X + t i l d 6 u k i y y 0 p g m i O u u + t E.aXvXhXvXhXvXhXvXvXhXhXvXvXhXvXvXcXvXvXvXbXbXbXbXmXmXmX",
"mXmXmXmXmXmXbXbXbXbXvXbXbXvXnXzXF.`.'.J.>XMXbX}.6 5 5 6 5 o o 5 5 a a a t r x t a 0 0 w g c i O 5 r o + i.aXvXvXhXvXvXvXhXvXhXvXvXvXvXhXvXvXvXvXvXbXbXbXmXbXmXmX",
"mXmXmXmXbXmXmXbXbXbXbXvXvXvXbXxX/.`.:XG.@XNXNX}.u u 5 O O O 5 o @ p w d x s s t : , q q g c i y t 9 X X p.yXhXvXvXhXhXhXvXhXhXhXhXhXhXvXvXvXvXvXbXbXbXmXbXmXmXmX",
"mXmXmXmXmXbXbXbXbXbXvXbXvXbXvXxXZ.F.@X`.;X2XuXpX'.3.O O O 6 7 6 + w p w w 0 t 6 w.*X^.7.q q w a 0 @ X # u.aXvXhXhXvXvXhXhXvXhXvXhXvXhXvXvXhXvXvXvXbXbXbXmXbXmXmX",
"mXmXmXmXmXmXmXmXbXbXbXbXvXvXbXxXQ.[.@X;X;X;X2X3X:XZ.z 7 7 7 7 6 0 p d c { j 7 7.W.iX$Xt.v c e w 0 0 p O p.tXhXvXhXhXhXhXhXhXhXhXhXvXhXhXvXvXvXvXvXbXbXbXbXmXmXmX",
"mXmXmXmXmXmXmXmXbXbXbXbXvXbXvXvXfXkX3X4X;X;X%XP.K.H.q.) @.} , : 6 u b 4.p.&.j eXeXrX_.6.{ %.$.w > z @.l Y.aXvXhXhXhXhXhXhXvXhXhXhXhXhXhXvXvXvXvXnXbXbXbXbXmXmXmX",
"mXmXmXmXmXbXbXbXbXbXbXbXbXvXvXvXhXcXNX3X4XP.I.I.K.S.H.b.8.} , : k 1.u.T.7.N.(.rXrXeXM.m.T.y.%.w > [ ,.Z Z.aXhXhXvXhXhXhXhXhXhXhXhXhXhXvXvXhXvXvXvXbXbXbXmXbXmXbX",
"mXmXmXmXmXmXmXnXbXbXbXbXbXvXvXvXvXvXcXzX2XL.U.K.K.K.K.F.q.} , f ;.^.~.T.&.OXeX<X1X<Xt.u.oX~.w.w 7 z ,.0.|.sXvXhXhXhXhXhXhXhXhXhXhXvXhXhXhXvXvXvXvXvXbXbXbXmXmXmX",
"mXmXmXmXmXmXmXmXbXbXbXbXvXvXbXvXvXvXcXlX:XJ.P.K.C.K.K.H.5.[ g q 1.XXY.>.%.).<X<X1X>Xq.;.w.5XT.w f i ,..XhXhXhXhXhXhXhXhXhXhXhXhXhXhXhXhXhXvXvXvXvXbXbXbXbXmXmXmX",
"mXmXmXmXmXmXmXmXbXbXbXbXvXbXvXbXvXvXvXlX>XS.S.L.P.+X+X[.'.y.;.y.^.wXT.3.4.].uXrX1XwXt.,.e.*XXXm.,.0.|.dXhXhXhXhXhXhXhXhXhXhXhXhXhXhXhXhXhXvXvXvXvXvXmXmXmXmXmXbX",
"mXmXmXmXmXmXmXmXmXbXbXbXbXvXvXvXvXvXMXpX:XJ.S.L.;X;X+X:X,XQ.w._.*XwXW.7.6.*XiXuXuXpXA.4.t.*X*X].7.0.9XcXhXhXhXhXhXhXhXhXhXhXhXhXhXhXhXvXvXvXvXvXvXmXbXmXmXmXmXmX",
"mXmXmXmXmXmXmXmXbXbXbXmXbXvXvXbXvXnXpX@XJ.+XP.L.S.@XA.@.p e.*XD.N.OX*XrXuXuXuXuXuXuXrXeX*X*X(.q.} y ,..XhXhXhXhXhXhXhXhXhXhXhXhXhXhXhXhXhXvXvXvXnXbXbXbXbXmXmXmX",
"mXmXmXmXmXmXmXmXmXbXbXbXbXbXvXvXvXnXpX[.L.+XL.J.`.F.q.+.a 4.m.8.v.D.(.#X2X1X1X1X1X1X<X=XOXOXb.5.' y { E.8XgXhXhXhXhXhXhXhXhXhXhXhXhXhXvXhXvXvXvXvXbXbXmXbXmXmXmX",
"mXmXmXmXbXmXmXmXmXbXbXbXbXvXbXvXvXnXsX[.J.S.S.F.'.6.n C z i 7 2 ) o.x.N.L.#X=X=X=X=XOXB.x.c.@.8 j m M i p.7XhXhXhXhXhXhXhXhXhXhXhXvXhXhXvXvXvXvXbXbXbXmXmXmXbXmX",
"mXmXmXmXmXmXmXbXbXmXbXbXbXbXvXvXvXnXsX'.A.Z.q.5.@.n c %.C M z ) ) ( ( o.x.x.b.S.H.H.b.z.( ( ` ' @.@.-.s M 2.7XgXhXhXhXhXhXhXhXhXhXhXhXvXvXvXvXbXbXbXbXbXmXmXmXmX",
"mXmXmXmXmXmXbXmXbXbXbXbXbXvXbXvXvXvXgX8XZ.+.m d 7 : a %.+.n y ) / ! ! Y _ _ ) 5.9.5.X.! Q ( ( | &.>.{ i s d u.|.gXhXhXhXhXhXhXhXhXhXhXhXvXvXvXvXbXbXmXbXmXmXmXmX",
"mXmXmXmXmXmXmXmXbXmXbXnXbXbXvXbXvXvXcXaXi.O x x p @ 0 c n u . , I ..! W J 3 2 8 8 ' / E ! ( ..' &.%.B n V C x 4..XjXhXhXhXhXhXhXvXhXvXvXvXvXvXvXbXbXmXmXmXmXmXmX",
"mXmXmXmXmXmXbXbXbXbXbXvXvXbXvXvXvXvXvXdXR.9 b N p : @ : @ X # < J R ! X.5.8.6.g g } ' ....E P 3 e c C -.:.>.C V 1.|.gXhXhXhXhXhXvXvXvXvXvXvXvXMXbXbXmXmXmXmXmXmX",
"mXmXmXmXmXmXmXbXmXbXbXbXbXbXvXvXvXvXhXsXR.r s x v a : @ .   . 2 3 L _ 5.8.m.p.c l M [ ] ` J ; , q N >.3.2.2.4.=.a {.gXhXhXhXhXhXvXvXvXvXvXvXvXbXbXmXbXmXbXmXmXmX",
"mXmXmXmXmXbXmXbXbXbXbXvXvXvXbXvXvXvXvXsX~.b r r n l f , - - - e j 2 ' 5.r.p.p.i d d a q q - - 2 g -.3.2.2.2.0.4.a {.gXhXhXvXhXvXvXvXvXvXbXbXbXbXbXmXmXmXmXmXmXmX",
"mXmXmXmXmXmXbXmXbXbXvXbXbXvXvXvXvXvXvXgX'.:.Z i + O , > - * - e e , 7 @.6.u.u.g d s p 0 q q > , { ,.+.n n d =.-.s '.gXhXvXhXhXvXvXvXvXbXvXbXmXbXmXbXmXbXmXmXmXmX",
"mXmXmXmXbXmXbXbXbXbXbXbXvXvXvXvXvXvXvXgX|.4.>.Z @ @   - * & J ) h q w n -.1.3.7 u u u u y i 8 , [ { g p t 5 x -.r.5XcXvXvXhXvXvXvXbXbXvXmXbXbXbXmXmXmXmXmXmXmXmX",
"mXmXmXmXmXbXbXbXbXvXvXvXvXvXvXvXvXvXhXsX~.+.:.-.c ,   * * A E  .] v m c 0 x Z + u u d b z z 8 4 , j m n n x t :.7XfXvXvXvXvXvXvXvXvXbXmXmXbXmXbXmXmXmXmXmXmXmXmX",
"mXmXmXbXbXmXbXbXbXbXvXvXbXvXvXvXcXvXvXsX^.d +.-.B q - = % A W _  .] { B c $.$.x V C n z z } 8 $ $ 2 [ g p t 9 1.yXvXvXvXvXvXvXvXbXbXnXbXbXmXbXmXmXmXmXmXmXmXmXmX",
"mXmXmXmXmXbXbXbXvXbXbXbXvXvXvXvXvXvXgX|.r.Z m g e , < & % S F I ] } %.%.c $.$.$.M M { { } |  .1 $ ) ,.4.:.>.$.2.yXvXvXvXbXvXvXbXvXbXvXbXbXmXmXmXmXmXmXmXmXmXmXmX",
"mXmXmXmXbXbXbXbXbXbXvXvXvXvXvXvXvXbXyXe.>.:.Z 7 4 4 1 * * * * ; e } &.%.c x w c x n { &.| | _ L = ' t.m.Y.p.>.w.tXvXvXnXbXbXbXbXbXbXmXbXbXmXmXmXmXmXmXmXmXmXmXmX",
"mXmXbXmXbXmXbXvXvXbXvXvXvXvXvXvXnXvXyX3.b @.M 2 $ = F * % % * ; I P X.8.7.6.6.8.7.7.<.| | ` / ` X.8.6.;.>.1.4.Y.dXbXvXbXbXvXbXbXbXbXmXmXmXmXmXmXmXmXmXmXmXmXmXmX",
"mXbXmXbXmXbXbXbXbXvXvXvXvXvXvXvXvXvXaXR.;.n f 1 ; J G % % % * & & J  .8.8.8.8.8.8.8.&. ._ R K / X.5.<.n N -.:.T.dXbXmXbXbXbXbXbXbXmXmXbXbXmXmXmXmXmXmXmXmXmXmXmX",
"mXmXbXmXbXbXbXvXvXbXvXbXvXvXvXvXvXvXcX9Xm.4 * & U A S S A S G ; J G E ..O.` _ _ _ _ ` R R K S % = 3 j ;.3.2.>.u.aXbXbXbXvXbXbXbXbXbXbXbXmXbXmXmXmXmXmXmXmXmXmXmX",
"mXmXbXmXbXbXbXbXvXbXvXvXvXvXvXvXvXvXvXkXT.H E E Y D S S T G ; T I F P U E E R R R R / I F F F F I L [ 4.r.r.:.y.aXvXbXbXbXbXbXbXbXbXbXbXmXbXbXmXmXbXmXmXmXmXmXmX",
"bXmXmXbXbXvXbXvXvXbXbXvXvXvXvXvXvXvXxX*XV.~ h.s.Q D D D T G ; ] ] ) / R H A A K I P 3 1 1 & J T T P ] @.3.7.e.Q.sXvXbXbXvXbXvXbXbXbXbXbXmXbXmXbXmXmXmXmXmXmXmXmX",
"mXmXbXmXbXbXvXbXbXbXvXvXvXvXvXvXvXvX0Xx.h.h.k.d.Q D D D T T ; ] } | X.` K A W F P ] ) q 8 1 L O.T G K ) v a .XnXvXbXvXvXbXbXbXbXbXbXbXbXbXbXmXmXbXmXmXmXbXmXmXmX",
"mXmXbXbXbXbXbXbXvXvXvXvXvXvXvXvXcXcXqXV.h.j.g.f.Q D Q Q T I - v { ;.' I F F F ) ] ) g a j 8 1 J Y Y G 1 8.oXkXvXbXvXbXbXvXvXbXbXbXvXbXbXbXbXbXbXmXbXmXbXmXmXmXmX",
"bXmXbXbXbXbXbXbXbXvXvXvXvXvXbXvXmXnX6XV.g.l.d.^ D D Q Q H J , v { @.h = J = 1 | } v a x d 8 < S A Y G J n.dXbXbXbXbXbXbXbXbXbXvXvXbXbXbXbXbXbXbXbXbXbXmXmXmXmXmX",
"mXbXbXMXbXbXbXvXvXbXvXvXvXvXvXvXmXT.s.d.l.g.f.Q D D Y H G ; < v m { @.} ' } [ @.{ N b p y > ; % H T K < n.tXbXbXvXvXvXvXvXvXvXbXbXvXvXbXvXbXbXbXbXbXmXbXbXmXmXmX",
"mXbXbXmXbXbXbXbXbXvXvXvXvXvXvXvXxXOX~ g.g.g.^ D S H A A & * , v M M @.@.N B %.$.$.N b p 7 7 = % A T ` 8.).kXvXvXbXvXbXvXvXvXvXvXbXvXbXvXvXbXbXvXbXbXbXmXbXbXmXmX",
"mXmXmXbXmXvXbXvXvXvXvXvXbXvXvXvXkXOXf.g.g.f.D H T ` R ; $ - , c M M +.@.$.N $.$.$.N x s f 2 $ % G K X.*XbXvXbXvXvXvXvXvXvXbXvXvXvXvXvXvXbXvXbXvXbXbXbXbXmXmXmXbX",
"bXmXmXbXbXbXbXbXbXvXvXvXvXvXvXbXxX_.f.j.d.^ H 8.*X*XW.] e , , g M +.-.-.-.$.N $.B N i d y 2 , $ * 1 <.-XvXbXbXvXvXvXbXvXvXvXvXvXvXvXbXvXvXbXbXbXbXbXbXbXbXmXmXmX",
"mXmXmXbXbXbXbXvXbXvXvXbXvXvXvXvXfXOXs.j.s.~ n.XXvXvX9X^.m.3.a v C C C -.V n b n c B g i j y , $ - ) W.0XbXvXvXvXbXvXvXvXvXvXvXvXvXvXvXvXvXvXvXvXbXbXbXbXbXbXbXmX",
"mXmXbXmXbXbXbXbXbXvXvXvXvXvXvXvXxX_.~ s.~ o.6XcXvXvXbXvXvX~.h v { m C $.b s s c c c s t t 7 , 4 j m.qXvXvXvXvXvXvXvXvXvXvXvXvXbXvXvXvXbXvXvXbXbXvXvXbXbXbXmXmXbX",
"mXbXmXmXbXmXbXbXbXvXbXvXvXbXvXvXgX).` ^ Y *.8XcXvXvXvXbXbX~.g v v f m M Z r r N d @ + 5 6 : + j m.qXnXvXbXvXbXvXvXvXvXvXvXvXvXvXvXvXvXvXvXvXvXvXbXvXvXbXbXbXbXmX",
"mXmXmXbXbXbXbXbXbXbXbXvXvXvXbXvXcX5XM.n.n.W.qXvXvXvXbXvXvXQ.j g v g { -.>.b u V t # X + 5 5 M i.8XbXvXbXvXvXvXvXvXbXvXvXvXbXvXvXvXvXvXvXvXvXvXvXvXbXbXbXbXmXbXbX",
"mXmXmXmXmXbXbXbXbXvXbXbXbXvXvXvXvXbXvXvXcXvXvXvXvXvXvXbXbX{.;.g v { %.:.4.-.V b 0 # + o o + e.bXbXvXvXvXbXvXvXvXvXvXvXvXvXvXvXvXvXvXvXvXbXvXbXvXvXvXvXbXbXbXmXmX",
"mXmXmXmXbXmXmXbXbXbXbXvXvXbXbXvXvXvXvXvXvXvXvXbXvXvXbXbXbX9X|.>.d N n g c m n s X X + o o o e.vXbXbXbXvXvXvXvXvXvXvXvXvXbXvXvXvXbXvXvXvXvXvXvXbXvXvXbXbXbXbXmXbX",
"mXmXmXbXmXmXbXmXbXbXbXbXbXvXbXbXbXvXbXvXbXvXbXvXbXbXvXbXbXbXbX3.s c n c g n d 0 X X O X o o a.bXbXvXbXvXvXbXvXvXvXvXvXvXvXvXvXvXvXvXvXvXvXvXvXvXbXvXvXbXbXbXbXmX",
"mXmXmXmXmXmXbXbXbXbXbXbXbXbXbXbXbXvXbXvXbXbXvXbXvXbXbXbXbXbXbX2.t n -.:.{ m k 5 + @ m M C C E.vXbXvXvXvXvXvXvXvXvXvXvXvXvXvXvXvXvXvXvXbXvXvXvXvXvXbXbXbXbXbXbXmX",
"mXmXmXmXmXmXmXmXmXbXbXmXbXbXbXbXbXbXbXbXbXbXbXbXbXbXbXbXbXmXbX2.s p d l d t r s t g Q..X.XXX9XnXbXbXbXbXbXvXvXvXvXvXvXvXvXvXvXvXvXvXvXvXvXvXvXbXvXvXbXbXbXbXbXmX",
"mXmXmXmXmXbXmXmXbXmXbXbXbXbXbXbXbXbXbXbXbXbXbXbXbXbXbXmXbXmXbX2.y s n Z b s r u s C 8XmXmXbXbXbXbXbXvXvXvXvXvXvXvXvXbXvXvXvXvXvXvXvXvXvXvXvXvXvXbXbXbXbXbXbXbXmX",
"mXmXmXmXmXmXmXmXmXmXmXmXbXmXbXbXbXbXbXbXbXbXbXbXbXbXmXbXmXbXmX2.s d >.1.>.+.+.5 : n 8XmXmXbXmXbXbXbXbXvXbXvXbXvXvXvXvXvXvXvXvXbXbXvXvXvXvXvXvXbXvXvXbXbXbXbXmXbX",
"mXmXmXmXmXmXmXmXmXbXmXbXmXmXmXmXbXbXbXbXbXmXbXmXbXmXmXmXmXmXbX8XQ.n n n x x Z *XXX-XkXbXmXbXmXbXbXbXbXvXvXvXbXvXvXvXvXvXvXvXvXvXbXvXvXvXbXbXvXbXbXbXbXbXbXbXmXbX",
"mXmXmXmXmXmXmXmXmXmXmXmXmXmXmXmXbXmXmXmXmXbXbXmXmXmXbXbXmXmXmXmXqXu.3.3.2.2.r.mXmXmXmXmXmXmXbXmXmXbXbXbXbXvXvXvXvXbXvXvXbXvXvXvXvXvXvXvXvXvXbXvXbXbXbXbXmXmXbXmX",
"mXmXmXmXmXmXmXmXmXmXmXmXmXmXmXmXmXmXbXbXmXmXmXmXmXbXmXmXmXmXmXmXnXtX0XtXyXtXqXmXmXmXmXmXmXmXmXbXbXbXvXbXbXbXbXvXvXvXbXvXvXvXbXvXvXvXvXbXbXvXvXbXbXbXbXbXbXmXmXmX",
"mXmXmXmXmXmXmXmXmXmXmXmXmXmXmXmXmXmXmXmXmXbXmXbXmXmXmXmXmXmXmXmXmXmXmXmXmXmXmXmXmXmXmXmXmXbXbXmXmXbXbXbXbXvXbXbXvXbXvXvXbXvXvXvXvXbXvXbXvXvXbXbXbXbXbXmXbXmXmXmX",
"mXmXmXmXmXmXmXmXmXmXmXmXmXmXmXmXmXmXmXmXmXmXmXmXmXmXmXmXmXmXmXmXmXmXmXmXmXmXmXmXmXmXmXmXmXmXmXmXbXmXbXbXbXbXvXbXvXvXbXvXbXvXvXvXbXbXvXbXbXvXbXbXbXbXbXmXmXmXbXmX",
"mXmXmXmXmXmXmXmXmXmXmXmXmXmXmXmXmXmXmXmXmXmXmXmXmXmXmXmXmXmXmXmXmXmXmXmXmXmXmXmXmXmXmXmXmXmXmXmXmXbXmXbXbXbXbXbXbXbXbXbXvXbXbXbXbXvXvXbXbXbXbXmXbXmXbXmXmXmXmXmX",
"mXmXmXmXmXmXmXmXmXmXmXmXmXmXmXmXmXmXmXmXmXmXmXmXmXmXmXmXmXmXmXmXmXmXmXmXmXmXmXmXmXmXMXmXmXmXmXmXmXbXbXbXbXmXbXbXvXbXbXbXbXbXbXbXbXbXbXmXbXbXbXbXbXmXmXmXmXmXmXmX",
"mXmXmXmXmXmXmXmXmXmXmXmXmXmXmXmXmXmXmXmXmXmXmXmXmXmXmXmXmXmXmXmXmXmXmXmXmXmXmXmXmXmXmXmXmXmXmXmXmXmXmXmXbXmXbXbXmXbXbXbXbXbXbXbXbXbXbXbXbXbXmXmXmXbXmXmXmXmXmXmX",
"mXmXmXmXmXmXmXmXmXmXmXmXmXmXmXmXmXmXmXmXmXmXmXmXmXmXmXmXmXmXmXmXmXmXmXmXmXmXmXmXmXmXmXmXmXmXmXmXmXmXmXmXbXmXmXbXbXbXbXbXmXbXbXmXbXbXmXbXmXbXmXbXmXbXmXmXmXmXmXmX",
"mXmXmXmXmXmXmXmXmXmXmXmXmXmXmXmXmXmXmXmXmXmXmXmXmXmXmXmXmXmXmXmXmXmXmXmXmXmXmXmXmXmXmXmXmXmXmXmXmXmXmXbXmXmXbXmXmXmXbXmXmXbXbXbXbXmXbXbXbXmXmXbXmXmXmXmXmXmXmXmX",
"mXmXmXmXmXmXmXmXmXmXmXmXmXmXmXmXmXmXmXmXmXmXmXmXmXmXmXmXmXmXmXmXmXmXmXmXmXmXmXmXmXmXmXmXmXmXmXmXmXmXmXmXbXmXmXmXbXmXbXbXmXmXbXmXmXbXmXmXmXmXmXmXmXmXmXmXmXmXmXmX",
"mXmXmXmXmXmXmXmXmXmXmXmXmXmXmXmXmXmXmXmXmXmXmXmXmXmXmXmXmXmXmXmXmXmXmXmXmXmXmXmXmXmXmXmXmXmXmXmXmXmXmXmXmXmXmXbXmXmXmXmXmXbXmXmXmXmXmXmXmXmXmXmXmXmXmXmXmXmXmXmX"
};
