/* XPM */
static char *result[] = {
/* columns rows colors chars-per-pixel */
"80 80 231 2 ",
"   c #0C0C0C",
".  c #060606",
"X  c #170B04",
"o  c #12130E",
"O  c #1C140D",
"+  c #0C0E11",
"@  c #141413",
"#  c #191314",
"$  c #1B1A15",
"%  c #1C1C1C",
"&  c #161819",
"*  c #160E12",
"=  c #290A09",
"-  c #3C0201",
";  c #370A0A",
":  c #37140C",
">  c #3C0E11",
",  c #2B1414",
"<  c #231C1C",
"1  c #271816",
"2  c #331414",
"3  c #3C1414",
"4  c #3C1C1C",
"5  c #351A18",
"6  c #29110E",
"7  c #1D211E",
"8  c #23221D",
"9  c #2C211B",
"0  c #37271B",
"q  c #30240E",
"w  c #1D1D21",
"e  c #211E22",
"r  c #2B1F23",
"t  c #3E1D23",
"y  c #1D2425",
"u  c #242323",
"i  c #2B2323",
"p  c #252925",
"a  c #2B2A25",
"s  c #25252A",
"d  c #2B262A",
"f  c #26292B",
"g  c #2C2C2C",
"h  c #332525",
"j  c #3B2322",
"k  c #32272B",
"l  c #342C2C",
"z  c #3D2A2B",
"x  c #342B27",
"c  c #2E312E",
"v  c #31322F",
"b  c #3C322B",
"n  c #2D2D31",
"m  c #242C33",
"M  c #322D31",
"N  c #3A2D34",
"B  c #333333",
"V  c #3A3534",
"C  c #353A35",
"Z  c #3B3935",
"A  c #353539",
"S  c #3C353A",
"D  c #3C3B3C",
"F  c #363A39",
"G  c #2F3036",
"H  c #48090A",
"J  c #57090A",
"K  c #4C120D",
"L  c #56130C",
"P  c #470E13",
"I  c #520D13",
"U  c #5C0B13",
"Y  c #441314",
"T  c #4B1A1B",
"R  c #471618",
"E  c #5B1314",
"W  c #561719",
"Q  c #670807",
"!  c #661619",
"~  c #761819",
"^  c #670B10",
"/  c #53221E",
"(  c #4B261F",
")  c #65211C",
"_  c #471D23",
"`  c #551F20",
"'  c #7B1E20",
"]  c #4D2C2D",
"[  c #452828",
"{  c #592726",
"}  c #4A2F33",
"|  c #423534",
" . c #433934",
".. c #423A3C",
"X. c #4C3C3A",
"o. c #493637",
"O. c #5B3A3B",
"+. c #563937",
"@. c #4E312D",
"#. c #672526",
"$. c #762626",
"%. c #633435",
"&. c #773932",
"*. c #3D413C",
"=. c #42413D",
"-. c #4A423C",
";. c #3E3C41",
":. c #413D42",
">. c #493744",
",. c #5F3E41",
"<. c #3F4341",
"1. c #434343",
"2. c #4A4442",
"3. c #454448",
"4. c #4A4649",
"5. c #4B4B4C",
"6. c #494B46",
"7. c #544644",
"8. c #4C504B",
"9. c #56524E",
"0. c #4D4E50",
"q. c #545453",
"w. c #5B5C5B",
"e. c #575656",
"r. c #564F51",
"t. c #684B48",
"y. c #754B4E",
"u. c #795449",
"i. c #655859",
"p. c #70544E",
"a. c #5B655D",
"s. c #68605A",
"d. c #72635E",
"f. c #5E5E61",
"g. c #6B5D64",
"h. c #646464",
"j. c #6C6B6B",
"k. c #676668",
"l. c #796768",
"z. c #7B7369",
"x. c #6D6B72",
"c. c #766970",
"v. c #737373",
"b. c #797879",
"n. c #8C1B1B",
"m. c #9B1E1D",
"M. c #9C1F21",
"N. c #892526",
"B. c #94262A",
"V. c #973837",
"C. c #842831",
"Z. c #A73436",
"A. c #A02F2F",
"S. c #8F594C",
"D. c #B44349",
"F. c #8D735B",
"G. c #8B7769",
"H. c #85777B",
"J. c #92726C",
"K. c #A77668",
"L. c #A77C71",
"P. c #B4945A",
"I. c #888476",
"U. c #998677",
"Y. c #90826A",
"T. c #B69467",
"R. c #A99977",
"E. c #B09271",
"W. c #B5A27D",
"Q. c #C59B66",
"!. c #CBA76B",
"~. c #D4AA75",
"^. c #D0B076",
"/. c #827786",
"(. c #888788",
"). c #998883",
"_. c #989595",
"`. c #8E8C90",
"'. c #B19990",
"]. c #BBA988",
"[. c #B3AB98",
"{. c #9B95A1",
"}. c #A097A4",
"|. c #AAAAAA",
" X c #B8A7A3",
".X c #B3B3AE",
"XX c #B5B5B4",
"oX c #B9BABB",
"OX c #BAB5B6",
"+X c #C59586",
"@X c #C39B97",
"#X c #C2AB82",
"$X c #CAB387",
"%X c #D6B887",
"&X c #C5A29C",
"*X c #CDB696",
"=X c #E5B693",
"-X c #C09FA3",
";X c #C4A7A7",
":X c #C5B9A7",
">X c #C9B5B2",
",X c #D3B7AF",
"<X c #D4C296",
"1X c #E4C389",
"2X c #DDCCAA",
"3X c #DFD5BF",
"4X c #DBCAB7",
"5X c #F5CAAE",
"6X c #E7C8B2",
"7X c #ECD8BA",
"8X c #F9D9B9",
"9X c #ECCDAB",
"0X c #C0BEC2",
"qX c #CAC8C9",
"wX c #D9C7C2",
"eX c #D8D4C8",
"rX c #D0CDD1",
"tX c #E6D7C5",
"yX c #ECD5C6",
"uX c #FBE9C9",
"iX c #FBE8D8",
"pX c #FDF7DA",
"aX c #EDE7D1",
"sX c #DEFBFD",
"dX c #EEFBF5",
"fX c #E5FDFC",
"gX c #ECFEFC",
"hX c #EAF2F2",
"jX c #F1FFFB",
"kX c #FAFAF5",
"lX c #F0EFE8",
/* pixels */
"jXjXjXjXjXjXjXjXjXjXjXjXjXjXjXjXjXgXjXjXjXgXjXjXgXjXgXjXjXjXgXjXjXjXjXjXjXjXjXjXjXjXjXjXjXjXjXjXgXjXgXjXjXjXgXjXgXjXgXjXgXjXgXjXjXgXjXjXjXjXjXjXjXjXjXjXjXjXjXjX",
"jXjXjXjXkXjXjXjXjXjXjXjXjXjXjXjXjXjXgXjXgXjXgXjXgXjXgXgXgXgXjXgXjXgXjXgXgXjXjXjXjXjXjXgXjXjXjXjXjXjXjXgXgXgXgXgXgXgXgXgXgXgXgXgXgXjXjXgXgXjXjXjXjXjXjXjXjXjXjXjX",
"jXjXjXjXjXjXjXjXjXjXjXjXjXjXjXjXgXjXjXgXjXgXgXgXgXgXgXgXgXgXgXgXgXgXjXjXjXgXjXgXjXjXjXjXjXjXjXjXjXgXgXjXgXgXgXgXgXgXgXgXgXgXgXgXgXgXgXgXjXjXjXgXjXjXjXjXjXjXjXjX",
"jXjXjXjXjXjXjXjXjXjXjXjXjXjXjXjXjXgXgXgXgXgXgXgXgXgXgXgXgXgXgXgXgXgXgXgXgXjXgXjXjXgXjXgXjXgXjXdXgXjXgXgXgXgXgXgXgXgXgXgXgXgXgXgXgXgXgXgXgXgXjXjXgXjXjXjXjXjXjXjX",
"jXjXjXkXjXjXjXjXjXjXjXjXgXjXgXjXjXgXgXgXgXgXgXgXgXgXgXgXgXfXgXgXgXgXgXgXgXgXjXgXfXjXjXgXjXgXgXjXjXgXgXgXgXfXfXgXgXgXgXfXgXgXgXfXgXgXgXgXjXgXjXgXjXjXjXjXjXjXjXjX",
"jXjXjXjXjXjXjXjXjXjXjXgXjXgXgXgXgXgXgXgXgXgXfXfXgXgXfXgXgXfXgXgXfXgXhXoX.XoXoX|.oXXXOXrXgXjXgXgXgXgXgXgXgXgXgXgXfXfXfXgXgXfXfXgXfXgXgXgXgXgXgXjXgXjXjXjXjXjXjXjX",
"jXjXjXjXjXjXjXjXgXjXjXjXgXgXgXgXgXfXgXgXfXfXfXgXfXgXfXfXfXgXfXgXgXfXXXg d g g u d u g v.gXjXgXgXgXgXgXfXfXfXgXfXfXfXgXfXfXfXgXfXfXgXfXgXgXgXgXgXgXjXjXjXjXjXjXjX",
"kXjXjXjXjXjXjXjXgXjXgXjXgXgXgXgXgXgXfXfXfXgXgXfXfXfXfXgXfXfX}.v.j.j.k.c g d M u D c d D j.v.b.gXfXgXgXgXfXgXfXfXfXgXfXfXfXgXfXfXfXgXfXgXgXgXgXjXjXgXgXjXgXjXjXjX",
"jXjXjXjXjXjXjXjXjXjXjXgXgXgXgXgXgXfXfXfXfXgXfXfXfXfXfXXXoXOX0.u d g g u g g g A v A % u u u % OXhXgXfXgXfXfXfXfXfXfXfXfXfXfXfXfXfXfXgXgXfXgXgXgXgXjXgXjXjXjXjXjX",
"jXjXjXjXjXjXjXjXjXgXgXgXgXgXgXfXfXgXgXfXfXfXfXfXfXfXfXc d u 7 @ g c B B B v g A D =.% @ @ % u u OXfXgXfXfXfXfXfXfXfXfXfXgXfXfXfXfXfXfXfXfXgXfXgXgXgXgXjXgXjXjXjX",
"jXjXjXjXjXjXjXgXgXgXgXgXgXfXfXfXfXfXfXfXfXfXfXgXfXqXh.u 7 g p d B A F A B n c B B C B d u u y d e.j.fXfXfXfXfXfXfXgXfXfXfXfXfXgXfXfXfXfXfXgXgXgXgXgXgXjXjXjXjXjX",
"jXjXjXjXjXgXjXjXgXgXgXgXgXgXfXgXfXgXfXfXfXfXfXfXfX|.    @ c D c Z C A B n c c g d g D D g n $ B c u fXgXfXfXfXfXfXfXfXfXfXfXfXfXfXfXfXfXfXgXfXgXgXgXgXjXgXjXjXjX",
"jXjXjXjXjXjXgXgXgXgXgXgXfXfXfXgXfXfXfXfXfXfXfXfXfXfXfX% @   + u d c n g g B B B B g g d d @ & 8 @ % p OXfXfXfXfXfXfXfXfXfXfXfXfXfXfXfXfXfXfXfXgXgXgXgXjXgXjXjXjX",
"kXjXjXjXjXjXjXgXgXgXgXfXgXfXfXfXfXfXfXfXfXfXfXfXfXqXv.+ @ u c d d d c c g g d u 7 % u u g p u p u % u q.b.fXfXfXfXfXfXfXfXfXfXfXfXfXfXfXfXfXgXfXgXgXgXgXjXgXjXjX",
"jXjXjXjXjXgXjXgXgXgXfXfXgXfXfXfXfXfXfXfXfXgXfXfXfXXXp % % g g D g c B B g p d % @ @ % y g u v D %   % u u fXfXfXfXfXfXfXfXfXfXfXfXfXfXfXfXgXfXgXgXgXgXjXjXjXjXjX",
"jXjXjXjXjXjXgXjXgXgXgXgXfXgXfXfXdXfXfXfXfXfXfXfXfX.Xg a B D u % y c d a % @ u u d c @ @ @ y u d p F % u p fXfXfXfXfXsXfXfXfXfXfXfXfXfXfXfXfXgXfXgXgXgXgXgXjXjXjX",
"jXjXjXjXjXjXgXgXgXgXfXgXfXfXfXfXfXfXfXfXfXfXgXfXv.9.p g g u & 7 B u u u p c d B A F B p % % % B g n % d p fXfXfXfXfXfXfXfXfXfXfXfXfXfXfXfXfXfXfXdXgXgXjXjXjXjXjX",
"jXjXjXjXjXjXjXgXgXgXgXfXfXfXfXgXfXfXfXfXfXfXfXfX% d g v u @ @ d B % e f B D B A B D D g u % < B B g % p p fXfXfXsXfXsXfXfXsXfXfXfXfXsXfXfXfXfXfXfXgXgXgXgXjXgXjX",
"jXjXjXjXjXgXgXgXgXgXgXgXgXfXfXfXfXfXdXdXfXfXfXfXn s + g g d p % % % p B B A D g u a d u u p g % g B % u g fXfXfXfXfXfXfXfXfXsXfXsXfXfXfXfXfXfXfXfXgXgXgXjXjXjXjX",
"jXjXjXjXjXjXgXjXgXgXfXfXfXfXfXfXaX:X*X[.<XdXfXfXw d & g g u u % % u c c d a B p u u w u g B A @ g B & < g sXfXfXfXsXfXsXsXsXfXsXfXfXsXfXfXfXfXfXfXgXgXjXgXjXgXjX",
"jXjXjXjXjXjXgXgXgXgXfXfXfXfXfXgX3XR.R.R._.pXfXfXy s & g v u 7 7 e i B g 8 p g a M 8 8 8 d M D @ p n & 7 g fXfXsXfXsXfXsXsXfXsXfXsXfXfXsXfXfXfXfXgXgXgXgXgXjXjXjX",
"jXjXjXjXjXgXjXgXgXgXfXgXfXfXfXgX3XR.<X].F.dXfXfXn c w w % # % 7 & e h < 8 c c c $ 9 1 < i d Z p p % o $   fXsXfXsXfXsXfXfXsXsXsXfXsXsXfXfXfXfXfXfXgXgXgXjXgXjXjX",
"jXjXjXjXjXgXjXgXgXgXgXfXgXfXfXfXeXY.<X].W.2X3XlX[.I.9 $ o < p 7 w e r r 9 8 7 8 7.}.).d.k r d k 7 a o + o fXfXfXsXfXsXsXsXfXsXfXsXfXsXfXfXsXfXfXgXgXgXgXgXjXjXjX",
"jXjXjXjXjXjXjXgXgXgXgXgXgXfXfXfXeXI.].<X<X$X9XpXpX[.0 X O 8 7 8 & y e M 0 $ 9 $ s.iX4XU.k r r k @ p $ @ $ sXsXsXsXsXfXsXsXsXsXsXsXfXsXsXfXfXfXfXfXgXgXgXgXjXgXjX",
"jXjXjXjXjXgXjXgXgXgXgXgXfXfXfXfXfXfXdX7X$X1X^.^.P.R.W.O 0 s.a $ 7 y G :.g.i.5  XiXiX Xl.>.>.>.k i a 9.Z a sXsXsXsXfXsXsXfXsXsXsXfXsXsXfXfXsXfXfXfXfXgXgXgXjXjXjX",
"jXjXjXjXjXjXgXjXgXgXgXgXgXfXgXfXfXfXfXpX8X1X^.Q.^.^.P.Y.F.t.q 7 y 0.x.{.c.H.;X4X7XiXJ.c.}./.g.w r 8 a.Z 8 fXsXsXsXsXsXsXsXsXsXsXsXsXsXsXsXfXfXfXgXgXgXgXjXgXjXgX",
"jXjXjXjXjXjXgXjXgXgXgXgXfXgXfXfXfXfXfXdXuX1XQ.P.^.^.P.%XR.p.0 1 f w.{.rXl.H.iX8XyXiXG.c.0X}./.* i u w.Z a fXsXsXsXsXsXsXsXsXsXsXsXsXsXsXfXfXfXfXfXgXgXdXgXjXjXjX",
"jXjXjXjXjXjXjXjXgXgXgXgXgXgXfXgXfXfXfXfXpXQ.Q.~.!.T.%XP.F.o.z h i _.|.:.;.H.4X6X9X6Xl.*.>.}.0X;.h < g XXkXfXsXsXsXsXsXsXsXsXsXsXsXsXsXsXsXfXfXfXgXgXgXgXgXjXjXjX",
"jXjXjXjXjXjXjXgXgXgXgXgXgXfXfXfXfXfXfXfXpXW.T.~.!.!.=X#XU.z.7.X.i.}.|.4.>.z.yX8X8XtXG.-.4.|.qXw.o.k h.qXhXsXsXsXsXsXsXsXsXsXsXsXsXsXsXfXsXfXfXfXgXgXgXgXgXjXjXgX",
"jXkXjXjXjXjXjXjXjXgXgXgXgXgXfXgXfXfXfXdXuXW.T.Q.^.=X$X2XwXrX/.l.,XwX'.9.9.I.uXuXuXuXY.8.4. X4X Xt.N kXkXlXsXsXsXsXsXsXsXsXsXsXsXsXsXsXsXfXfXfXgXfXfXgXjXgXjXjXjX",
"jXjXjXjXjXjXjXgXgXgXgXgXfXgXfXfXfXfXfXeX].%X^.$XP.#X2Xq 8 f (.>XJ.'.,XtXtXuXuXuX8XuXuXuXyX,X@XL.@.h e .XsXsXsXsXsXsXsXsXsXsXsXsXsXsXsXfXsXfXfXgXgXfXgXgXdXjXjXjX",
"jXjXjXjXjXjXjXjXjXgXgXgXgXfXfXfXfXfXfX3XE.$X%X^.#X].R.0 c f x.).u.K.+X,X6XuX8X8X8XyX5X5X&X'.E.d.[ p v (.|.sXsXsXsXsXsXsXsXsXsXsXsXsXsXsXsXfXfXfXfXgXgXjXjXgXjXjX",
"jXjXjXjXdXjXjXjXjXgXjXgXgXgXgXfXfXfXfXeXR.<X^.R.2X_.b -.F m f 1 K &.S.K.Q.=X5X5X5X5X=X+XK.S.u.: 0 c *.c $ sXsXsXsXsXsXsXsXsXsXsXsXsXsXfXfXfXfXgXgXgXgXgXjXjXgXjX",
"jXjXjXjXjXjXjXgXgXgXgXgXfXgXfXfXfXfXfXqXz.v.[.kX8 8 $ 9.6.*.*...@.: L L &.y.y.F.L.K.S.&.L I :  .Z =.9.g d % OXsXsXsXsXsXsXsXsXsXsXsXfXsXsXfXfXfXgXgXgXgXjXjXjXjX",
"jXjXjXjXjXjXgXjXjXgXgXfXgXfXgXfXfXfXfXlX|._.|.XXc c % Z =.<.=. .0 / ^ ! $.-.O.t.y.S.&.$.! K 5 7.:.4.D a % B `.OXsXsXsXsXsXsXsXsXsXfXsXfXfXfXfXfXgXgXgXjXjXjXjXjX",
"jXjXjXjXjXjXjXgXjXgXgXfXgXgXgXgXfXfXfXfXfXfX.X% s.Z p * l 8.e. .= #.! J L 1 X X X : W ! $.K ; 7.r.r.$ u y e.c 7 sXsXsXsXsXsXsXsXsXsXfXfXfXfXgXgXgXgXjXgXjXjXjXjX",
"jXjXjXjXjXjXgXjXgXgXgXgXgXfXfXfXfXfXfXfXfXw B v.u 5.:.d i < $ 1 : P ! &.%.p.s.-. .+.%.#.E H 4 z e u u l n D e.j.y oXsXsXsXsXsXsXfXsXfXfXfXfXfXgXgXgXjXjXjXjXjXjX",
"jXjXjXjXjXjXjXgXgXgXgXfXfXgXgXfXfXfXfXfXfXk.w.5.5.<.N M u $ # O 2 : { %.+.s.h.*.V X.O./ R > 6 # & & f B D 5.3.4.j.qXsXsXsXsXsXsXfXfXfXfXgXgXgXgXgXjXgXjXgXjXjXjX",
"jXjXjXjXjXgXjXgXgXgXgXfXgXfXfXfXfXfXfXfXsXfX|.+ k.q.;.m n % $   o 1 0 5 -.e.j.*.B 4.7.5 [ 6 #   % r M n B h.p o sXsXsXfXfXsXsXfXfXfXfXfXfXgXgXgXgXjXjXjXjXjXjXjX",
"jXjXjXjXjXjXgXgXgXgXgXgXfXfXfXfXfXfXfXfXfXsXXX+ + y k.+     * % g y 8 a a Z =.v :.4.i l a u 7 & w e   :.5.  . @ sXfXsXfXsXsXfXfXfXfXgXfXgXgXgXdXjXgXjXgXjXjXjXjX",
"jXjXjXgXjXgXgXgXgXgXgXgXfXfXfXfXfXfXfXfXsXfX.Xo s A q.s %   & s m m s u p g p ;.A s p u a c f & % @ % *.3.w @ . fXfXsXfXfXsXfXfXfXfXgXgXgXgXgXjXjXjXjXjXjXjXjXjX",
"jXjXjXjXgXjXgXgXgXgXgXfXfXfXfXfXfXfXfXfXfXfXoXu D D :.S l @ % % n m m w % % w A w + % u 8 v c & w 8 D =.6.D & o fXfXfXfXfXfXfXfXgXfXgXgXgXgXgXjXjXjXjXjXjXjXjXjX",
"jXjXjXjXjXjXgXgXgXfXfXgXfXfXfXfXfXfXfXfXfX6.1.0.B g :.4.=.Z h i N N A A 3.q.0.A 3.4.;.D l V k < i  .D A g u w.r.<.qXfXfXfXfXgXfXgXfXfXgXgXjXjXjXjXjXjXjXjXjXjXjX",
"jXjXjXgXgXgXgXgXgXfXgXfXgXfXfXfXfXfXfXfXfXa 6.j.Z D 1.A l [ 0 4 o.o.S Z D 4.:.;.;.S D D D V o.z } X.b ..D 1.e.x.g XXfXfXfXgXfXgXdXgXgXgXjXgXgXjXjXjXjXjXkXjXjXjX",
"jXjXjXgXgXgXgXgXgXfXgXfXfXfXfXfXfXfXfXfXfX8 =.(.(.k.D y O 5 R %.O.o.Z B g g h k k M M N S >.7.O.O._ 5 B N `.(.(.w XXfXgXgXfXgXgXgXgXgXjXgXjXgXjXjXjXjXjXjXkXjXjX",
"jXjXjXjXjXgXgXgXgXfXfXfXgXfXfXfXfXfXfXgXfX|.`.=.q.e.e.;.9 , 3 T { @.X.=.7.i.i.r.i.i.i.r.X.X.,.T _ 3 , 2.r.e.3.;.XXlXgXfXgXgXgXfXgXgXjXgXjXgXjXjXjXjXjXjXjXjXjXjX",
"gXjXjXgXgXgXgXgXgXfXfXgXfXfXfXfXfXfXfXfXfXoX`.B 0.6.2.N h 2 4 K T / %.+.t.u.y.y.y.y.y.y.+.O.%.P R ; , Z 4.4.:.A 0XhXgXgXgXgXgXgXgXgXgXjXgXjXgXjXjXjXjXjXjXjXjXjX",
"jXjXgXgXgXgXgXgXfXgXfXfXfXfXfXfXfXfXfXfXfX3.6.w.i.-., X = , 4 Y Y R R T T T K W ! W W ` T T R > > = , $ e i.f.f.;.oXdXgXfXgXgXgXjXgXgXgXgXjXjXjXjXjXjXjXjXjXjXjX",
"gXjXgXgXgXgXgXfXgXfXfXfXfXfXfXfXfXfXgXfXfX3.4.b.i.7.[ = , , 0 4 > > > P H K L E ! E I P Y T [ _ j < 1 a l i.v.b.;.0XgXgXgXgXgXgXgXgXgXgXjXgXgXjXjXgXjXjXjXjXjXjX",
"jXjXjXjXgXgXgXgXgXfXfXfXfXgXfXfXfXfXfXfXfXv.H.l.,.O.( = 6 1 h k k t 4 P H K K K T ` T 3 2 j [ z k d < 9 N ,.g.c.b.rXgXfXgXfXfXgXgXgXgXgXgXjXjXgXjXjXjXjXjXjXjXjX",
"jXgXgXgXjXgXgXgXfXfXfXgXfXfXfXfXfXfXgXfXfXfXOX] T R K = , < n A k N _ _ R 3 > 5 j [ [ h k X...M k n 1 , 2 ] ] o.gXgXfXgXgXgXgXgXgXgXgXgXgXgXjXjXgXjXjXjXjXjXjXjX",
"jXjXgXjXgXgXfXfXgXfXfXfXfXgXfXfXfXfXfXfXfXfX>XT W E K - = e B A | >.>.} 4 2 [ z | | S ..:.;.;.D S S 2 3 R R ` @.gXfXgXgXfXfXgXgXfXgXgXgXgXgXgXgXjXgXjXgXgXjXjXjX",
"jXgXjXgXgXgXgXgXfXfXfXfXfXfXfXfXfXfXfXfXfXfX XI C.~ L K ; 1 B <.:.=.2.-.l a  .V S S ;.:.<.;.A D o.} > I I I #.{ gXfXgXfXgXfXgXfXgXfXgXgXgXgXgXgXgXgXgXjXjXjXjXjX",
"jXjXgXjXgXgXfXgXgXfXfXfXfXfXfXgXfXgXfXfXfXfX-XI C.n.' / 4 1 l V ..-.2.2.*.D 1.D ..:.;.:.<.F G F o.} Y W U ^ ~ #.lXgXfXgXfXgXfXgXfXgXgXfXfXfXgXgXgXgXjXgXjXgXjXjX",
"jXjXgXgXgXgXfXgXfXfXfXfXfXfXfXfXfXfXfXgXfXgX-X^ n.A.~ H > , l Z  .=.*.Z D D *.D ;.<.;.;.<.*.C b | @.R E J Q n.C.K.0XgXfXfXfXfXfXfXfXfXgXgXfXgXgXgXgXgXjXgXjXjXjX",
"jXgXgXjXgXgXgXfXfXgXfXgXfXfXfXfXfXfXfXfXfXfX;X^ D.A.^ H > , N B C =.*.Z D D 1.C F <.;.S F 6.6.C  .] K J Q Q N.V.E >XfXfXfXgXfXfXgXfXfXfXfXgXfXgXgXgXgXgXjXgXgXjX",
"gXjXgXjXgXgXgXfXgXfXfXfXfXfXfXfXfXfXfXfXfXgX&X! D.m.Q - > 1 N ;.D 1.:.D D ..3.Z C <.;...S 0.w.C o.] Y U ^ Q n.V.! >XfXfXfXfXfXfXfXfXfXgXfXfXfXgXfXgXgXgXgXgXjXgX",
"jXjXjXgXgXgXgXgXgXfXfXgXfXfXfXfXfXfXfXfXfXfX,X$.Z.n.J - = , N :.D :.3.;.:.A =.V C *.;.D >.q.w.C  .] Y J Q Q B.V.W ;XfXgXfXfXfXgXfXgXfXfXgXfXfXgXgXgXgXgXgXjXgXjX",
"jXjXgXjXgXgXgXgXgXgXfXfXfXfXfXfXfXgXfXfXfXfX&XJ A.m.Q - > 2 z S <.3.3.V D B A b C C B V ..9.a.*. .] P I J Q N.V.#.;XgXfXfXfXfXfXfXfXfXfXfXfXfXfXfXgXgXgXgXjXjXjX",
"jXjXjXjXgXgXgXgXfXgXgXfXgXfXfXfXfXfXfXfXfXdX@XJ Z.m.Q H > 3 z V A :.D a v g g B A d u k d 4.w.C V } P U J Q B.V.W ;XgXfXfXfXfXfXfXfXfXfXfXfXfXgXfXfXgXgXgXgXgXgX",
"jXjXjXgXgXjXgXgXgXfXgXfXfXfXfXgXfXfXfXfXfXfX;X^ Z.B.Q H - , z B c C *.v u g Z i p Z g d M =.<.8 V o.P I ^ Q ' $.{ >XfXfXgXfXfXfXfXfXfXfXgXfXfXfXgXfXgXgXgXgXjXjX",
"jXgXjXjXjXgXgXgXgXgXgXgXgXfXfXfXfXfXgXfXfXfX XU B.n.Q H ; = z v p c =.D u a Z < % C p u g c p @ l +._ I H J ^ W O.;XfXgXfXfXfXfXfXfXfXgXfXfXfXgXfXfXfXgXgXgXgXjX",
"jXjXjXjXjXgXgXgXgXgXgXgXfXgXgXfXgXfXfXfXfXfX XI ! ~ J - = = i V *.6.q.w.2.V B $ e B A 5.q.e.0.*.V z = > I #.I I lXfXfXfXfXfXfXfXfXfXfXfXfXfXfXfXfXfXgXgXgXgXgXjX",
"jXjXjXgXjXjXgXgXgXgXgXgXgXgXfXgXfXgXfXgXfXgXtX;XP P ;  X X Xr.g C c g M A g f % @ p g n c d c V a r  XO.Y Y J. XfXfXfXfXfXfXfXgXfXgXfXfXfXfXfXgXfXgXfXgXgXjXgXgX",
"jXjXjXjXjXjXgXgXgXgXgXgXgXgXgXgXgXfXgXfXgXfXgXlX} 6 X dXjXgXx.r g a e % s m w & % u n g f u % a l < dXd.= 0 >XfXfXfXfXfXfXfXfXfXfXfXfXfXfXfXfXfXfXgXfXgXgXgXjXjX",
"jXjXjXjXjXjXjXjXjXgXgXjXgXgXgXgXgXgXgXgXgXgXgXgXhXgXgXgXgXjXk.s 3.e.k.0.;.r w * + % p ;.0.f.h.:.p o gXfXfXfXfXfXfXgXfXfXfXgXfXfXfXfXfXfXfXfXfXfXfXgXgXgXgXgXgXgX",
"jXjXjXjXjXgXjXjXjXgXjXgXgXgXgXgXgXgXgXgXgXgXgXgXgXgXgXgXgXjXx.u p M B g s r m w e g u m c G B u a a fXfXfXfXfXfXfXfXfXfXfXfXfXgXfXfXfXfXfXfXgXfXfXgXfXgXgXgXjXjX",
"jXjXjXjXjXjXjXjXjXjXgXjXgXjXgXgXgXgXgXgXgXgXjXgXgXjXjXjXjXgX/.B & 7 % u w m G s w s u & w % < # a A fXgXdXfXfXfXfXfXfXfXfXfXfXfXgXfXfXfXfXfXfXgXfXgXgXgXgXgXgXjX",
"jXjXjXjXjXjXjXjXjXjXgXgXjXjXgXjXgXgXgXgXjXgXgXgXjXgXjXjXjXjXf.u c q.a.8.3.M e OXoXu n 5.0.f.k.B u e fXgXgXfXfXfXfXfXfXfXfXfXfXfXfXfXfXfXgXfXgXfXgXgXgXgXgXgXjXjX",
"jXjXjXjXjXjXjXjXjXjXjXjXjXgXjXjXjXgXjXgXgXjXjXgXjXjXgXgXgXjXqX(.% B B B n q.OXhXlXXXe.g B D 1.u (.XXgXgXgXfXfXgXfXfXfXgXfXgXfXfXgXfXfXfXfXfXfXgXgXgXgXgXjXjXgXgX",
"jXjXjXjXjXjXjXjXjXjXjXjXgXjXjXjXjXjXjXjXjXgXjXjXgXjXjXjXjXjXjX|.u a e % e v.kXjXfXjXv.% % w % % |.gXgXgXfXgXgXfXfXgXfXfXfXgXfXfXfXfXfXgXgXfXgXgXgXgXjXgXgXjXjXjX",
"jXjXjXjXjXjXjXjXjXjXjXjXjXjXjXjXjXgXjXgXjXjXjXjXjXjXjXjXjXjXjXjXjXjXjXjXjXjXjXjXjXjXjXjXgXgXjXjXjXgXgXgXgXfXfXgXfXfXgXgXfXfXfXgXfXgXfXgXfXfXgXgXgXgXgXgXjXgXjXjX",
"jXjXjXjXjXjXjXjXjXjXjXjXjXjXjXjXjXjXjXjXjXjXjXjXjXjXjXjXjXjXjXjXjXjXjXjXjXjXjXjXjXjXjXjXjXjXjXjXjXgXgXgXgXgXgXgXfXfXgXfXfXfXgXfXgXgXfXgXgXgXgXgXgXgXgXjXjXjXjXjX",
"jXkXjXjXjXjXkXjXjXjXjXjXjXjXjXjXjXjXjXjXjXjXjXjXjXjXjXjXjXjXjXjXjXjXjXkXjXjXjXjXjXjXjXjXjXjXjXjXgXjXjXgXgXgXgXgXgXgXgXgXgXgXfXgXgXfXgXgXgXgXgXgXgXgXgXjXjXjXjXjX",
"jXjXjXjXjXjXjXjXjXjXjXjXkXjXjXjXjXjXjXjXjXjXjXjXjXjXjXjXkXjXjXjXjXjXjXjXjXjXkXjXjXjXjXjXjXjXjXjXjXjXgXjXgXjXgXgXfXgXgXgXgXgXgXgXgXgXgXgXgXgXjXgXgXjXjXjXjXjXjXjX",
"jXkXjXjXjXkXjXjXjXkXjXjXjXjXjXjXjXjXjXjXjXjXjXjXjXjXjXjXjXjXjXjXjXkXjXjXjXjXjXjXjXjXjXjXjXjXjXjXgXjXgXjXgXjXgXgXgXgXgXgXgXgXgXgXgXgXgXgXgXjXgXgXjXgXjXjXjXjXjXjX",
"jXjXjXjXkXjXjXjXjXjXjXjXkXjXjXjXjXjXjXjXjXkXjXjXjXjXjXjXjXjXjXjXkXjXjXjXjXjXkXjXjXjXjXjXjXjXjXjXjXjXjXjXgXjXjXgXgXgXgXgXgXgXgXgXgXgXgXjXgXjXgXjXjXgXgXjXjXjXjXjX",
"jXjXjXjXjXjXjXjXjXjXjXjXjXjXjXjXkXjXjXjXjXjXjXjXjXjXkXjXjXjXjXjXjXjXjXjXjXjXjXjXjXjXjXjXjXjXjXjXjXjXgXjXjXjXgXjXgXjXjXgXgXjXjXgXgXjXgXjXjXgXjXjXjXjXjXjXjXjXjXjX",
"jXjXjXjXjXjXjXjXjXjXjXjXjXjXjXjXjXjXjXjXjXjXjXkXjXjXjXjXjXkXjXjXjXjXjXjXjXjXjXjXjXjXjXjXjXkXjXjXjXjXjXjXjXgXjXgXjXgXjXjXjXgXjXgXjXgXjXjXjXgXjXjXjXjXjXjXjXjXjXjX",
"jXkXjXjXjXjXjXkXjXkXjXjXjXjXjXkXjXjXjXkXjXjXjXjXjXjXjXjXjXjXjXjXjXjXjXkXjXjXjXjXjXkXjXjXjXjXjXjXjXjXjXjXjXjXjXjXjXjXjXgXjXjXjXjXjXjXjXgXjXjXjXjXjXjXjXjXjXjXjXjX"
};
