/* XPM */
static char *a410831b83e54817ba8e2956a91fa296niuKR871iezKGzyz[] = {
/* columns rows colors chars-per-pixel */
"80 80 235 2 ",
"   c #020202",
".  c #0A0504",
"X  c #070608",
"o  c #09070A",
"O  c #0B0A0C",
"+  c #0D0906",
"@  c #130A07",
"#  c #140C0B",
"$  c #1D0F0B",
"%  c #0B190D",
"&  c #1C110D",
"*  c #16100D",
"=  c #0E0D11",
"-  c #110E14",
";  c #1F0611",
":  c #121213",
">  c #16131A",
",  c #19151D",
"<  c #1A1B1C",
"1  c #1B1514",
"2  c #0D1C10",
"3  c #23120D",
"4  c #29140F",
"5  c #280A17",
"6  c #281917",
"7  c #331A13",
"8  c #3B1C15",
"9  c #331917",
"0  c #0F2212",
"q  c #142916",
"w  c #15361B",
"e  c #36251B",
"r  c #1D1A21",
"t  c #1B1720",
"y  c #211D26",
"u  c #2C1F24",
"i  c #371624",
"p  c #3D0D20",
"a  c #1F2122",
"s  c #232325",
"d  c #2A2B2D",
"f  c #272829",
"g  c #392728",
"h  c #253220",
"j  c #2F3132",
"k  c #323334",
"l  c #3A3E3D",
"z  c #36393B",
"x  c #372C30",
"c  c #401F17",
"v  c #4B1918",
"b  c #5C1711",
"n  c #7A110D",
"m  c #6F140F",
"M  c #44221A",
"N  c #4C261C",
"B  c #51271D",
"V  c #56281E",
"C  c #481E29",
"Z  c #581830",
"A  c #452825",
"S  c #542D23",
"D  c #55362C",
"F  c #4E3234",
"G  c #62352B",
"H  c #6B3B2D",
"J  c #66283B",
"K  c #632828",
"L  c #74212D",
"P  c #1C4C23",
"I  c #255229",
"U  c #326C39",
"Y  c #5B4436",
"T  c #4A4830",
"R  c #7C4638",
"E  c #73523F",
"W  c #6A4636",
"Q  c #3B3D41",
"!  c #5C3445",
"~  c #3D4243",
"^  c #345B4B",
"/  c #316651",
"(  c #424243",
")  c #454A4B",
"_  c #4D4949",
"`  c #494A51",
"'  c #4C5252",
"]  c #595857",
"[  c #584A48",
"{  c #734D4E",
"}  c #497765",
"|  c #5D6564",
" . c #646A69",
".. c #697173",
"X. c #77777A",
"o. c #6E6871",
"O. c #5D6060",
"+. c #9C0000",
"@. c #811818",
"#. c #81261F",
"$. c #AB2E36",
"%. c #83123F",
"&. c #CF2D24",
"*. c #D91C1C",
"=. c #844939",
"-. c #951948",
";. c #982653",
":. c #8B3256",
">. c #A72657",
",. c #A63A65",
"<. c #B73065",
"1. c #CA3A73",
"2. c #D23A77",
"3. c #C82B6A",
"4. c #C31A5D",
"5. c #954C4E",
"6. c #AB5D48",
"7. c #A84D4E",
"8. c #996953",
"9. c #946F59",
"0. c #B76F53",
"q. c #96516A",
"w. c #AE4970",
"e. c #927270",
"r. c #B16C6F",
"t. c #C14758",
"y. c #D25145",
"u. c #C57459",
"i. c #CE427A",
"p. c #D4447D",
"a. c #CA527B",
"s. c #EC6868",
"d. c #3A873F",
"f. c #4A863E",
"g. c #3D8B46",
"h. c #4B934F",
"j. c #598876",
"k. c #668F7E",
"l. c #B78A6B",
"z. c #9D867D",
"x. c #D38464",
"c. c #DA9673",
"v. c #CC8F6D",
"b. c #E5A17A",
"n. c #7A7A84",
"m. c #AC7A88",
"M. c #B26F89",
"N. c #9E6D86",
"B. c #D94A83",
"V. c #D6598A",
"C. c #C85683",
"Z. c #E15A90",
"A. c #DA6795",
"S. c #D9759D",
"D. c #C87298",
"F. c #E6779C",
"G. c #E36396",
"H. c #DE7BA2",
"J. c #E478A3",
"K. c #758282",
"L. c #7A8382",
"P. c #7C898A",
"I. c #7F828E",
"U. c #699987",
"Y. c #719B89",
"T. c #79A997",
"R. c #5D9581",
"E. c #838A89",
"W. c #89918E",
"Q. c #939A9B",
"!. c #929291",
"~. c #A48E86",
"^. c #83AB9C",
"/. c #8BB19F",
"(. c #B3A290",
"). c #9A9BAA",
"_. c #AF99A8",
"`. c #9CABAA",
"'. c #97A3A3",
"]. c #92B6AB",
"[. c #A8B5B7",
"{. c #AAABB0",
"}. c #D19789",
"|. c #EF9191",
" X c #D7A989",
".X c #FAB489",
"XX c #F7B086",
"oX c #EBAE8D",
"OX c #D885AB",
"+X c #CC8FAD",
"@X c #E583AA",
"#X c #E189AC",
"$X c #E78EB1",
"%X c #E695B6",
"&X c #D7B1B9",
"*X c #ECA7B3",
"=X c #A7C6BE",
"-X c #90C6B1",
";X c #FCC49E",
":X c #D2C2AB",
">X c #D9CCB1",
",X c #F4CDB4",
"<X c #AEB2C3",
"1X c #B6B8C9",
"2X c #BBACC2",
"3X c #CDB2C4",
"4X c #EDA6C2",
"5X c #E7B4CA",
"6X c #F2BBC9",
"7X c #BCCCCB",
"8X c #B6C8C6",
"9X c #BAD1CB",
"0X c #B8D0CF",
"qX c #A9E1CD",
"wX c #C4C7D3",
"eX c #C9D5D7",
"rX c #D2D4DE",
"tX c #D8D0DC",
"yX c #CFCED2",
"uX c #FCD7C4",
"iX c #EDCCD5",
"pX c #FFE6CE",
"aX c #D8DAE2",
"sX c #F0D7E2",
"dX c #D6EAE9",
"fX c #DEFBFD",
"gX c #DEF3F2",
"hX c #D4EAE9",
"jX c #E8E4EA",
"kX c #F5E4E6",
"lX c #E5FDFC",
"zX c #ECFEFC",
"xX c #E5F7F5",
"cX c #F1FFFB",
"vX c #FAF8FA",
/* pixels */
"cXcXcXcXcXvXcXcXcXcXcXcXcXcXcXcXcXcXcXcXzXcXcXzXcXcXcXzXcXcXzXcXcXcXcXcXcXcXcXcXcXcXcXcXcXcXcXcXcXcXcXzXcXzXcXcXzXcXzXcXzXcXzXcXcXcXzXcXzXcXcXcXcXcXcXcXcXcXcXcX",
"cXcXcXcXcXcXcXcXcXcXcXcXcXcXcXcXcXzXzXcXcXzXcXzXzXzXzXcXzXcXzXzXzXzXzXcXcXcXzXcXcXcXcXcXcXcXcXcXcXzXcXcXzXcXzXzXzXzXzXcXzXzXcXzXzXcXcXcXcXcXcXzXcXcXcXcXcXcXcXcX",
"cXcXcXcXcXcXcXcXcXcXcXcXcXcXcXcXcXcXzXcXzXzXzXcXzXzXzXzXzXzXzXzXzXzXzXzXzXcXcXcXcXcXcXzXzXcXcXcXcXcXzXzXcXzXzXzXzXzXzXzXzXzXzXzXzXzXzXzXzXcXzXcXcXcXcXcXcXcXcXcX",
"cXcXcXcXcXcXcXcXcXcXcXcXcXcXcXcXzXcXzXzXzXzXzXzXzXzXzXzXzXzXzXzXzXcXzXvXcXzXcXzXcXzXcXcXcXzXcXzXzXzXcXzXzXzXzXlXzXzXlXzXzXzXzXzXzXzXzXzXzXcXcXcXcXcXcXcXcXcXcXcX",
"cXcXcXcXvXcXcXcXcXcXcXcXzXcXzXzXzXzXzXzXzXzXzXzXzXzXzXzXlXlXzXzXzXzXzXzXzXzXcXzXcXzXcXcXzXcXcXzXzXzXzXlXzXlXzXzXzXlXzXlXzXzXzXzXzXzXzXzXzXcXzXcXzXcXcXcXcXcXcXcX",
"cXcXcXcXcXcXcXcXcXcXzXcXcXzXzXzXzXzXzXzXlXzXlXzXlXzXlXzXzXlXzXzXzXzXzXzXzXzXzXcXzXzXcXzXcXzXzXcXzXzXzXzXzXlXzXlXlXzXlXzXlXlXzXlXlXzXzXzXzXzXzXcXzXcXcXcXcXcXcXcX",
"cXcXcXcXcXcXcXcXcXcXcXzXcXzXzXzXzXzXzXzXzXlXzXlXzXzXlXzXlXlXzXlXlXzXlXlXzXlXzXzXzXzXzXzXzXzXzXzXzXzXzXzXlXlXzXzXlXzXlXlXlXlXlXlXlXzXlXzXzXzXzXzXzXzXcXzXcXcXcXcX",
"vXcXcXcXcXcXcXcXcXzXzXcXzXzXzXzXlXzXlXlXzXlXlXlXlXlXlXlXlXzXlXlXzXlX{.a                     < `.zXzXzXlXzXlXlXlXlXlXzXlXlXlXzXlXlXzXlXzXzXzXzXzXcXcXcXcXcXcXcXcX",
"cXcXcXcXcXcXcXcXcXzXcXzXzXzXzXzXzXlXlXlXlXlXlXzXlXlXlXlXlXlXlXlXgX0XW.f - o O O O O O O O X : L.wXgXlXzXlXzXlXzXlXlXlXlXlXlXlXlXlXzXlXzXzXzXzXzXzXzXzXcXcXcXcXcX",
"cXcXcXcXcXcXcXcXcXzXzXzXzXzXzXlXlXzXlXzXlXlXlXlXlXlXlXzXlXlXlXlXeX~ < ~ Q d d d d d d d d :     Q 7XzXxXlXlXlXlXlXlXlXlXzXlXlXlXlXlXlXlXlXlXzXzXzXzXcXcXcXcXzXcX",
"cXcXcXcXcXzXcXzXzXzXzXzXzXlXlXlXlXlXlXlXzXlXlXlXlXlXlXlXlXlXlXQ.) q < j I ` ( ( ( ( ( ( ( k y q f ~ W.xXzXlXlXlXlXlXlXlXlXlXlXlXlXlXlXlXzXzXzXzXzXcXcXzXzXcXcXcX",
"cXcXcXcXcXcXcXcXcXzXzXzXzXzXzXlXzXlXlXlXlXlXlXlXzXlXlXlXlX8XE.) < > > < k ' F k k k z x k f s k k , I P.8XlXlXlXlXzXlXlXlXlXlXzXlXlXlXlXlXlXlXzXzXzXzXcXzXcXcXcX",
"cXcXcXcXcXzXcXzXzXzXzXzXlXzXlXlXlXzXlXlXlXlXlXlXlXlXlXlXlXP.  < f , = : s T f - - - : O : : 1 k l k y   X.jXzXlXlXlXlXlXlXlXlXlXlXlXlXlXlXzXlXzXzXzXcXzXcXcXcXcX",
"cXcXcXcXcXcXzXcXzXzXzXzXlXlXzXlXlXlXlXlXlXlXlXlXlXlXlXlXlXW.: q f , - : = o O O : - : O = = : : s ( j   o.5XjXlXlXlXlXlXlXlXlXlXlXlXlXlXlXlXlXzXlXzXzXcXzXcXcXcX",
"cXcXcXcXzXcXcXcXzXzXlXlXlXlXlXlXlXlXlXlXlXlXlXlXlXlXlX7X..z : : : < < : o   M R R =.R R R M : = t j [ e.D.#XtXlXlXlXlXlXlXlXlXlXlXlXlXlXlXlXzXlXzXzXzXzXcXcXzXcX",
"vXcXcXcXcXcXzXzXzXzXzXlXzXzXlXlXlXlXlXzXlXlXlXlXlXlXlX`.<   : . X < < : 6 g =.u.u.x.x.x.x.8.Y a = t ! e.q.q.3XfXlXlXlXlXfXlXlXlXlXlXlXlXlXlXlXlXzXzXzXcXzXcXcXcX",
"cXcXcXcXcXzXcXzXzXzXlXzXlXlXlXlXlXlXlXlXlXlXlXlXlXlXlX`.< . = o   O : : G 6.0.u.b.b..X.X.X.Xb.Y O   X O O > '.fXlXlXfXlXlXfXlXlXlXlXlXlXlXlXlXzXlXlXzXzXzXcXcXcX",
"cXcXcXcXcXcXzXzXzXzXzXlXlXlXlXzXlXlXlXlXzXlXlXlXlXlXlX`.<     o = # O . S u.x.XX;X.X.Xb..X.XXXb.9.6       2 '.fXfXlXlXlXlXlXlXlXlXfXfXlXlXxXlXzXzXzXzXcXcXcXcXcX",
"cXcXcXcXcXcXcXzXzXzXzXlXzXlXlXlXlXzXlXlXlXlXlXlXlXlXlX`.<   o o O : 6 S G S W E E 9.:X;X.Xl.{ E D *       > '.lXlXlXlXlXlXlXfXlXlXlXlXlXlXlXlXlXzXzXzXzXzXcXcXcX",
"cXcXcXcXcXzXcXzXzXzXlXzXlXlXlXlXlXlXlXlXlXzXlXlXlXlXlX`.q X : o   O A 6.H   r j 8 E >XuX;X9.F 8 5 .     a ' [.fXlXfXlXfXfXfXlXfXlXfXlXfXlXlXlXlXlXzXzXzXzXcXcXcX",
"cXcXcXcXcXzXcXzXzXzXlXlXlXlXlXlXlXlXlXlXlXlXlXlXlXlXlX`.< X : = : % A 6.W    .{.a.a.,XpXpXpXuXa.-.5 X O P.lXfXlXfXlXlXlXfXlXfXlXlXfXlXlXlXlXlXlXlXzXzXzXzXcXzXcX",
"cXcXcXcXzXcXcXzXzXzXzXlXzXzXlXlXlXlXlXlXlXlXzXlXlXlXlX`.<       X = D v.v.l.&XsXH.F.uXpXpXpXuX@X,.5     L.lXlXlXlXfXfXfXlXfXfXfXfXlXfXlXlXlXlXlXzXzXzXzXzXcXcXcX",
"cXcXcXcXcXcXzXzXzXzXzXlXlXlXlXlXlXlXlXlXlXlXlXlXlXlXlX`.<         O f E l..X,XpX6X4XuXpXpX,XoX|.r.8     K.lXfXfXfXlXfXfXfXlXfXlXlXfXfXfXlXlXlXlXlXzXzXzXzXcXcXcX",
"cXcXcXcXcXzXcXcXzXzXzXzXlXzXlXlXzXlXlXlXlXlXlXlXlXlXlX`.<       o O O   Y c. X&X:X:X>X>X>Xl.8.l.9.h %   K.lXfXlXfXfXlXfXfXfXfXfXfXfXlXlXfXlXlXlXlXzXzXzXcXzXcXcX",
"cXcXcXcXcXcXzXzXzXzXzXzXlXlXlXlXlXlXlXlXlXlXlXlXlXzXlX`.q     o #     : O # q h h I g.U h U d.I P U I   K.lXfXfXfXfXfXfXfXlXfXfXfXlXfXlXfXlXlXlXlXzXzXzXzXzXzXcX",
"cXcXcXcXcXcXcXzXcXzXzXzXzXzXlXzXlXlXlXlXlXlXlXlXlXlXlX`.<     o = . X % O   2 w q w I P 2 P I w w P P   K.fXfXfXlXfXfXfXfXfXfXfXfXfXfXfXfXlXlXlXzXzXzXcXcXcXcXcX",
"cXcXcXcXcXcXcXzXzXzXzXlXlXlXlXzXlXlXlXlXlXlXlXlXlXlXlX8X .j   o =     O X . 2 q % % q 2 O 0 q 2 2 w 0   K.fXfXfXfXfXfXfXfXfXfXfXfXfXfXlXlXfXlXlXlXzXzXzXzXcXcXcX",
"cXcXcXcXcXzXcXcXzXzXzXzXzXzXlXlXlXlXlXlXlXlXlXfXzXlXlXgXhXX.  X O       X O X X - : # @ @ .       O O   K.fXfXfXfXfXfXfXfXfXfXfXfXfXfXfXfXlXlXlXxXzXzXzXzXcXcXzX",
"cXcXcXcXcXcXzXcXcXzXzXzXzXlXlXlXzXlXlXlXlXlXlXlXlXlXlX[.) q           = O   . a ..~.8.5.6.N       = O   K.fXfXfXfXfXfXfXfXfXfXfXfXfXfXfXlXlXlXlXlXlXcXzXzXcXcXcX",
"cXcXcXcXcXcXcXcXzXzXzXzXzXlXlXzXlXlXlXlXlXlXlXlXlXlXlX{.d O         X > :     : ~ o.~.}.c.W X     . . O K.fXfXfXfXfXfXfXfXfXfXfXfXfXfXfXfXlXlXlXlXzXzXcXzXcXcXcX",
"cXcXcXcXcXcXcXcXcXzXzXzXzXlXzXlXlXlXlXlXlXlXlXlXlXdX8Xk.r X       X - r :       O ~ )._.l.Y = X       : P.fXfXfXfXfXfXfXfXfXfXfXfXfXfXlXlXlXlXlXzXzXzXzXzXcXcXcX",
"vXcXcXcXcXcXcXzXcXzXzXzXzXlXlXlXlXlXlXlXlXlXlXlXlX9X) O         X > y y :       O Q ).X.: O O       X % P.fXfXfXfXfXfXfXfXfXfXfXfXfXfXfXfXlXlXlXlXzXcXzXcXzXcXcX",
"cXcXcXcXcXcXcXcXzXzXzXzXzXzXlXzXlXlXlXfXlXfXlXlXlX0X) O         X > y y , @ .   O F M.q.= = O X     X O P.fXfXfXfXfXfXfXfXfXfXfXfXfXfXfXlXlXlXzXlXzXzXzXcXzXcXcX",
"cXcXcXcXcXcXzXcXcXzXzXzXzXlXzXlXlXlXlXlXlXlXlXxX[. .d O         X > r , 1 $ @ & G :.1.:.- 1 4 ; .   . * P.fXfXfXfXfXfXfXfXfXfXfXfXlXlXfXlXlXlXlXzXzXzXzXcXcXcXcX",
"cXcXcXcXcXcXcXzXzXzXzXzXzXzXlXlXlXlXlXlXlXlXlXdXO.  O O         O t r - # $ 1 i w.p.i.:.C C A 7 # o O @ P.fXfXfXfXfXfXfXfXfXfXfXfXfXlXfXlXlXlXzXzXzXzXcXcXcXcXcX",
"cXcXcXcXcXzXcXzXcXzXzXzXzXlXzXlXlXlXlXlXlXfXlXgXO.  # #       - r y y $ $ $ 8 K -.i.@X@XV.5.S 4 1 6 >   K.fXfXfXfXfXfXfXfXfXfXfXfXlXfXlXlXlXlXzXlXzXcXcXcXcXcXcX",
"cXcXcXcXcXcXcXcXzXzXzXzXzXlXlXlXlXlXlXlXlXlX`.] F 6 @ .       > y y y & $ $ c G r.OXF.@X#Xa.-.C $ > O   K.lXfXfXfXfXfXfXfXfXfXfXlXfXlXlXlXlXzXzXzXcXcXcXcXcXcXcX",
"cXcXcXcXzXcXzXzXzXzXzXzXzXlXlXzXlXlXlXlXQ.Q.] 3 8 M $ .   X O , y t 1 & 4 7 e T z.z.e.z.~.e.{ S 7 # X   n.fXlXfXfXfXfXfXfXfXfXfXfXlXlXlXzXzXzXzXzXcXzXcXzXcXcXcX",
"cXcXcXcXcXcXzXcXzXzXlXzXzXlXlXlXlXfXlXlX$ $ 3 4 8 M 4 @   - y r t - # # 7 B T ^ h.h.h.f.f.h.h.T v 4 @   K.fXfXfXfXlXlXfXfXlXlXlXxXlXlXlXlXzXzXzXzXcXcXcXcXcXcXcX",
"cXcXcXcXcXzXcXzXzXzXzXlXzXlXlXlXlXlXlXlX$ 3 7 N 7 3 & @   - y > = = # $ 7 N e.[.eX&Xy.&.&. XyX9.M 4 @   K.fXlXfXfXfXfXfXlXfXfXlXlXlXzXlXzXzXcXzXcXzXcXzXcXcXcXcX",
"cXcXcXcXzXcXzXzXzXzXlXlXlXlXlXzXlXlXfXlX$ $ 7 B 7 $ $ @   - y t > o O $ $ 3 o.1XyX+X$.*.*.|.kX6.m v 9 > ~ ..8XlXlXlXlXlXlXfXlXlXlXzXzXxXlXzXzXzXcXcXcXcXcXcXcXcX",
"cXcXzXcXcXzXzXzXzXzXzXlXzXlXlXlXlXlXlXlX$ $ 8 B 7 $ $ @   # y y t o . $ $ $ { m.m.r.7.6.s.|.*X7.n N i y = : '.lXlXlXlXlXlXlXlXlXlXzXzXzXcXzXcXzXcXcXcXcXcXcXcXcX",
"cXcXcXcXzXcXzXzXzXlXzXlXlXlXlXlXlXlXlXlX$ $ 7 B 7 $ $ @   - y y t o   $ 7 V n +.+.$._.tXvX|.*.#.M 3 1 r = 2 '.zXlXlXlXlXlXlXlXzXlXzXzXzXzXcXzXcXcXcXcXcXcXcXcXcX",
"cXcXcXcXcXzXzXzXzXzXlXlXlXlXlXlXlXlXlXlX$ $ 8 B 7 $ . . X = - t t o . $ 7 V @.+.+.$._.1XwXe.L V M @ o = O > '.lXlXlXlXlXlXzXlXzXzXzXzXzXzXcXcXcXcXcXcXcXcXcXcXcX",
"cXcXzXcXzXzXzXzXlXzXlXlXlXlXlXlXlXlXlXlX$ $ 8 B 7 @ .   O = = , t o   . $ 8 b @.$.<.M.D.3Xe.B c 4 .   O X > '.lXlXzXzXzXzXlXzXzXzXzXzXcXzXcXzXcXcXcXcXcXcXcXcXcX",
"cXcXcXcXzXcXzXlXzXlXlXzXlXlXlXlXlXlXlXlX[ _ F c 7 3 .   X X O : > o     + $ c K w.B.i.V.$Xq.S D g @ X X   > '.lXzXlXzXzXzXzXzXlXzXzXcXzXcXzXcXcXcXcXcXcXcXcXcXvX",
"zXcXcXzXcXzXzXzXzXlXzXlXlXzXzXlXlXlXlXlXgXgXz.* 8 M @                   . $ c K >.i.#X@XG.5.G m.m.u       2 '.zXzXzXzXzXzXzXzXzXzXzXzXcXzXcXcXcXcXcXcXcXcXcXcXcX",
"cXcXzXcXzXzXzXlXzXlXlXlXlXlXlXlXlXlXlXlXlXlXE.& c M @ k ~.(.(.l.8.u     C w.J c ,.p.p.A.$X5.g M.m.u     N =.Y ) xXzXzXzXlXzXzXzXcXzXzXzXzXcXcXcXcXcXcXcXcXcXcXcX",
"cXcXzXcXzXzXzXzXlXlXlXlXlXlXlXlXlXlXzXlXlXlXz.* 8 M @ [ ,XpX,XoX0.g     Z p.J i ,.Z.V.S.3X{ 9 q.w.y     G 6.N   lXzXzXzXzXzXzXzXzXzXzXzXcXcXcXcXcXcXcXcXcXcXcXcX",
"zXcXcXzXzXzXzXzXzXlXlXlXzXlXlXlXlXzXlXlXlXzXE.3 8 8 # T >X;XXXu.=.6     Z 4.L Z C.J.$X3X1Xo.Z ;.;.5     G 6.M   zXzXzXzXlXzXzXzXzXzXzXzXzXzXzXcXzXcXzXcXcXcXcXcX",
"cXcXzXzXzXzXzXzXlXlXlXlXlXlXlXlXlXlXlXlXlXlXE.$ 3 $ . T  X.XoXE # - o X J Z.1.<.D.$XJ.+X1XD.V.V.w.F -   D 6.M   lXlXzXlXzXzXzXzXzXlXzXzXzXcXzXcXcXcXcXcXcXcXcXcX",
"zXcXzXcXzXzXzXlXzXlXzXlXlXzXlXlXlXlXlXlXlXlXeXQ.'.L.f 3 D W D u o O o o Z 2.V.G.J.H.+X3XjX5XJ.B.>.i O   3 S X.Q.zXzXzXzXlXzXlXzXzXzXzXzXzXzXzXzXzXzXzXcXcXcXcXcX",
"cXcXzXzXzXzXlXzXlXzXlXlXlXlXlXlXlXlXlXzXlXzXlXlXlXeXK.l X   X o = - =   Z 2.Z.S.J.OX2XrXvX5XS.B.;.i X   d  .8XzXzXzXzXzXzXzXzXlXzXzXlXzXlXzXzXzXzXcXcXzXcXcXcXcX",
"zXcXcXzXzXzXzXzXzXlXlXlXlXlXlXlXlXlXlXlXlXlXlXlXlXzXlX`.q X = = - t , - J G.2.1.H.3X1XrXcX#X3.B.C.i o   K.lXlXzXlXlXlXlXlXlXzXlXlXzXzXlXzXzXzXzXzXzXzXcXzXcXcXcX",
"cXcXcXcXzXzXzXlXlXlXlXlXlXlXlXlXlXlXlXlXlXlXlXlXlXlXlX`.s - r t t O i w.<.3.A.$XJ.H.2XrXvX6XH.B.-.i X   K.lXzXzXlXzXlXzXlXzXlXlXlXlXlXzXlXzXzXzXzXzXzXzXcXzXcXzX",
"cXcXxXzXzXzXlXzXzXlXzXlXlXlXlXlXlXzXlXlXlXlXlXlXlXhXW.' t = t t t O p <.2.p.G.J.J.4XtXaXaX+XC.B.:.i X X L.zXlXlXlXlXlXlXlXlXlXlXlXzXlXlXlXlXlXzXzXzXzXzXzXcXcXcX",
"cXcXcXzXzXzXzXzXlXlXzXlXlXlXlXlXlXlXlXlXlXlXzXlXlX8XQ   o = o , t O p <.2.B.G.J.4XiXjXrX1XD.i.B.,.i X   k.zXzXlXlXlXlXlXzXlXlXlXlXlXlXlXlXlXzXlXlXzXzXzXzXcXcXcX",
"cXcXzXcXzXzXzXzXzXzXlXlXlXlXlXlXlXlXlXlXzXlXlXlXlX0XQ X = o = , t o i C.2.4.A.5XkXjX7X1X1X3X$XB.-.5 X   e.lXlXlXlXlXlXlXlXlXlXlXlXlXlXzXlXzXlXlXzXzXzXzXzXzXzXcX",
"cXzXcXzXzXzXzXzXlXlXlXlXlXlXlXlXlXlXlXlXlXlXlXlXlX7XQ X o = - , t O p <.2.B.4XkXaX).` o.<XtXsX4XM.i X   K.lXlXlXlXlXlXlXlXlXlXlXlXlXlXlXlXlXzXzXlXzXzXzXzXcXcXzX",
"cXcXzXcXzXzXzXzXzXzXlXzXlXlXlXzXlXlXlXlXlXlXlXlXlX7XQ X o - , r t O p <.V.+XsXjX!.` = ` <XaXvX4XM.x O   L.lXlXlXlXzXlXlXlXlXzXlXlXzXlXlXlXlXlXlXlXlXzXzXzXzXzXvX",
"cXcXzXcXzXzXzXzXzXzXlXzXzXlXlXlXlXlXzXlXlXzXlXlXlX7XQ   O > r r t 5 J D.%X1XaXrX)     ` <XaXjX4XM.x o   n.lXlXlXlXlXlXlXlXlXlXlXlXlXlXlXlXlXlXlXzXzXzXzXzXzXzXzX",
"cXcXcXcXcXzXzXzXzXzXzXlXlXzXlXzXlXlXlXlXlXlXlXlXlX7Xl X o > y - ; L C.sXvXzXaX{.z     ) <X1X7XjX3XQ >   L.zXlXlXlXlXlXlXlXlXlXzXzXlXlXlXlXlXlXzXlXlXlXzXzXcXcXzX",
"cXcXzXcXzXcXcXzXzXzXzXzXzXlXlXzXzXlXlXlXlXlXlXzXzXdX[...> - r - y m.5XrXrXwXn.Q :     f ] N.1XwXyX[.o.o k.zXlXlXlXlXlXlXlXlXlXlXlXlXlXlXlXlXlXlXlXlXzXzXzXzXzXzX",
"cXcXcXcXcXcXzXzXzXzXlXzXzXzXzXlXlXlXzXzXlXzXlXzXzXlXlX7X..Q > o y {.3XW.n.n.j         - 6 ] N.{.[.).E.| {.lXlXlXlXzXlXlXlXlXlXlXlXlXlXlXlXzXlXlXzXlXzXlXzXcXzXzX",
"cXcXcXcXcXzXcXzXzXzXzXzXzXzXzXzXzXlXzXlXzXlXzXlXzXzXzXzXzX!.t O < n.N.x &             @ 7 7 g e.I.Q ..gXlXlXlXlXlXzXlXlXlXlXlXlXzXlXlXlXlXlXlXlXlXlXlXzXzXzXzXcX",
"cXcXcXcXcXcXcXcXcXzXzXcXzXzXzXzXzXzXzXzXzXzXzXzXzXzXzXzXzXdX9X] o q a 0 O             X : * 2 q ` `.aXlXlXlXlXlXlXlXlXlXlXlXlXlXlXlXlXlXlXlXlXlXzXlXzXzXzXzXzXcX",
"cXcXcXcXcXcXcXzXzXcXcXzXzXzXzXzXzXzXzXzXzXzXzXzXzXzXzXzXzXzXxX .. * 6 6 #   ' W.W. .> + 6 * .   Q 7XzXlXlXlXlXlXlXlXlXlXlXlXlXlXlXlXlXzXlXlXlXlXzXlXzXzXzXzXcXcX",
"cXcXcXcXcXcXcXcXcXcXzXcXzXcXzXzXzXzXzXzXzXzXcXzXzXzXzXcXcXcXxX .  $ & 4 @   W.cXcX[.f @ 4 * +   I wXzXzXlXlXlXlXlXlXlXzXlXzXlXlXlXlXlXlXlXlXlXzXlXzXzXzXcXzXcXzX",
"cXcXcXcXcXcXcXcXcXzXcXzXcXcXzXcXzXzXzXzXcXzXzXzXzXzXzXcXcXcXxX .X X         W.zXcX[.d + & 6 7 * Q 8XxXlXzXlXzXlXlXlXlXlXlXzXlXlXlXlXlXlXzXlXlXzXzXlXzXzXzXzXcXcX",
"cXcXcXcXcXcXcXcXcXcXcXcXcXzXcXcXcXzXcXzXcXcXcXzXcXcXcXcXcX=Xj.Y.T.^.k.^ } ^.U.Y.eX9X/ } ^././.^.T.Y.k.j.=XlXlXlXlXlXlXlXlXlXlXlXlXlXzXlXlXzXzXlXzXzXzXzXcXcXzXzX",
"cXcXcXcXcXcXcXcXcXcXcXcXzXcXcXcXcXcXcXcXzXzXcXcXcXcXcXcXcX]./ T.qXqX].} Y.qXU.} =XeX} k.qXqXqXqX-Xj./ / /.zXzXlXlXzXlXzXlXlXlXlXlXzXzXlXlXzXzXzXzXzXcXzXzXcXcXcX",
"cXcXcXcXcXcXcXcXcXcXcXcXcXcXcXcXcXzXcXzXcXcXcXcXcXcXcXcXcXcXcXzXcXcXzXcXcXcXcXcXvXcXcXcXcXcXzXcXcXcXzXzXzXzXlXzXlXzXlXlXlXzXlXzXlXlXlXlXzXzXzXlXzXzXzXzXzXcXcXcX",
"cXcXvXcXvXcXcXcXcXcXcXcXcXcXcXcXcXcXcXcXcXcXcXcXcXcXcXcXcXcXcXcXcXcXcXcXcXcXcXcXcXcXcXcXcXcXcXcXcXzXzXzXzXzXzXzXlXlXzXlXlXlXzXlXzXlXzXlXzXzXzXzXzXzXcXzXcXcXzXcX",
"cXcXcXcXcXcXcXcXcXcXcXcXcXcXcXcXcXcXcXcXcXcXcXcXcXcXcXcXcXcXcXcXcXcXcXvXcXcXcXcXcXcXcXcXcXcXcXcXcXxXcXzXzXzXzXzXzXzXzXzXzXzXlXzXzXzXzXzXzXzXzXzXzXzXzXcXcXcXcXcX",
"cXcXcXcXcXcXcXcXcXcXcXvXvXcXcXcXcXcXcXcXcXcXcXcXcXcXcXcXcXcXcXcXcXcXcXcXcXcXvXcXcXcXcXcXcXcXcXcXcXcXzXcXcXzXzXzXzXzXzXzXzXzXzXzXzXzXzXzXzXzXcXzXzXcXcXcXcXcXcXcX",
"vXcXcXcXcXcXcXcXcXcXcXcXcXcXcXcXcXcXcXcXcXcXcXcXcXcXcXcXcXcXcXcXcXcXvXcXcXcXcXcXcXcXcXcXcXcXcXcXzXcXzXcXzXzXzXzXzXzXzXzXzXzXzXzXzXzXzXzXzXcXzXzXcXzXcXcXcXcXcXcX",
"cXcXcXcXcXcXcXvXcXcXvXcXcXcXcXcXcXcXcXvXcXcXcXvXvXcXcXcXcXcXcXvXcXcXcXcXcXcXcXcXcXcXcXcXcXcXcXcXcXcXcXcXzXcXcXcXzXzXcXzXzXzXzXzXzXzXzXcXzXcXzXcXcXzXcXcXcXcXcXcX",
"cXcXcXcXcXcXcXcXcXcXcXcXcXcXcXcXcXcXcXcXcXcXcXcXcXcXcXcXcXcXcXcXcXvXcXcXcXcXcXcXcXcXcXcXcXcXcXcXcXcXzXcXcXcXzXcXzXzXzXzXzXcXcXzXzXzXzXcXcXzXcXcXcXcXcXcXcXcXcXcX",
"cXcXcXcXvXcXcXcXvXcXcXcXcXcXcXcXcXcXcXcXcXcXcXcXcXcXcXcXcXcXcXcXcXcXcXcXcXcXcXvXcXcXvXcXcXcXcXcXcXcXcXcXcXzXcXzXcXzXcXcXcXzXcXzXcXzXcXcXcXzXcXcXcXcXcXcXcXcXcXcX",
"cXcXcXvXcXcXcXcXcXcXcXcXcXcXvXcXcXcXcXcXvXcXcXcXcXcXcXcXvXcXcXcXcXcXcXcXcXvXcXcXcXcXcXcXcXcXcXvXcXcXcXcXcXcXcXcXcXcXcXzXcXcXcXcXcXcXcXzXcXcXcXcXcXcXcXcXcXcXcXcX"
};
