/* XPM */
static char *efa2414025934c1eaa99ecffeb8bdbe43ITVfzrn60ZuKQNa[] = {
/* columns rows colors chars-per-pixel */
"80 80 235 2 ",
"   c #020202",
".  c #0A0504",
"X  c #070608",
"o  c #09070A",
"O  c #0B0A0C",
"+  c #0D0906",
"@  c #130A07",
"#  c #140C0B",
"$  c #1D0F0B",
"%  c #0B190D",
"&  c #1C110D",
"*  c #16100D",
"=  c #0E0D11",
"-  c #110E14",
";  c #1F0611",
":  c #121213",
">  c #16131A",
",  c #19151D",
"<  c #1A1B1C",
"1  c #1B1514",
"2  c #0D1C10",
"3  c #23120D",
"4  c #29140F",
"5  c #280A17",
"6  c #281917",
"7  c #331A13",
"8  c #3B1C15",
"9  c #331917",
"0  c #0F2212",
"q  c #142916",
"w  c #15361B",
"e  c #36251B",
"r  c #1D1A21",
"t  c #1B1720",
"y  c #211D26",
"u  c #2C1F24",
"i  c #371624",
"p  c #3D0D20",
"a  c #1F2122",
"s  c #232325",
"d  c #2A2B2D",
"f  c #272829",
"g  c #392728",
"h  c #253220",
"j  c #2F3132",
"k  c #323334",
"l  c #3A3E3D",
"z  c #36393B",
"x  c #372C30",
"c  c #401F17",
"v  c #4B1918",
"b  c #5C1711",
"n  c #7A110D",
"m  c #6F140F",
"M  c #44221A",
"N  c #4C261C",
"B  c #51271D",
"V  c #56281E",
"C  c #481E29",
"Z  c #581830",
"A  c #452825",
"S  c #542D23",
"D  c #55362C",
"F  c #4E3234",
"G  c #62352B",
"H  c #6B3B2D",
"J  c #66283B",
"K  c #632828",
"L  c #74212D",
"P  c #1C4C23",
"I  c #255229",
"U  c #326C39",
"Y  c #5B4436",
"T  c #4A4830",
"R  c #7C4638",
"E  c #73523F",
"W  c #6A4636",
"Q  c #3B3D41",
"!  c #5C3445",
"~  c #3D4243",
"^  c #345B4B",
"/  c #316651",
"(  c #424243",
")  c #454A4B",
"_  c #4D4949",
"`  c #494A51",
"'  c #4C5252",
"]  c #595857",
"[  c #584A48",
"{  c #734D4E",
"}  c #497765",
"|  c #5D6564",
" . c #646A69",
".. c #697173",
"X. c #77777A",
"o. c #6E6871",
"O. c #5D6060",
"+. c #9C0000",
"@. c #811818",
"#. c #81261F",
"$. c #AB2E36",
"%. c #83123F",
"&. c #CF2D24",
"*. c #D91C1C",
"=. c #844939",
"-. c #951948",
";. c #982653",
":. c #8B3256",
">. c #A72657",
",. c #A63A65",
"<. c #B73065",
"1. c #CA3A73",
"2. c #D23A77",
"3. c #C82B6A",
"4. c #C31A5D",
"5. c #954C4E",
"6. c #AB5D48",
"7. c #A84D4E",
"8. c #996953",
"9. c #946F59",
"0. c #B76F53",
"q. c #96516A",
"w. c #AE4970",
"e. c #927270",
"r. c #B16C6F",
"t. c #C14758",
"y. c #D25145",
"u. c #C57459",
"i. c #CE427A",
"p. c #D4447D",
"a. c #CA527B",
"s. c #EC6868",
"d. c #3A873F",
"f. c #4A863E",
"g. c #3D8B46",
"h. c #4B934F",
"j. c #598876",
"k. c #668F7E",
"l. c #B78A6B",
"z. c #9D867D",
"x. c #D38464",
"c. c #DA9673",
"v. c #CC8F6D",
"b. c #E5A17A",
"n. c #7A7A84",
"m. c #AC7A88",
"M. c #B26F89",
"N. c #9E6D86",
"B. c #D94A83",
"V. c #D6598A",
"C. c #C85683",
"Z. c #E15A90",
"A. c #DA6795",
"S. c #D9759D",
"D. c #C87298",
"F. c #E6779C",
"G. c #E36396",
"H. c #DE7BA2",
"J. c #E478A3",
"K. c #758282",
"L. c #7A8382",
"P. c #7C898A",
"I. c #7F828E",
"U. c #699987",
"Y. c #719B89",
"T. c #79A997",
"R. c #5D9581",
"E. c #838A89",
"W. c #89918E",
"Q. c #939A9B",
"!. c #929291",
"~. c #A48E86",
"^. c #83AB9C",
"/. c #8BB19F",
"(. c #B3A290",
"). c #9A9BAA",
"_. c #AF99A8",
"`. c #9CABAA",
"'. c #97A3A3",
"]. c #92B6AB",
"[. c #A8B5B7",
"{. c #AAABB0",
"}. c #D19789",
"|. c #EF9191",
" X c #D7A989",
".X c #FAB489",
"XX c #F7B086",
"oX c #EBAE8D",
"OX c #D885AB",
"+X c #CC8FAD",
"@X c #E583AA",
"#X c #E189AC",
"$X c #E78EB1",
"%X c #E695B6",
"&X c #D7B1B9",
"*X c #ECA7B3",
"=X c #A7C6BE",
"-X c #90C6B1",
";X c #FCC49E",
":X c #D2C2AB",
">X c #D9CCB1",
",X c #F4CDB4",
"<X c #AEB2C3",
"1X c #B6B8C9",
"2X c #BBACC2",
"3X c #CDB2C4",
"4X c #EDA6C2",
"5X c #E7B4CA",
"6X c #F2BBC9",
"7X c #BCCCCB",
"8X c #B6C8C6",
"9X c #BAD1CB",
"0X c #B8D0CF",
"qX c #A9E1CD",
"wX c #C4C7D3",
"eX c #C9D5D7",
"rX c #D2D4DE",
"tX c #D8D0DC",
"yX c #CFCED2",
"uX c #FCD7C4",
"iX c #EDCCD5",
"pX c #FFE6CE",
"aX c #D8DAE2",
"sX c #F0D7E2",
"dX c #D6EAE9",
"fX c #DEFBFD",
"gX c #DEF3F2",
"hX c #D4EAE9",
"jX c #E8E4EA",
"kX c #F5E4E6",
"lX c #E5FDFC",
"zX c #ECFEFC",
"xX c #E5F7F5",
"cX c #F1FFFB",
"vX c #FAF8FA",
/* pixels */
"cXcXcXcXcXcXcXcXcXcXzXcXcXcXzXcXcXzXzXcXzXcXcXzXzXcXzXcXzXcXcXzXcXcXcXcXcXcXcXcXcXcXcXcXzXcXcXcXzXzXcXcXcXzXcXcXcXzXcXcXcXcXcXcXcXcXcXcXcXcXcXcXcXcXvXcXcXcXvXcX",
"cXcXcXcXcXcXcXcXcXcXcXcXzXcXzXzXzXzXzXzXzXzXzXcXzXcXcXzXcXcXcXcXcXcXcXcXcXcXcXcXcXzXcXcXzXcXcXcXzXcXzXzXcXzXzXzXzXzXzXcXzXcXcXzXcXcXcXcXcXcXcXcXcXcXcXcXcXcXcXcX",
"cXcXcXcXcXcXcXcXcXcXzXcXzXcXzXcXzXzXzXzXzXzXzXzXzXzXzXzXcXzXcXcXcXcXcXcXcXcXcXzXcXcXzXcXcXzXcXzXzXcXzXcXzXzXzXzXcXzXcXzXzXvXzXzXcXzXzXcXcXcXcXcXcXcXcXcXcXcXvXcX",
"cXcXcXcXcXcXzXcXcXzXcXzXzXzXzXzXzXzXzXzXzXzXzXlXzXzXzXzXzXzXzXzXzXcXzXcXcXcXzXcXcXcXzXcXzXzXzXzXzXzXzXlXzXzXzXzXzXzXzXzXzXzXzXzXzXcXcXcXcXcXcXcXcXcXcXcXcXcXcXcX",
"cXcXcXcXcXcXzXcXzXcXzXzXzXzXzXzXzXzXlXlXzXzXzXzXlXzXlXzXzXzXzXcXcXcXzXcXzXcXzXcXzXcXzXzXzXzXlXzXzXlXzXzXzXzXzXzXzXzXzXzXzXzXzXzXcXzXcXcXzXcXcXcXcXcXcXcXcXcXcXcX",
"cXcXcXcXcXcXcXcXcXzXcXzXzXzXlXzXzXlXlXzXlXlXlXlXlXzXzXzXlXzXzXzXzXzXcXzXzXcXzXzXzXzXzXzXzXzXlXzXzXzXlXzXlXzXlXzXlXlXzXlXzXzXzXzXzXzXzXcXcXcXcXcXcXcXcXcXcXcXcXcX",
"cXcXcXcXcXcXcXcXzXzXzXzXzXlXzXlXlXzXlXzXlXlXzXlXlXlXzXzXzXzXzXzXzXzXzXzXzXzXzXcXzXzXzXzXlXzXlXzXlXzXlXzXzXzXlXlXlXzXzXlXlXzXzXzXzXzXzXzXzXcXcXcXcXcXcXcXcXvXcXcX",
"cXcXcXcXcXcXcXzXzXzXzXzXlXzXlXlXlXzXlXlXlXlXlXlXlXzXlXlXlXzXlXzX`.<                     r [.lXlXlXlXlXlXlXlXlXlXlXlXlXlXzXlXzXzXzXzXzXzXcXzXzXcXcXcXcXcXcXcXcXcX",
"cXcXcXzXcXcXcXzXzXzXzXlXzXlXzXlXlXlXlXlXlXlXlXlXlXzXlXzXlXlXgX0Xk.- . o O O O O O O O : f P.0XgXzXlXlXlXlXlXlXlXlXlXzXlXlXlXlXzXlXzXzXzXzXzXzXcXcXcXcXcXcXcXcXcX",
"cXcXcXcXcXzXzXzXzXzXzXlXlXlXlXlXlXlXlXlXlXzXlXzXlXlXlXlXlXlX9X~ . . : d d d d d d d d l T < ` eXlXlXlXzXlXlXlXlXzXlXlXlXzXlXlXlXlXzXzXzXzXzXcXzXcXcXcXcXcXcXcXcX",
"cXcXcXcXzXzXzXzXzXzXlXzXlXlXlXlXlXlXlXlXlXlXlXlXlXlXlXlXxXP.~ d s r k ( ( ( ( ( ) ~ ( l k < q ) Q.gXlXlXlXlXzXlXlXlXzXlXzXlXlXlXlXzXzXzXzXzXzXcXcXcXcXcXcXcXvXcX",
"cXcXcXzXcXcXzXzXzXzXlXlXlXzXlXlXlXlXlXlXlXlXlXlXlXlXlX8XP.~ r j k s f k k k k k k F ' k y : > < ) P.7XlXlXlXlXlXlXlXlXlXlXlXlXzXlXzXlXzXzXzXzXzXcXzXcXcXcXcXcXcX",
"cXcXzXcXzXzXzXzXzXzXlXlXlXlXlXlXlXlXlXlXlXlXlXlXlXxXxXX.  r z F k : # : : = : : : s ( s : % > f r   P.lXlXlXlXlXlXlXlXlXlXlXlXlXzXlXlXzXlXzXzXzXzXcXcXcXcXcXcXcX",
"cXcXcXzXcXzXzXzXzXlXlXlXlXlXlXlXlXlXlXlXlXlXlXlXlXjX4Xo.X j Q s : : % # % : : : : O + O # - > f a : W.lXlXlXlXlXlXlXlXlXlXlXlXlXlXlXlXzXzXzXzXzXzXcXzXcXcXcXcXcX",
"cXcXcXcXzXzXzXzXzXlXlXlXlXlXlXlXlXlXlXlXlXlXlXlXlXtX@XD.q.] k < : : g R R =.R R R A   O : < r : : = z ..8XzXlXlXlXzXzXlXlXlXzXlXlXlXlXlXlXzXlXcXzXzXcXcXcXcXcXcX",
"cXcXcXzXzXzXzXlXzXlXlXlXlXlXlXlXlXlXlXlXlXlXlXlXlX3Xq.q.e.( > % 6 Y 8.x.u.x.x.u.0.=.M 6 : r < X   % X < `.lXlXlXlXlXlXlXlXlXlXlXzXlXlXzXlXzXzXzXcXcXzXcXcXcXcXcX",
"cXzXcXzXzXzXlXzXlXlXlXlXlXlXfXlXlXlXfXlXlXfXlXlXlX'.2 X = X   # W b..X.X.X.XXXb.u.u.0.D O : =   X O X < `.lXlXlXlXlXlXlXlXlXlXlXlXlXlXlXlXzXzXzXzXzXcXcXcXcXcXcX",
"cXcXcXcXcXzXzXlXlXlXlXlXlXlXlXxXfXlXlXlXlXlXlXlXfX'.>       6 8.b.b..X.X.XXXXXXXb.x.u.S   O : O o X   q `.lXlXlXlXlXzXlXlXlXlXlXlXzXlXzXlXzXzXzXzXcXzXcXcXcXcXcX",
"cXcXcXcXzXzXzXlXlXlXlXlXlXlXlXlXlXlXfXlXlXlXfXlXlX'.:       * D E E l..X;XoX9.E R W S G D 9 = o o o   < `.lXlXlXzXlXlXlXlXlXzXlXlXlXlXlXlXzXzXzXzXcXcXcXcXcXcXcX",
"cXcXzXzXzXzXzXzXlXlXlXlXlXlXlXfXfXlXlXfXfXlXfXlXlX[.' s     . 5 i T e.;XuX>X{ i x <   H 6.A =   o - o < `.lXlXzXlXlXlXlXlXlXlXlXlXlXlXzXzXlXzXzXzXzXzXcXcXcXcXcX",
"cXcXcXcXzXzXlXlXlXlXlXlXlXlXlXfXlXfXlXfXfXlXfXlXfXlXlXP.# . ; -.V.uXpXpXpX,Xa.C.{...  H 6.M : % : % X q `.zXlXlXlXlXlXlXlXzXlXlXlXlXzXlXlXlXzXzXzXcXzXcXcXcXcXcX",
"cXcXzXzXcXzXzXzXlXlXlXlXfXfXlXlXfXlXfXlXlXfXlXfXlXlXfXK.  . 5 ,.@X,XpXpXpXuXF.J.sX&Xl.v.v.T O X       < `.lXlXlXlXzXlXlXlXlXlXlXlXlXlXlXzXzXzXzXzXzXcXzXcXcXcXcX",
"cXcXcXzXcXzXzXlXlXlXlXfXlXfXfXfXfXfXfXfXfXfXfXfXlXfXlXn.    e r.}.b.,XpXpXpX*X*XkXuX.Xl.E g O         > `.lXlXlXlXlXlXlXlXzXlXlXlXlXlXlXlXzXlXzXcXzXcXcXcXcXcXcX",
"cXcXcXzXzXzXzXlXlXlXlXlXlXfXlXfXfXlXfXlXfXfXlXfXfXlXlXk.  O h 9.l.l.l.&X>X>X>X:X:X Xv.D X O O X       < `.lXlXlXlXlXlXlXlXlXlXlXlXlXzXzXlXzXzXzXzXcXcXcXcXcXcXcX",
"cXcXzXcXzXzXzXlXlXlXlXlXfXlXfXfXfXfXfXfXfXfXfXfXfXfXlXn.X P d.P I d.U w U h.P h h < # : O X   O X     r `.lXlXlXlXlXlXlXlXlXzXlXzXlXlXlXzXzXzXcXcXcXcXcXcXcXcXcX",
"zXcXcXzXzXzXzXlXlXlXlXfXfXfXfXfXfXfXfXfXfXfXfXfXfXlXfXn.X w P w w I P 0 P I q 0 w 0   X %   X = o     0 `.lXlXlXzXlXxXlXlXlXlXlXlXlXlXzXlXzXzXzXcXcXcXcXcXcXcXcX",
"zXcXzXcXzXzXzXlXlXlXlXfXlXfXfXfXfXfXfXfXfXfXfXfXfXfXfXK.  2 w 2 0 q 0 % 0 q 2 2 q 2 X o o     = O   j ..7XlXlXlXlXlXlXlXlXlXlXlXlXzXzXlXzXzXzXzXcXzXcXcXcXcXcXcX",
"cXcXcXzXzXzXzXzXlXlXfXlXfXfXfXfXfXfXfXfXfXfXfXfXfXfXfXK.  O O X     . @ # * : O   . % X       # X   X.hXgXlXlXlXlXlXlXlXlXlXlXlXlXlXlXzXzXzXzXcXcXcXcXcXcXcXcXcX",
"cXcXcXcXcXzXzXlXlXlXfXfXlXfXfXfXfXfXfXfXfXfXfXfXfXfXfXK.  O O       N 7.6.8.!.n.a o   o O           < ) [.lXlXlXlXlXlXlXlXlXlXlXlXlXlXlXzXzXzXzXzXcXcXcXcXcXcXcX",
"zXcXcXzXcXzXzXlXlXlXlXlXfXfXfXfXfXfXfXfXfXfXfXfXfXfXfXK.X X       O W c.v.~.o.Q :     = > X         o f {.zXlXlXlXlXlXlXlXlXlXlXzXlXzXlXzXxXcXzXcXcXcXcXcXcXcXvX",
"cXcXcXzXzXzXzXzXlXlXlXfXfXfXfXfXfXfXfXfXfXfXfXfXfXfXfXP.: X     X % D l._.).Q o       : r :         X < k.8XdXfXfXlXlXlXlXlXlXlXlXlXlXlXzXzXzXcXzXcXcXcXcXcXcXcX",
"cXcXzXcXzXzXzXxXlXlXlXlXlXfXfXfXfXfXfXfXfXfXfXfXfXfXfXP.= X       O - > X.).Q o       > y y > X         O ) 9XlXlXlXlXlXlXlXlXlXzXlXzXzXzXzXzXcXcXcXcXcXcXcXcXcX",
"cXcXcXcXcXzXzXzXlXlXlXfXlXfXfXfXfXfXfXfXfXfXfXfXfXfXfXP.:       X = : : q.M.F =   + @ , y y t           O ) 9XfXlXlXlXlXlXlXfXlXlXlXzXzXzXzXzXcXcXcXcXzXcXcXcXcX",
"cXcXzXcXcXzXzXzXlXlXlXlXfXlXfXfXfXfXfXfXfXfXfXfXfXfXfXP.# .   . # 9 6 : J 1.:.J * @ $ 1 , y > X         O d  .[.gXlXfXlXlXlXlXlXzXlXzXlXzXzXcXzXzXcXcXcXcXcXcXcX",
"cXcXcXzXcXzXzXzXlXlXlXlXlXfXfXfXfXfXfXfXfXfXfXfXfXfXlXL.# O + $ 7 N A A :.2.B.,.i & $ $ - t t =         O O X O.dXlXfXlXlXlXlXlXlXzXlXzXzXzXcXcXcXcXcXcXcXcXcXcX",
"cXcXcXcXzXcXzXzXzXzXlXlXlXlXlXfXfXfXfXfXfXfXfXfXfXfXfXL.  : y 1 7 N :.Z.J.@Xi.;.K 8 $ $ $ 6 y r -       # :   ] gXfXlXlXlXlXlXlXlXlXzXlXlXzXzXzXzXzXcXcXcXcXcXcX",
"cXcXcXcXcXzXzXzXzXlXlXlXlXlXlXfXfXfXfXfXfXfXfXfXfXfXfXn.  O - & v -.a.$X@XJ.J.r.G c $ $ $ y y y >         # 7 F ] {.lXlXlXlXlXlXlXlXzXzXzXzXzXzXzXcXcXcXcXcXcXcX",
"cXcXcXcXcXzXcXzXzXzXzXzXlXlXlXlXfXfXfXfXfXfXfXfXfXlXfXK.  + $ 4 S { e.~.~.e.!.e.T e 7 4 $ , t r , O X   . $ c c & ] Q.Q.lXlXlXlXzXlXlXzXzXzXzXzXzXcXzXcXcXcXcXcX",
"cXcXcXcXcXcXcXzXzXzXzXlXlXlXlXlXlXfXlXfXfXfXfXfXfXfXfXK.  @ 3 N T h.h.h.U h.h.h.^ T V 7 $ # - t r y =   @ 4 M c 4 3 $ $ lXlXlXlXlXlXlXlXzXlXzXzXzXcXzXcXcXcXcXcX",
"cXcXcXcXzXcXcXcXzXzXzXzXlXzXlXlXlXlXfXlXlXfXlXfXlXlXfXK.  @ 4 N 9.eXoX&.&.y.>XeX{.X.B 7 $ - = = , y =   @ $ 4 7 M 7 $ $ lXfXlXlXlXlXzXlXzXzXzXzXzXcXcXcXzXcXcXcX",
"cXcXcXcXcXcXcXcXcXzXxXzXzXzXlXlXlXlXlXlXlXlXlXfXfX8X..Q > 9 v m 8.sX|.*.*.$.+XyX1Xn.; $ $ + o > r y -   @ $ $ 7 V 8 $ $ zXlXlXlXlXlXlXlXlXzXzXzXzXzXzXzXcXcXcXcX",
"cXcXcXcXcXcXcXcXcXzXcXzXzXzXzXxXlXlXlXlXlXlXlXlXlX'.2 = r g v m 7.*X|.s.7.7.r.~.m.{ $ $ $ . o r y y #   @ $ $ 7 B 7 $ $ lXlXlXlXlXlXlXzXlXzXzXzXzXzXcXcXcXzXcXcX",
"cXcXcXcXcXcXcXcXzXcXcXzXzXzXzXzXlXzXlXlXlXlXlXlXlX'.: : r 1 4 v #.*.|.vXrX_.$.+.+.@.V 7 # . X r y r -   @ $ $ 7 B 8 $ $ lXlXlXlXlXlXlXlXlXlXzXzXzXzXzXcXzXcXcXcX",
"cXcXcXcXcXcXcXcXcXcXzXcXzXzXzXxXlXlXlXzXlXlXlXlXlX'.: X - o @ c V L e.wX1X_.$.+.+.n V 7 # . o r t > O o   . $ 7 B 8 $ $ lXlXlXlXlXlXlXlXlXzXzXlXzXzXzXcXzXcXcXcX",
"cXcXcXcXcXcXcXcXcXzXcXzXcXzXzXzXlXzXzXxXlXlXzXlXzX'.: X o X + 4 M V e.3XD.M.t.$.@.b 8 $ . . X r , = = o   . $ 7 B 7 & & lXlXlXlXlXlXlXlXlXlXzXlXzXzXcXzXzXcXcXcX",
"cXcXcXcXcXcXcXcXcXzXzXcXzXzXzXzXzXzXzXzXzXzXzXzXzX'.1 X o   # x D V q.$XV.2.B.,.K 8 $ .     X > - O o o   + 3 7 M D _ _ lXlXlXlXlXlXlXlXzXlXlXzXlXzXzXcXcXzXcXcX",
"cXcXcXcXcXcXcXcXcXcXcXzXzXcXcXzXzXzXzXzXzXzXzXzXzX'.:       u M.m.H 5.A.#X#X1.>.K 8 3 .                   @ M 8 3 E.gXxXlXlXlXlXlXzXlXlXlXlXlXzXzXzXzXzXcXcXcXcX",
"cXcXcXcXcXcXcXcXcXcXzXzXzXzXzXcXzXzXzXzXzXzXzXzX) [ R M     f m.r.A q.#XA.p.B.,.C J w.A     6 8.l.(.(.~.g @ M c $ E.zXlXxXlXlXlXlXlXlXlXzXlXzXlXzXzXzXzXzXzXcXzX",
"cXcXcXcXcXcXcXcXcXzXcXcXzXzXzXzXzXlXzXzXlXzXzXzX  M 6.G     y w.q.5 o.3XD.V.A.,.C J 2.Z     g 0.oX,XpX>X_ @ M c $ E.lXlXlXlXlXlXlXlXlXlXlXlXlXzXzXzXzXzXzXcXcXcX",
"cXcXcXcXcXcXzXcXcXzXzXcXzXzXzXzXzXzXzXzXzXzXzXlX  M 6.G     5 -.>.C o.1X3X$XJ.C.Z L 3.Z     9 =.0..X;X,XY @ 8 8 3 E.lXzXlXlXzXlXlXlXlXlXlXlXlXzXzXlXzXzXzXcXcXcX",
"cXcXcXcXcXcXcXcXzXzXzXzXzXzXzXzXzXzXzXlXzXlXzXlX  M 6.G   > x w.B.V.D.1XH.J.$XS.<.3.Z.J   X = = E XX.X XT . & 3 $ E.xXlXlXlXlXlXzXlXlXlXlXzXlXlXzXlXzXzXcXzXzXcX",
"cXcXcXcXzXcXzXzXzXcXzXzXzXzXzXzXlXzXzXzXlXzXzXzXQ...D 4 X > i >.V.J.5XjX3X+XH.J.S.B.2.Z   X o X 6 Y W D & f L.'.'.yXlXlXlXlXlXlXlXlXlXlXlXlXlXzXlXzXzXzXzXzXcXcX",
"cXcXzXcXcXzXzXcXzXzXzXzXzXzXlXlXlXzXlXzXzXzXzXzXzX8X .d   O i ;.B.A.5XvXrX2XH.J.S.V.3.Z   = - = X X X X z K.eXlXlXlXlXlXlXlXlXlXlXzXlXlXlXlXlXlXzXzXzXzXzXzXcXcX",
"cXcXcXcXcXzXzXzXzXzXzXzXlXzXzXlXzXlXzXlXlXlXlXlXzXzXlXK.  X i w.B.3.#XvXrX1X3XH.1.2.G.J - t t - = = X r `.lXlXlXlXzXlXlXlXzXlXlXlXlXlXlXlXlXzXzXzXzXzXzXzXzXzXcX",
"cXcXcXcXxXzXzXzXlXzXlXlXzXlXlXlXlXzXlXzXlXlXlXzXlXlXzXe.  X 5 ;.B.OX6XvXrX2XH.J.@XV.3.1.w.i = t r r : a `.lXlXlXlXlXlXlXlXzXlXlXlXlXlXlXlXlXlXlXzXzXzXzXcXcXcXcX",
"cXcXcXcXzXzXzXzXzXlXzXlXlXlXlXzXlXlXlXlXlXlXlXzXlXzXlXk.  X i ,.B.V.+XaXaXtX4X$XJ.G.p.2.<.p o t r > = , ' W.hXlXlXxXlXlXlXlXlXlXlXlXlXzXlXlXlXzXlXzXzXzXzXzXcXzX",
"cXzXzXzXzXzXzXzXlXzXlXzXlXlXlXlXlXlXlXlXlXlXlXlXzXlXzXL.  o i <.B.1.D.1XaXjXiX4XJ.G.B.2.<.p o t > = - o   l 7XlXlXlXlXlXlXlXlXlXzXlXlXlXlXzXlXlXzXlXzXzXzXcXcXcX",
"cXcXcXcXzXzXlXzXlXlXlXlXlXlXlXlXlXlXzXlXlXlXlXlXlXlXlXK.  o 5 -.B.%X3X1X<X7XjXkX5XA.4.B.C.C o t , = = o   l 7XlXlXzXzXlXlXlXlXlXlXlXlXlXlXlXzXlXzXzXzXcXzXzXcXzX",
"zXcXzXzXzXzXlXlXzXlXlXzXlXlXzXlXlXlXlXlXlXlXzXlXlXlXlXK.  o u N.%XsXtX<Xo.` ).aXkX4XB.i.>.p o t , = = o   Q 7XlXlXlXlXlXlXlXzXlXlXlXlXlXlXlXzXzXlXzXzXzXcXcXcXcX",
"cXzXzXzXzXzXzXzXlXlXlXlXlXlXlXlXlXlXzXlXlXlXlXlXlXlXlXK.  o i M.5XvXaX<X` - ` Q.jXtX+XV.<.C o t t > - ; o I 7XlXlXlXlXlXlXlXlXlXlXlXlXzXzXlXlXzXzXzXzXzXcXzXcXcX",
"cXcXzXzXzXlXlXlXlXlXzXlXlXzXlXlXlXlXlXlXlXlXlXlXlXlXlXL.  O x M.4XjXtX<X`     ) rXaXwX%XD.! ; t t y > o o l wXlXlXlXlXlXlXlXlXlXlXlXlXlXzXzXzXzXzXzXcXzXcXcXcXcX",
"zXzXzXzXlXzXzXlXlXlXlXlXlXlXlXlXlXzXlXlXlXlXlXlXlXlXlXL.  : _ 3XjXwX1X<X`     Q ).rXvXvXsXC.-.; - y t o o I 7XlXzXlXlXlXlXzXlXlXzXlXzXlXzXzXlXzXzXzXzXcXzXcXzXcX",
"zXcXzXzXzXlXlXzXzXlXlXlXlXlXlXlXlXlXlXlXlXzXlXlXlXlXlXK.o o.[.wXwX1X!.] s     : Q n.eXrX3X5Xm.r = y - > ..[.dXlXlXlXlXzXlXzXzXlXlXlXzXzXzXzXzXzXzXcXcXcXcXcXcXcX",
"cXzXcXzXzXlXzXlXlXlXlXzXlXzXlXlXlXlXlXlXlXlXlXlXlXlXlX{.O.E.{.<X`.N.[ 7 @         d n.n.!.wX{.y X - Q ..7XzXzXzXlXzXlXzXlXlXlXzXzXzXlXzXlXlXzXzXzXzXzXcXcXcXcXcX",
"zXcXzXzXzXzXlXlXlXlXlXlXlXlXzXlXlXzXlXlXlXlXlXlXlXlXlXlXxX..j I.X.g 7 7 #             # g E.X.< O < W.zXzXzXzXzXzXzXzXzXlXzXlXzXzXzXzXzXzXzXzXcXzXcXcXzXcXcXcXcX",
"cXzXzXzXzXzXzXzXzXlXlXlXzXlXlXlXlXlXzXlXlXlXlXlXzXlXlXzXxXaX[.) < 1 1 * X             O 1 s a X ' wXdXcXzXzXzXzXzXzXlXzXlXzXzXzXlXzXzXzXzXzXcXzXcXcXcXcXcXcXcXcX",
"cXzXzXzXzXlXlXzXlXlXlXlXlXlXlXlXlXlXlXlXlXlXlXlXlXlXlXlXlXzX7Xl   X : 4 # :  .!.W.'   # 6 6 & .  .xXcXcXzXzXzXzXzXzXlXzXzXzXzXzXzXzXzXzXzXcXcXzXcXcXcXcXcXcXcXcX",
"zXcXcXzXzXzXzXlXzXlXlXlXlXlXlXlXlXlXlXlXlXlXlXlXlXlXzXlXzXlX7Xl   + $ 6 + h [.cXcXW.  @ 3 3 &   | xXcXcXcXcXzXzXzXzXcXzXzXzXzXzXzXzXzXcXcXzXcXcXcXcXcXcXcXcXcXcX",
"cXcXcXzXzXzXzXzXlXzXlXzXlXlXlXlXlXzXlXlXlXlXlXlXlXlXlXlXxXxX9X~ @ e 4 & @ j [.zXcXW.          X  .xXcXcXcXcXzXcXzXcXzXzXzXzXcXzXzXzXcXzXzXcXcXcXcXcXcXcXcXvXcXcX",
"zXcXzXzXzXzXzXlXzXlXlXlXlXzXlXzXlXlXlXlXlXzXlXzXlXlXlX=Xj.k.Y.T.^././.T.} / 9XeXY.U.^.} ^ k.^.T.Y.j.=XcXcXzXcXzXzXcXcXcXcXcXzXcXcXcXzXcXcXcXcXcXcXcXcXcXcXcXcXcX",
"cXcXzXcXzXzXzXzXzXlXlXlXlXzXlXlXlXlXlXlXlXlXlXlXlXzXlX/./ / j.-XqXqXqXqXk.} eX8X} U.qXU.} ].qXqXT./ ].cXcXzXcXcXzXcXcXzXcXcXcXcXcXcXcXcXcXzXcXcXcXcXcXcXcXcXcXcX",
"cXcXcXcXzXzXzXzXzXzXzXzXlXlXlXlXzXlXzXlXzXlXzXlXzXlXzXzXcXzXcXxXcXcXcXzXcXcXcXcXcXcXzXcXcXcXzXcXcXcXcXcXcXcXcXcXcXcXcXcXcXzXcXcXcXcXcXcXcXcXcXcXcXcXcXcXcXcXcXcX",
"cXzXcXcXcXzXzXzXzXzXzXzXzXlXzXzXlXlXlXzXzXlXlXzXzXlXzXzXzXzXcXzXcXcXzXcXcXcXcXcXvXcXcXcXcXcXcXcXcXcXcXcXcXcXcXcXcXcXcXcXcXcXcXcXcXcXcXcXcXcXcXcXcXcXcXcXcXcXcXcX",
"cXcXzXcXzXcXcXzXzXzXzXzXzXzXlXlXzXzXzXzXlXzXzXlXzXzXzXzXzXcXzXcXcXzXcXcXcXcXcXcXcXcXcXcXcXcXcXvXcXcXcXcXcXcXcXcXcXcXcXcXcXcXcXcXcXcXcXcXcXcXcXvXcXcXcXcXcXcXcXvX",
"cXcXcXcXcXzXcXzXzXzXzXzXzXzXzXzXzXzXzXzXzXzXzXzXzXzXzXzXcXzXcXcXcXcXcXcXcXcXcXcXcXcXcXcXcXcXcXcXcXcXcXcXcXcXcXcXcXcXcXcXcXcXcXcXcXcXcXcXcXcXcXcXcXcXcXvXcXcXcXcX",
"cXcXcXcXcXcXzXcXcXcXzXzXcXzXzXzXzXzXzXzXzXzXzXzXcXzXcXzXzXzXcXcXcXcXcXcXcXcXcXcXcXcXcXcXvXcXcXcXcXcXcXcXcXvXcXcXcXcXcXcXcXcXcXcXcXcXcXcXcXcXcXcXcXcXcXcXcXvXcXcX",
"cXcXcXcXcXcXcXcXcXzXcXzXzXcXzXzXzXzXzXzXzXzXzXzXcXzXcXzXcXcXcXcXcXcXcXcXvXcXcXcXcXcXvXcXvXcXcXcXcXcXcXcXcXcXcXcXcXcXcXcXvXcXcXcXcXcXcXcXcXcXcXvXcXcXvXcXcXcXcXcX",
"cXcXcXcXcXcXcXcXcXcXcXzXcXzXzXzXzXzXzXcXcXzXcXcXzXzXcXcXcXcXcXcXcXcXcXcXcXcXcXcXcXcXcXcXcXcXcXcXcXcXvXcXcXcXcXcXcXcXcXcXcXcXcXcXcXcXcXcXvXcXcXcXcXcXcXcXcXcXcXcX",
"cXcXcXcXcXcXcXcXcXcXzXcXcXcXzXcXzXcXcXcXcXzXcXzXcXcXcXcXcXcXcXcXcXcXcXcXcXcXcXcXcXcXcXcXcXcXcXcXcXcXcXvXcXcXvXcXcXcXcXcXcXcXcXvXcXcXcXcXcXcXcXcXvXcXcXcXcXcXcXcX",
"cXcXcXcXcXcXcXcXcXcXcXcXcXzXcXcXcXzXcXcXcXzXcXcXcXcXcXcXzXcXcXcXcXvXcXcXcXcXcXcXvXcXcXcXcXcXcXcXcXcXcXcXcXcXcXcXvXcXcXcXcXcXcXcXcXcXcXcXvXcXcXcXcXcXcXcXcXcXvXcX"
};
