/* XPM */
static char *acf748594fe94dc8fa24d5f906c195d6isPXdVJpEyAm17lk[] = {
/* columns rows colors chars-per-pixel */
"80 80 234 2 ",
"   c #020203",
".  c #0A0504",
"X  c #070608",
"o  c #08070A",
"O  c #0B0A0D",
"+  c #090808",
"@  c #140C0B",
"#  c #140708",
"$  c #1A110E",
"%  c #0E0D11",
"&  c #110E14",
"*  c #1A0A12",
"=  c #131213",
"-  c #1C1414",
";  c #161419",
":  c #19161D",
">  c #161818",
",  c #1B1B1D",
"<  c #0C130E",
"1  c #21110D",
"2  c #29140F",
"3  c #211612",
"4  c #2D1B13",
"5  c #271818",
"6  c #331A14",
"7  c #391F18",
"8  c #370A19",
"9  c #0E2211",
"0  c #142715",
"q  c #173A1D",
"w  c #2B221C",
"e  c #38251E",
"r  c #1E1B23",
"t  c #1B1720",
"y  c #211D27",
"u  c #361D23",
"i  c #1E2121",
"p  c #1F2D24",
"a  c #1E3423",
"s  c #232425",
"d  c #2A2B2D",
"f  c #272727",
"g  c #372925",
"h  c #2D2E31",
"j  c #2E3132",
"k  c #333335",
"l  c #3A3C3C",
"z  c #36393A",
"x  c #342E2E",
"c  c #4D0F0E",
"v  c #45231A",
"b  c #52271D",
"n  c #411F27",
"m  c #510C27",
"M  c #462D23",
"N  c #45353A",
"B  c #513130",
"V  c #6B3A2D",
"C  c #6E3439",
"Z  c #740B20",
"A  c #284E2C",
"S  c #287534",
"D  c #1B4121",
"F  c #5A4337",
"G  c #6F4737",
"H  c #3D3C40",
"J  c #4B3D47",
"K  c #773652",
"L  c #712D48",
"P  c #3D4242",
"I  c #424444",
"U  c #42454A",
"Y  c #454A4C",
"T  c #4A4C4C",
"R  c #434847",
"E  c #594848",
"W  c #4B4D52",
"Q  c #4D5354",
"!  c #565A5A",
"~  c #785747",
"^  c #704B54",
"/  c #595B62",
"(  c #5C6363",
")  c #5E6469",
"_  c #62656D",
"`  c #636B6B",
"'  c #656568",
"]  c #76726C",
"[  c #686B74",
"{  c #6C7474",
"}  c #6D7777",
"|  c #747878",
" . c #6F6B6E",
".. c #655E60",
"X. c #93090A",
"o. c #BE1F1F",
"O. c #963537",
"+. c #923357",
"@. c #AE3868",
"#. c #9A2654",
"$. c #C92A69",
"%. c #CE3471",
"&. c #CD3C75",
"*. c #CA3F76",
"=. c #D43D79",
"-. c #D13875",
";. c #CE306E",
":. c #D03940",
">. c #8F5945",
",. c #A65A45",
"<. c #87695B",
"1. c #956853",
"2. c #B17055",
"3. c #8E506A",
"4. c #AC4A71",
"5. c #846865",
"6. c #93726F",
"7. c #B27F62",
"8. c #AC7D62",
"9. c #CD7B5E",
"0. c #CA477B",
"q. c #D4437D",
"w. c #D5477F",
"e. c #C57065",
"r. c #E9545A",
"t. c #CA191A",
"y. c #6B8B75",
"u. c #459355",
"i. c #A88A79",
"p. c #B88C78",
"a. c #B98A6F",
"s. c #C68769",
"d. c #D99776",
"f. c #D1866A",
"g. c #E29774",
"h. c #E5A57E",
"j. c #777A84",
"k. c #B16A8A",
"l. c #D34B81",
"z. c #D94982",
"x. c #C95784",
"c. c #D65689",
"v. c #CF4C80",
"b. c #E25A90",
"n. c #D96895",
"m. c #DB759D",
"M. c #CA7395",
"N. c #E5729A",
"B. c #DD7DA5",
"V. c #E679A3",
"C. c #7C8487",
"Z. c #749D86",
"A. c #79BE8E",
"S. c #858B8B",
"D. c #89918F",
"F. c #898B96",
"G. c #8B9594",
"H. c #8A9899",
"J. c #949A9A",
"K. c #8EA69A",
"L. c #9699A6",
"P. c #B797AC",
"I. c #9CA5A4",
"U. c #9AA7A9",
"Y. c #9DB1B2",
"T. c #A4AAAB",
"R. c #A7AABA",
"E. c #A3B4B3",
"W. c #ABBBBB",
"Q. c #AAB6B6",
"!. c #B4B9BA",
"~. c #A3B1AF",
"^. c #A39C97",
"/. c #CC9882",
"(. c #E78597",
"). c #CFA492",
"_. c #EEAB84",
"`. c #F4AD84",
"'. c #F9B58B",
"]. c #FABB9A",
"[. c #E484AA",
"{. c #E68EB1",
"}. c #E897B8",
"|. c #ED9FAB",
" X c #D7A8BC",
".X c #F8BCA3",
"XX c #E7A4BF",
"oX c #F3B6B6",
"OX c #EFBFAA",
"+X c #CF80A5",
"@X c #B4C1BF",
"#X c #FBC3AA",
"$X c #FDCAB4",
"%X c #B4B8C8",
"&X c #B2B0C2",
"*X c #EAB4CA",
"=X c #D8B5C8",
"-X c #ACC8C5",
";X c #B4C4C4",
":X c #BAC8C7",
">X c #BED0CF",
",X c #BED3D3",
"<X c #C7C9D4",
"1X c #C3D5D4",
"2X c #CBDCDB",
"3X c #CAD7D7",
"4X c #D3D8DC",
"5X c #CDC9CD",
"6X c #EDC5D6",
"7X c #F3C8D9",
"8X c #F4D0D1",
"9X c #CDE1DE",
"0X c #D6D9E2",
"qX c #EADEE7",
"wX c #F5DBE6",
"eX c #CDE3E2",
"rX c #D3E5E3",
"tX c #DCEDEB",
"yX c #D8E9E8",
"uX c #DEFBFD",
"iX c #DDF4F3",
"pX c #DFF1EF",
"aX c #E6E8EB",
"sX c #E4F1ED",
"dX c #E3F5F4",
"fX c #E6FDFC",
"gX c #ECFEFC",
"hX c #EAFAF6",
"jX c #F3F3F5",
"kX c #F1FFFB",
"lX c #FCFCFD",
"zX c #F8F5F8",
"xX c #F1E5EC",
"cX c #FDE4D4",
/* pixels */
"kXkXkXkXkXkXkXkXkXkXkXkXkXkXkXkXkXgXkXkXkXgXkXkXgXkXgXkXkXkXgXkXkXkXkXkXkXkXkXkXkXkXkXkXkXkXkXkXkXkXkXgXkXgXkXkXgXkXgXkXgXgXkXgXkXgXkXkXkXkXkXkXkXkXkXkXkXkXkXkX",
"kXkXkXkXkXkXkXkXlXkXkXkXkXkXkXkXkXkXkXgXgXkXgXkXgXkXkXgXgXkXkXgXgXgXgXkXkXkXkXkXkXkXgXkXkXkXkXkXgXkXgXkXgXgXgXgXgXgXgXgXgXkXgXkXgXzXkXgXgXkXkXkXkXkXkXkXkXkXlXkX",
"kXlXkXkXkXkXkXkXkXkXkXkXkXgXkXkXgXkXkXgXkXgXgXgXgXgXgXgXgXgXgXgXgXgXgXgXgXgXkXkXkXkXkXkXkXkXkXkXgXkXkXgXgXgXgXgXgXgXgXgXgXgXgXgXgXgXgXgXkXkXkXgXkXkXkXkXkXkXkXkX",
"kXkXkXkXlXkXkXkXkXkXkXkXkXkXgXhXkXgXgXgXgXgXgXgXgXgXgXgXgXgXgXgXgXkXgXkXgXkXgXgXgXhXkXkXkXgXkXgXkXkXgXgXgXgXgXgXgXgXgXgXgXgXgXgXkXgXgXgXgXgXkXkXgXkXkXkXkXkXkXkX",
"kXkXkXkXkXkXkXkXkXkXkXkXgXkXgXkXgXgXgXgXgXgXgXgXgXgXfXgXgXgXgXgXgXgXgXgXkXgXgXkXkXkXgXkXkXkXgXgXkXgXgXgXgXfXgXgXgXfXgXfXgXgXgXgXgXgXgXgXgXgXkXgXkXkXkXkXkXkXkXkX",
"kXkXkXkXkXkXkXkXkXkXkXgXkXgXgXgXgXgXgXfXfXgXfXgXfXgXgXgXfXfXgXfXgXfXgXgXgXgXgXgXgXgXkXkXgXgXgXgXgXgXgXgXgXgXfXhXfXgXfXgXfXfXgXfXfXgXfXgXkXgXgXgXgXkXkXkXkXkXkXkX",
"kXkXkXkXkXkXkXkXgXkXkXkXgXgXgXgXgXgXfXgXgXfXgXfXfXfXfXfXgXfXfXfXfXgXgXgXgXgXgXgXkXgXgXgXgXkXgXgXgXgXgXfXfXfXfXfXfXfXfXfXfXfXfXfXgXgXgXfXgXgXgXgXgXkXkXkXkXkXkXkX",
"kXkXlXkXkXkXkXkXkXkXgXkXgXgXgXgXgXfXgXfXgXfXfXfXfXgXgXfXfXfXgXfXfXfXfXgXfXgXgXkXgXgXgXhXkXgXgXgXgXC.                  ` fXgXfXfXfXfXfXgXgXgXkXgXkXgXgXkXkXkXkXkX",
"kXkXkXkXkXkXkXgXgXkXgXgXgXgXgXgXgXfXfXfXfXfXfXfXfXfXfXfXfXfXfXfXfXfXfXgXfXfXgXgXgXgXgXgXgXgXfX3XS.Q f r > > > = ; ; > P } } H.rXfXfXfXfXfXgXgXgXgXgXkXkXkXkXkXkX",
"kXkXkXkXkXkXkXkXkXgXgXgXgXgXgXfXfXgXfXgXfXfXfXfXgXfXfXfXfXfXfXfXfXgXfXfXgXfXfXgXgXgXgXgXgXfX2XG., s R k d k k k k k k y O X j U.4XxXjXfXfXfXfXgXgXgXhXkXgXkXkXkX",
"kXkXkXkXkXkXkXkXgXkXgXgXgXfXfXgXfXfXfXfXfXfXfXgXfXfXfXfXhXfXfXfXfXfXfXfXfXfXfXfXgXgXfXfXfXyX) >   > j d k I T T R T T z f f s i  .*XqXfXgXgXgXgXgXgXkXkXkXkXkXkX",
"kXkXkXkXkXkXgXkXgXgXgXgXgXgXfXfXhXfXfXfXfXfXfXfXfXfXfXfXfXfXfXfXfXfXfXfXfXgXfXgXfXgXfXgX@X) k > O , x z I T z s s s w , = j j O J *X=X6XfXfXfXgXgXgXgXkXgXkXkXkX",
"kXkXkXkXkXkXgXkXgXgXgXgXfXfXfXfXfXfXfXfXfXfXfXfXfXfXfXfXfXfXfXgXfXfXfXfXfXfXfXfXgXfXgXfXC.  i s > 5 d P T N w           X f k > ^ }.}.}.fXgXfXgXgXgXgXgXkXkXkXkX",
"kXkXkXkXkXgXkXgXgXgXfXgXgXfXgXfXfXfXfXfXfXfXfXfXfXfXfXfXfXfXfXfXfXfXfXfXgXfXfXfXfXfXfXfXC.  r d d , > z l =           . < O = z 3.N.{.*XfXfXfXgXgXgXgXkXgXkXgXkX",
"kXkXkXkXkXkXkXgXgXgXgXfXfXgXfXfXfXfXfXfXfXfXfXfXfXfXfXfXfXfXfXfXgXfXfXfXfXfXgXfXfXfXfXfXC.  i f 0 ; = d d +   . v V V v +   + s N K ^ E fXfXfXgXgXgXgXgXkXkXgXkX",
"kXkXkXkXkXgXkXgXgXgXgXgXfXfXfXfXfXgXfXfXfXfXfXgXfXfXfXfXfXfXfXfXfXfXfXfXfXfXfXfXfXgXyX%X! X i s ; % = , ,   # e >.9.s.>.M $   O t k ;   fXfXfXfXgXgXgXkXgXkXkXkX",
"kXkXkXkXkXkXgXgXgXgXfXfXfXgXfXfXfXfXgXfXfXfXfXfXfXhXfXfXfXfXfXfXfXfXfXfXfXfXfXfXfXfXQ.d O = s s ; @ = X     b 2.g.h.`._.h.F     s T y   fXfXfXfXhXfXgXgXkXkXkXkX",
"kXkXkXkXkXgXkXgXgXgXgXfXfXfXfXfXfXfXfXfXfXfXfXfXfXfXfXfXfXfXfXfXfXfXfXfXfXfXfXfXfXfXE.0 = r > = & & O X @ V 1.g.h.'.#X#X#Xa.~ 3 & 0 O   fXfXgXfXgXgXgXgXgXkXkXkX",
"lXkXkXkXkXgXgXgXgXgXfXgXfXfXfXfXfXfXfXfXfXfXfXfXfXfXfXfXfXfXfXfXfXfXfXfXfXfXfXfXfXgXE., = d % X O = < X 2 ,.2.a.s.a.a.).$X].s.g     j P fXfXfXfXgXgXgXgXkXkXkXkX",
"kXkXkXkXkXkXkXgXgXgXgXfXfXfXfXgXfXfXfXfXfXfXfXfXfXfXfXfXfXfXfXgXhXfXfXfXfXfXfXfXfXfXE., > f <   < = O X 2 ,.V + . .   ~ $X].s.e     G.uXfXfXfXfXfXgXgXkXgXgXkXkX",
"kXkXkXkXkXkXgXgXgXgXfXfXfXfXfXgXfXfXfXfXfXgXfXfXfXfXfXfXfXfXfXfXfXfXfXfXfXfXfXfXtXC.P d , , O g 6.1.G 6 g 9.G + T  .#.C E p.d.j o X H.uXfXfXfXfXfXgXgXgXgXkXkXkX",
"kXkXkXkXkXgXkXgXgXgXfXgXgXfXfXfXfXfXfXfXfXfX9XE.3XfXfXfXfXfXfXfXfXfXfXfXfX9XY.U.H.H > i , <   g /._.s.M g d.a.F ^. X0.#.F <.<.0 i ! @XuXuXfXfXfXfXgXgXgXkXgXgXkX",
"kXkXkXkXkXgXkXgXgXgXgXfXfXfXfXfXfXfXfXfXfXfXI.5 D.dXdXfXfXfXfXfXfXfXfXfXfXY.>     r i > % % X 6 ,.d.OXF g d.'.'.cXwXV.(.'.F +   ) uXuXuXfXfXfXfXgXgXgXgXgXkXkXkX",
"kXkXkXkXkXkXkXgXgXgXgXgXgXfXfXfXhXfXfXfXfXfXT.5 N ..! D.pXfXgXdX-X! T T W P i r i , > & O     @ g >.e.N M 2.g.'.$X$XoX.X#X).<.- ) uXfXfXuXfXfXfXfXgXgXgXgXkXkXkX",
"kXkXkXkXkXkXgXkXgXgXgXhXfXgXfXfXfXfXfXfXfXfXI.5 2 6 4 E J.T.I.I.{ = X X X O s 0 r = O O         @ M G e w C 1.7.p.p.i.i.i.i.5.A y.uXuXfXuXfXfXfXgXgXgXgXgXkXkXkX",
"kXkXkXkXkXkXkXgXgXgXgXgXfXgXfXfXfXfXfXfXfXfX~.w v b b 7 1 1 1 1 $ < % % < = & & o o X           O & & & = * 5 u u g 0 9 9 9 D S A.uXuXuXuXfXfXfXfXgXgXgXkXgXkXgX",
"kXkXkXkXkXgXkXgXgXgXgXgXfXfXfXgXfXfXfXfXfXfXrXW...2 2 6 v v v v 6 @ X     . + & t t ; o X o       O & 5 5 ; 5 n n u 0 0 D 0 q A Z.uXuXuXfXuXfXfXfXgXhXgXgXkXkXkX",
"kXkXkXkXkXkXkXkXgXgXgXgXgXgXfXfXfXfXfXfXfXfXfXuX] $ # 1 6 6 6 6 2 O O O % & = : r t ; % % o     X O & 1 3 = 3 5 u u > 0 q 0 0 D y.uXuXuXuXfXfXfXfXgXkXgXgXkXkXkX",
"kXkXkXkXkXkXkXgXgXgXgXgXgXfXfXfXfXfXfXfXfXfXiXyX| $ - = + + O O O O ; y y y y y r ; % O % O X X O = O     O < = y g p a q q a A Z.uXuXuXuXfXfXfXfXgXgXgXhXgXkXgX",
"kXlXkXkXkXkXkXkXkXgXgXgXgXgXfXgXfXfXfXfXfXfXW.Y <.s.p.<.= = : % O O t y y r & : r r t % % % O % O O %       O & # z K.-X@X-X-X-XeXuXuXuXfXfXfXfXgXgXgXgXkXkXkXkX",
"kXkXkXkXkXkXkXgXgXgXgXgXfXfXfXfXfXfXfXfXyX~.| ~ p..X$Xi.- = i : & % ; y t ; % & = ; ; % % ; t ; ; % X       O & o H ,XuXuXuXuXuXuXuXuXfXuXfXfXfXfXkXgXgXkXkXkXgX",
"kXkXkXkXkXkXkXkXkXgXgXgXgXgXfXfXfXfXfXfX,XA G _.].#X$Xi.= > r r t % ; t & O o X   o % & t y r r r %   # @ O O & = P ,XuXuXuXuXuXuXuXuXuXuXfXfXfXgXgXgXgXgXkXkXkX",
"kXkXkXkXkXkXkXkXkXgXgXgXgXfXgXfXfXfXfXfX1XP F _.g.f._.8.= X o % % O % % % o       X % t r y ; & & o o K +.5 o o O P ,XuXuXuXuXuXuXuXuXfXuXfXfXfXgXgXgXgXkXkXkXkX",
"kXkXkXkXkXgXkXkXgXgXgXgXgXgXfXfXfXfXfXfXrXG.] <.7.f.1.F @     o o o   X X X X X o o % r y r ; o X u L @.4.3.N O Q K.eXuXuXuXuXuXuXuXfXuXfXfXfXgXgXgXgXgXgXkXkXkX",
"kXkXkXkXkXkXkXgXgXgXgXgXgXfXgXfXfXfXuXfXfXfXY.k 1.a.g .       o & s =       o % o & & t r r & O < L z.=.0.M. .k Y.uXuXuXuXuXuXuXuXfXuXfXfXfXfXfXgXgXgXkXkXkXkXkX",
"kXkXkXkXkXkXkXgXgXkXgXgXgXfXfXfXfXfXfXfXfXfXyX,X{ 4 +         o Y %X(         X % t t & & & o 9 S ^ ;.n.k.J { ,XyXuXuXuXuXuXuXuXuXuXfXfXfXfXfXgXgXgXkXgXkXkXkXkX",
"kXkXkXkXgXkXkXgXgXkXgXgXgXfXfXgXfXfXuXfXfXuXfXuXE.` i       % ! I.dX|     X X o % ; ; % # O . s y.y.~  .J 5 } uXuXuXuXuXuXuXuXuXuXfXuXfXfXfXfXgXgXgXgXkXkXkXkXkX",
"kXkXkXkXkXkXgXkXgXgXgXgXgXfXfXfXfXfXfXfXfXfXfXfXfX9X/ 0   > R ;XtX1X) X O % % & % % o % O . # b T.Z.u.a = d C.uXuXuXuXuXuXuXuXuXfXfXfXfXgXgXgXgXgXkXkXgXkXkXkXkX",
"kXkXkXkXgXkXkXgXgXgXgXfXgXfXfXfXfXfXuXfXuXfXfXfXfXiXeXD.% { 9XiXW.l ; % t t r r t & O O o . c O.P.&XU.P l W.yXuXuXfXfXuXuXfXuXfXfXfXfXfXfXgXhXgXgXgXkXkXkXkXkXkX",
"kXkXkXkXkXkXgXgXgXfXgXgXfXgXfXfXfXfXfXfXfXfXfXfXfXfXfX,XD.-XyXH.Q = & t r y ; ; ; & % O   . Z #.5XL./ ) [ } Y.uXuXuXuXuXfXuXuXfXfXfXfXfXgXgXkXkXkXkXkXkXkXkXkXkX",
"kXkXkXgXkXgXgXgXgXgXfXfXfXfXfXfXfXuXfXfXfXuXfXfXfXfXfXfXfXfX2XP   o = t y : & & o o % o ; x O.2.oX6.2  .C.P D.fXfXfXfXuXfXfXuXfXfXfXgXgXgXhXgXkXkXkXkXkXkXlXkXkX",
"kXkXkXkXgXkXgXgXgXgXgXfXgXfXfXfXfXfXfXfXfXfXfXfXfXfXfXfXfXfX2XP     o % & & t ; o & o X W R.5XoXr.o.X.c W -XtXfXfXfXfXfXfXfXfXfXgXfXgXgXgXgXgXkXgXkXkXkXkXkXkXkX",
"kXkXkXkXkXkXgXgXgXfXfXgXfXfXfXfXfXfXfXuXfXfXfXfXfXuXfXfXfXY.( d ; & ; ; & % & & o o y L 4.k. X|.r.t.X.c P ;XdXfXfXfXfXfXfXfXgXfXfXgXgXgXgXkXkXkXkXkXkXkXkXkXkXkX",
"kXkXkXgXgXgXgXgXgXgXfXfXfXfXfXfXfXfXfXfXfXuXfXfXfXiX:X-X@X! o t y y y y t & & % O t L *.q.q.n.m.r.:.X.m E W.dXfXfXfXfXfXfXgXfXgXgXgXgXhXgXgXgXkXkXkXkXkXkXkXkXkX",
"kXkXkXkXgXgXgXgXgXfXgXfXfXfXfXfXfXfXfXfXfXfXfXfXfX1XW & & t r r y y r y r r y % * +.q.$.l.V.[.V.V.V.^ - R tXgXfXfXgXgXfXgXgXgXgXgXgXgXkXgXkXgXkXkXkXkXkXkXkXlXkX",
"kXkXgXkXkXgXgXgXfXgXfXfXfXfXfXfXfXfXfXgXfXfX-X) ) Q r O ; t r : ; ; & ; ; ; % N +.@.=.=.l.c.b.B.M.6.J ; ` hXgXgXgXfXgXgXgXfXgXgXgXgXgXkXkXgXkXkXkXkXkXkXkXkXkXkX",
"gXkXkXgXgXgXgXgXgXfXfXfXfXfXfXfXfXeXE.E.E.E.{ O X X & & t t : & % o o o o * u +.z.=.-.q.z.l.v.n.x.3.: ; 2XkXgXgXhXgXgXhXgXgXgXgXgXgXgXkXgXkXgXkXkXkXkXkXkXkXkXkX",
"kXkXgXgXgXgXgXgXfXgXfXfXfXfXfXfXfXI.< O O O O O o & t : % % % % O % o X X n x.-.$.z.z.-.%.c.B.c.v.x.* r dXgXgXgXgXgXgXgXfXgXgXgXhXkXkXgXgXkXkXkXkXkXkXkXkXkXkXkX",
"kXkXgXkXgXgXgXgXfXfXfXfXfXfXfXfXfXH.o   o o % t t t r t % o % o .   8 #.+.@.%.=.q.=.q.c.c.c.c.w.0.4.J ! :XgXkXgXgXgXgXgXgXgXgXfXgXgXgXgXgXkXkXkXkXkXkXkXkXkXkXkX",
"gXkXkXgXgXgXgXfXfXgXfXfXfXfXfXfXfXW.Q f o & ; t t ; t ; % o o o * * #.%.q.=.%.=.z.w.l.c.0.%.x.0.4.K g F.2XhXgXgXgXgXfXgXgXgXgXgXgXgXgXgXkXgXgXkXgXkXkXkXkXkXkXkX",
"kXkXgXkXgXgXgXfXfXfXfXfXfXfXfXfXfXfXfX` X t t % O O o % % X   o m #.=.b.;.;.b.=.$.n.[.m.l.&.v.l.4.: : %XdXgXgXfXgXfXgXgXgXfXgXgXgXgXgXgXgXgXgXgXkXgXgXkXkXkXkXkX",
"gXkXgXgXgXgXgXgXgXfXgXfXfXfXfXgXfXfXfX>XD.j o O % O % O O o # m #.-.=.-.=.q.;.=.z.l.l.&.0.n.c.c.x.n ' kXgXgXgXgXgXgXgXfXgXgXgXfXgXfXgXgXgXgXgXkXgXkXgXkXgXkXkXkX",
"kXkXhXkXgXgXgXfXfXgXfXfXfXfXfXfXfXfXfXfX,Xl   o X o X r U U J @.-.=.=.-.=.q.-.=.w.w.l.&.l.M.c.l.w.K _ yXhXgXgXgXfXgXfXgXfXfXgXfXfXgXgXgXgXgXgXgXgXkXkXkXkXgXkXkX",
"kXgXkXgXgXgXgXfXgXfXfXfXfXfXfXfXfXfXfXfX,Xl   X X X X U &X%X&XB.z.$.z.b.-.=.b.q.$.m.V.n.z.c.M.0.*.4.t Y.pXfXgXfXgXgXfXgXfXgXfXgXgXfXfXgXfXfXgXgXgXgXgXgXkXkXkXkX",
"kXgXgXkXgXgXgXgXfXfXfXfXgXfXfXfXfXgXfXfX>Xz j j.j.C.j.R.0XdXxXwX7X*X*X7X6X*X7X*XB.V.V.m.&.c.n.*.0.*.B J %XfXgXgXfXfXfXfXfXgXfXfXgXfXgXfXgXfXgXgXgXgXgXkXgXkXkXkX",
"kXkXkXgXgXgXgXfXgXfXfXfXfXfXfXfXfXfXfXgX<XA d [ L.%X%X<X0XzXzXaXaXaXzXlXlXlXlXxX*X}.}.}.{.{.[.x.n.*.K * :XgXfXfXgXfXfXfXfXfXfXfXfXfXfXfXfXgXfXgXgXgXgXgXgXkXgXkX",
"kXkXkXgXgXgXgXgXfXfXfXfXfXfXfXfXfXfXfXfX1XY O   ) &XR.E.R.3XaX:X&X%X0XzXzXzXjXjXzX6X6XwXwX7XXXB.P.4.L : 2XfXfXfXfXfXfXfXfXfXfXfXfXfXfXfXgXfXgXfXgXfXgXgXgXkXgXkX",
"kXgXkXkXgXgXgXgXfXgXfXgXfXfXfXfXfXfXfXfXpX>X} X , j j j k z N z / &X<X<X<XU.W S.<XqXqX5X0XwX6X=XP.k.J = I gXfXfXfXfXfXfXfXfXfXgXfXfXfXfXfXfXfXfXgXgXgXgXgXgXkXkX",
"kXgXkXgXgXgXgXgXgXfXgXfXfXfXfXfXfXfXfXfXyX~./ X   O B G G B b B N [ [ [ [ [ ' [ j.%X0X%X0XlXwXqX6X<XG.k W 1XfXfXfXfXfXfXfXfXfXfXfXfXfXfXfXfXgXgXfXfXgXgXgXkXkXgX",
"kXkXgXkXgXgXgXgXgXfXfXfXfXgXfXfXfXfXfXfX,XA       3 8._.'.f.,.,.G w > > > ! yXS.s j.R.T.<XzXzXzXgXjXxXT.Q E.iXfXfXfXfXfXfXfXfXfXgXfXfXfXfXfXfXfXfXgXgXgXgXgXgXkX",
"kXkXkXgXgXgXgXgXgXgXgXfXfXfXgXfXfXfXfXfX<XA   @ O = w <..X<.4 6 ! !.@X@X;X3XhXrXQ.! d d j.>X<X<X<X0XaXS.T -XdXfXfXfXfXfXfXfXfXfXfXfXfXfXfXfXfXfXgXgXgXgXgXkXgXkX",
"kXkXkXkXkXgXgXgXgXgXfXgXgXfXfXfXfXfXfXW.} g $ 3 - $ + e <.] { { ^.sXkXhXkXkXkXkXsXJ.Q O h _ ) _ _ L.<X..P ,XfXfXfXfXfXfXfXfXfXfXfXfXfXfXfXfXfXfXfXfXgXfXgXgXkXgX",
"kXkXgXkXgXkXgXgXgXgX2X2X2X2X2X2X2X2X2X( . 3 w 4 4 4 = = , G.gXgXgXkXkXkXkXkXkXkXkXrXJ.,           W L.Q ! 9XfXfXfXfXfXfXfXfXfXfXfXfXfXgXfXfXfXgXfXgXfXgXgXgXgXzX",
"kXkXkXkXkXkXgXgXgXgXj j j j j j j j j , @ = $ = = $ + R @XyXgXgXkXgXkXkXkXkXkXkXyX{ f % % O       & h G.2XiXfXfXgXfXfXfXfXfXgXfXfXfXfXfXfXfXfXfXfXfXfXgXgXgXkXgX",
"kXkXkXkXkXgXkXgXkXgX    s ! / Y t O @ 3 3 3 3 - $ > ! I.dXgXkXkXkXkXkXkXkXkXkX@X| x $ 3 - - + 0 ` | C.>XfXfXfXfXfXfXfXfXfXfXfXfXfXfXfXfXfXfXfXfXfXgXfXgXgXkXgXgX",
"kXkXkXkXkXkXkXkXgXgX    Y &X%XL.k ; 4 4 4 4 4 4 w R :XgXkXgXkXgXkXkXkXkXkXsX3X| 5 w w 4 4 4 w ( rXgXgXfXfXfXfXfXfXfXfXfXfXfXfXfXfXfXfXfXfXfXfXgXfXgXgXgXgXgXkXgX",
"kXkXkXkXkXkXkXgXgXkX    Y %X%XL.k = = - @ . . # } 2XsXgXgXgXkXkXhXkXkXkXkX@Xl ( F.l $ $ @ - D.9XhXgXfXfXfXgXfXfXfXfXfXgXfXfXfXfXfXfXfXfXfXfXfXfXfXfXgXgXgXgXgXgX",
"kXkXkXkXkXkXkXkXkXgX    Y %X<X&Xk + X . , ' C.y.:XkXgXgXkXkXkXgXkXkXkXsXJ.{ ' F.%XJ.' > I S.3XkXgXgXgXgXfXfXfXfXfXfXfXfXgXfXfXfXfXfXfXgXfXfXfXgXfXgXgXgXgXkXkXkX",
"kXkXkXkXkXkXkXkXkXkX    H H.W.E.Q k j j Q 5XgXgXgXkXkXgXkXkXkXkXkXkXkXaX' W F.J.L.4XT.: / 1XtXgXgXgXgXfXgXfXfXfXfXfXfXfXfXfXfXfXfXfXfXfXfXfXgXfXfXgXgXgXgXkXgXkX",
"lXkXkXkXkXkXkXkXkXkX    o ; , F Q.9X2X2XrXdXhXkXkXgXkXkXkXkXkXkXkXkXkXhXyXI.d $ f F.F.; O k Q.gXgXgXgXgXfXgXfXfXgXfXfXfXfXfXfXfXfXfXfXfXfXgXfXgXgXgXgXgXgXgXkXkX",
"kXkXkXkXkXkXkXkXkXkX    k S.l d :XkXkXkXhXkXkXkXkXgXkXkXkXkXkXkXkXkXkXkXkX4XG.D.S.) ! _ | S.6.H.tXgXfXgXgXgXgXfXfXfXfXfXgXfXgXfXgXfXfXgXfXgXgXfXgXgXgXgXkXgXgXkX",
"kXkXkXkXkXkXkXkXkXgX    T 5X| ! 5XkXkXkXkXkXkXkXkXkXkXkXkXgXkXkXkXkXkXlXkXkXkXkXaX{ Q S.T.!.` [ rXgXgXgXgXfXgXgXfXfXgXgXfXfXfXfXgXfXfXfXgXfXgXgXgXgXgXgXkXkXkXkX",
"kXkXkXkXkXkXkXkXkXkX    . > D.aXhXkXkXkXkXkXkXkXkXkXkXkXkXkXkXkXkXkXkXkXkXkXkXkXkXsXT.f = f I.aXgXgXgXgXgXgXgXgXgXgXfXfXfXgXfXfXfXfXgXfXgXgXgXgXgXgXkXkXkXkXkXkX",
"kXkXlXkXlXkXkXkXkXkX        G.kXkXkXkXkXkXkXkXkXkXkXkXkXkXkXkXkXkXlXkXkXkXkXkXkXkXkXQ.,   = I.kXkXgXgXkXgXgXgXgXgXfXgXgXgXgXgXfXgXgXgXgXgXgXgXgXgXgXkXgXkXkXkXkX",
"kXkXkXkXkXkXkXkXkXkXkXkXkXkXkXkXkXkXkXkXkXkXkXkXkXkXkXkXkXkXkXlXkXkXkXkXlXkXzXkXkXkXkXkXkXkXkXkXkXkXkXgXgXgXgXgXgXgXgXgXgXgXgXgXgXgXgXgXgXgXgXgXgXgXkXkXkXkXkXkX",
"kXkXkXkXkXkXkXkXkXkXkXkXkXkXkXkXkXkXkXkXkXkXkXkXkXkXkXkXkXkXkXkXkXkXkXkXkXkXkXkXkXkXkXkXkXkXkXkXkXkXgXkXkXgXkXgXgXgXgXgXgXgXgXgXgXgXgXgXgXkXgXkXkXkXkXgXkXkXkXkX",
"kXkXkXkXlXkXkXkXkXkXkXkXkXkXlXkXlXkXkXkXlXkXkXkXkXkXkXkXkXkXkXlXkXlXkXkXkXkXkXkXkXkXkXkXkXkXkXkXkXgXgXkXkXgXgXgXgXgXgXgXgXkXgXgXgXgXkXgXgXkXgXkXkXkXkXkXkXkXkXkX",
"kXkXkXkXkXkXlXkXkXkXkXkXkXlXkXkXkXkXkXkXkXkXkXkXkXkXkXkXkXkXkXkXkXkXkXkXkXkXkXkXkXkXkXkXkXkXkXkXkXkXkXkXkXkXkXgXkXgXkXgXkXgXgXkXgXgXgXkXgXkXkXkXgXkXkXkXkXkXkXkX",
"lXkXkXkXkXkXkXkXkXkXkXkXkXkXkXkXkXkXkXkXkXkXkXkXkXkXlXkXkXkXkXkXkXkXkXkXkXkXlXkXkXkXkXkXkXlXkXkXkXkXkXkXkXkXgXkXgXgXkXgXgXgXkXgXkXgXkXgXkXkXkXgXkXkXkXkXkXkXkXkX",
"kXkXkXkXkXkXkXkXlXkXkXkXkXkXkXkXkXkXkXkXkXkXkXkXkXlXkXkXkXkXkXkXkXkXkXkXlXkXkXkXkXkXkXkXkXkXkXkXkXkXkXkXkXkXkXkXkXkXkXkXkXkXkXkXkXkXkXkXkXkXkXkXkXkXkXkXkXkXkXkX"
};
