/* XPM */
static char *c09d0f38d3a14ba0fab9c3dbf82756caXX9XG8EOw2RqOl3w[] = {
/* columns rows colors chars-per-pixel */
"80 80 234 2 ",
"   c #020203",
".  c #0A0504",
"X  c #070608",
"o  c #08070A",
"O  c #0B0A0D",
"+  c #090808",
"@  c #140C0B",
"#  c #140708",
"$  c #1A110E",
"%  c #0E0D11",
"&  c #110E14",
"*  c #1A0A12",
"=  c #131213",
"-  c #1C1414",
";  c #161419",
":  c #19161D",
">  c #161818",
",  c #1B1B1D",
"<  c #0C130E",
"1  c #21110D",
"2  c #29140F",
"3  c #211612",
"4  c #2D1B13",
"5  c #271818",
"6  c #331A14",
"7  c #391F18",
"8  c #370A19",
"9  c #0E2211",
"0  c #142715",
"q  c #173A1D",
"w  c #2B221C",
"e  c #38251E",
"r  c #1E1B23",
"t  c #1B1720",
"y  c #211D27",
"u  c #361D23",
"i  c #1E2121",
"p  c #1F2D24",
"a  c #1E3423",
"s  c #232425",
"d  c #2A2B2D",
"f  c #272727",
"g  c #372925",
"h  c #2D2E31",
"j  c #2E3132",
"k  c #333335",
"l  c #3A3C3C",
"z  c #36393A",
"x  c #342E2E",
"c  c #4D0F0E",
"v  c #45231A",
"b  c #52271D",
"n  c #411F27",
"m  c #510C27",
"M  c #462D23",
"N  c #45353A",
"B  c #513130",
"V  c #6B3A2D",
"C  c #6E3439",
"Z  c #740B20",
"A  c #284E2C",
"S  c #287534",
"D  c #1B4121",
"F  c #5A4337",
"G  c #6F4737",
"H  c #3D3C40",
"J  c #4B3D47",
"K  c #773652",
"L  c #712D48",
"P  c #3D4242",
"I  c #424444",
"U  c #42454A",
"Y  c #454A4C",
"T  c #4A4C4C",
"R  c #434847",
"E  c #594848",
"W  c #4B4D52",
"Q  c #4D5354",
"!  c #565A5A",
"~  c #785747",
"^  c #704B54",
"/  c #595B62",
"(  c #5C6363",
")  c #5E6469",
"_  c #62656D",
"`  c #636B6B",
"'  c #656568",
"]  c #76726C",
"[  c #686B74",
"{  c #6C7474",
"}  c #6D7777",
"|  c #747878",
" . c #6F6B6E",
".. c #655E60",
"X. c #93090A",
"o. c #BE1F1F",
"O. c #963537",
"+. c #923357",
"@. c #AE3868",
"#. c #9A2654",
"$. c #C92A69",
"%. c #CE3471",
"&. c #CD3C75",
"*. c #CA3F76",
"=. c #D43D79",
"-. c #D13875",
";. c #CE306E",
":. c #D03940",
">. c #8F5945",
",. c #A65A45",
"<. c #87695B",
"1. c #956853",
"2. c #B17055",
"3. c #8E506A",
"4. c #AC4A71",
"5. c #846865",
"6. c #93726F",
"7. c #B27F62",
"8. c #AC7D62",
"9. c #CD7B5E",
"0. c #CA477B",
"q. c #D4437D",
"w. c #D5477F",
"e. c #C57065",
"r. c #E9545A",
"t. c #CA191A",
"y. c #6B8B75",
"u. c #459355",
"i. c #A88A79",
"p. c #B88C78",
"a. c #B98A6F",
"s. c #C68769",
"d. c #D99776",
"f. c #D1866A",
"g. c #E29774",
"h. c #E5A57E",
"j. c #777A84",
"k. c #B16A8A",
"l. c #D34B81",
"z. c #D94982",
"x. c #C95784",
"c. c #D65689",
"v. c #CF4C80",
"b. c #E25A90",
"n. c #D96895",
"m. c #DB759D",
"M. c #CA7395",
"N. c #E5729A",
"B. c #DD7DA5",
"V. c #E679A3",
"C. c #7C8487",
"Z. c #749D86",
"A. c #79BE8E",
"S. c #858B8B",
"D. c #89918F",
"F. c #898B96",
"G. c #8B9594",
"H. c #8A9899",
"J. c #949A9A",
"K. c #8EA69A",
"L. c #9699A6",
"P. c #B797AC",
"I. c #9CA5A4",
"U. c #9AA7A9",
"Y. c #9DB1B2",
"T. c #A4AAAB",
"R. c #A7AABA",
"E. c #A3B4B3",
"W. c #ABBBBB",
"Q. c #AAB6B6",
"!. c #B4B9BA",
"~. c #A3B1AF",
"^. c #A39C97",
"/. c #CC9882",
"(. c #E78597",
"). c #CFA492",
"_. c #EEAB84",
"`. c #F4AD84",
"'. c #F9B58B",
"]. c #FABB9A",
"[. c #E484AA",
"{. c #E68EB1",
"}. c #E897B8",
"|. c #ED9FAB",
" X c #D7A8BC",
".X c #F8BCA3",
"XX c #E7A4BF",
"oX c #F3B6B6",
"OX c #EFBFAA",
"+X c #CF80A5",
"@X c #B4C1BF",
"#X c #FBC3AA",
"$X c #FDCAB4",
"%X c #B4B8C8",
"&X c #B2B0C2",
"*X c #EAB4CA",
"=X c #D8B5C8",
"-X c #ACC8C5",
";X c #B4C4C4",
":X c #BAC8C7",
">X c #BED0CF",
",X c #BED3D3",
"<X c #C7C9D4",
"1X c #C3D5D4",
"2X c #CBDCDB",
"3X c #CAD7D7",
"4X c #D3D8DC",
"5X c #CDC9CD",
"6X c #EDC5D6",
"7X c #F3C8D9",
"8X c #F4D0D1",
"9X c #CDE1DE",
"0X c #D6D9E2",
"qX c #EADEE7",
"wX c #F5DBE6",
"eX c #CDE3E2",
"rX c #D3E5E3",
"tX c #DCEDEB",
"yX c #D8E9E8",
"uX c #DEFBFD",
"iX c #DDF4F3",
"pX c #DFF1EF",
"aX c #E6E8EB",
"sX c #E4F1ED",
"dX c #E3F5F4",
"fX c #E6FDFC",
"gX c #ECFEFC",
"hX c #EAFAF6",
"jX c #F3F3F5",
"kX c #F1FFFB",
"lX c #FCFCFD",
"zX c #F8F5F8",
"xX c #F1E5EC",
"cX c #FDE4D4",
/* pixels */
"kXkXkXkXkXkXkXkXkXkXgXkXkXkXkXhXkXgXgXkXgXkXgXkXgXkXgXkXkXkXgXkXkXkXkXkXkXkXkXkXkXkXkXkXkXkXkXkXkXkXkXgXkXgXkXkXkXgXkXkXkXkXkXkXkXkXkXkXkXkXkXkXkXkXkXkXkXkXkXkX",
"kXkXkXkXkXkXkXkXkXkXkXkXkXkXgXgXgXgXgXgXgXgXgXgXgXkXkXgXkXgXkXkXgXkXkXkXkXkXkXkXkXkXkXgXkXgXgXkXgXgXkXgXkXgXgXgXgXkXgXkXgXkXkXgXkXkXkXkXkXkXkXkXkXkXkXkXkXkXkXkX",
"lXkXkXkXkXkXkXkXkXkXgXkXgXkXgXgXgXgXgXgXgXgXgXgXgXgXgXgXgXkXkXgXkXgXkXgXkXkXkXgXkXkXkXkXgXkXkXgXgXgXgXgXkXgXgXkXgXgXkXgXkXgXkXgXgXkXkXgXkXkXkXkXkXlXkXkXkXkXkXkX",
"kXkXkXkXkXkXgXkXkXgXkXgXgXgXgXgXgXgXgXgXgXgXgXgXgXgXgXgXkXgXgXkXkXkXkXkXkXkXkXkXgXkXgXgXgXgXgXgXgXgXgXgXfXgXgXgXgXgXgXgXgXgXkXgXkXgXkXkXkXkXkXkXkXkXkXkXlXkXkXkX",
"kXkXkXkXkXkXgXkXgXkXgXgXgXgXgXgXgXgXfXgXgXgXfXfXgXgXgXgXgXgXgXgXkXgXgXgXkXgXkXgXgXgXgXkXgXgXgXgXgXgXgXgXgXfXgXfXfXgXgXgXgXgXgXgXkXgXkXkXkXgXkXkXkXkXkXkXkXkXkXkX",
"kXkXkXkXkXkXkXkXkXgXgXgXgXgXgXgXfXgXfXfXfXgXhXfXfXgXfXfXgXgXgXgXgXgXkXkXhXgXkXgXgXgXgXgXgXgXgXgXgXgXfXfXfXgXgXfXgXgXfXgXgXgXgXgXgXgXgXkXkXkXkXkXkXkXkXkXkXkXkXkX",
"kXkXkXkXkXkXkXkXgXgXgXgXgXfXfXgXgXfXfXfXfXfXfXfXfXfXfXfXgXfXgXgXgXgXgXgXkXkXgXgXgXgXgXgXfXgXgXfXfXfXfXfXgXfXgXgXfXfXfXgXfXgXgXgXgXgXgXgXgXkXkXkXkXkXkXkXkXkXkXkX",
"kXkXkXkXkXgXgXgXgXgXgXfXgXgXfXfXfXfXgXfX`                   C.gXgXgXgXhXkXgXgXgXgXgXgXfXgXfXfXgXfXgXfXgXfXfXfXfXfXfXfXgXfXfXgXgXgXgXgXkXgXgXgXkXkXkXkXkXkXkXlXkX",
"kXkXkXkXkXkXgXgXgXgXgXfXfXfXfXfXrXH.} } P > > > > ; > > 0 d Q S.3XgXgXgXgXgXgXgXgXgXfXgXfXfXgXfXfXfXfXfXfXfXfXfXgXfXgXfXfXfXfXgXgXgXgXgXkXgXgXkXkXkXkXkXkXkXkXkX",
"kXkXkXkXgXkXgXgXgXgXgXfXfXhXaX4XU.j O + i k k j k k k h z P w , G.2XhXgXgXgXgXfXfXgXfXfXfXgXfXfXfXfXfXfXfXfXfXfXfXfXfXfXfXgXfXfXfXgXfXgXgXgXkXgXkXkXkXkXkXkXkXkX",
"kXkXgXkXkXgXgXgXgXgXfXgXfXqX*X..i s f f l Y T Y R T I k h h =   > ) yXfXgXfXgXgXgXfXgXfXfXfXfXfXfXfXfXfXfXfXgXfXfXfXfXfXfXfXfXgXgXfXfXfXgXgXgXkXgXkXkXkXkXkXkXlX",
"kXkXkXkXkXgXgXgXgXgXfXfX6X=X*XK + k h = r s s w y z T J z h , O > k ` W.fXgXgXfXfXfXfXfXfXfXfXfXfXfXfXfXfXfXfXfXfXfXfXfXfXfXfXfXfXfXgXfXgXgXkXgXgXkXkXkXkXkXkXkX",
"gXkXkXgXgXkXgXgXgXfXfXfX*X}.}.^ , k s X           w l T P f r , f 0   y.gXgXfXfXfXfXfXfXfXfXfXfXfXfXfXfXfXfXfXfXfXfXfXfXfXfXfXfXgXfXgXgXgXgXgXkXkXgXkXkXkXkXkXkX",
"kXkXkXkXkXgXgXgXgXgXfXfX}.{.n.3.z > + < X           = l l = r d d r   C.fXgXgXfXfXfXfXfXfXfXfXgXfXfXfXfXfXfXfXfXfXfXfXfXfXfXfXfXfXfXfXfXgXgXgXgXgXkXkXkXkXkXkXkX",
"kXkXkXgXgXgXgXfXfXfXfXfXE K ^ J w +   + e V V b     + d d = > i d ,   C.fXfXfXfXfXfXfXfXfXfXfXfXfXfXfXfXfXfXfXfXfXfXfXfXfXfXfXfXfXfXfXgXfXgXgXgXgXkXgXkXkXkXkXkX",
"kXgXkXkXkXgXgXfXgXfXfXfX  ; k t O   $ M >.9.9.>.7 @ X > , = = = s y o ( %XyXfXfXgXfXfXfXfXfXfXfXfXfXgXhXfXfXfXfXfXgXfXfXfXfXfXgXfXfXfXfXfXgXgXgXgXkXgXkXkXkXkXkX",
"kXkXkXgXkXgXgXgXfXfXfXfX  , T s +   F h.h.'.'.g.,.b     . < & = s s & % f W.gXfXfXfXfXfXfXfXfXfXfXgXfXfXfXfXfXfXfXfXfXfXfXfXfXfXfXfXgXfXgXfXgXgXgXgXkXkXkXkXkXkX",
"kXkXkXgXgXgXgXgXfXfXfXfX  O , < 3 ~ a.#X#X].'.h.g.,.G $ X < = < & > i < , E.fXfXfXfXfXfXfXfXfXfXfXfXfXfXfXfXgXfXfXfXfXfXgXfXfXfXfXfXfXfXfXgXgXgXgXgXgXkXkXkXkXkX",
"kXkXkXkXgXgXgXfXfXfXfXfXY d     e s..X$X).p.a.a.a.2.,.6   = = @   < d > , E.fXfXfXfXfXfXfXfXfXfXfXfXfXfXfXfXfXfXfXfXfXfXfXfXfXfXfXfXfXgXfXgXgXgXgXgXkXkXkXkXkXkX",
"kXgXkXgXgXgXgXfXfXfXfXuXdXG.    e s.].$X~ .       G ,.6 X O < O X % f > , E.fXfXfXfXfXfXfXfXfXfXfXfXfXfXfXfXfXfXfXfXfXfXfXfXfXfXfXfXfXfXgXfXgXgXkXgXkXgXkXkXkXkX",
"kXkXgXkXgXgXgXgXfXfXfXfXfXZ.X X g /.d.F L L ] E   G s.e 6 G 1.6.f + > , s U C.tXfXfXfXfXfXfXfXfXfXfXfXfXfXfXfXfXfXfXfXfXhXfXfXfXfXfXgXfXfXgXgXgXgXkXgXkXkXkXkXkX",
"kXkXkXgXgXgXfXgXfXfXfXfXuX@X! f , <.] F +.0. X^.F a.d.g B f././.M X % , s = P H.U.~.9XfXfXfXfXfXfXfXfXfXfXfXhX3X~.9XfXgXfXfXfXfXfXfXfXfXfXgXgXgXgXgXkXkXkXkXkXkX",
"kXkXkXgXgXgXgXfXfXfXfXuXfXuXuX)     G h.(.V.wXcX].'.d.M F OXd.,.6 X % < = s y X   = Y.hXfXfXdXfXfXfXgXfXfXhXfXD.4 I.fXfXfXfXfXfXfXfXfXgXgXgXgXgXgXgXkXgXkXkXkXkX",
"kXgXgXgXgXgXgXgXfXfXfXfXfXuXuX) , <.)..X.XoX8X$X'.g.2.g B e.>.g @   X O = > : 0 r p P Y Y Q ! ;XfXfXfXiXD.! ! N 5 I.fXfXfXfXfXfXfXfXfXfXfXgXgXgXkXkXkXkXkXkXkXkX",
"kXkXgXgXgXgXgXfXgXfXfXuXfXuXuXy.A 6.i.i.i.i.p.p.7.1.C 4 e G M %         + O > , s , % + X X = { I.I.I.J.F 6 6 2 5 I.fXfXfXfXfXfXfXgXfXfXgXgXgXgXkXkXkXkXkXkXkXkX",
"kXkXkXkXgXgXgXgXfXfXfXuXuXuXuXA.S q 9 9 9 0 u u n 5 = = = & @ O           X + + O & = O O < = $ 1 1 1 1 e b b v w T.fXfXfXfXfXfXfXfXfXgXfXgXgXgXkXkXkXkXkXkXkXkX",
"gXkXgXgXgXgXgXgXfXfXfXuXuXuXuXZ.D q 0 q 0 0 7 n n 5 = 5 5 & O       X o O ; t : & O X X X + O 6 v v v v 6 6 2 ..@XrXfXfXfXfXfXfXgXfXfXgXgXgXgXgXkXhXkXkXkXkXkXkX",
"kXkXkXkXgXhXfXfXfXfXfXuXuXuXuXy.D 0 0 q 0 > u u u - & 5 - & O       O % % ; t r t & O % O O O 2 6 6 6 6 1 # @ } fXfXfXfXfXfXfXfXfXfXfXgXgXgXgXgXgXkXkXkXkXkXkXkX",
"kXkXkXgXkXkXgXfXfXfXfXuXuXuXuXZ.A D a a a p g y % % O X   O % %   X o % % % & r y y y y y ; O o . + + + @ - - { yXiXfXfXfXfXfXfXfXfXgXfXgXgXgXkXkXkXgXkXkXkXkXkX",
"kXgXkXgXgXhXgXfXfXfXfXuXuXuXuXeX-X-X-X-X-XK.k % % o       O % % % % % % % ; r y t & t y y ; % % @ , = = ] /.s.<.Y W.fXfXfXfXfXfXfXgXfXgXgXgXgXgXkXkXkXkXkXkXkXkX",
"kXkXgXgXgXgXgXgXfXfXfXfXfXuXuXuXfXuXuXuXuX,XP O = O       X % ; ; ; t = % ; t & & % ; t y : O & : y > - i.#X#Xa.~ | R.yXfXfXfXfXfXfXfXgXgXgXgXkXkXgXkXkXkXkXkXkX",
"kXkXkXkXgXgXgXgXfXfXfXuXuXuXuXuXuXuXuXuXuX,XP & O O + @ @   % r r r r t % % o   X o O & t ; % : r r = = i.#X#X].`.F A ,XfXfXfXfXfXfXgXgXgXgXgXkXgXkXkXkXkXkXkXlX",
"kXkXkXgXgXgXgXgXfXfXfXfXuXuXuXuXuXuXuXuXuX,XP < o o 3 +.K + o < & t r y r & o       o % % % O % % o X = a.h.f.g.`.F P ,XfXfXfXfXgXfXgXgXgXgXkXgXkXkXgXkXkXkXkXkX",
"kXkXkXkXkXgXgXgXfXfXfXuXfXfXuXuXuXuXuXuXuXeXH.Q & J ^ 4.@.L u X % & r r r & o X X o o X X X X + o     O F 1.f.2.1.] H.eXfXfXfXfXfXfXfXgXgXgXgXgXkXkXkXkXkXkXkXkX",
"kXkXkXgXkXkXgXgXfXgXfXfXfXuXfXuXuXuXuXuXuXuXuXY.k  .B.0.&.c.L < o & r r t & % % o o       < s > X         g a.<.j Y.fXfXfXfXfXfXfXgXfXfXfXgXgXkXgXkXkXkXkXkXkXkX",
"kXkXkXkXgXhXgXgXgXfXfXfXfXfXuXuXuXuXuXuXuXuXuXyX<X .N k.n.;.^ S 9 X % % & t t % X         ( %XR X         . w { ,XtXfXfXuXfXfXfXfXfXgXgXgXgXkXgXkXgXkXkXkXkXkXkX",
"kXkXkXkXgXkXgXgXgXgXfXfXfXfXuXuXuXuXuXuXuXuXuXuXfX} > E ..>.y.y.p X o % % & ; % o X X X   | dXU.! <       r ` W.fXfXfXfXfXfXfXfXfXfXgXgXgXgXgXgXgXkXkXkXkXkXkXkX",
"kXkXkXkXkXkXkXgXgXgXgXfXfXfXfXfXuXuXuXuXuXuXuXfXuXC.h & a u.K.L.N # o o o % O & & & & o   ) 1XtX;XY >   , ( 2XfXuXfXuXfXfXuXfXfXfXfXfXgXgXgXgXgXgXkXkXgXkXkXkXkX",
"kXkXkXkXkXgXkXgXgXgXgXfXgXfXfXfXfXuXuXuXuXuXuXuXuXyXW.l P U.%XP.O.c . X O % & t r r r t % , l W.dX2X{ < C.eXuXfXfXfXfXuXfXuXfXfXfXgXfXgXfXgXgXgXgXkXgXkXgXkXkXkX",
"kXkXkXkXkXkXgXgXgXgXgXgXfXfXfXfXfXuXfXfXuXfXuXuXuXY.} [ ) / I.5XO.Z X X % O & ; ; ; r r ; & % W H.tX;XS.1XfXfXfXfXfXfXfXfXfXfXfXfXfXfXfXfXgXgXgXgXkXkXkXkXkXkXkX",
"kXkXkXkXkXkXkXkXkXgXkXgXgXgXgXfXfXfXfXfXfXuXfXfXfXD.P C._ 2 6.oXr.O.s = o o % % % & t t t ; o X P 2XfXfXfXfXfXuXfXuXfXfXfXfXfXuXfXfXfXfXgXfXgXgXgXgXgXkXkXkXkXkX",
"kXkXkXkXkXkXkXkXkXgXhXgXgXgXfXgXfXfXfXfXfXfXfXfXuXiX;XQ 8 X.t.r.OX5XR.W   X % o ; t & & % o X X P 2XfXfXfXfXfXfXfXfXfXuXfXfXfXfXfXfXfXfXfXgXfXgXgXgXkXgXkXgXkXkX",
"kXkXlXkXkXkXgXkXgXkXkXgXgXfXhXfXfXgXfXfXfXfXuXfXfXdX;XJ c X.t.r.|.XXk.4.L u X o & ; & & ; : ; & d ( Y.uXfXfXfXfXfXfXfXfXfXfXfXfXfXfXfXgXfXfXgXgXgXgXkXkXgXkXkXkX",
"kXkXkXkXkXkXkXkXkXkXgXkXgXgXgXgXgXfXfXfXfXfXfXfXfXiXW.E c X.:.r.m.n.0.q.4.L 8 o % & & ; y y y y t O ! @XW.>XiXfXfXfXfXfXfXfXfXfXfXfXfXfXfXgXfXgXgXgXgXgXgXkXkXkX",
"kXkXkXkXkXkXkXkXkXhXgXgXgXgXkXkXfXgXgXhXgXfXgXfXgXhXtXR @ 3.+X[.V.[.B.l.$.0.3.# & r y y y y y y r r t > & Q ,XfXfXfXfXfXuXfXfXfXfXfXfXfXfXfXfXgXgXgXgXgXkXkXkXkX",
"kXkXkXkXkXkXkXkXkXkXgXkXgXgXhXgXgXgXgXfXgXgXgXgXgXgXfX` & J 6.M.m.n.c.w.q.-.%.+.n & & : ; ; ; ; ; r t = % r Q ) ) ;XfXfXfXfXfXfXfXfXfXfXfXgXfXfXgXgXgXkXhXkXkXkX",
"lXkXkXkXkXkXkXkXkXkXgXkXkXgXgXgXhXgXgXgXgXgXgXgXgXgXhX4X= : 3.x.n.l.l.l.q.-.-.q.+.u * o o o % o % t t t = % X   < } E.E.E.E.9XfXgXfXfXfXfXgXfXgXgXgXgXgXgXkXgXkX",
"kXkXkXkXkXkXkXkXkXkXkXkXgXgXgXgXgXgXgXgXfXgXgXgXgXgXgXdXr ; x.v.b.m.c.%.-.z.z.$.=.x.n X X X o % % % % % t t % o % O + O O < I.fXfXfXfXfXfXfXgXfXgXgXgXgXgXkXkXkX",
"kXkXkXkXkXkXkXkXkXgXgXkXgXgXgXgXgXgXgXgXgXgXgXgXgXgXgX:X! B 4.*.0.n.c.c.l.=.-.q.*.%.@.+.#.8 . o o % o % t y t : : % o o X o K.uXfXfXfXfXgXfXgXfXgXgXgXgXgXkXkXkX",
"kXkXkXkXkXkXkXgXkXgXkXkXgXgXkXgXfXgXgXfXgXgXgXgXgXgXhX2XF.x K 0.0.0.%.0.c.c.z.z.=.%.=.=.$.#.8 * o o o % ; t t t : ; & % y Q %XfXfXfXfXfXfXfXfXfXgXfXgXgXkXgXkXgX",
"kXkXkXkXkXgXkXkXgXgXgXgXgXgXgXgXgXgXgXfXfXfXgXfXgXgXgXdX%X: ; 4.w.0.*.w.B.B.n.$.=.b.;.;.z.-.#.m     X % % O O % % t : o ) fXuXfXfXfXfXfXfXgXfXfXfXgXgXgXgXkXgXkX",
"kXkXkXkXkXkXgXgXkXgXgXgXgXgXgXgXgXfXgXgXgXgXgXgXgXgXgXgXgX/ x v.c.n.n.l.&.l.l.z.=.%.q.q.%.=.q.#.m o X o O O O % o % h C.>XfXfXfXfXfXfXfXfXfXfXgXgXgXgXgXkXgXkXkX",
"kXkXgXkXkXgXkXgXgXgXgXgXgXgXgXfXfXgXfXgXfXgXfXgXgXgXhXfXyX' K v.0.x.M.l.=.l.l.z.=.%.q.q.%.=.z.-.@.J J P r o o o X   z ,XfXfXfXfXfXfXgXfXfXfXfXfXgXfXgXgXgXgXgXkX",
"kXkXkXkXkXgXgXgXgXgXgXgXfXfXfXfXgXfXgXfXfXfXgXgXgXgXfXiXT.: 4.*.0.n.c.w.n.[.m.$.q.b.%.%.b.l.$.z.V.&X%X&XP X o %     l ,XfXfXfXfXfXfXfXfXgXfXfXgXfXgXgXgXkXgXkXgX",
"kXkXkXgXgXgXgXgXgXfXhXgXfXgXgXfXgXfXfXfXfXgXfXfXfXgXfX;XR B -.q.-.n.c.=.n.V.V.V.*X7X*X7X7X7X*X7XwXaXaXaXR.j.j.k.j.j H <XfXfXfXfXfXfXfXfXfXfXfXfXgXgXgXgXgXgXkXkX",
"kXkXhXgXgXgXgXgXfXgXfXfXfXfXfXfXfXfXfXfXfXfXgXfXfXfXgX:X> K =.n.c.{.{.{.}.{.}.7XwXlXlXlXlXjXaXyXxXlXjX0X>X%X%XL.[ h A ,XfXhXfXfXfXfXfXfXfXfXfXgXgXfXgXgXkXgXkXkX",
"kXkXgXgXgXgXgXgXgXfXfXfXgXfXfXfXfXfXfXfXfXfXfXfXfXfXfX2X& L 0.P.+XXX6XwXwX*X7XzXjXxXzXzXzX0X%X&X%XaX3XE.R.R.R.(   % Y 1XfXfXfXfXfXfXfXfXfXfXfXfXgXgXgXkXhXkXkXkX",
"kXgXkXgXgXgXgXfXgXfXfXgXfXfXfXfXfXfXfXfXfXfXfXfXfXfXfXU & P k.P.=X6XwX4X4XqXxX<XS.Q T.<X<X<X&X/ k J l j k k j , O } :XiXfXfXfXfXfXfXfXgXfXfXgXfXgXgXgXgXgXkXkXkX",
"gXkXgXgXgXfXfXgXfXfXfXfXfXfXfXfXfXfXfXgXfXfXfXfXfXfX1XW z H.5X6XqXwXlX0X%X4X%X| ` ` ` [ [ [ _ F M b B G G B @   + ! Y.yXfXfXfXfXfXfXfXfXgXfXgXfXfXgXgXgXgXgXkXkX",
"kXgXgXgXgXgXgXfXfXfXfXfXfXfXfXfXfXfXfXfXgXfXfXfXfXdX~.W T.dXjXzXjXzXjX<XR.R.j.f S.yX( - > > 5 G ,.,.s.'._.8.3       z ,XfXfXfXfXfXfXfXfXfXfXgXgXgXgXgXgXkXkXgXkX",
"gXkXgXgXgXgXfXgXfXgXfXfXfXfXfXgXfXfXfXfXfXfXfXfXfXdX%XY D.aX0X<X<X<X<X| d d ! Q.9XhX3X@X:X;XW.E e 4 <..X~ w = < O   z 1XfXfXfXfXfXfXgXfXgXfXgXgXgXgXgXgXhXgXkXkX",
"kXgXgXgXgXfXfXfXfXfXfXfXfXfXfXfXfXfXfXfXfXfXfXfXfXfX>XR / <XL._ _ _ ) j o W J.dXkXkXkXkXkXkXdXI.| { ] <.g < - 3 - $ g } W.fXgXfXfXfXfXgXfXgXgXgXgXgXgXkXkXkXkXkX",
"kXgXgXgXfXgXgXfXfXfXfXfXfXfXfXfXfXfXfXfXfXfXfXfXfXfX2X! Q L.Y           , K.yXhXkXkXkXkXkXkXkXgXgXgXG., = = 4 6 4 w 3 . ! 2X2X2X2X2X2X2X2X2XgXgXgXgXkXgXkXkXkXkX",
"kXkXgXgXgXgXfXfXgXfXfXfXfXfXfXfXfXfXfXfXfXfXfXfXfXfXiX2XG.h %       O O = f  .aXkXkXkXkXkXkXgXkXkXgXrX;XR . = = - $ = % 0 j j j j j j j j j gXgXkXgXkXkXkXkXkXkX",
"gXkXgXgXgXfXfXfXfXfXfXfXfXfXfXfXfXfXfXfXgXfXfXfXfXfXfXgX>XC.| ` i + 3 - 3 $ x | @XkXkXkXkXkXkXgXkXgXgXdXI.! , $ 1 3 3 3 - $ + , T / / r     gXgXhXkXkXkXkXkXkXkX",
"kXgXgXgXgXgXfXgXgXfXfXfXfXfXfXfXfXfXfXfXfXfXfXfXfXfXfXfXfXfXgX9X( w 4 4 6 w 6 y | 4XsXkXkXkXkXkXkXkXkXgXgX:XP w 4 2 4 4 6 4 - z L.%X%XY     gXgXkXkXkXkXkXkXkXkX",
"gXgXgXgXgXgXgXfXfXfXfXfXfXfXfXfXfXgXfXfXfXfXfXfXgXfXfXfXfXfXgXhX9XD.- O $ $ A F./ l !.kXkXkXkXkXkXkXkXgXgXdX9X| . . + @ $ = < k L.%X%XY     kXkXkXkXkXkXkXkXkXkX",
"kXkXkXgXgXgXfXgXfXgXfXfXfXfXgXfXfXfXfXfXfXfXfXfXfXfXfXgXgXgXgXgXgX3XS.I > ' L.&XF.' { I.sXkXkXkXkXkXhXgXkXgXgX:XS.y.' , . + + z !.<X%XU     gXkXkXkXkXkXkXkXkXkX",
"kXkXkXgXgXgXgXfXfXfXfXfXfXfXfXfXfXfXfXfXfXfXfXfXfXgXfXfXfXgXgXgXkXsX<X( : T.4XL.L.F.Q ` yXkXkXkXkXkXkXgXgXkXgXgXkXhX:XQ j x x Q Q.Q.H.l     gXkXkXkXkXkXkXkXkXlX",
"gXkXgXgXgXgXgXgXgXfXgXfXfXfXfXfXfXfXfXfXfXfXfXfXfXfXfXgXfXgXgXgXkXQ.j O > F.F.s > f ^.yXhXkXkXkXkXkXkXkXkXkXkXkXkXkXhXrX9X4X9XQ.J r ; +     kXkXkXkXkXkXkXkXkXkX",
"kXkXgXkXkXgXgXgXfXgXfXfXgXfXfXgXfXfXfXfXfXfXgXfXfXgXfXgXgXgXgXtXG.| S.j._ / ' S.S.H.4XkXlXkXkXkXkXkXkXkXkXkXkXkXkXkXkXkXkXkXkX@Xd l S.x     kXkXkXkXkXkXkXkXkXkX",
"kXkXkXkXgXgXgXgXgXgXgXgXgXfXfXfXgXfXfXgXgXfXfXgXgXfXgXgXfXgXkXrX ...!.T.S.Q { aXkXkXkXkXkXkXkXkXkXkXkXkXkXkXkXgXkXhXkXkXkXkXkX1X! ] 5XT     kXkXkXlXkXkXkXkXkXkX",
"kXgXkXkXkXgXgXgXgXgXgXfXgXfXgXfXfXfXfXfXfXgXgXfXgXgXgXgXgXgXkXhXsXI.s = f I.sXkXkXkXkXkXlXkXkXkXkXkXkXkXkXkXkXkXkXkXkXkXkXkXkXjXsXG.= O     kXkXkXkXkXkXkXkXkXkX",
"kXkXgXkXgXkXkXgXgXgXgXgXfXgXgXgXgXgXgXfXfXgXfXgXfXgXgXgXkXgXgXkXkXT.=   0 Q.kXkXkXkXlXkXkXkXkXkXkXkXkXkXkXkXkXkXkXkXkXkXkXkXkXkXkXG.      . kXkXkXkXkXkXlXkXkXkX",
"kXkXkXkXkXgXkXgXkXgXkXgXgXgXgXgXgXgXgXgXgXgXgXgXgXgXgXgXkXgXkXkXkXkXkXkXkXkXkXkXkXkXkXkXkXkXkXkXkXkXkXkXkXkXkXkXkXkXkXkXkXkXkXkXkXkXkXkXkXkXkXkXkXkXkXkXkXkXkXkX",
"kXkXkXkXkXkXgXkXgXkXgXgXgXgXgXgXgXgXgXkXgXgXgXgXkXgXkXgXgXgXkXkXkXkXkXkXlXkXkXkXkXkXkXkXkXkXkXkXkXkXkXkXkXkXlXkXkXkXkXkXkXkXkXlXkXkXkXkXkXkXkXkXkXkXlXkXkXkXkXkX",
"kXkXkXkXkXkXkXkXkXkXkXgXgXkXgXgXgXgXkXgXgXgXkXgXkXgXkXgXkXkXkXkXkXkXkXkXkXkXkXkXkXlXkXkXkXkXkXkXkXlXkXkXkXkXkXkXkXkXkXkXkXkXkXkXkXkXkXkXkXkXkXkXkXkXkXkXlXkXkXkX",
"kXkXkXkXkXkXkXkXkXgXgXkXkXgXkXhXkXgXkXgXkXhXgXkXgXgXkXkXkXkXkXkXkXkXkXkXkXkXkXkXkXkXkXkXkXkXkXlXkXkXkXkXkXkXkXkXkXkXkXkXlXkXkXkXkXkXkXkXkXkXkXkXkXkXkXkXkXkXkXlX",
"kXkXkXkXkXkXkXkXkXkXkXkXkXgXkXkXkXgXkXgXkXgXkXgXkXkXkXkXkXkXkXkXkXkXkXkXlXkXkXkXkXkXkXkXkXkXkXkXkXkXkXkXkXkXkXkXkXlXkXkXkXkXkXkXkXkXkXkXkXkXkXkXkXkXkXkXkXkXkXkX",
"kXkXkXkXkXkXkXkXkXkXkXgXkXkXkXgXkXkXkXkXkXgXkXkXkXkXkXkXkXgXkXkXkXkXkXkXkXkXkXlXkXkXkXkXkXkXkXkXkXkXkXkXkXlXkXkXkXkXkXkXkXkXkXkXkXkXlXkXkXlXkXkXkXkXkXkXkXkXkXkX"
};
