/* XPM */
static char *_327f3b0b5eb4913a0af638c36e33588re0xy6WFlflQjfdC[] = {
/* columns rows colors chars-per-pixel */
"80 80 230 2 ",
"   c #15191F",
".  c #1C1B1D",
"X  c #271D1C",
"o  c #301F1A",
"O  c #2B211A",
"+  c #2A2119",
"@  c #3C2514",
"#  c #33221A",
"$  c #362217",
"%  c #0F1D23",
"&  c #111A22",
"*  c #1C1D20",
"=  c #0E2326",
"-  c #0D2728",
";  c #0C2B2A",
":  c #16232B",
">  c #19232C",
",  c #16272A",
"<  c #0B322E",
"1  c #0B382E",
"2  c #1C2B34",
"3  c #1A2B35",
"4  c #0C3531",
"5  c #0A3C34",
"6  c #133234",
"7  c #183639",
"8  c #292423",
"9  c #3C2D29",
"0  c #342624",
"q  c #232D3C",
"w  c #252D34",
"e  c #2A383D",
"r  c #393435",
"t  c #2E1F20",
"y  c #4B2B16",
"u  c #452A17",
"i  c #56301A",
"p  c #5C321B",
"a  c #512F1B",
"s  c #62351C",
"d  c #45332B",
"f  c #483B37",
"g  c #663A21",
"h  c #0B4B2E",
"j  c #0A4537",
"k  c #114F37",
"l  c #6F472D",
"z  c #1E3841",
"x  c #283847",
"c  c #343E47",
"v  c #2E3C51",
"b  c #313E55",
"n  c #4C3F41",
"m  c #164645",
"M  c #25424B",
"N  c #3A454A",
"B  c #284854",
"V  c #36445C",
"C  c #374758",
"Z  c #32525B",
"A  c #3B4B65",
"S  c #3E4D69",
"D  c #344E62",
"F  c #2D5361",
"G  c #3B536A",
"H  c #355968",
"J  c #3C5D73",
"K  c #366468",
"L  c #3B6F6C",
"P  c #2D7056",
"I  c #494548",
"U  c #485659",
"Y  c #56575A",
"T  c #4F4A4C",
"R  c #655B59",
"E  c #61534F",
"W  c #445568",
"Q  c #5A5E62",
"!  c #425A75",
"~  c #475A78",
"^  c #404F69",
"/  c #4D6165",
"(  c #59666A",
")  c #43627B",
"_  c #4C6476",
"`  c #546878",
"'  c #52787E",
"]  c #6B696B",
"[  c #696566",
"{  c #736D6D",
"}  c #636E73",
"|  c #6C7479",
" . c #70777D",
".. c #74787D",
"X. c #7E7A7B",
"o. c #787475",
"O. c #716E70",
"+. c #6B605D",
"@. c #817C7D",
"#. c #4C6383",
"$. c #4D6986",
"%. c #546A8C",
"&. c #556989",
"*. c #5D7284",
"=. c #5E738A",
"-. c #557689",
";. c #566A91",
":. c #5A6E95",
">. c #5E7299",
",. c #5C7494",
"<. c #64788B",
"1. c #747D81",
"2. c #697F94",
"3. c #61769C",
"4. c #657A9E",
"5. c #647A95",
"6. c #667CA0",
"7. c #687EA2",
"8. c #4A5F80",
"9. c #837F80",
"0. c #5E8593",
"q. c #7B8488",
"w. c #6C839C",
"e. c #698798",
"r. c #768A95",
"t. c #67888E",
"y. c #6C83A5",
"u. c #6E8CA9",
"i. c #6C88A5",
"p. c #7087A8",
"a. c #738CAC",
"s. c #758BA5",
"d. c #7492AE",
"f. c #7995AA",
"g. c #7797B0",
"h. c #7B94B2",
"j. c #7C9BB4",
"k. c #7CA1B5",
"l. c #7FA3B6",
"z. c #868A8C",
"x. c #899397",
"c. c #989A99",
"v. c #8D8E90",
"b. c #A19F9B",
"n. c #819BB6",
"m. c #839EB9",
"M. c #869AB5",
"N. c #8EA1A7",
"B. c #97A5A9",
"V. c #85A2BB",
"C. c #8AA6BF",
"Z. c #84ABBC",
"A. c #89AABF",
"S. c #83A5B4",
"D. c #97ADB7",
"F. c #94B3BB",
"G. c #A3A4A3",
"H. c #A7ACAC",
"J. c #ADB2B2",
"K. c #A7B6B8",
"L. c #B4B9B8",
"P. c #B7C1BF",
"I. c #8BA7C0",
"U. c #8CACC2",
"Y. c #87ADC0",
"T. c #95AEC4",
"R. c #8DB2C4",
"E. c #8DB9C5",
"W. c #8CB9C5",
"Q. c #91B5C6",
"!. c #92B7C8",
"~. c #93BCCA",
"^. c #98B8C9",
"/. c #9CBDD2",
"(. c #A5BBCA",
"). c #96C3CD",
"_. c #98C6CF",
"`. c #97C8CF",
"'. c #9BC4D1",
"]. c #9BCCD2",
"[. c #97CAD0",
"{. c #9DD2D5",
"}. c #A6C3CA",
"|. c #BAC5C5",
" X c #A6C9D7",
".X c #B8C9D5",
"XX c #A3D5DA",
"oX c #A6D9DD",
"OX c #A8DADF",
"+X c #A8D5DD",
"@X c #BBD5D9",
"#X c #ACDDE2",
"$X c #ADD3E1",
"%X c #B3DDE6",
"&X c #B7DAE7",
"*X c #B1E1E6",
"=X c #B5E4E9",
"-X c #B9E6ED",
";X c #BBE9EE",
":X c #BEECF2",
">X c #BEE6F0",
",X c #AFE0E4",
"<X c #C9D5D6",
"1X c #D3DCDA",
"2X c #C3CFCE",
"3X c #CBDEE5",
"4X c #C8E5E9",
"5X c #D9E7E7",
"6X c #C2EDF4",
"7X c #C9EEF7",
"8X c #C4F0F6",
"9X c #C7F2F9",
"0X c #CBF5FC",
"qX c #CEF8FF",
"wX c #C9F0F7",
"eX c #D3F9FF",
"rX c #DCFBFD",
"tX c #D8F4F7",
"yX c #D2EDF0",
"uX c #E2EDEA",
"iX c #E6F2EE",
"pX c #E4F4F3",
"aX c #EDFAF6",
"sX c #E4FCFC",
"dX c #ECFDFB",
"fX c #EBF7F5",
"gX c #F2FFFB",
"hX c #F1FFFB",
"jX c #F2FFFB",
"kX c #D7E0DD",
/* pixels */
"gXgXgXgXgXgXgXgXgXgXgXgXgXgXgXgXgXgXgXgXgXgXgXgXgXgXgXgXgXgXgXgXgXgXgXgXgXgXgXgXgXgXgXgXgXgXgXgXgXgXgXgXgXgXgXgXgXgXgXgXgXgXgXgXgXgXgXgXgXgXgXgXgXgXgXgXgXgXgXgX",
"gXgXgXgXgXgXgXgXgXgXgXgXgXgXgXgXgXgXgXgXgXgXgXgXgXgXgXgXgXgXgXgXgXgXgXgXgXgXgXgXgXgXgXgXgXgXgXgXgXgXgXgXgXgXgXgXgXgXgXgXgXgXgXgXgXgXgXgXgXgXgXgXgXgXgXgXgXgXgXgX",
"gXgXgXgXgXgXgXgXgXgXgXgXgXgXgXgXgXgXgXgXgXgXgXgXgXgXgXgXgXgXgXgXgXgXgXgXgXgXgXgXgXgXhXhXgXgXgXgXgXgXgXgXgXgXgXgXgXgXgXgXgXgXgXgXgXgXgXgXgXgXgXgXgXgXgXgXgXgXgXgX",
"gXgXgXgXgXgXgXgXgXgXgXgXgXgXgXgXgXgXgXgXgXgXgXgXgXgXgXgXgXgXgXgXgXgXgXgXgXgXgX<XT.3XhXhXgXgXgXgXgXgXgXgXgXgXgXgXgXgXgXgXgXgXgXgXgXgXgXgXgXgXgXgXgXgXgXgXgXgXgXgX",
"gXgXgXgXgXgXgXgXgXgXgXgXgXgXgXgXgXgXgXgXgXgXgXgXgXgXgXgXgXgXgXgXgXgXhXhXgXgX<Xa.g.T.kXhXgXgXgXgXgXgXgXgXgXgXgXgXgXgXgXgXgXgXgXgXgXgXgXgXgXgXgXgXgXgXgXgXgXgXgXgX",
"gXgXgXgXgXgXgXgXgXgXgXgXgXgXgXgXgXgXgXgXgXgXgXgXgXgXgXgXgXgXgXgXgXgXgXdX5X.Xg.R.OXZ.T.5XgXgXgXgXgXgXgXgXgXgXgXgXgXgXgXgXgXgXgXgXgXgXgXgXgXgXgXgXgXgXgXgXgXgXgXgX",
"gXgXgXgXgXgXgXgXgXgXgXgXgXgXgXgXgXgXgXgXgXgXgXgXgXgXgXgXgXgXgXgXgXhXsX(.6.u.#X#X8X,XV.T.5XhXgXgXgXgXgXgXgXgXgXgXgXgXgXgXgXgXgXgXgXgXgXgXgXgXgXgXgXgXgXgXgXgXgXgX",
"gXgXgXgXgXgXgXgXgXgXgXgXgXgXgXgXgXgXgXgXgXgXgXgXgXgXgXgXgXgXgXgXgXtX/.a.~.#X0X0XqX=XXXR.m.5XpXgXgXgXgXgXgXgXgXgXgXgXgXgXgXgXgXgXgXgXgXgXgXgXgXgXgXgXgXgXgXgXgXgX",
"gXgXgXgXgXgXgXgXgXgXgXgXgXgXgXgXgXgXgXgXgXgXgXgXgXgXhXhXgXhXgXsX^.3.j.%XqXqXqXqXqXqXqX;XW.3.T.aXgXgXgXgXgXgXgXgXgXgXgXgXgXgXgXgXgXgXgXgXgXgXgXgXgXgXgXgXgXgXgXgX",
"gXgXgXgXgXgXgXgXgXgXgXgXgXgXgXgXgXgXgXgXgXgXgXgXgXgXgXhXhXdX.Xd.h.Q.].,XqXqXqXOX{.:XqX;X{.[.].Q.} uXgXgXgXgXgXgXgXgXgXgXgXgXgXgXgXgXgXgXgXgXgXgXgXgXgXgXgXgXgXgX",
"gXgXgXgXgXgXgXgXgXgXgXgXgXgXgXgXgXgXgXgXgXgXgXgXgXgXdXdX.XM.n.E._.*X8X;X*XqXqXoX!.].oX*X;X[.S.P 5 ( iXgXgXgXgXgXgXgXgXgXgXgXgXgXgXgXgXgXgXgXgXgXgXgXgXgXgXgXgXgX",
"gXgXgXgXgXgXgXgXgXgXgXgXgXgXgXgXgXgXgXgXgXgXgXgXgXgX1Xz.7.n.).].{.oX#XoX{.#X,X{.'.!.E.].XXl.P h ; ' uXgXgXgXgXgXgXgXgXgXgXgXgXgXgXgXgXgXgXgXgXgXgXgXgXgXgXgXgXgX",
"gXgXgXgXgXgXgXgXgXgXgXgXgXgXgXgXgXgXgXgXgXgXgXgXgXL.Q j K u.g.E.].).^.).XX-X;X{.{.'.R.U.~.Z.K - t.@XdXgXgXgXgXgXgXgXgXgXgXgXgXgXgXgXgXgXgXgXgXgXgXgXgXgXgXgXgXgX",
"gXgXgXgXgXgXgXgXgXgXgXgXgXgXgXgXgXgXgXgXgXgXgXgXgX(./ 1 k H K g.E. X X$X>X0X=X{.{.{.)./.XX`.d.V &XeXdXgXgXgXgXgXgXgXgXgXgXgXgXgXgXgXgXgXgXgXgXgXgXgXgXgXgXgXgXgX",
"gXgXgXgXgXgXgXgXgXgXgXgXgXgXgXgXgXgXgXgXgXgXgXgXgXgX|.U 1 1 L R./.-XeX9X:X9X{.{.`.W.).#X=X#XOXd./.6XsXgXgXgXgXgXgXgXgXgXgXgXgXgXgXgXgXgXgXgXgXgXgXgXgXgXgXgXgXgX",
"gXgXgXgXgXgXgXgXgXgXgXgXgXgXgXgXgXgXgXgXgXgXgXgXgXgXuXB.w M `.:X6X6X6X=X#X>X[.).V.y.Z.{.OX8X0XOXj. X%XyXgXgXgXgXgXgXgXgXgXgXgXgXgXgXgXgXgXgXgXgXgXgXgXgXgXgXgXgX",
"gXgXgXgXgXgXgXgXgXgXgXgXgXgXgXgXgXgXgXgXgXgXgXgXgXgXH.b 3.m.~.'.].Q.R.].].).V.;.&.a.~.].{.XX0X9X0Xm.6.U.rXhXgXgXgXgXgXhXgXgXgXgXgXgXgXgXgXgXgXgXgXgXgXgXgXgXgXgX",
"gXgXgXgXgXgXgXgXgXgXgXgXgXgXgXgXgXgXgXgXgXgXgXgXgXgXhX<X:.:.:.n.C.y.p.C.j.:.:.m = <.C.~.{.{.{.{.9X0X Xp.I.rXhXgXgXgXgXhXhXgXgXgXgXgXgXgXgXgXgXgXgXgXgXgXgXgXgXgX",
"gXgXgXgXgXgXgXgXgXgXgXgXgXgXgXgXgXgXgXgXgXgXgXgXgXgXgXhX2X> > #.3.V A 3.$.m > & <.E.].~.U.Q.{.{.$X:X7X Xh.m.eXdXgXgXgXgXhXgXgXgXgXgXgXgXgXgXgXgXgXgXgXgXgXgXgXgX",
"gXgXgXgXgXgXgXgXgXgXgXgXgXgXgXgXgXgXgXgXgXgXgXgXgX.Xh.2.I & - z q > 3 m 2 6 w.e.E.].*X6X%X).Q.{.{.#X:X&XQ.h.a.j.sXgXgXgXgXgXgXgXgXgXgXgXgXgXgXgXgXgXgXgXgXgXgXgX",
"gXgXgXgXgXgXgXgXgXgXgXgXgXgXgXgXgXgXgXgXgXgXgXgX.XV.~.T.<.*.: _ *.c = M <.<./.).].{.OX;XwX=X~.d.`.{.oXoX].W.a.:.` <XgXgXgXgXgXgXgXgXgXgXgXgXgXgXgXgXgXgXgXgXgXgX",
"gXgXgXgXgXgXgXgXgXgXgXgXgXgXgXgXgXgXgXgXgXgXgX.XM.A.oXOX~.~.` 7.U.e._ r.$X+X{.~.~.[.{.oX=X*X].,.g.Y.~.~.Y.g.0.F ; w aXgXgXgXgXgXgXgXgXgXgXgXgXgXgXgXgXgXgXgXgXgX",
"gXgXgXgXgXgXgXgXgXgXgXgXgXgXgXgXgXgXgXgXgXgXgX<.3.j.Y.).~.l.a.g.].].!. X-X=X{.~.A.Q.).).).E.k.A H ' e.d.,.K H 5 4 e hXgXgXgXgXgXgXgXgXgXgXgXgXgXgXgXgXgXgXgXgXgX",
"gXgXgXgXgXgXgXgXgXgXgXgXgXgXgXgXgXgXgXgXgXgXpXI B ) -.h.h.i.u.{.7X;XoX_.E._.)._.V.h.m.C.j.0.J - 5 j F J Z h 5 - 7 <XgXgXgXgXgXgXgXgXgXgXgXgXgXgXgXgXgXgXgXgXgXgX",
"gXgXgXgXgXgXgXgXgXgXgXgXgXgXgXgXgXgXgXgXgXgXL.6 1 5 B &.y.).{.9X0X0X=XZ.&.n.n.n.%.;.h.C.t.h 5 5 % 1 < % % - : q ( gXgXgXgXgXgXgXgXgXgXgXgXgXgXgXgXgXgXgXgXgXgXgX",
"gXgXgXgXgXgXgXgXgXgXgXgXgXgXgXgXgXgXgXgXgXdX9XW > , , C n.>.8X0X0X*X{.e.2 ;.;.%.x <.I.U.5.: > > 6 : > > : : q >.4XgXgXgXgXgXgXgXgXgXgXgXgXgXgXgXgXgXgXgXgXgXgXgX",
"gXgXgXgXgXgXgXgXgXgXgXgXgXgXgXgXhXhXgXgXaXn.3.h.m.m.S.V.n.>.6XOX{.{.).<.= j j : e.~.{.{.).m.V.m.V.m.m.V.m.m.h.;.x iXgXgXgXgXgXgXgXgXgXgXgXgXgXgXgXgXgXgXgXgXgXgX",
"gXgXgXgXgXgXgXgXgXgXgXgXgXgXgXgXhXdXsXyXa.n.n.~.].#X$Xj.y.).XX{.{.{.~.m.=.% % e.V.).{.,X8X-X].[.y.n.I.a.3.3.;.2 ~ p..XgXgXgXgXgXgXgXgXgXgXgXgXgXgXgXgXgXgXgXgXgX",
"gXgXgXgXgXgXgXgXgXgXgXgXgXgXgXgXdX&Xh.h.h.C.).].=X=X~.u.E.{.{.{.~.f.g.U.n.5.e.m.).j.Y.{.=XqX:X{.W.u.Z.U.*.z m & ;.a.j.<XdXgXgXgXgXgXgXgXgXgXgXgXgXgXgXgXgXgXgXgX",
"gXgXgXgXgXgXgXgXgXgXgXgXgXgXgXdX&Xm.h.h.I.~.{.~.+X+XZ.i.{.{.~.~.h.~ &.U.~.I.C.~.].W.k.Y.{.,X,X{.~.j.E.].d.C 6 ^ p.E.).V.V.5XaXhXgXgXgXgXgXgXgXgXgXgXgXgXgXgXgXgX",
"gXgXgXgXgXgXgXgXgXgXgXgXgXgXtXF.5.y.I.V.a.~.~.U.~._.j.y.~.~.a.a.~ W =.V.].~.+XXX{.,X).k.W.{.{.k.g.-.e.k.0.H ` p.C.].{._.~.U.n.T.pXdXgXgXgXgXgXgXgXgXgXgXgXgXgXgX",
"gXgXgXgXgXgXgXgXgXgXgXgXgXgXyX/ x &.d.y.) a.V.C.~.Q.w.~ h.a.J J 2 ` a.a.XX=XeX%X*X:X=Xl.i.l.l.J J m B G H -.!.Q.I.~.).R.~.'.Q.M.:.5XgXgXgXgXgXgXgXgXgXgXgXgXgXgX",
"gXgXgXgXgXgXgXhXgXgXgXgXhX5X|.U - M ~ S 5 ! a.h.n.m.*.q ) ) h 5 x <.a.u.#X0XeXqXqXqX=XZ.>.3.;.4 h j m N ' ~.OX].Q.U.I.a.g.W.Y.a.~ 2 4XgXgXgXgXgXgXgXgXgXgXgXgXgX",
"gXgXgXgXgXgXgXhXgXgXgXgXpXp.q = 4 4 6 2 & 5 ) $.#.4.*.= 5 5 w q r.Q.g.u.{.0X9X0XqX0X,Xl.y.n.:.2 & z 0.I.~.#X9XoX{.Q.V.V.h.>.>.:.7 7 ( fXgXgXgXgXgXgXgXgXgXgXgXgX",
"gXgXgXgXgXgXhXhXgXgXfXM.:.m.c = ; - C r.& ; j ; = _ *.& & : j.U.&X*X).h.a.9X{.0XqX#X{.l.7.I.V.:.3 2.V.~.{.#X0X9XXX{.u.a.C.A.U.V.:.:.x <XgXhXhXhXgXgXgXgXgXgXgXgX",
"gXgXgXgXgXgXhXhXgX5Xn.m.C.I.x   & Z S.s.& ; < = ` M.V.j.f.;._.:XqX*X~.h.i.{.{.0X#X{.~.C.V.I.I.V.:.x =.~.{.{.XXoX9XoX].f.j.]._.C.V.V.>. XaXhXhXhXgXgXgXgXgXgXgXgX",
"gXgXgXgXgXgXdXhXH.W 3.U.].'.g.s.s.S.'.~.e.& & ` M.d.h.E.y.~.:X#Xl.F.{.E.m.A.Q.XX{.~.` ` R.).V.6.x ^ k.~.R.~.{.{.~.].{.).k.d.E.'.[.U.M.a.3XgXgXgXgXgXgXgXgXgXgXgX",
"gXgXgXgXgXgXB.( C x 4.A.R.].%X=X+X'.`.R.C.5.5.A.Q.p.d._.Y.u.j.u.l.).{.).d.C K S.Q.` ` f._.{.~.>.> =.A.~.~.n.d.Q.I.].~.'.).k.p.E.Q.C.p.G W <XgXgXgXgXgXgXgXgXgXgX",
"gXgXgXgXgXgXP.U = 3 G y.y.R.#X*XoX'.E.m.p.I.~.].!.p.g.=X_.a.g.k.`.{.{.].Z._ ; K W ` f.XX*X{.{.l.! ^ w.^.[.R.a.p.I.!.U.U.!.U.a.p.y.p.A 2 = x.gXgXgXgXgXgXgXgXgXgX",
"gXgXgXgXgXgXgXK.U = 7 G :.p.R.~.).Q.m.a.a.!.#X].m.f.).6X[.I.a.).{.#XoX{.].F.W 6 Z f.XX:X:X].~.{.d.^ 2.^.{.].R.g.a.a.a.a.j.I.n.p.s.y.^ ` q.L.gXgXgXgXgXgXgXgXgXgX",
"gXgXgXgXgXgXgX<X} - < 4 J %.a.h.n.n.a.p.U.#X;X^.y.V.=X%X~.h.a.).#X:X:X#X{.].Q.W f.A.$XwX*X[.U.{.U.6.h.Q.).].#X].y.7.7.7.p.h.h.a.h.h.M.3XgXgXgXgXgXgXgXgXgXgXgXgX",
"gXgXgXgXgXgXhX..= < 5 j j ! ) %.i.y.:.n.!.6X].I.u./.-X).j.>.[.{.:X0XqX;X{.].{.U.C.7.R.*X].).j._.m.&.7.m.U.'.:X#XQ.R.U.I.h.6.6.6.y.7..XpXgXgXgXgXgXgXgXgXgXgXgXgX",
"gXgXgXgXhXhXhXz.6 ; ; ; ; 5 h K $.H B 6.].].U.y.Y.%X$Xm.j.3._.{.:XqXqX:XXX].].U.m.3.y.Q.~.g.;.j.3.z S p.Q.].XX9XoXXX~.U.I.I.I.R.{.U.6..XfXgXgXgXgXgXgXgXgXgXgXgX",
"gXgXgXgXhXhXhXhXx.& &   ; ; = - ; ; m 3.I.I.>.W.{.!.h.;.3.I.I._.:XqXqXqX6XC.I.I.6.x V y.g.#.m ;.:.q S p.I.I.U.{.9XeXeX*X~.Q.{.{.{.{.U.7.(.gXgXgXgXgXgXgXgXgXgXgX",
"gXgXgXgXgXgXgXgXiX5XkX2X  % - ; = - 5 M >.>.j.I.U.h.y.h.>.I.I.U.].;X;X*X&X4.I.3.x ^ b b #.5 % m 7 = S p.I.h.6.U.{.XX6X9X9X-X{.{.XXU.A.C.a.(.hXhXgXgXgXgXgXgXgXgX",
"gXgXgXgXgXgXgXgXgXgXgXaX|.w % % = = = & x f.7.n.a.>.y.j.3.I.I.I.U.~.Q.Q.I.:.3.x ^ 7.,.A 7 5 % j % <.j.V.I.I.h.6.U.].oX#X#XXX].R.].].U.I.M.h.2.I Y aXgXgXgXgXgXgX",
"gXgXgXgXgXgXgXgXgXgXgXgXrXK.c & % q ~ <.<.H B %.a.j.I.j.:.7.7.7.j.I.h.y.:.x B & ~ h.M.5.V 3 S - % r.~._.).~.n.:.I.R.!._.{.{.'.U.!.Q.U.C.I.a.J < , ( uXgXgXgXgXgX",
"gXgXgXgXgXgXgXgXgXgXdXrXqXrX<./ 0.e.Z.E.M.G D i.R.].~.h.;.b F $.7.p.%.F x & = V 4.U.U.n.5.^ p.A _ S.].OX#X].~.k.a.m.I.~._.~.Q.V.p.p.m.C.h.&.M ; 2 x.uXgXgXgXgXgX",
"gXgXgXgXgXgXgXgXgXdXrX7X/./.j.'.oX[.).E.a.g.I.+X*X#X_.Y.3.v 4 D K H B 4 , C W 4.n._.!.C.n.p.C.p.R.].#X*X#X{.{.].>.n.I.Q.~.U.I.V.p.y.a.a.&.B ; % w aXhXhXgXgXgXgX",
"gXgXgXgXgXgXgXgXdXsX8X Xu.u.].:X$XR.g.h.n.#X:X:X9X:XXX~.m.6.v 4 h j < = q y.Q.C.R.'.~.C.I.C.C.Q.].{.;X:XoX{.{.].i.h.V.I.Q.~.I.I.I.h.8.~ B 1 ; 2 } hXgXhXgXgXgXgX",
"gXgXgXgXhXgXhXdXrX7X Xu.{.{.>X#X!.a.6.h.0X9XoX].-X0X$XI.I.I.>.x 5 < : 2 U U.[.Q.].{.~.I.I.I.R.'.{.oX:XqX:XoX{.{.R.y.a.n.m.I.I.I.j.$.3 - - - 2 } gXgXgXgXgXgXgXgX",
"gXgXgXgXhXhXhXrX9X Xu.{.{.{.{.{.g.y.!.oX9X{.].R.%X*X).I.I.m.>.:.v > A p.R.].U.XX{.].~.V.C.U.].I.].6X0X0XqX:X{.{.{.U.7.;.7.C.m.j.%.6 ; = & = } gXgXgXgXgXgXgXgXgX",
"gXgXgXgXgXgXrXeX^.d.{.{.{.{.{.!.p.f.{.{.{.{.U.C.~.{.{._.m.>.m.I.m.m.I.Q.{.XX0X0XOXQ.C.a.7.I.I.I.].:X,X;XqX:X{.{.{.U.7.B D :.:.$.j ; ; ; = ..dXgXgXgXgXgXgXgXgXgX",
"gXgXgXgXgXgXrXeX/.a.{.{.{.{.R.u.p.C.U.U.R.{.].a.Y.{.{._.m.:.I.).].].%X6X9X9XqXqX#XE.U.a.7.I.I.I.].XXXX{.XX,X>XU.R.I.7.B 7 m m 7 < % % % & 1.gXgXgXgXgXgXgXgXgXgX",
"gXgXgXgXgXgXdX/.h.n.!.].R.{.R.~ ~ 4.p.I.I.R.R.7.Z.).R.U.m.:.~.{.-X:X7X6X+X/.#XOX;X+XQ.=.V y.U._.{.{.{.).).{.oXC.I.I.6.v - 5 j ; ; & c.P.(.1XgXgXgXgXgXgXgXgXgXgX",
"gXgXgXgXgXgXgXx.~ a.U.R.y.U.U.C q B G y.y.C.p.a.I.U.j.y.y.h.].{.'. X X/.~._.{.{.OXoX~.s.&.6.I.!.].~.].~.!.].R.I.I.I.6.v = < < % =   2XgXgXgXgXgXgXgXgXgXgXgXgXgX",
"gXgXgXgXhXhXH.U z ) p.y.H g.' e - ; z F H u.J >.a.p.-.V A p.g.E.j.a.j.I.U.~.~.~.].).U.U.y.^ a.I.!.U.Q.Q.U.!.I.I.I.a.) 7 = = % > z.z.5XhXhXhXgXgXgXgXgXgXgXgXgXgX",
"gXgXgXgXdXsX/ - 5 m A G F i.A 3 - ; < 5 m D 6 B G S v - , S G y.#.J -.a.h.I.I.!.].).~.U.w.v ^ a.V.h.M.C.n.h.C.I.h.>.x - % c | q.gXgXhXhXgXhXgXgXgXgXgXgXgXgXgXgX",
"gXgXgXgXrXqXr.z < < = 6 ! ! ! x % % - - < % ; ; ; = & % ; & = A z < B J $.h.I./.'.].].!.h.8.* ! a.&.4.j.4.&.h.h.8.~ z N Y x.gXgXgXgXgXgXgXgXgXgXgXgXgXgXgXgXgXgX",
"gXgXgXhXhXeXqXr.w & ; ; ; ; % % ; - % % % ; ; : & = = w 7 w     & = 4 j m ;.j.I.U.).~.C.h.~ & ; ! z A #.D m $.~ ; - 3 x.5X5XuXgXgXgXgXgXgXgXgXgXgXgXgXgXgXgXgXgX",
"gXgXgXgXdXeXqXqXx.> &   ; > > & = ; ; - & ; & Q N & c  . .| 0 @ , = ; 5 ; 6 :.j._.{.~.C.h._ ; & ; % = ; ; ; ; ; ; & R o.@.9.b.gXgXgXgXgXgXgXgXgXgXgXgXgXgXgXgXgX",
"gXgXgXgXrXqXqXqX9X6X^.  %  X6X/ % % - % & % Q  .| | |  . . .0 $ i O = - - j 6 ;.n.'.~.C.h.~ > o.w   & = ; ; ; % % [ X.@.X.G.fXgXgXgXgXgXgXgXgXgXgXgXgXgXgXgXgXgX",
"gXgXgXgXrXqXqXqXqXqX6X+X+X0XB.| [ I q [ ( ( |  . . . ...@.o.0 @ i u + % % < ; #.n.I.I.h.#.7 > o.] ] [ N % % > ] ] o.@.@.H.uXgXgXgXgXgXgXgXgXgXgXgXgXgXgXgXgXgXgX",
"gXgXgXgXeXqXqXqXqXqXqX0XeXqXx...@.{ [ @.9.1. . . . .X.X.{ I t @ i y u 0 = % ; x &.n.I.a.! ; : e { X.X.] [ Y [ @.X.X.L.1XuXgXgXgXgXgXgXgXgXgXgXgXgXgXgXgXgXgXgXgX",
"gXgXgXgXsXqXqXqX0XeXqXwXD.D.q.....X.X.X.X.X.X. . ...] I n 0 o $ i y y y d d - % x -.y.$.x < ; & I { @.@.@.@.@.@.o.@.b.J.J.J.J.H.J.fXgXgXgXgXgXgXgXgXgXgXgXgXgXgX",
"gXgXgXgXdXrXrXrXrXsXyXF..... . .....X.X.X.X.X... . .U X # $ o @ i a @ y s l #   = M H M ; = ; % 9 [ @.@.{ @.@.@.@.@.@.@.@.@.@.@.@.L.L.uXgXgXgXgXgXgXgXgXgXgXgXgX",
"gXgXgXgXgXdXdXgXgXiXL... . . . . . . ...X.X.@... . .Y O o $ o @ i y @ y g l s + & - < 1 - & =   0 ] @.@.@.@.@.@.@.@.@.@.@.@.@.@.@.X.X.2XhXhXgXgXhXhXgXgXgXgXgXgX",
"gXgXgXgXgXdXdXdXhX1Xc.c..... . . . .....X.X.X.X.....Y 9 X o u @ y u @ y g l p u . = ; ; = X . o X T [ @.@.@.@.{ o.@.@.o.@.@.H.@X3X3X|.5XdXdXdXdXhXgXgXgXgXgXgXgX",
"gXgXgXgXdXrXqXqXrXdXgXiXv.v.z.1. . . . . . . ...X.o.T o @ u i @ o $ @ y s l u @ . = ; - X a $ @ . * d E @.@.@.@.@.o.@.@.@.J.eX0XqXqXqXqXeXeX0XeXrXdXhXgXgXgXgXgX",
"gXgXgXgXgXsXqXqXqXrXgXgXgXhXhXG. . ..... . . . . .T o @ @ $   &   + @ y s p @ @ @ X & . X   & & d d R @.@.{ @.@.X.X.@.@.@.J.eXeXqXqXqXqXqXeXrXeXeXdXhXhXgXgXgXgX",
"gXgXgXgXgXgXrXeXqXqXeXeXeXeXeX9X6X^...o. . . . . .I & & & & 9 d d 8 X y s p @ .   + $ $ 8 d d O.o.o.{ @.@.@.@.@.X.@.X.X.X.9.|.eXqXqXqXqXeXdXhXhXdXdXgXgXgXgXgXgX",
"gXgXgXgXgXgXdXeXqXqXeX0X0XeXqXeX}.z.@.X.X. .|  .1.} Q Y d 9 d R I O X y i u . 9 9 O + @ $ d O.X.@.@.@.@.@.@.@.{ X.X.@.@.X.X.z.H.}.eXqXeXeXhXhXhXgXgXgXgXgXgXgXgX",
"gXgXgXgXgXgXgXdXeXqXqXqXqXqXqX}.r.....X.@.X...K. XN. .| R +.+.o.] I O o y @ 9 d d 9 O X . 0 X.X.@.@.@.@.@.@.@.@.@.@.@.@.@.@.v.2X1XpX0XqXeXdXgXgXgXgXgXgXgXgXgXgX",
"gXgXgXgXgXgXgXgXsXqXqXqXqXrXsXB.......X.@.P.|.yX.Xx. .1.1.1.P.|.x.[ c . o + d E R R n 0 r Y @.@.o.@.o.@.c.L.L.@.o.@.J.P.L.2X<XsX0XeXqXqXqXeXdXdXsXsXdXdXdXdXgXgX",
"gXgXgXgXgXgXgXgXdXsXrXeXrXgXgX2XJ.K.D.D.K.sXrX<Xx.1.1.q.J.L.aXdX|.x.Q N I I E o.X.b.b.v.c.J.J.@.@.9.@.@.c.<XfXJ.K.<XtX0XeXsXhXhXrXeXqXqXqXqXqXeXqXqXqXqXeXsXgXgX",
"gXgXgXgXgXgXgXgXgXgXgXgXgXgXgXdXsXrXeX0XeX0XqXK.N.N.N.L.hXhXdXtXqX}.N.N.N.B.G.G.G.kXgXgXgXgXaXG.G.G.G.G.4X0XeXeXeXeX0XeXdXhXhXgXgXsXeXqXqXqXqXqXqXqXqXqXqXrXgXgX",
"gXgXgXgXgXgXgXgXgXgXgXgXgXgXgXgXgXgXdXsXeXqXqXqX0XeXsXgXhXhXeX0XqXqXqXqXqXeXgXgXgXgXgXdXdXdXgXgXgXgXgXdX0XqX0X0XeX0XqXeXdXhXgXgXgXdXeXqXqXqXqXqXqXqXeXqXeXsXgXgX",
"gXgXgXgXgXgXgXgXgXgXgXgXgXgXgXgXgXgXgXgXdXdXdXsXrXsXhXgXhXdXrXeXeXeXqXqXeXeXgXgXdXgXdXsXqXeXdXgXgXgXgXfXqXqXeX0XeXeXqXqXsXdXgXgXgXgXdXsXdXdXdXsXsXsXrXrXsXdXgXgX",
"gXgXgXgXgXgXgXgXgXgXgXgXgXgXgXgXgXgXgXgXgXgXgXgXhXgXgXgXgXhXhXhXhXdXdXdXdXgXgXgXgXdXgXdXdXdXgXgXgXgXgXgXdXtXeXrXsXdXdXdXdXhXhXhXgXgXgXgXhXhXhXgXgXgXgXgXgXgXgXgX",
"gXgXgXgXgXgXgXgXgXgXgXgXgXgXgXgXgXgXgXgXgXgXgXgXgXgXgXgXgXhXhXhXgXhXhXgXgXgXgXgXgXgXgXgXgXgXgXgXgXgXgXgXhXhXgXgXhXhXhXhXhXhXhXhXgXgXgXgXhXhXhXhXgXgXgXgXgXgXgXgX"
};
