/* XPM */
static char *_e5b107531ca4f83c0f35a5d8c78356akHELgTvzBvEEcgCk[] = {
/* columns rows colors chars-per-pixel */
"80 80 244 2 ",
"   c #030203",
".  c #070608",
"X  c #09070A",
"o  c #0B0A0C",
"O  c #0A0806",
"+  c #130D0B",
"@  c #1B0E0B",
"#  c #150709",
"$  c #0E0C11",
"%  c #110E14",
"&  c #1C0C12",
"*  c #131214",
"=  c #161419",
"-  c #19161D",
";  c #1B1C1D",
":  c #1A1516",
">  c #11110C",
",  c #23120D",
"<  c #28140E",
"1  c #241611",
"2  c #271915",
"3  c #351B15",
"4  c #3B1C15",
"5  c #331C16",
"6  c #340308",
"7  c #34231D",
"8  c #1D1A23",
"9  c #1B1720",
"0  c #211D26",
"q  c #2B1C23",
"w  c #391624",
"e  c #1F2122",
"r  c #232425",
"t  c #2A2C2D",
"y  c #272527",
"u  c #392926",
"i  c #3C312B",
"p  c #2E3132",
"a  c #323334",
"s  c #3A3C3B",
"d  c #363738",
"f  c #2D312A",
"g  c #123218",
"h  c #411F17",
"j  c #580C0E",
"k  c #462119",
"l  c #4C251C",
"z  c #4A291F",
"x  c #50261C",
"c  c #4D0F28",
"v  c #651331",
"b  c #452B28",
"n  c #483735",
"m  c #543734",
"M  c #512E2F",
"N  c #64362A",
"B  c #6D0E0E",
"V  c #2C4B31",
"C  c #306338",
"Z  c #69493A",
"A  c #794738",
"S  c #4F4E3C",
"D  c #3E3F45",
"F  c #543A44",
"G  c #6D2D47",
"H  c #3E4244",
"J  c #3D5146",
"K  c #4A4B4B",
"L  c #444546",
"P  c #594946",
"I  c #4D5252",
"U  c #4F5259",
"Y  c #56595A",
"T  c #4D4B52",
"R  c #664A55",
"E  c #6E4F50",
"W  c #595C63",
"Q  c #795665",
"!  c #5C6262",
"~  c #5D6768",
"^  c #676867",
"/  c #6A7474",
"(  c #6A7477",
")  c #727675",
"_  c #747A7A",
"`  c #6E6B71",
"'  c #7A665A",
"]  c #9C0101",
"[  c #B42A33",
"{  c #874B3B",
"}  c #FA5905",
"|  c #F55D17",
" . c #F86506",
".. c #F77708",
"X. c #F67616",
"o. c #F36915",
"O. c #F27B3A",
"+. c #F66C24",
"@. c #BD1C5C",
"#. c #8F3056",
"$. c #A52759",
"%. c #B3396B",
"&. c #C92868",
"*. c #C9346F",
"=. c #CD3872",
"-. c #D23A76",
";. c #D23B77",
":. c #C41D5F",
">. c #9B5844",
",. c #8A504B",
"<. c #8E6852",
"1. c #AD6E56",
"2. c #B54D77",
"3. c #92716E",
"4. c #A9756D",
"5. c #BB595F",
"6. c #C67559",
"7. c #CE437A",
"8. c #D6437D",
"9. c #D5457F",
"0. c #D34E63",
"q. c #D37A6E",
"w. c #C95A5A",
"e. c #D12332",
"r. c #708170",
"t. c #4B9557",
"y. c #F88708",
"u. c #F7960A",
"i. c #F48118",
"p. c #F4A30D",
"a. c #F7AA0B",
"s. c #F7B60B",
"d. c #F4B813",
"f. c #F5A415",
"g. c #F48E2D",
"h. c #F6A922",
"j. c #F8C80B",
"k. c #F9D80C",
"l. c #F8CD13",
"z. c #FCF409",
"x. c #FAEA0A",
"c. c #FBEC2F",
"v. c #B58A73",
"b. c #ED8851",
"n. c #CF8D70",
"m. c #EB976C",
"M. c #ECAB73",
"N. c #F4A057",
"B. c #F7DD7E",
"V. c #7C7F8B",
"C. c #747782",
"Z. c #98758A",
"A. c #D44B82",
"S. c #D94882",
"D. c #D65689",
"F. c #D75E91",
"G. c #E1578E",
"H. c #D86794",
"J. c #DE739D",
"K. c #C36A8F",
"L. c #E46C9C",
"P. c #E0759F",
"I. c #E675A2",
"U. c #E57AA4",
"Y. c #E77FA8",
"T. c #7C8887",
"R. c #7F8295",
"E. c #848D8C",
"W. c #88898A",
"Q. c #878897",
"!. c #879495",
"~. c #939D9B",
"^. c #969899",
"/. c #8F8F95",
"(. c #BB898E",
"). c #8FA59C",
"_. c #9799A6",
"`. c #B897B2",
"'. c #9BA6A4",
"]. c #97A6A6",
"[. c #9DA9B1",
"{. c #A2A9A7",
"}. c #A8B7B7",
"|. c #B5BBBA",
" X c #ABABB3",
".X c #CAA492",
"XX c #D4A490",
"oX c #E8AB87",
"OX c #F1A981",
"+X c #EBB799",
"@X c #F3B799",
"#X c #F2B38C",
"$X c #CE91AA",
"%X c #E784AB",
"&X c #E58AAE",
"*X c #E380A7",
"=X c #E899B9",
"-X c #ED91AE",
";X c #C2A3BC",
":X c #EAA1BE",
">X c #EDBBA4",
",X c #E69C92",
"<X c #B5C0BD",
"1X c #ECC6AC",
"2X c #FAC2A6",
"3X c #F0CDB8",
"4X c #B4B8C9",
"5X c #B3B6C6",
"6X c #AEB1C2",
"7X c #C7B1C6",
"8X c #EDB1C9",
"9X c #B8C7C5",
"0X c #BBCDCF",
"qX c #C6CECC",
"wX c #C5D2CF",
"eX c #CED1DC",
"rX c #CCDCDB",
"tX c #C7D5D3",
"yX c #D6D7DB",
"uX c #CACAD8",
"iX c #ECD9C7",
"pX c #EAC7D7",
"aX c #F5CCDD",
"sX c #F0D4CD",
"dX c #D3E1DE",
"fX c #CAE2DD",
"gX c #ECE7DA",
"hX c #F0E5D4",
"jX c #DBDCE7",
"kX c #F7DAE6",
"lX c #E7D4E0",
"zX c #D7E9E7",
"xX c #DFFBFD",
"cX c #D9F3F3",
"vX c #CFE7E7",
"bX c #E6E8EC",
"nX c #E8E9E7",
"mX c #E5FDFC",
"MX c #ECFEFC",
"NX c #E6F5F5",
"BX c #F1FFFB",
"VX c #FDFCFC",
"CX c #FAF7F8",
"ZX c #F2E9EB",
/* pixels */
"BXBXBXBXBXBXBXBXBXBXBXBXBXBXBXBXBXBXBXBXMXBXBXBXMXBXMXBXBXBXMXBXBXBXBXBXMXBXBXBXBXBXBXBXBXBXBXBXBXBXBXMXBXBXMXBXMXBXMXMXBXMXBXMXMXBXBXBXBXMXBXBXBXBXBXBXBXBXBXBX",
"BXBXBXBXBXBXBXBXVXBXBXBXBXBXBXMXBXBXMXBXBXMXMXBXBXMXMXMXMXMXBXMXBXMXBXMXBXBXBXBXBXBXMXBXBXBXBXBXMXBXMXBXMXMXMXMXMXMXMXMXMXMXMXBXBXMXMXBXBXBXMXBXBXBXBXBXBXCXBXBX",
"BXBXBXBXBXBXBXBXBXBXBXBXBXBXBXMXBXMXMXMXMXMXMXMXMXMXMXMXMXMXBXMXMXMXBXBXBXMXBXMXBXBXBXBXBXBXBXBXMXBXBXMXMXMXMXMXMXMXMXMXMXMXMXMXMXBXMXMXMXBXBXBXBXBXBXBXBXBXBXBX",
"BXVXBXBXVXBXBXBXBXBXBXBXBXBXBXMXMXBXMXMXMXMXMXMXMXMXMXMXMXMXMXMXMXMXMXMXMXBXMXBXBXMXBXBXBXMXBXMXMXBXMXMXMXMXMXMXMXMXMXMXMXMXMXMXMXMXMXMXBXMXMXBXBXBXBXBXBXBXBXBX",
"BXBXBXBXBXBXBXBXBXBXBXBXMXMXBXMXMXMXMXMXMXMXMXMXMXMXMXMXmXMXMXMXMXMXMXMXMXBXMXBXMXBXBXBXBXMXMXMXBXMXMXMXMXmXMXmXmXMXmXMXmXmXMXmXMXMXMXMXMXBXMXBXMXBXBXBXBXBXBXBX",
"BXBXBXBXBXBXBXBXBXBXBXMXBXMXMXMXMXMXMXmXmXMXmXMXmXMXMXmXMXNXmXMXmXMXmXMXMXMXMXMXMXMXMXMXBXMXMXMXMXMXMXMXmXMXMXmXmXmXMXmXmXMXmXMXmXMXmXMXMXMXMXMXBXBXMXBXBXBXBXBX",
"BXBXBXBXBXBXBXBXMXBXBXBXMXMXMXMXMXMXMXMXMXmXmXmXMXMXmXMXmXmXMXmXMXmXMXMXMXMXMXMXMXMXMXMXMXMXMXMXMXMXMXMXMXMXmXMXMXmXmXMXmXMXmXMXmXMXmXMXMXMXMXBXMXMXBXBXBXBXBXBX",
"BXBXVXBXBXBXBXBXBXBXMXBXMXMXMXMXMXmXmXmXMXmXMXmXmXmXmXmXmXmXmXmXmX}.*                 '.MXMXMXMXMXMXmXmXmXmXmXmXmXmXmXmXmXmXmXmXmXMXmXMXMXMXMXMXMXBXBXBXBXBXBXBX",
"BXBXBXBXBXBXBXBXMXBXBXMXMXMXMXmXmXMXmXmXMXmXmXmXmXmXmXmXmXmXmXmX[.~ f e : = = = = * = Y _ _ 9XMXMXmXmXMXmXmXmXmXmXmXmXmXmXmXmXmXmXmXmXmXmXbXMXMXMXMXMXBXBXBXBXBX",
"BXBXBXBXBXBXMXBXBXMXMXMXMXMXmXMXMXmXmXmXmXmXmXmXmXmXmXmXmXmXzX0XK * L d t p a a a a a = . X ) tXbXNXMXmXmXmXmXmXmXmXmXmXMXmXmXmXmXhXO.M.b.b.M.iX>XMXBXMXMXBXBXBX",
"BXBXBXBXBXBXMXBXMXMXMXMXMXMXMXmXMXmXmXmXmXmXmXMXmXmXMXmXmXmX[.f o o t t a L L L L K K f r r y L $XyXmXmXmXmXmXmXmXmXmXmXmXmXmX>XOXb.g.h.h.h.g.b.+.m.MXBXBXBXBXBX",
"BXBXBXBXBXBXBXBXMXMXMXMXmXmXMXmXmXmXmXmXmXmXmXmXmXMXmXmXcX).U = > * t d L K s r y y y ; r d ; y (.8XlXNXmXMXmXmXMXmXmXmXmXmX2X| y.y.d.p.j.p.u...u.X.O.gXMXBXBXBX",
"BXBXBXBXBXBXBXBXMXMXMXMXMXMXmXmXmXmXmXmXmXmXmXMXmXmXmXmXvXH + t 8 ; r H K H r           * d r u $X=X8XbXmXmXmXmXmXmXmXmXmX3X+...y. .p...s.p.a.} ..u...OXMXBXBXBX",
"BXBXBXBXMXBXMXMXMXMXmXmXmXmXmXmXmXmXMXmXmXmXmXmXmXmXmXmXvXJ * t t e : a H =           X > o y R K.Y.8XjXmXmXmXmXmXmXmXmXmXO...u. .y.z.p.k.x.p. .} ..y.M.BXBXBXBX",
"BXBXBXBXMXBXMXBXMXMXmXMXMXmXmXmXmXmXmXMXmXmXmXmXmXmXmXmXvXH * t r : * r p O   O k N N 1 .   = d G Q Q wXmXmXmXmXmXmXmXmXMX#Xy...} u.x.p.k.d. .l.k...u.O.gXBXBXBX",
"CXBXBXBXBXBXBXMXMXMXMXMXmXmXMXmXmXmXmXmXmXmXmXmXmXmXmXzX}.d % t ; * $ ; e O O 5 >.6.6.Z 1   O = p 8 = }.mXmXmXmXmXmXmXmX3X| u...j. .y...y.} y.k.j.u.a.f.iXBXBXBX",
"BXBXBXBXBXBXMXMXMXMXmXMXmXmXmXMXmXmXmXmXmXmXmXmXmXmXmX~.e * ; t ; > * O O O z >.m.OXM.M.<.> O > D y = }.mXmXmXmXmXmXmXmX1X..s.y.l.x.y.} } }  .s.p.p.s.f.oXBXBXBX",
"BXBXBXBXBXBXBXMXMXMXMXmXmXmXmXmXmXmXmXMXmXmXmXmXmXmXmXT.. = ; * * * * . O x <.m.OX@X>X2XoX<.i > e * ; }.mXmXxXmXmXxXmXmXiXX.s.p.k.j.k. .} }  .k.z.p.u.a.#XBXMXBX",
"BXBXBXBXBXMXMXMXMXMXMXmXmXmXmXmXmXmXmXmXmXmXMXmXmXmXmXT.  e ;   . * * O < { 6.n.n.n.XX1X2X#XE O   * H 9XmXmXmXmXmXmXmXxXbXg.a.y.p.y.s.} } } } } j.j.d.u.b.BXBXBX",
"BXBXBXBXBXBXBXMXMXMXmXMXMXmXmXmXmXmXmXmXmXmXmXmXmXmXmXT.  e ;   . * > o < >.A 1 : ; e v.2X#XA O   ! fXcXmXxXmXmXxXmXxXmXiXo.u.s.j.x.k. .u.a.u.u. ... ...1XBXBXBX",
"BXBXBXBXBXBXMXMXMXMXmXmXmXmXmXmXmXMXmXmXmXmXMXmXmXvXT.L : ; *   P <.Z 5 < { A o K R v G 3.#X' O   / xXmXmXmXmXxXmXxXmXmXxX+XX...} p...u.x.p.y.z.y. .y.y.iXMXMXBX",
"BXBXBXBXBXMXBXMXMXMXMXmXmXMXmXmXmXmXmXmXmXmXmXmXfX].t = r = .   3.oXn.N 2 >.A 7 ^.$X&.N S (.S > f !.mXmXmXxXxXmXxXmXmXmXmXnXO.u.y.}  .k.j.l.d.a.} y.y.+.MXMXBXBX",
"BXBXBXBXBXMXMXMXMXmXMXMXMXmXmXmXmXmXmXmXmXmXmXmXT.; r e * * X   A n.>XE 7 n.q.1.iX8XG.5.A 7 O f }.cXxXmXmXxXmXxXxXnX#X1X,Xm.}  .y.u. .u...p.u.u.y.u.| gXMXBXBXBX",
"BXBXBXBXBXBXBXBXMXMXMXmXMXmXmXmXmXmXmXmXmX]./ / H ; ; = > o     4 ,.n.Z 4 1.n.m.3XsX-X,Xn.3.i f 0XmXmXxXxXmXxXmXmXgX+.| N.c.2Xg.} y...p.s.j.s.u.O. .1XmXBXMXBXBX",
"BXBXBXBXBXBXMXMXMXMXMXMXmXmXmXmXmXNXtX9X9XL     = e * o X       $ u { M 2 { 1.n.XX.X.X.X.X.XY V 0XmXxXmXmXxXxXmXxXxXgXO.+.c.c.l.X.O.m.} i. .i.| 3XnXMXMXMXBXBXBX",
"BXBXBXBXBXBXBXMXMXMXMXMXMXMXmXMXmXzX^ y ; * $ > * *             X % 1 : : b m m m n f f f f C t.fXmXmXxXxXmXxXxXmXxXmXmXb.o.j.k.X.iXmX1X1X1XnXiXMXMXMXMXBXMXBXMX",
"BXBXBXBXBXBXMXBXMXMXMXMXmXmXzXE.) ` y O     . . . . o .         . . . . X & 1 1 : * o o O O g V ~ / / / / ( ( / ( ( T.rX7X6. .u.i.iXxXmXmXmXmXmXmXMXMXMXMXBXBXBX",
"BXBXBXBXBXBXBXMXMXMXMXMXMXdX'.n < @ O               > o                     X $ . . . $ O O . . . .   o $ $ O = u i K /.Q.[.@X| | iXxXxXxXmXmXmXmXMXMXMXMXBXBXMX",
"BXBXBXBXBXBXMXBXMXMXMXMXMXW.u k 4 @ > > > .     O * > $ o $ o o o o o o o o = 8 8 8 8 8 8 8 8 9 * o $ ; 8 8 * n .XoXv.a U xXxXsX+.+XmXxXxXmXmXmXMXMXMXMXMXBXBXBX",
"BXCXBXBXBXBXBXBXMXMXMXyXv.S k x l 4 4 < . . o o > o o O . o $ $ $ o $ X .   $ = 8 8 0 9 9 8 8 8 * $ = 8 8 r * n >X2X#X1.' ( / xXnXxXxXxXxXmXmXmXmXMXMXMXMXBXBXBX",
"BXBXBXBXBXBXBXBXBXBXrX/.8 5 k k k k k <   o * o o o       $ % % % $ X       . $ = 8 8 % % 8 8 8 $ * 8 8 9 9 o m >X>X+X#X<.o . xXxXxXxXmXmXmXmXMXMXMXMXMXMXBXBXBX",
"BXBXBXBXBXBXBXBXMXMX) u k 5 , , , , O O > $ o           $ ; 8 8 8 9       . X $ $ $ $ $ $ $ 9 8 % $ $ $ $ * O n oXn.q.M.<.O . xXxXxXxXxXxXmXmXmXmXMXMXMXBXBXMXBX",
"BXBXBXBXBXBXBXBXBXMX' < l 3 , 4 h 4 3 1 * X           o 9 8 8 = = $ . b G & . . X . . . . o % = $ $ o o o $ . : Z 1.n.{ ) E.T.xXxXxXmXxXmXmXmXMXMXmXMXMXMXBXBXBX",
"BXBXBXBXBXMXBXBXMXMX^ < x 4 < l l h h 5 o           X = 0 0 - o X % q #.2.G 0 $ i V s d t $ . . . X o o o * .   o Z 4.T !.xXxXxXxXxXxXmXxXmXmXmXMXMXMXBXBXBXBXBX",
"BXBXBXBXBXBXBXMXBXMX^ < x 3 < k h @ O           . o o = 8 0 - $ . w 2.=.*.J.Q ; {.zXdXdX].=           . o o       > V 9XcXxXxXxXxXxXxXxXmXmXmXmXMXMXMXBXBXBXBXBX",
"BXBXBXBXBXBXBXMX9X) m 4 3 4 4 < # # $ * * .     X $ = 9 = = $   g P =.D.K.Q ) ~.dXBXBXMXdX~.!.!.!.!.R.!.U         I ].vXxXxXxXxXmXxXmXmXmXmXMXMXMXMXBXMXBXBXBXBX",
"BXBXBXBXMXBXBXMX{.@ k k , 4 h #     : 8 9 o . . X $ 9 = o $ X   C r.#.3.3.0 ) BXBXMXBXMXMXMXMXmXmXmXmXjXR.e * * d ].xXxXxXxXxXmXxXmXmXmXmXMXMXMXMXMXBXMXBXBXBXBX",
"BXBXBXBXBXBXMXBX{.@ h k , 4 l < #   - = . X X o o $ $ $ $ o X   ) ).t.V = X ) MXMXBXMXBXMXMXMXmXmXmXxXuXR.6XI H 0XcXxXxXxXxXxXxXxXmXmXmXMXMXNXMXMXMXMXBXBXBXBXBX",
"BXBXBXBXBXMXBXBXrX^.Z < 4 4 < # o = * $ X % - - - = $ X X X 6 j 3.6X).J r _ 9XBXBXMXBXMXMXMXMXMXmXmXmXmX0XxX}.[.xXxXxXxXxXmXmXxXmXmXmXmXmXMXMXMXMXBXMXBXBXBXBXBX",
"BXBXBXBXBXBXMXMXBXMX^ < k 3 @   o = $ o % 9 8 9 9 - $ $ X   6 ] (.4X/.W T {.rXBXBXMXBXMXMXMXMXMXmXmXmXmXmXmXxXxXxXxXxXmXxXxXmXmXmXmXMXmXMXMXMXMXBXBXBXBXBXBXBXBX",
"BXBXBXBXMXMXMXMXMXMX^ @ , , @       o % 0 8 8 $ $ $ X $ X . 6 ] .X4Xt ` /.d T.BXMXBXMXBXMXMXBXMXMXmXMXmXmXmXmXmXxXmXmXmXxXmXmXmXmXmXMXmXMXMXMXBXBXBXBXBXBXBXBXBX",
"BXBXBXBXBXMXBXMXMXMX|.~.~.K O % X     o = = = 9 % $ $ X $ U ` K.q.w.B M W E.9XBXBXBXBXMXBXMXMXMXMXMXmXmXmXmXmXmXmXmXmXmXmXmXmXmXMXmXMXMXMXMXMXBXBXBXBXBXBXBXBXBX",
"BXBXBXMXBXMXMXMXMXmXmXmXmX(   % % X X $ % $ $ 9 % $ X & b Z.`.;X0.e.[ c a wXBXMXMXBXBXBXMXBXBXMXMXMXMXmXMXmXmXmXmXmXmXmXmXmXmXMXMXMXMXMXMXMXBXBXBXBXBXBXBXBXBXBX",
"BXBXBXBXMXMXMXMXMXmXMXmXMX/     % 8 0 8 8 = o $ $ X . F D.*.-.F.=.=.&XE a wXMXBXBXBXBXMXBXBXMXBXMXMXMXMXMXmXmXmXmXmXmXmXMXmXmXMXMXMXMXMXMXBXMXBXBXBXBXBXBXBXBXBX",
"BXBXBXMXMXMXMXMXmXmXmXwX( t . % 8 8 8 8 0 8 9 9 % - G %.-.;.A.=.D.*X;XR d tXBXBXBXBXBXMXBXBXBXMXMXMXMXMXMXNXMXNXMXmXMXmXMXmXMXMXMXMXMXMXMXMXMXBXBXBXBXBXBXBXBXBX",
"BXBXBXBXBXMXMXMXvX}.}.T.% . $ 8 8 9 8 9 9 9 9 9 q v 7.;.*.8.A.=.U.$X7X` I '.rXMXBXBXBXBXBXBXMXBXMXBXMXMXMXMXMXMXMXMXmXMXmXMXMXMXMXMXMXBXBXBXBXBXBXBXBXBXBXBXVXBX",
"MXBXBXMXMXMXMXMX].$ $ $ o 9 8 8 9 $ $ $ $ $ X   G D.&.;.G.&.A.=XU.P.:X;X/.p C.BXMXBXBXBXBXBXBXBXMXMXMXBXMXMXMXMXMXMXMXMXMXMXMXMXMXMXMXBXMXBXBXBXBXBXBXBXBXBXBXBX",
"BXBXBXMXMX}.! Y H . . o = = = % % $ $ o   . w G %.-.S.;.;.F.J.U.%XU.D.`._.t _ MXBXBXBXBXBXBXMXBXBXBXBXMXMXMXMXMXMXMXMXmXMXMXMXMXBXMXMXMXMXBXBXBXBXBXBXBXBXBXBXBX",
"MXBXMXMXMXW.      $ % = 8 = $ o o $ X # w w G 7.-.*.S.S.A.P.&XI.U.H.*.K.Z.T / <XbXBXBXBXBXBXBXBXBXMXBXMXMXMXMXMXMXMXMXMXmXMXmXMXMXMXMXMXBXMXBXBXBXBXBXBXBXBXBXBX",
"BXBXBXBXMXE.  . $ o 9 8 0 9 $ $ $ X   c @.-.S.&.;.G.&.D.=XI.U.:XA.*.G.;.=.`.^ y <XMXBXBXBXBXBXBXBXMXBXMXMXMXMXMXMXMXMXMXMXMXMXMXMXMXMXBXMXBXMXBXMXBXBXBXBXBXBXBX",
"BXMXMXMXMXwXE.t X 9 = % % $ X .   # c $.;.;.-.8.;.;.F.P.U.%XP.A.S.8.-.;.F.6X` 0 |.MXBXBXBXBXBXMXBXBXBXMXMXMXMXmXMXmXMXmXMXMXMXmXMXMXMXMXMXMXBXMXBXMXBXMXBXBXBXBX",
"BXBXMXBXMXMXcX/ d = % $ $ $ o   # c $.-.S.-.-.S.A.D.Y.%XU.&XP.7.A.S.;.8.F.;XW.Y ~.wXBXBXBXBXBXBXBXMXBXMXMXMXMXMXMXMXMXMXmXmXMXMXMXmXMXMXMXMXMXMXMXMXBXBXBXBXBXBX",
"BXMXMXBXMXMXmXNX!.  . $ $ $ X   v @.S.S.:.S.S.&.F.=XL.Y.=XU.U.=XA.;.=XD.=.&XpXjXI ^ BXBXBXBXBXBXMXMXMXMXMXMXMXMXMXMXmXMXMXMXMXmXMXMXmXMXMXMXMXMXMXBXBXMXBXBXBXBX",
"BXBXBXMXMXMXMXmXrX~.D . .   # v $.S.-.-.S.=X:XD.A.D.Y.%XU.%X%XI.J.J.P.J.J.U.8XnXL ! BXBXBXBXBXMXBXBXMXMXMXMXMXmXmXmXMXmXmXmXMXmXmXMXMXmXMXmXMXMXMXMXMXBXMXBXBXBX",
"BXBXMXMXMXMXMXMXmXmXT.d . 8 F 2.H.&XH.L.-XkXkX=XJ.H.&XY.U.&X%XL.%X&XU.%X&XY.=XpX` ^ }.dXBXMXMXBXMXMXMXMXMXmXMXMXmXmXmXMXmXMXmXmXmXmXmXmXmXmXMXMXMXMXBXMXMXMXBXMX",
"MXBXMXBXMXMXMXmXmXmXxX[.= W 6X6XeXVXVXCXCXCXVXVXCXkXY.Y.=XI.U.8XU.I.=XY.L.=X%XL.`._ > {.BXBXBXBXMXMXMXMXmXMXmXmXMXmXmXmXmXmXmXmXmXMXmXMXmXmXMXmXmXMXMXMXBXBXBXBX",
"BXMXBXMXMXMXmXMXMXmX!.~ ( _.4X4X0XuXeXeXeXeXeXeXuXeXpXaXkXaXaXkXaX8XY.Y.&XY.Y.=XlX/.o '.BXMXMXMXMXMXMXmXMXMXmXMXmXmXmXmXmXmXmXmXmXmXmXMXmXmXmXmXMXmXMXMXMXMXMXBX",
"BXBXBXBXMXMXMXMXMXmXY e C.V.V.V.V.V.V.Q._.Q.V.V.V._.yXcXbXbXNXVXVXkX=X-X&XY.Y.=XpX/.X '.BXBXBXMXMXMXMXMXmXmXmXmXmXmXmXmXmXmXMXmXmXMXmXmXmXMXmXMXmXMXMXMXBXMXBXBX",
"BXBXMXMXMXMXMXMXmXmXY .       .   . . y Q y     . y _.4X4X4XeXVXVXVXVX8XI.=XY.L.7XC.X '.BXBXMXMXMXMXMXmXmXmXmXmXmXmXmXMXmXmXmXmXmXmXmXmXmXmXmXmXMXmXmXMXMXMXMXBX",
"BXMXBXBXMXMXMXMXMXMX9X( * 8 F n u , , 1 2 ( '.].].Q.U H F L _ eXeXzXVXkXaXkXkX8X7XC.X '.MXMXMXBXMXmXMXmXmXMXmXmXmXmXmXmXmXmXmXmXmXMXmXmXmXmXMXmXmXMXMXMXMXMXMXCX",
"BXBXBXMXMXMXMXMXMXMX0XT.; i P R n 1 1 u I }.mXmXmXrX/ K T I ! V.C._.jXbXbXbXbXbX0XC.X '.BXBXMXMXMXmXMXmXmXMXmXmXmXmXmXmXmXMXmXmXmXmXmXmXmXmXmXmXmXMXmXMXMXMXMXMX",
"BXBXBXBXBXMXMXMXMXMX! > 5 5 b R i   X W mXmXmXMXmXmXNXxXNXmX~.    D  X4X4X4X4X4X5XC.X '.MXMXMXMXMXMXMXmXmXmXmXmXmXmXmXmXmXmXmXmXMXmXmXmXmXmXmXmXMXmXMXMXMXMXBXMX",
"BXBXBXMXMXBXBXMX9XU T F F b 5 y Y ].].9XmXmXmXmXMXmXmXMXMXMXrX'.].E.K D D D D D L ^ {.rXBXMXMXMXMXMXmXmXmXmXmXmXMXmXmXmXmXmXmXmXmXmXmXmXMXmXmXMXmXMXmXMXMXBXMXMX",
"BXBXBXBXBXBXNX<X/ O b P R n 7 K ].mXMXmXMXmXMXmXmXMXmXMXMXMXBXMXmXqXW y X & q 9 O W BXBXBXMXMXMXmXMXmXMXMXmXmXmXmXmXmXMXmXmXmXmXmXmXmXmXmXmXmXmXmXmXmXMXMXMXMXBX",
"BXBXBXBXBXBXzXK O O 1 i R u a 0XMXmXMXmXmXMXmXMXmXMXMXMXMXMXMXBXMXBXMX) : P R R ; ! BXBXMXBXMXMXMXMXmXMXmXmXmXmXmXmXmXmXmXmXmXmXmXMXmXmXmXmXmXmXmXmXMXMXMXMXMXBX",
"BXBXBXBXBX}.I ; > 1 5 7 y ` |.zXMXMXMXMXMXMXMXMXMXMXMXMXMXBXMXBXBXBXBX) + u b b * ! BXBXBXMXMXMXMXMXmXMXmXmXMXmXMXmXmXMXmXmXmXmXmXmXMXmXmXmXmXMXMXmXMXMXMXMXMXBX",
"BXBXBXBXBXE.+ a i 1 < f I }.MXMXMXMXMXMXMXMXMXMXMXMXMXMXMXBXBXBXMXBXBX) + @ 2 , + ! BXBXMXBXMXMXMXmXMXmXmXMXmXmXmXmXmXmXMXmXmXmXmXmXmXmXmXmXmXmXmXMXmXMXMXMXMXBX",
"BXBXBXBXBXE.; W._ . . K zXBXMXMXMXMXMXMXMXMXBXMXMXMXMXBXMXMXBXBXBXBXBX) X X O X O ! BXMXBXMXMXMXMXMXmXMXmXmXmXmXmXmXmXmXmXmXmXmXmXmXmXmXmXmXmXMXMXmXMXMXMXBXBXMX",
"BXBXBXI I p : W.|. Xn L zX{.) dXMXMXBXMXMXMXMXMXMXBXBXMXBXBXBXBXBXBXBX) e ^ ^.^.a r Y <XqX^ }.MXMXMXMXmXMXmXmXmXmXmXmXmXmXmXmXmXmXmXmXmXMXmXMXmXMXMXMXMXMXBXMXBX",
"BXBXBX. O   * ! {.nXW.` _.r.^ ^.wXMXMXBXBXBXBXMXBXMXBXBXBXBXBXBXBXBXBX) f '.yXnX_ K Y W.^.^ T.|.cXMXMXMXmXMXMXmXmXmXmXMXmXmXmXmXmXmXMXmXmXmXmXMXmXMXMXMXMXMXBXBX",
"BXBXBXO O O O O K |.gX|.: W.qXa / BXMXMXMXMXBXBXBXBXMXBXBXBXBXBXBXBXBX_ f ^.yXCXqXyXCX! K gX) a qXMXmXMXMXmXmXmXMXmXmXmXMXmXMXmXmXMXmXmXmXmXMXMXMXMXMXMXBXMXBXMX",
"BXBXBX{.}.! X O ; L K H + a L = ) BXBXBXBXBXBXBXMXBXBXBXBXBXBXBXBXBXVXwX^.I K Y K K Y r 2 I t a wXMXMXMXMXMXMXMXmXmXMXMXmXmXmXmXMXmXMXmXMXMXmXMXMXMXMXMXBXBXBXBX",
"BXBXVXBXBXW.O O O O X X O O O X ) BXBXBXBXBXBXBXBXBXBXBXBXBXBXBXBXVXBXBXqXa O O . O X O X O O a wXMXMXMXMXMXMXMXMXmXMXmXMXmXmXmXmXmXmXMXMXmXMXMXMXMXBXBXBXBXBXBX",
"BXBXBXBXBXBXBXBXBXBXBXBXBXBXBXBXBXBXBXBXBXBXBXBXBXBXBXBXBXBXBXCXBXBXBXBXBXBXBXBXBXBXBXBXBXMXBXBXMXBXBXMXMXMXMXMXmXMXMXmXmXmXMXMXMXmXmXMXMXMXMXMXBXMXBXMXBXBXBXBX",
"BXBXVXBXBXBXBXBXBXBXBXBXBXBXBXBXBXBXBXBXBXBXBXBXBXBXBXBXBXBXBXBXBXBXBXBXBXBXBXBXBXBXBXBXBXBXBXBXBXMXMXMXMXMXMXMXMXMXMXMXMXMXMXMXMXMXMXMXMXMXMXMXMXBXMXBXBXBXBXBX",
"BXBXBXBXBXBXBXBXBXBXBXBXBXBXBXBXBXBXBXBXBXBXBXBXBXBXBXBXVXBXBXBXBXBXBXBXBXBXVXBXBXBXBXBXBXBXBXBXBXBXBXBXMXBXMXMXMXMXMXMXMXMXMXMXMXMXMXBXMXMXBXBXBXMXBXBXBXBXBXBX",
"BXBXBXBXBXBXBXVXBXBXBXBXBXBXBXBXBXVXBXBXBXBXBXCXBXBXBXVXBXBXBXBXBXBXBXBXBXBXBXBXBXBXBXBXBXBXBXBXBXBXBXBXMXBXMXBXMXMXMXMXMXBXMXMXMXMXMXMXBXBXBXMXBXBXBXBXBXBXBXBX",
"BXBXBXBXBXVXBXBXBXBXBXVXBXBXBXBXBXBXBXBXBXBXBXBXBXBXBXBXBXBXBXBXBXBXBXVXBXBXBXVXBXBXVXBXBXBXBXBXBXBXBXMXBXBXMXBXBXMXMXBXBXMXMXBXBXMXBXMXBXMXMXBXBXMXBXBXBXBXBXBX",
"BXBXBXBXBXBXBXBXBXVXBXBXBXBXBXBXBXBXBXBXBXBXVXBXBXBXBXBXBXBXBXBXBXBXBXVXBXBXBXBXBXBXBXBXBXBXBXBXBXBXBXBXMXBXBXBXBXBXMXMXMXBXMXMXBXBXMXBXBXBXBXBXBXBXBXBXBXBXBXBX",
"VXBXBXBXBXBXBXBXBXBXBXBXBXBXVXBXBXBXBXBXBXBXBXBXBXBXBXBXBXCXBXBXBXBXBXBXBXBXBXBXBXBXBXBXBXBXBXVXBXBXBXBXBXBXBXMXBXMXBXBXBXBXBXBXBXMXBXBXMXBXBXBXBXBXBXBXBXBXBXBX"
};
