/* XPM */
static char *_d340b0f8eac4dab84ce287fad6c4e93HiPj6JuuIwecTt2q[] = {
/* columns rows colors chars-per-pixel */
"80 80 242 2 ",
"   c #030203",
".  c #070608",
"X  c #09070A",
"o  c #0B0A0C",
"O  c #0A0806",
"+  c #130D0B",
"@  c #1B0E0B",
"#  c #150709",
"$  c #0E0C11",
"%  c #110E14",
"&  c #1C0C12",
"*  c #131214",
"=  c #161419",
"-  c #19161D",
";  c #1B1C1D",
":  c #1A1516",
">  c #11110C",
",  c #23120D",
"<  c #28140E",
"1  c #241611",
"2  c #271915",
"3  c #351B15",
"4  c #3B1C15",
"5  c #331C16",
"6  c #340308",
"7  c #34231D",
"8  c #1D1A23",
"9  c #1B1720",
"0  c #211D26",
"q  c #2B1C23",
"w  c #391624",
"e  c #1F2122",
"r  c #232425",
"t  c #2A2C2D",
"y  c #272527",
"u  c #392926",
"i  c #3C312B",
"p  c #323434",
"a  c #3A3C3C",
"s  c #363638",
"d  c #2D312B",
"f  c #123218",
"g  c #411F17",
"h  c #580C0E",
"j  c #462119",
"k  c #4C251C",
"l  c #4A291F",
"z  c #50261C",
"x  c #4D0F28",
"c  c #651331",
"v  c #452B28",
"b  c #483736",
"n  c #543734",
"m  c #512E2F",
"M  c #64362A",
"N  c #6D0E0E",
"B  c #2C4B31",
"V  c #306338",
"C  c #69493A",
"Z  c #794738",
"A  c #4F4E3C",
"S  c #3E3F45",
"D  c #543A44",
"F  c #6D2D47",
"G  c #3E4244",
"H  c #3D5146",
"J  c #494B4B",
"K  c #444546",
"L  c #594946",
"P  c #4D5252",
"I  c #4F5259",
"U  c #56595A",
"Y  c #4D4B52",
"T  c #664A55",
"R  c #6E4F50",
"E  c #595C63",
"W  c #795665",
"Q  c #5C6362",
"!  c #5D6768",
"~  c #666867",
"^  c #6B7474",
"/  c #6A7376",
"(  c #727675",
")  c #747A7A",
"_  c #6F6B71",
"`  c #7A665A",
"'  c #9C0101",
"]  c #B42A33",
"[  c #874B3B",
"{  c #FA5905",
"}  c #F55D17",
"|  c #F86506",
" . c #F77708",
".. c #F67616",
"X. c #F36915",
"o. c #F27B3A",
"O. c #F66C24",
"+. c #BD1C5C",
"@. c #8F3056",
"#. c #A52759",
"$. c #B3396B",
"%. c #C92868",
"&. c #C9346F",
"*. c #CD3872",
"=. c #D23A76",
"-. c #D23B77",
";. c #C41D5F",
":. c #9B5844",
">. c #8A504B",
",. c #8E6852",
"<. c #AD6E56",
"1. c #B54D77",
"2. c #92716E",
"3. c #A9756D",
"4. c #BB595F",
"5. c #C67559",
"6. c #CE437A",
"7. c #D6437D",
"8. c #D5457F",
"9. c #D34E63",
"0. c #D37A6E",
"q. c #C95A5A",
"w. c #D12332",
"e. c #718270",
"r. c #4B9557",
"t. c #F88708",
"y. c #F7960A",
"u. c #F48118",
"i. c #F4A30D",
"p. c #F7AA0B",
"a. c #F7B60B",
"s. c #F4B813",
"d. c #F5A415",
"f. c #F48E2D",
"g. c #F6A922",
"h. c #F8C80B",
"j. c #F9D80C",
"k. c #F8CD13",
"l. c #FCF409",
"z. c #FAEA0A",
"x. c #FBEC2F",
"c. c #B58A73",
"v. c #ED8851",
"b. c #CF8D70",
"n. c #EB976C",
"m. c #ECAB73",
"M. c #F4A057",
"N. c #F7DD7E",
"B. c #7C7F8B",
"V. c #747782",
"C. c #98758A",
"Z. c #D44B82",
"A. c #D94882",
"S. c #D65689",
"D. c #D75E91",
"F. c #E1578E",
"G. c #D86794",
"H. c #DE739D",
"J. c #C36A8F",
"K. c #E46C9C",
"L. c #E0759F",
"P. c #E675A2",
"I. c #E57AA4",
"U. c #E77FA8",
"Y. c #7C8786",
"T. c #7F8295",
"R. c #868B8B",
"E. c #878897",
"W. c #899495",
"Q. c #929D9C",
"!. c #979999",
"~. c #8B8F93",
"^. c #BB898E",
"/. c #8CA79B",
"(. c #9799A6",
"). c #B897B2",
"_. c #9CA6A4",
"`. c #98A6A6",
"'. c #9DA1B0",
"]. c #A3AAA8",
"[. c #A9BAB9",
"{. c #A8B5B5",
"}. c #B5BAB9",
"|. c #ACA9B5",
" X c #CAA492",
".X c #D4A490",
"XX c #E9AB87",
"oX c #F1A981",
"OX c #EBB799",
"+X c #F3B799",
"@X c #F2B38C",
"#X c #CE91AA",
"$X c #E784AB",
"%X c #E58AAE",
"&X c #E380A7",
"*X c #E899B9",
"=X c #ED91AE",
"-X c #C2A3BC",
";X c #EAA1BE",
":X c #EDBBA4",
">X c #E69C92",
",X c #B7C0BD",
"<X c #EDC6AC",
"1X c #FAC2A6",
"2X c #F0CDB8",
"3X c #B4B8C9",
"4X c #B3B6C6",
"5X c #AEB1C2",
"6X c #C7B1C6",
"7X c #ECB1C9",
"8X c #B7C7C6",
"9X c #BCCDCF",
"0X c #C8CECD",
"qX c #C6D2CF",
"wX c #CED1DC",
"eX c #CBDDDD",
"rX c #C8D6D4",
"tX c #D6D7DB",
"yX c #CACAD8",
"uX c #ECD9C7",
"iX c #EAC7D7",
"pX c #F5CCDD",
"aX c #F0D4CD",
"sX c #D0E3DD",
"dX c #EDE7DA",
"fX c #F0E5D4",
"gX c #D6DDE5",
"hX c #F7DAE6",
"jX c #E7D4E0",
"kX c #CDE5E5",
"lX c #D2E6E5",
"zX c #D9EAE8",
"xX c #DDF6F7",
"cX c #E6E9EC",
"vX c #E8E8E8",
"bX c #E6FDFC",
"nX c #ECFEFC",
"mX c #E6F5F5",
"MX c #F1FFFB",
"NX c #FDFCFC",
"BX c #FAF7F8",
"VX c #EFECEA",
/* pixels */
"MXMXMXMXMXMXMXNXMXMXMXMXMXMXMXMXMXnXMXMXMXnXMXnXMXnXMXMXnXnXnXnXMXMXnXMXMXMXMXMXMXMXMXMXMXMXMXMXMXMXnXMXMXnXMXMXnXnXnXnXnXnXMXnXMXMXnXMXMXMXMXMXMXMXMXMXMXMXMXNX",
"MXMXMXMXMXMXMXMXMXMXMXMXMXMXMXMXMXMXMXnXnXMXnXMXnXMXnXnXnXnXnXBXnXMXMXMXMXMXnXMXMXMXMXMXMXMXMXnXMXMXMXnXnXnXnXnXnXMXnXnXnXMXnXMXnXMXMXnXnXMXMXMXMXMXMXMXMXMXMXMX",
"MXMXMXMXMXMXMXMXMXMXMXMXMXMXMXMXMXnXMXnXMXnXnXnXnXnXnXnXnXnXnXnXnXMXnXMXnXMXMXMXnXMXMXMXMXMXMXMXMXMXnXMXnXnXnXnXnXnXnXnXnXnXnXnXnXnXnXnXMXMXMXnXMXMXMXMXMXMXMXMX",
"MXMXMXMXMXMXMXMXMXMXMXMXnXMXMXnXMXnXnXnXnXnXnXnXnXnXnXnXnXnXnXnXnXnXnXnXMXnXMXnXMXMXnXMXnXMXnXMXMXnXnXnXnXnXnXnXnXnXnXnXnXnXnXnXnXnXnXnXnXnXMXMXnXMXMXMXMXMXMXMX",
"MXMXMXMXMXMXMXMXMXMXMXMXMXnXMXnXnXnXnXnXbXnXnXnXbXnXbXnXnXnXnXnXnXnXnXnXnXnXMXnXnXMXnXMXMXMXnXnXMXnXnXnXbXnXnXbXnXnXnXbXbXbXbXnXnXnXnXnXMXnXMXnXMXMXMXMXMXMXMXMX",
"MXMXMXMXNXMXMXMXMXMXMXnXnXMXnXnXnXnXnXnXnXnXbXnXbXnXnXnXbXbXbXnXbXnXnXbXnXnXMXnXnXnXMXnXnXnXnXnXnXnXnXnXnXbXnXbXbXbXbXnXnXbXnXbXnXbXbXnXnXnXnXnXnXMXMXMXMXMXMXMX",
"MXMXMXMXMXMXMXMXnXMXMXMXnXnXnXnXnXnXnXbXbXnXnXbXbXnXnXbXnXnXbXnXnXbXnXnXnXnXnXnXnXnXnXnXnXMXnXnXnXnXnXnXnXbXnXnXbXbXbXbXnXbXbXnXnXnXnXnXnXnXnXnXnXMXMXMXMXMXMXMX",
"NXMXMXMXMXMXMXMXMXMXnXMXnXnXnXnXbXnXbXbXbXbXbXbXbXnXbXbXbXbXbXbXnXbXbXnXnXQ.                : {.bXnXbXbXbXbXbXbXnXbXbXbXbXbXbXbXbXbXbXbXnXnXnXnXMXnXnXMXnXMXMXMX",
"MXMXMXMXMXMXMXMXnXMXnXvXnXnXnXbXnXbXbXbXnXbXnXbXbXbXbXbXbXbXbXbXbXbX8X) e.E = = = = = * = e t ! `.bXnXbXbXbXnXbXbXbXbXbXbXbXbXbXbXnXbXnXnXbXnXnXnXMXMXMXMXMXMXMX",
"MXMXMXMXMXMXMXMX:XuXn.v.v.m.v.dXnXnXbXbXbXbXbXbXbXbXnXbXbXbXbXbXzXwX/ . . - p p p p p p t a K * P 9XzXbXbXbXbXbXbXbXbXbXnXbXbXbXbXbXbXbXbXnXnXbXnXnXnXnXMXnXMXMX",
"MXMXMXMXMXMXNXn.O.f.f.g.g.g.f.v.m.:XnXnXbXbXbXbXbXbXbXbXbXbXxXjX).D r r r p J K K J K G p t t $ $ y ].bXbXbXbXbXbXbXbXbXbXbXbXbXbXbXbXbXbXnXbXnXnXnXnXMXMXMXMXMX",
"MXMXMXMXMXdXo.X.y.t.y.d.s.i.h. .t.} <XnXbXbXbXbXbXbXbXbXbXmXjX7X^.r ; S 2 ; r r y y a J G p t * $ ; I Q.xXbXbXbXbXbXbXbXbXnXbXbXbXbXbXbXbXnXnXnXnXnXMXnXMXnXMXMX",
"NXMXMXMXMXXX .y. .{ i.i.a. .i.| y. .X.2XbXnXbXbXbXbXbXbXbXcX7X*X^.i y a *           r G J a y ; ; t $ G lXbXbXbXbXbXbXbXbXbXbXbXbXbXbXbXbXnXbXnXnXnXnXnXnXMXMXMX",
"MXMXMXMXnXm.t. .| | i.l.j.i.z.t.| y.| o.bXbXbXbXbXbXbXbXbXvX7XI.J.T y o o O           : G p * r t t * G kXbXbXbXbXbXbXbXbXbXbXbXbXbXbXbXbXbXbXbXnXnXnXnXMXMXMXMX",
"MXMXMXMXvXf.y. .j.j.| s.j.i.z.y.{ | y.@XbXbXbXbXbXbXnXbXbXqXW W F S =   . 1 M M j O   o i y * ; r t > G kXbXbXbXbXbXbXbXbXbXbXbXbXbXbXbXbXbXnXnXnXnXnXMXnXMXMXMX",
"MXMXMXMXuXd.i.y.h.h.t.{ t. .t.| h.t.y.} uXbXbXbXbXbXbXbXbX[.: ; p - X   1 C 5.5.:.7 O . ; ; $ * 8 t * B [.kXbXbXbXxXbXxXbXbXbXbXbXbXbXbXbXbXbXbXnXnXnXnXMXnXMXMX",
"MXMXMXMX@Xd.a.i.i.a.| { { { t.z.k.t.a...2XbXbXbXbXbXbXnXbX[.= t B > O @ ,.m.@Xm.b.<.z O . o * % 9 t - * e Q.xXbXbXbXxXbXbXxXbXbXxXbXbXbXbXbXbXbXnXnXnXnXMXMXnXMX",
"MXMXMXMX@Xp.y.i.l.j.| { { { j.h.j.i.a...uXxXbXbXbXbXbXbXbX[.= * r > i ,.XX1X1X+Xm.n.:.z O . $ % % = ; = . Y.xXbXbXxXbXbXbXbXbXbXbXbXbXbXbXbXbXbXnXbXnXnXnXMXMXMX",
"MXMXMXMXv.i.s.h.a.| { { { { a.t.d. .p.f.VXbXbXbXbXbXbXbXbX8XB =   O Z +X1X:X Xb.b.b.b.[ 1 . $ $ O   ; e   Y.bXbXbXbXbXbXbXxXxXbXbXbXbXxXbXbXbXbXnXnXnXnXMXMXnXMX",
"MXMXMXMX<X .|  .| y.y.s.y.{ j.z.h.s.y.X.uXbXbXbXbXbXbXbXbXxXgXQ     R +X1Xc.; 1 1 : Z [ 1 . $ $ o   ; e . Y.bXbXbXxXbXxXbXbXbXxXxXbXbXbXbXbXbXbXbXnXnXnXnXMXMXMX",
"MXMXMXMXuX..t.| t.l.t.i.l.y. .p.| t...:XbXbXbXbXbXbXbXbXbXbXbX^   . R +X2.R c F J O M [ < 5 Z ,.L   * ; ; K Y.kXbXxXbXxXxXbXxXbXxXbXbXbXbXbXbXbXnXnXnXnXnXMXMXMX",
"MXMXMXMXmXO.t.t.{ s.s.k.j.j.{ { t.t.o.dXbXbXbXbXbXbXbXnXbXbXbXW.d % C ^.n c %.#X!.u [ <.2 n b.XX2.  O = e = t /.kXbXxXbXbXxXbXxXbXxXxXbXbXbXbXbXnXbXnXnXnXnXMXMX",
"MXMXMXMXMXdX| t.t.y.y.i.| y.| t.t.{ | M.XX<X@XvXbXbXbXbXbXbXbXzX,Xr > 7 >.4.F.7X0X<.b.b.2 R :Xb.[   O * = e r e Y.xXxXxXxXbXxXxXxXbXxXxXbXbXbXbXbXnXnXnXMXMXnXMX",
"MXMXMXMXMXMX2XX.u.y.p.h.a.i.t. .| f.N.m.M.} O.dXbXbXbXbXbXbXbXbX8Xd i 2.b.XX=XaX1Xn.n.<.5 C b.>.7   . O * = ; ; G / / `.xXxXxXbXbXxXbXbXbXxXbXbXbXnXnXnXnXMXMXMX",
"MXMXMXMXMXMXnXVX2X} u.X.u.| n.o.| j.x.x...o.dXnXbXbXbXbXbXbXbXbX9XV A  X X X X X.Xb.<.>.5 z [ 7 .       O > * e =     K 8X8X9XxXxXbXxXxXbXbXbXbXbXnXnXMXMXMXMXMX",
"MXMXMXMXMXMXMXnXnXuXdX<X<X<XnXfX..j.h.| 0.bXMXnXbXbXbXbXbXbXbXbXkXr.V B d d f b n m n v : : 2 : O             * > $ $ * ; r ! kXxXxXxXbXxXbXbXbXbXmXnXnXnXMXMXMX",
"MXMXMXMXMXnXMXnXnXnXbXnXnXbXnX2X..y.| 5.yXgXR./ ^ ^ / ^ / / / / ! B f O > O > > & : & & X X X X .         . O . . . .       d ^ ( R.kXxXbXbXbXbXnXnXnXnXnXMXMXnX",
"MXMXMXMXMXMXMXMXnXnXnXnXnXbXbXfX} { OX'.E.E.L i i : o $ $ X   . . .   . o > O O X $ X                     O $ .             O @ , b `.eXxXbXxXbXbXbXnXnXnXMXMXMX",
"MXMXMXMXMXMXMXMXnXnXnXnXbXnXbXOXO.aXbXxXI i c.XX Xb $ 8 8 9 $ o % 8 8 8 e 8 8 8 8 8 = o o o o o X o o $ $ $ > > .     . o $ > , 4 k 7 R.xXbXbXbXnXnXnXnXnXMXMXnX",
"MXMXMXMXMXMXMXMXnXnXnXnXnXbXnXbXVXbX^ ^ ` 3.OX1X<Xb % r r 8 9 % % 8 8 8 = ; 8 e 8 = $ . . X $ o o $ o o . . o $ o O . O O 1 3 4 j z j L Y.rXbXbXbXnXnXnXnXMXMXMX",
"MXMXMXMXMXMXMXMXMXnXnXnXnXbXbXbXbXbX. O ,.@XOX:XOXb * ; 8 8 9 * % 8 8 9 % % 8 8 = $ X     . X $ % % % $       . $ > * o . < j j j j j 4 u W.rXbXnXnXnXnXMXMXMXMX",
"MXMXMXMXMXMXMXMXMXnXnXnXbXnXnXbXbXbX. O ,.m.5.n.XXv o $ $ $ $ $ % 8 9 $ $ $ $ $ $ $ X       . 9 8 8 8 9 $           o $ + O O , , , < 4 k u ( bXbXmXMXMXnXMXnXMX",
"MXMXMXMXMXMXnXMXMXnXMXnXnXnXbXbXbXbXW.W.` >.b.<.C : X o $ o o $ $ % $ $ X .   . O o O & F x   $ = * 8 8 9 $ .         O $ 1 5 4 4 4 , 3 z < ~ nXbXnXnXnXnXMXMXMX",
"MXMXMXMXMXMXMXMXMXnXnXbXnXbXnXnXbXbXxXbX/.P <.R X   . $ o o X X o o . $ t a a a d o 0 D Z.@.w : o $ 9 8 0 % . .         o 5 g j z k < 3 z < ~ bXnXnXnXnXMXMXMXMX",
"MXMXMXMXMXMXMXnXnXnXMXnXbXbXbXbXbXbXbXbXxX,XB %       o o .           * _.zXlXzX].; W H.*.*.1.w . $ 9 8 0 - o o             O , g j < 3 z < ` nXmXnXnXMXMXMXMXMX",
"MXMXMXMXMXnXMXnXMXnXnXbXnXbXnXbXbXbXbXxXbXkX`.P       . I W.W.~.W.W.~.Q.sXnXnXnXsXQ.( W J.S.$.A f . $ 9 % - - $ X     . % = + O # < 4 4 4 4 n ^ 8XMXMXMXMXMXMXMX",
"MXMXMXMXMXMXMXMXnXnXnXnXnXbXbXbXbXbXbXbXbXbXbX`.p * * e E.gXbXbXnXnXnXnXMXMXnXMXnXMX( r 2.1.>.e.V   X o o : - $ X .   $ - 8 -     @ g 4 , j g , ].MXMXnXMXMXMXMX",
"MXMXMXMXnXMXnXnXnXnXnXnXbXnXnXbXbXbXbXbXxXbXbXxX9XG P 5XE.yXbXbXnXnXnXnXnXMXMXnXnXMX( o $ B r././   O o $ $ $ o o o o X   : -   O < k 4 , g g @ _.MXnXMXMXMXMXMX",
"MXMXMXMXMXMXMXnXnXnXnXbXbXbXbXnXbXbXxXbXbXbXbXbXxX{.,XxX9XbXbXnXnXnXnXMXnXMXMXnXMXMX8X) e H /.{.C.h # . o o $ - 9 = 9 % X $ % * # @ < g g 3 L !.rXMXMXMXMXMXMXMX",
"MXMXMXMXnXMXnXnXnXbXnXnXnXbXbXbXbXbXbXbXbXbXxXbXxXbXbXxXbXbXbXbXnXnXnXnXnXnXMXMXMXMXeX`.P E W.4XJ.' 6   o $ $ 9 9 9 8 8 $ o $ 9 O   @ < g < ~ MXMXMXMXMXMXMXMXMX",
"MXMXnXMXMXMXnXnXbXnXbXnXbXbXbXbXbXbXbXbXbXbXbXbXbXbXbXbXbXbXbXnXnXnXnXnXnXMXMXnXMXnXe.s E._ t 4X*X' 6 . X $ o $ $ % 9 8 8 % X .     @ , , , ~ MXMXMXMXMXMXMXMXMX",
"MXMXMXMXnXnXnXnXnXnXnXbXbXbXbXbXbXbXbXbXbXxXbXbXbXbXbXbXbXbXnXbXbXnXnXnXnXMXMXMXMXMX8X~.E m N q.0.3._ I $ X $ $ % 9 = = - $   . o $ X J !.!.,XnXMXMXMXMXMXMXMXNX",
"MXMXMXMXMXnXnXnXbXnXnXbXbXbXbXbXbXbXbXbXbXbXbXbXbXbXbXbXbXbXbXnXbXnXnXnXnXMXnXMXMXMXMXqXp k ] w.9.-X).C.v 9 X o % 9 $ $ % $ X X $ :   ^ nXMXnXMXMXMXMXMXMXMXMXMX",
"MXMXMXMXnXnXnXnXnXnXbXbXbXbXbXbXxXbXbXbXbXbXxXbXbXbXbXbXbXbXbXbXnXbXnXnXnXnXMXMXMXMXMXqXp T %X*.*.K.*.&.Z.F . o $ $ $ % 8 8 8 8 $     / MXnXMXMXMXMXMXMXMXMXMXMX",
"MXnXMXnXMXnXnXnXnXbXbXbXbXbXbXbXbXbXbXbXbXbXbXbXbXbXbXbXbXbXbXbXbXnXbXnXnXnXMXnXMXMXMXqXs U 6XH.S.*.7.7.=.$.F : $ - - 9 0 8 0 0 9 $ X t ^ qXMXnXMXMXMXMXMXMXMXMX",
"MXMXMXMXnXnXnXnXnXbXbXnXbXbXbXnXbXbXbXbXbXbXbXbXbXbXbXbXbXbXbXbXnXbXnXnXnXnXMXnXMXMXrX_.Y ( 4X*XK.-.A.A.&.-.1.c q - 9 9 8 9 8 8 8 8 $ . * R.{.{.lXMXMXMXMXMXMXMX",
"MXMXMXnXnXnXnXnXnXbXbXbXbXbXbXbXbXbXbXbXbXbXbXbXbXbXbXbXnXbXbXnXbXnXnXnXnXnXMXMXnXMXY.p (.6X7XI.I.*XZ.%.F.=.%.Z.F X X $ $ $ $ $ 9 0 8 = o > > > _.BXMXMXMXMXMXMX",
"nXMXnXnXnXnXnXnXbXnXbXnXbXbXbXbXbXbXbXbXbXbXbXbXbXbXbXbXbXbXbXbXbXbXbXnXnXnXnXMXMXMX( y (.J.Z.L.$XI.H.D.-.-.7.*.$.@.9 . . o $ $ $ = = = = o O O G Q Q }.MXMXMXMX",
"MXMXnXnXnXbXnXnXbXbXbXbXbXbXbXbXbXbXbXbXbXbXbXbXbXbXnXbXbXbXbXbXbXnXbXnXnXnXnXMXzX3XV.D C.J.*.G.I.H.U.L.Z.Z.A.*.-.Z.F w 6 & X o $ o o = 8 - $ $ . .   T.MXMXMXMX",
"MXMXnXMXnXnXnXbXnXbXnXbXbXbXbXbXbXbXbXbXnXbXbXbXbXbXbXbXbXbXbXnXbXbXbXnXnXnXnXMX8X0 / '.*.=.F.&.Z.7XI.P.*XS.%.A.=.%.Z.6.+.x . o X $ $ = 0 8 9 $ $ .   R.MXMXMXMX",
"MXnXMXnXnXnXnXnXbXbXbXbXbXbXbXbXbXbXbXnXbXbXbXbXbXbXbXbXbXbXbXbXbXnXnXnXnXMXnXnX}.e / ).D.-.&.7.Z.Z.H.%XI.H.G.-.=.A.*.=.7.#.x # . . X $ = % = 9 o t R.qXMXMXMXMX",
"MXMXMXnXnXnXbXbXnXbXbXbXbXnXbXbXbXbXbXbXbXbXbXbXbXbXbXbXbXbXbXnXbXnXbXnXnXnXnXqXQ.U C.-XD.Z.Z.A.Z.-.H.%XI.$X&XZ.A.A.=.=.A.*.#.x # . X $ $ $ % = s ) cXnXnXMXMXMX",
"MXnXnXnXnXnXbXnXnXbXbXbXbXbXbXbXbXbXbXbXbXbXbXbXbXbXbXbXbXbXbXbXbXbXnXnXnXnXMX~ P tXiX%X*.S.%X-.Z.*XP.P.*XU.K.*XG.;.A.A.;.A.A.+.x . . X $ $ X   Q.mXnXMXMXMXMXMX",
"MXMXMXnXnXnXnXnXbXnXbXbXbXbXbXbXbXbXbXbXbXbXbXbXbXbXbXbXbXbXbXbXnXnXbXnXMXMXMXQ J vX7XI.L.P.U.H.H.U.$X$XI.$XU.S.A.F.;X*X7.=.=.A.#.c & .     a `.eXnXMXnXMXnXMXMX",
"nXnXMXMXnXnXnXbXbXbXbXbXbXbXbXnXbXnXnXbXbXbXbXnXbXbXbXbXbXbXbXnXnXbXnXnXnXlX|.~ ~ iX;XU.=XU.P.$X%XH.U.%XP.$X%XG.P.*XhXhX=XK.G.%XG.1.D 9 . p Y.nXnXnXnXnXnXMXMXMX",
"MXMXnXnXnXnXnXnXnXbXbXbXnXbXbXbXbXbXbXbXbXbXbXbXnXbXbXbXbXnXnXbXbXnXnXnXnX_.* ( -XK.$X*XK.U.;XP.I.7XP.P.*X$XU.hXBXNXNXNXNXBXBXNXwX5X5X! * {.bXbXbXnXnXnXnXMXnXMX",
"MXMXnXMXMXnXnXbXbXbXbXbXbXbXbXbXbXbXbXbXbXbXbXbXbXbXbXbXbXbXbXnXnXnXnXnXnX_.X !.jX%XU.U.$XU.U.7XpXhXpXpXhXpXpXwXwXwXwXwXwXwXwXwXyX4X4X(./ E W.bXnXbXnXnXnXnXMXnX",
"nXMXMXnXnXnXnXnXnXbXbXnXbXbXbXbXbXbXbXbXbXnXbXbXbXbXbXbXbXnXbXbXnXnXnXMXMX_.. !.jX*X$XU.%X*X;XhXNXNXmXcXcXcXwXW.B.B.B.E.(.E.B.B.B.B.B.B.V.r U bXbXnXnXnXnXMXnXMX",
"MXMXMXnXnXnXnXbXbXnXbXbXbXbXbXnXbXbXbXbXbXbXbXbXbXbXnXbXnXbXnXnXnXnXnXnXnX_.X V.6XK.U.*XK.7XBXNXNXNXwX3X3X3X(.r .   . q R y   O       . .   U bXnXbXnXnXnXMXMXMX",
"MXMXMXnXMXnXnXnXnXbXbXbXbXbXbXbXbXbXbXnXbXbXbXbXbXnXbXbXbXnXbXnXnXnXMXnXMX_.X V.6X7XhXhXpXhXBXgXwXwXV.G D K P W.(.`.`.^ q 1 , , y D b q $ ) 8XbXbXnXnXnXnXnXnXnX",
"MXMXMXnXnXnXnXnXnXnXbXbXnXnXbXbXbXbXbXbXbXbXbXbXbXbXbXnXbXnXnXnXnXnXnXMXMX_.X V.9XgXcXcXcXcXgX(.Y.B.E P J P ! kXbXnXbX[.P d 1 , b T L u 2 Y.9XbXbXbXnXnXnXnXMXMX",
"MXnXMXMXMXnXnXnXbXnXnXnXbXbXbXbXbXbXbXbXbXbXbXnXbXnXnXbXbXnXnXnXnXnXMXnXMX_.X V.3X3X3X3X3X3X|.s     Q.bXmXbXxXbXbXbXbXbXxXQ .   i T v 5 2 > Q bXnXbXbXnXnXnXnXMX",
"MXMXMXMXnXMXMXnXnXnXnXbXbXnXnXbXnXbXbXbXbXnXbXbXnXbXbXnXnXnXnXnXMXnXMXMXMXsX].~ S S S G S S J Y._._.eXbXbXbXbXbXbXbXbXbXbX8X`.`.E q 5 v L n J U ,XbXnXnXnXnXnXnX",
"MXMXMXMXMXMXnXnXMXnXnXnXnXnXbXnXbXbXnXnXbXbXbXnXbXbXnXnXnXnXnXnXMXMXMXMXMXMXnXU X 2 0 - X y E qXbXbXbXbXnXbXbXbXbXbXbXbXbXbXbXnX`.J u b T L i . ^ 4XxXnXnXnXMXMX",
"MXMXMXMXnXMXnXMXnXnXnXnXnXnXnXnXbXnXbXnXbXnXbXnXbXnXnXnXnXnXnXMXMXMXMXMXMXMXMXU 2 T R Y : ( nXnXnXnXbXnXbXbXbXbXbXnXbXbXbXbXbXbXbX9Xp p T v 1 O O J zXnXnXnXnXMX",
"MXMXMXMXMXMXMXnXnXmXMXnXnXnXnXnXnXnXnXbXnXnXnXnXnXnXnXnXnXMXnXMXMXMXMXMXMXMXMXU > v v v > ( nXnXnXbXbXnXbXbXbXbXbXbXbXbXbXbXbXbXbXzX[.~ y 5 5 1 > ; P {.nXnXnXMX",
"MXMXMXMXMXnXMXMXMXMXMXnXnXnXnXnXnXnXnXnXnXnXnXnXnXnXnXnXMXnXMXMXMXMXMXMXMXMXMXQ o , 2 1 O ( nXnXnXbXnXbXbXbXbXbXnXbXbXbXbXbXbXbXbXbXbX{.P d , 1 s p $ R.nXnXnXMX",
"MXMXMXMXMXMXMXMXMXMXMXMXnXMXnXnXnXnXnXnXnXMXnXnXnXnXnXMXnXMXnXMXMXMXMXMXMXMXMXQ O . . X O ( MXnXnXnXbXnXnXbXnXbXbXbXbXbXnXbXbXbXbXbXbXbXlXJ . o ) R.; R.nXnXMXnX",
"MXMXMXMXMXMXMXMXMXMXnXnXMXnXnXMXnXnXnXnXMXnXnXnXnXMXMXnXMXMXMXMXnXMX{.~ 0X,XU y p _.!._ ; ( nXnXnXnXbXnXbXbXnXbXbXbXbXbXbXbXbXbXbXeX( _.sXK B |.}.R.* d P I nXMX",
"MXMXMXMXMXMXMXMXMXMXMXMXMXMXMXMXMXnXnXMXnXMXMXnXMXnXMXMXMXMXMXMXcX}.R.Q !.R.Q P ( VXtX!.d ( MXnXnXnXnXbXnXbXbXbXbXnXbXbXbXbXbXbX9XQ.~ ) Q._ ~.VX].Q :       MXMX",
"MXMXMXMXMXMXMXMXMXMXMXMXMXnXMXMXMXnXMXnXMXnXMXMXMXnXnXMXMXMXMXMXqXs ( dXJ Q NX0X0XBXtX!.d ( nXMXnXnXnXnXnXbXnXbXbXbXbXbXbXnXbXnX^ t 0XR.* }.vX}.J O . O o o MXMX",
"MXMXMXMXMXMXMXMXMXMXMXMXMXMXMXMXMXMXMXMXMXMXMXMXMXMXMXMXMXMXMXMXqXs d P ; q U J J U J P !.0XnXnXnXnXnXnXnXnXbXnXbXnXbXnXbXbXbXbX^ * J p o K P b ; O O Q {.].nXMX",
"NXMXMXMXMXMXMXMXMXMXMXMXMXMXMXMXMXMXMXMXMXMXMXMXMXMXMXMXMXMXMXMX0Xs O O O o O O O O O p 0XMXMXMXMXnXnXnXnXnXnXnXnXnXbXbXnXbXbXbX( . . . . O O O . O O R.MXMXMXMX",
"MXMXMXMXMXMXMXMXMXMXMXMXMXMXMXMXMXMXMXMXMXMXMXMXMXMXMXMXMXMXMXMXMXMXMXMXMXMXNXMXMXMXMXMXMXMXMXMXnXMXMXnXnXnXnXnXbXnXnXbXbXbXnXnXnXnXnXnXnXnXnXnXnXnXMXnXMXMXMXMX",
"NXMXMXMXNXMXMXMXMXMXNXMXMXMXMXMXMXMXMXMXMXMXMXMXMXMXMXMXMXMXMXMXMXMXMXMXMXMXMXMXMXMXMXMXMXMXMXMXMXnXnXMXnXnXnXnXnXnXnXnXnXnXnXnXnXnXnXnXnXnXnXnXnXMXnXMXMXMXMXMX",
"MXMXMXMXMXMXMXMXMXMXMXMXMXMXMXNXMXMXMXMXMXMXMXMXMXMXMXMXMXMXMXMXMXMXMXMXMXMXMXMXMXMXMXMXMXMXMXMXMXMXMXnXnXMXnXnXnXnXnXnXnXnXnXnXnXnXnXnXnXMXnXMXMXnXMXMXMXMXMXMX",
"MXMXMXMXMXMXMXMXMXMXMXMXMXMXMXMXMXMXMXMXMXMXMXMXMXMXMXMXNXMXMXMXMXMXMXMXMXMXMXMXMXMXMXMXMXMXMXMXMXMXMXMXnXMXnXMXnXnXnXnXMXnXnXnXnXnXMXnXnXMXnXMXMXMXMXMXMXMXMXMX",
"MXMXMXMXMXMXMXMXMXMXMXMXMXNXMXMXNXMXMXMXNXMXMXMXNXMXMXMXMXMXMXMXMXMXNXMXMXMXMXMXMXMXMXMXMXMXMXMXMXMXMXnXMXMXnXMXMXnXnXnXMXnXnXMXnXnXnXnXnXMXMXMXMXnXMXMXMXMXMXMX",
"MXMXMXNXMXMXNXMXMXMXMXMXMXMXMXMXNXMXMXMXMXMXMXMXMXMXMXMXNXMXMXMXMXMXMXMXMXMXNXMXMXMXMXMXMXMXMXMXMXMXMXMXnXMXMXMXMXMXnXMXMXMXnXnXnXMXnXMXMXMXMXnXMXMXMXMXMXMXMXMX",
"MXMXMXMXMXMXMXMXNXMXMXMXMXMXMXMXMXMXMXMXMXMXMXMXMXMXMXMXMXMXMXMXMXMXMXNXMXMXMXMXMXMXMXMXMXMXMXMXMXMXMXMXMXMXMXnXMXnXMXMXnXMXMXMXMXMXMXMXMXMXMXMXMXMXMXMXMXMXMXMX"
};
